<?xml version="1.0" encoding="UTF-8"?>
<svg id="Calque_2" data-name="Calque 2" xmlns="http://www.w3.org/2000/svg" viewBox="0 0 233.26 231.85">
  <defs>
    <style>
      .cls-1 {
        fill: #0f0b0d;
        fill-rule: evenodd;
        stroke-width: 0px;
      }
    </style>
  </defs>
  <g id="OBJECTS">
    <path class="cls-1" d="M102.63.1c.35.14.44.39.78,2.04.15.77.49,2.39.75,3.62.85,4.11,1.04,6.16.72,7.99-.23,1.41-.16,2.61.27,4.39.61,2.44.77,3.47.77,4.66,0,2.29-.4,4.06-1.46,6.48-.93,2.15-1.52,3.83-1.75,5.05-.2,1.07-.76,5.7-1.05,8.54-.09,1.03-.27,2.32-.36,2.88-.15.84-.18,1.65-.13,4.38.05,2.91.09,3.62.36,5.29.28,1.72.33,2.4.41,6.3.09,3.93.12,4.45.33,5.02.51,1.4,1.46,3.16,2.32,4.33,2.25,3.02,4.46,6.49,7.76,12.19,1.31,2.26,6.03,9.45,7.39,11.26.47.61,1.58,2.08,2.49,3.27.9,1.19,2.15,2.94,2.78,3.91.63.96,2.16,3.27,3.38,5.14,3.89,5.86,5.87,8.91,7.62,11.67.93,1.47,2.46,3.84,3.41,5.25,2.85,4.28,3.82,5.98,7.29,12.78,3.22,6.29,5.51,10.47,6.72,12.27,1.35,2.01,3.65,4.27,5.73,5.65.54.35.71.41.84.3.13-.11.32-.11.85.03.37.09,1.98.39,3.59.65,6.94,1.12,10.52,1.86,14.3,2.93,4.89,1.39,10.08,2.17,16.16,2.44,1.54.07,3.62.18,4.61.23,2.78.18,5.3.14,8.18-.12,3.22-.28,4.47-.6,6.62-1.68,2.52-1.27,7.38-5.17,9.08-7.28,1.91-2.39,3.03-3.33,4.52-3.78,1.55-.47,3.02-.16,4.23.88,1.32,1.13,1.46,3.2.47,6.66-.7,2.42-1.46,3.68-3.01,4.96-2.5,2.08-3.19,2.67-4.52,3.97-2.49,2.42-6.8,5.58-9.82,7.18-2.22,1.18-5.56,1.91-9.09,2.02-2.78.08-7.61-.13-9.92-.43-.99-.13-3.09-.29-4.67-.35-1.58-.07-3.49-.2-4.26-.29-1.49-.2-1.89-.28-6.13-1.27-5.03-1.18-6.02-1.32-12.37-1.81-.86-.07-2.01-.23-2.54-.36-1.05-.26-1.95-.29-2.59-.13-.22.07-.63.18-.91.25-.39.1-.49.18-.49.39,0,.64-.97,3.71-2.44,7.73-.34.9-.84,2.29-1.13,3.09-.65,1.76-1.56,3.63-2.79,5.66-1.33,2.23-2.77,4.94-3.48,6.59-.79,1.82-1.04,2.31-2.31,4.55-.56,1-1.09,2.07-1.17,2.38-.14.57-.11,1.34.26,4.51.14,1.33.77,3.59,1.47,5.37.33.81.7,1.96.84,2.57.14.61.43,1.84.65,2.74.51,2.11.67,3.27.68,5.14.01,1.16-.03,1.69-.2,2.22-.56,1.88-1.65,3.15-3.38,3.98-1.46.69-3.68,1.41-6.55,2.12-2.43.61-4.11.86-7.18,1.07-.99.07-2.65.27-3.68.43-3.16.53-6.72.4-11.03-.41-.99-.19-2.18-.41-2.63-.48-1.05-.18-2.02-.65-2.36-1.17-.49-.72-.32-2.38.4-3.8.41-.78,1.59-1.91,2.57-2.43,1.42-.75,1.79-.79,6.05-.9,4.94-.12,4.87-.11,7.82-2.04.49-.33,1.05-.69,1.26-.82.91-.57,1-1.73.26-3.2-.48-.96-2.03-3.47-4.26-6.89-3.1-4.77-4.39-7.5-6.01-12.79-.23-.77-.46-1.47-.48-1.56-.02-.09-.07-.14-.09-.12-.02.02-.57.71-1.23,1.54-.65.82-1.49,1.8-1.86,2.16-.91.91-3.31,2.78-4.46,3.45-.51.3-1.07.74-1.24.95-.44.58-1.2,2.61-2.45,6.54-.62,1.93-1.42,4.34-1.8,5.37-1.02,2.79-.98,2.58-.99,5.84-.01,3.13-.09,3.76-.71,5.17-.41.93-.69,1.27-1.7,2.02-1.58,1.17-2.35,1.48-4.44,1.8-.99.15-2.47.34-3.27.4-.81.07-1.98.21-2.61.32-.81.13-2.08.2-4.19.22-2.67.03-4.96.21-6.1.47-.14.03-1.21.16-2.39.29-5.81.61-9.27,1.07-10.77,1.46-2.71.7-4.18.64-5.96-.23-1.25-.62-1.83-1.46-1.97-2.84-.16-1.49.43-2.7,2.24-4.56.77-.81,1.23-1.17,2.23-1.74.81-.46,1.53-.78,2.02-.89,1.42-.33,5.38-.99,6.63-1.12,4.8-.48,7.04-1.18,9.54-2.99.51-.36,1.86-1.3,2.98-2.07,1.12-.77,2.51-1.75,3.09-2.19,1.7-1.27,2.94-2.94,3.48-4.68.39-1.27.41-1.46.29-2.33-.16-1.24-.9-7.8-1.2-10.83-.89-8.86-.82-15.72.23-23.93.4-3.07.54-3.78,1.41-7.24.93-3.72,1.06-4.62.88-6.34-.19-1.7-.43-2.88-.69-3.2-.1-.14-.57-.69-1.03-1.23-2.24-2.64-6.94-9.06-9.15-12.51-2.23-3.49-5.96-10.43-7.04-13.08-.58-1.42-1.56-4.32-2.65-7.76-1.39-4.39-3.4-8.95-4.91-11.15-.32-.46-1.18-1.53-1.93-2.39-1.82-2.12-2.93-3.62-4.25-5.72-.61-.98-2.18-3.41-3.5-5.42-2.77-4.18-2.95-4.51-3.62-6.08-.27-.64-.9-2.11-1.4-3.27s-1.02-2.37-1.14-2.71c-.28-.74-3.47-5.57-4.86-7.35-.56-.72-1.56-1.86-2.22-2.51-1.21-1.21-1.84-1.7-6.66-5.17-6.63-4.76-8.63-6.72-13.76-13.6-3.48-4.66-4.18-5.77-6.3-9.99-1.68-3.36-1.88-3.62-5.24-6.97-3.03-3.05-3.98-4.13-4.97-5.74-.68-1.11-1.51-1.93-2.37-2.33-.95-.44-3.07-1.23-3.51-1.31-.21-.03-1.1.03-1.96.14-1.98.26-2.94.26-3.57,0-.62-.25-1.17-.85-1.27-1.41-.14-.76.02-2.16.4-3.26.62-1.87.63-1.81-.79-4.01l-.64-.99v-1.05c0-1.63.47-2.45,1.97-3.48.37-.26,1.18-.93,1.81-1.51,1.31-1.23,1.93-1.55,3.41-1.87,1.21-.26,2.32-.22,3.77.09.58.13,1.03.15,1.58.09,1.44-.18,1.9-.13,2.73.26,1.46.69,2.42,1.83,3.61,4.37.79,1.65,1.25,2.25,2.05,2.66.62.32,1.53,1.16,1.91,1.76.19.29.49,1.05.69,1.69.5,1.66.98,3,1.33,3.68.35.68.84,1.19,2.84,2.95,2.1,1.86,3.92,4.17,6.35,8.02,3.65,5.8,6.59,8.98,9.96,10.71.96.49,1.72.44,3.16-.23.64-.3,1.86-.77,2.68-1.04,2.56-.82,3.23-1.2,5-2.89,1.32-1.27,1.69-1.55,2.72-2.1.65-.34,1.27-.68,1.37-.76.15-.11.06-.36-.7-1.87-.75-1.46-1.02-1.87-1.72-2.6-.83-.85-.85-.86-1.81-1.09-1.26-.3-1.4-.39-1.69-1.03-.21-.47-.26-.77-.26-1.94v-1.39s-.47-.21-.47-.21c-3.09-1.4-3.44-1.63-3.44-2.3.01-.97.74-1.96,2.09-2.85,1.16-.76,1.58-.86,2.63-.71,1.06.15,2.04.62,3.85,1.82,2.58,1.73,5.82,5.28,8.3,9.1.32.49.62.9.67.9.06,0,.09-.12.09-.27s.15-.77.35-1.37c.5-1.6.48-2.36-.13-4.33-.55-1.8-.64-1.98-1.21-2.67-.58-.69-1.07-1.72-1.37-2.79-.17-.69-.23-1.23-.22-2.43.01-1.28-.02-1.61-.22-2.04-.33-.72-.32-1.77.03-2.44.4-.75,1.61-1.62,3.1-2.23,1.37-.56,2.56-1.28,3.84-2.36.48-.4,1.13-.93,1.46-1.21.75-.61,2.12-1.33,3.06-1.61.46-.13,1.12-.21,1.91-.21h1.21s-.07-1.32-.07-1.32c-.03-.82,0-1.8.1-2.63.08-.72.16-1.33.16-1.34,0-.09.41-.39.54-.39.09,0,.39.2.67.46.27.25,1.12.88,1.89,1.39.97.65,1.77,1.31,2.63,2.17.67.68,1.25,1.31,1.31,1.39.07.13.62.16,2.75.15h2.67s.5-.36.5-.36c.27-.19.63-.56.79-.82,1.72-2.71,2.75-3.84,4.94-5.38,1.49-1.07,3.66-2.43,4.37-2.74.51-.25.7-.26,1.09-.11h0Z"/>
  </g>
</svg>