<?xml version="1.0" encoding="UTF-8"?>
<svg id="Calque_2" data-name="Calque 2" xmlns="http://www.w3.org/2000/svg" viewBox="0 0 130.52 213.42">
  <defs>
    <style>
      .cls-1 {
        fill: #0f0b0d;
        fill-rule: evenodd;
        stroke-width: 0px;
      }
    </style>
  </defs>
  <g id="OBJECTS">
    <path class="cls-1" d="M124.92.04c.57.17.81.36,1.64,1.35.61.73,1.02,1.09,1.53,1.36,1.48.79,1.77,1.37,1.79,3.62.01,1.37.06,1.77.32,2.68.24.76.32,1.31.32,2.03,0,1.62-.43,2.71-1.79,4.58-.78,1.05-1.02,1.52-1.3,2.62-.18.66-.91,1.76-2.16,3.27-1.49,1.79-2.33,3.01-2.95,4.27-.55,1.1-.55,1.12-.69,2.93-.13,1.76-.16,1.91-.87,3.98-1.12,3.31-1.59,5.87-1.82,10.16-.29,5.28-.47,6.28-2.51,13.86-.33,1.24-1.02,4.04-1.51,6.21-1.85,8.17-3.49,13.73-5.57,18.82-1.71,4.16-4.23,9.27-6.31,12.72-1.53,2.57-2.19,3.91-2.57,5.26-.76,2.66-.9,4.34-1.03,12.67-.05,3.87-.13,7.26-.17,7.53-.05.26-.16,1.06-.25,1.79-.26,1.91-.69,3.76-1.48,6.33-.94,3.06-1.27,3.94-2.63,7.29-1.8,4.41-2.16,5.66-2.63,9.32-.39,3.07-.51,6-.44,10.69.12,6.92.76,12.02,2.41,19.06,1.22,5.2,1.54,7.11,2.14,12.43.44,3.91.72,7.36.91,11.41.07,1.35.2,3.09.3,3.88.16,1.31.2,1.46.49,1.7.53.42,1.19.53,2.34.38.85-.11,1.12-.11,1.77.06.84.22,1.96.75,2.6,1.24,1.37,1.05,2.77,5.33,2.13,6.52-.23.42-.74.79-1.45,1.04-.65.23-2.72.19-3.29-.05-.31-.13-.55-.16-.96-.08-1.02.2-2.56.14-3.17-.12-.69-.3-.87-.3-2.03,0-1.14.29-3.6.37-4.27.14-.66-.24-2.29-2.02-2.98-3.26-.79-1.42-.87-1.79-.78-3.66.1-1.89.08-1.91-1.28-4.16-1.15-1.88-1.67-2.96-2.93-6.09-1.15-2.84-1.27-3.26-2.65-8.96-1.6-6.61-1.68-7.04-1.79-9.2-.19-3.72-.5-5.11-1.95-9.14-.49-1.35-1.28-3.6-1.76-4.99l-.87-2.53-.94,1.34c-2.43,3.43-3.44,5.51-5.25,10.62-2.11,5.99-2.21,6.28-2.98,8.95-1.24,4.35-1.86,5.75-3.43,7.67-.43.53-1.06,1.51-1.41,2.17-.53,1-.65,1.39-.78,2.27-.19,1.39-.1,2.74.3,4.07.17.59.38,1.35.48,1.68l.18.61,1.28.07c.75.05,1.82.2,2.54.38.84.2,1.74.33,2.75.38l1.49.07,1.31-.57c2.41-1.04,3.36-.87,4.58.76.55.73.9,1.05,1.8,1.65,1.92,1.27,2.09,1.49,2.94,4.1.54,1.66.59,2.51.18,3.44-.43.98-1.17,1.53-2.81,2.06-.8.26-1.02.27-5.38.29-3.78.01-4.8.06-6.09.24-1.49.23-1.65.23-4.36.02-1.54-.11-4.23-.25-5.96-.31-1.73-.07-3.26-.14-3.41-.18-.54-.11-4.24-.3-8.14-.42-2.23-.06-5.41-.17-7.05-.24-1.65-.06-4.95-.18-7.35-.24-6.01-.18-9.83-.5-11.88-1.02-.38-.11-1.37-.47-2.21-.82-.82-.35-2.16-.86-2.96-1.12-3.11-1.05-3.92-1.7-5.53-4.39-.55-.92-1.62-2.66-2.39-3.88-2.13-3.36-2.87-4.97-3.57-7.77C.25,190.81.01,188.36,0,184.94c-.01-4.06.35-6.44,1.57-10.57,3.12-10.56,3.44-11.52,4.9-14.36.51-1,1.58-3.2,2.37-4.87,1.65-3.54,3.39-6.99,4.33-8.58.76-1.31,2.14-3.15,4.53-6.08,1.83-2.25,2.81-3.58,4.86-6.64,1.62-2.4,4.13-5.76,5.11-6.82,1.12-1.22,3.49-3.35,4.59-4.12.53-.37,1.91-1.29,3.08-2.04,1.16-.75,2.59-1.78,3.18-2.27,1.54-1.29,4.7-4.23,5.81-5.39,1.33-1.4,4.03-4.84,5.45-6.97,1.57-2.33,2.13-3.5,2.22-4.58.12-1.45-.1-2.28-1.09-4.28-1.47-2.95-1.82-4-3.11-9.28-.87-3.56-1.34-4.72-2.83-7.04-.94-1.47-1.42-2.38-1.85-3.52-1.21-3.21-1.89-8.65-1.61-12.86.13-1.95,1.12-11.64,1.45-14.13.17-1.18.44-2.21.68-2.49.31-.33.9-.24,2.88.5,2.76,1.03,3.05,1.19,5.01,3.03,1.18,1.1,1.34,1.19,1.79,1.03.33-.11.36-.17.56-1.34.56-3.27,1.58-6.17,2.69-7.69.65-.88,1.18-.79,2.26.37.84.93,2.47,3.26,3.03,4.35l.47.91.62-.04c.35-.01,1.18-.11,1.86-.2,1.62-.22,4.36-.22,5.44.01,1.21.25,2.6.99,3.78,1.97.55.48,1.25.98,1.55,1.13.79.39,2.28.85,3.78,1.12,2.05.39,3.99.92,4.34,1.17.32.25.42.41,1.19,2.08.33.73.72,1.29,1.25,1.88,1.02,1.1,1.27,1.78,1.27,3.36,0,.93.06,1.34.31,2.06.23.68.29,1.08.26,1.7-.02.44,0,.8.05.8.24,0,3.5-1.28,4.46-1.73,1.96-.96,3.7-2.6,4.54-4.3.16-.33.5-1.39.76-2.35.53-1.92,1.04-3.27,2.14-5.65.94-2.06,1.11-2.52,2-5.63.42-1.46,1.29-4.12,1.95-5.91,1.19-3.26,1.71-4.9,3.19-10.08,1.45-5.05,2.77-10.78,2.87-12.43.13-2.04.33-2.45,1.43-2.99.72-.36.67-.24.96-2.27.25-1.74.48-2.71.79-3.3.13-.27.85-1.12,1.58-1.9,1.34-1.4,1.54-1.71,2.89-4.23.96-1.79,1.98-2.55,2.8-2.08.29.16.35.14.87-.22.6-.39,2.26-1.05,2.96-1.15.23-.04.56-.02.73.02Z"/>
  </g>
</svg>