<?xml version="1.0" encoding="UTF-8"?>
<svg id="Calque_2" data-name="Calque 2" xmlns="http://www.w3.org/2000/svg" viewBox="0 0 239.59 176.8">
  <defs>
    <style>
      .cls-1 {
        fill: #0f0b0d;
        fill-rule: evenodd;
        stroke-width: 0px;
      }
    </style>
  </defs>
  <g id="OBJECTS">
    <path class="cls-1" d="M16.87.06c1.9.26,5.1,1.84,7.27,3.58,1.44,1.16,4.3,3.96,5.59,5.49,3.8,4.47,6.12,9.1,6.92,13.75.44,2.65.46,5.42.07,8.99-.39,3.41-.34,7,.11,9.05.5,2.31,1.86,5.37,3.66,8.29,2.46,3.95,3.23,4.66,7.11,6.6,1.93.96,2.93,1.58,7.7,4.69,1.62,1.07,3.3,2.14,3.74,2.39.43.26,1.63,1.01,2.66,1.67,2.37,1.51,3.49,2.07,5.03,2.56.75.24,1.35.5,1.53.67.28.26.48.29,3.75.62,7.94.79,11.75.91,14.91.41,5.56-.86,7.37-1.02,10.41-.93,3.53.1,10.01.95,15.9,2.06,5.18.99,12.91,2.13,17.12,2.55,1.3.12,3.42.36,4.71.51,1.28.15,2.98.33,3.8.4.8.07,2.42.22,3.57.34,4.18.43,4.41.42,7.54-.17,2.74-.52,4.1-.51,9.6.11,2.27.25,9.44,1.33,11.32,1.7,3.74.74,9.39.71,16.1-.07,3.24-.37,3.55-.46,7.54-2.21,3.73-1.62,5.43-2.07,7.78-2.09,1.76,0,5.99-.44,7.19-.76,1.38-.35,1.79-.62,4.01-2.8,2.3-2.24,3.66-3.32,5.07-4.05,1.16-.59,1.87-.69,2.26-.33.15.14.31.4.34.57.09.42-.29,2.13-.96,4.26-.71,2.24-.91,3.28-.91,4.75,0,.87.05,1.2.16,1.3.09.07.33.62.51,1.22.41,1.29,1.13,2.63,2.31,4.24.93,1.28,1.7,2.11,3.06,3.3,1.37,1.21,1.73,1.98,2.4,5.19.39,1.81.42,1.92,1.41,3.86,1.12,2.2,1.61,3.39,1.89,4.58.32,1.35.06,2.91-.67,3.99-.31.46-.52.62-1.47,1.09-1.27.62-1.72,1.04-2.69,2.46-1.04,1.53-1.69,1.85-4.09,2.03-.92.07-1.81.1-1.98.07-.18-.03-1.53-.11-2.99-.17-3.98-.16-5.5-.35-8.33-1.03-1.54-.37-2.11-.4-3.2-.16-.98.23-4.15,1.35-4.75,1.69-.65.36-.98,1.03-1.04,2.11-.07,1.18.17,2.27,1.11,5.16,1.01,3.1,1.25,4.31,1.47,7.56.06.92.11,2.15.11,2.74,0,1.32.28,3.31.59,4.13.12.33.7,1.3,1.28,2.17.58.86,1.47,2.24,1.98,3.08,2.07,3.39,3.29,4.86,5.24,6.35,2,1.52,3.2,2.55,4.14,3.55,1.02,1.07,3.16,3.74,4.51,5.62,1.42,1.98,3.96,5.37,4.57,6.12.95,1.15,2.56,2.73,4.16,4.13,2.45,2.12,2.71,2.32,4,3.08,2.68,1.59,3.13,1.9,4.39,3.16,1.3,1.3,1.77,2,2.05,3.05.19.69.19,1.01.03,1.56-.16.6-1.19,1.68-2.02,2.12-1.87.99-4.99,1.83-6.83,1.83-1.25,0-2.97-.27-3.67-.57-2.18-.93-5.56-4.35-8.63-8.75-1.96-2.79-3.39-4.26-8.31-8.58-2.12-1.87-3.97-3.12-6.36-4.32-1.64-.83-2.91-1.6-4.92-2.99-2.24-1.56-3.68-2.79-6.64-5.68-1.28-1.26-2.81-2.65-3.4-3.12-.59-.46-1.53-1.22-2.07-1.68-1.42-1.18-2.59-1.7-6.2-2.73-5.47-1.58-6.92-2.01-8.28-2.45-1.92-.61-3.44-.92-5.59-1.08-2.05-.16-3.42-.03-5.57.5-2.96.75-7.02,3.03-9.05,5.08-1.12,1.15-1.81,2.13-3.23,4.68-1.15,2.05-1.71,3.33-2.07,4.65-.28,1.01-1.79,5.14-2.44,6.63-.23.53-.77,1.66-1.21,2.49-1.42,2.73-2.46,5.78-2.55,7.54-.06.85-.03.93.27,1.37.17.25.87.96,1.56,1.59,3.1,2.78,3.5,3.32,3.5,4.64,0,1.17-.37,1.73-1.43,2.21-1.27.56-4.64.77-6.37.4-.99-.2-3.76-1.3-4.71-1.86-1.56-.93-2.56-1.95-3.19-3.23-.62-1.33-.73-1.93-.73-4.49,0-2.07.03-2.49.32-3.91.17-.87.43-2.38.58-3.34.25-1.64.77-3.63,1.29-4.97.35-.9.56-1.78.75-3.37.1-.82.44-2.68.75-4.14.82-3.9.91-5.33.54-8.84-.06-.59-.18-2.04-.27-3.22-.1-1.49-.2-2.18-.31-2.24-.35-.24-1.52,0-3.36.69-3.45,1.29-5.41,1.51-15.33,1.71-3.53.08-5.91.18-7.52.34-1.29.12-3.31.27-4.48.34-2.98.16-4.94.42-6.7.86-2.74.69-4.3,1.54-8.08,4.39-4.93,3.7-8.46,7.01-11.5,10.76-2.18,2.7-2.35,3.04-2.36,4.68v1.13s.67,1.27.67,1.27c.7,1.34,2.22,3.47,3.2,4.48.84.88,5.2,4.97,5.99,5.61,1.01.83,1.11.87,3.07,1.5,3.3,1.05,5.52,2.38,6.21,3.74.29.57.63,1.97.63,2.62,0,1.49-.99,2.04-4.31,2.45-1.68.2-2.28.18-5.27-.17-2.2-.26-3.27-.5-4.88-1.09-2.94-1.05-5.12-2.48-7.26-4.75-.77-.82-2-2.2-2.72-3.07-2.1-2.49-3.93-4.39-5.78-5.96-.94-.79-2.19-1.86-2.78-2.37-.59-.51-1.83-1.53-2.73-2.27-2.45-1.98-2.74-2.42-2.73-4.03.01-1.49.7-3.06,2.3-5.19,1.46-1.97,1.96-3.13,2.15-5.06.19-1.87.07-3.95-.4-6.19-.87-4.25-1.2-5.61-1.37-5.61-.37,0-3.24,1.85-4.35,2.8-1.29,1.11-2.38,1.83-3.34,2.2-1.17.45-3.37.95-5.57,1.28-6.83,1.02-8.58,1.35-11.08,2.06-2.68.77-5,1.79-6.89,3.05-1.54,1.03-2.62,2.23-6.58,7.43-1.39,1.83-3.79,6.25-4.43,8.16-.33,1-.36,1.25-.44,3.29-.1,2.42-.33,3.55-1.02,5.27-.58,1.46-1.88,3.22-2.77,3.74-1.03.6-2.82.87-4.14.62-.86-.16-2.87-.95-3.49-1.37-.88-.6-3.05-2.55-3.33-3-.58-.94-.1-2.31,1.68-4.89,1.61-2.34,1.85-2.76,2.12-3.9.09-.34.37-1.38.63-2.31.26-.94.65-2.34.85-3.12.2-.78.7-2.52,1.11-3.85.84-2.78,1.55-5.36,1.88-6.86.84-3.74,1.44-6.02,2-7.65,1.09-3.15,2.07-5,3.21-6.02,1.32-1.18,4.6-2.52,8.07-3.28,3.56-.78,5.92-2,9.21-4.75,1.84-1.54,4.98-5.49,6.03-7.59.53-1.05,1.39-3.32,1.83-4.78.78-2.71,1.08-4.55,1.3-8.21.16-2.44.34-3.48.9-5.05.61-1.73,1.42-3.16,3.04-5.31,3.21-4.29,3.82-5.88,3.38-8.88-.24-1.62-1.03-3.87-1.92-5.42-.34-.6-.71-1.3-.82-1.55-.51-1.22-2.15-3.03-4.51-4.92-.8-.65-1.72-1.41-2.04-1.69-.32-.28-1.17-.95-1.88-1.49-.71-.52-1.81-1.38-2.44-1.89-.62-.51-1.46-1.19-1.87-1.52-1.02-.79-3.33-2.97-4.08-3.83-3.46-4-7.12-11.12-8.49-16.52-.63-2.51-.74-3.47-.75-6.63,0-2.9.01-3.07.36-5.05.48-2.64.71-5.07.79-8.14.07-2.65-.02-3.81-.44-5.18-.67-2.19-1.9-4.32-4.18-7.17-1.77-2.21-2.97-4.72-2.97-6.21C12.23.89,14.24-.3,16.87.06h0Z"/>
  </g>
</svg>