<?xml version="1.0" encoding="UTF-8"?>
<svg id="Calque_2" data-name="Calque 2" xmlns="http://www.w3.org/2000/svg" viewBox="0 0 219.83 181.84">
  <defs>
    <style>
      .cls-1 {
        fill: #0f0b0d;
        fill-rule: evenodd;
        stroke-width: 0px;
      }
    </style>
  </defs>
  <g id="OBJECTS">
    <path class="cls-1" d="M208.39.12c1.92.41,3.98,1.97,5.57,4.23,1.35,1.92,2.77,5.42,3.5,8.63.18.82.61,2.49.94,3.7,1.36,4.98,1.49,6.11,1.41,12.34-.06,4.89-.06,4.92-.98,8.39-.66,2.5-2.63,8.11-3.52,10.04-.18.39-.48,1.06-.66,1.49-1.41,3.35-4.97,9.21-7.63,12.55-2.01,2.52-4.64,4.89-8.6,7.75-2.93,2.11-8.02,4.83-14.17,7.54-7.77,3.44-11.92,6.19-13.45,8.91l-.41.73.5.82c1.31,2.17,3.5,6.73,5.02,10.44,2.27,5.58,3.39,8.98,4.23,12.9.23,1.09.55,2.56.7,3.29.16.72.59,2.84.96,4.72,1.6,8.16,1.85,9.21,2.96,12.26.99,2.7,2.06,5.02,2.77,5.96.33.45,1.49,1.74,2.57,2.87,2.1,2.2,2.76,3.05,3.29,4.24.69,1.59.79,2.74.49,5.85-.31,3.08-.33,4.53-.19,8.79.12,3.61.11,4.62-.05,7.35-.11,1.73-.25,4.37-.31,5.85-.12,2.98-.39,4.71-.91,5.79-.91,1.92-4.55,3.73-8.52,4.22-2.4.3-4.44-.62-5.09-2.29-.17-.45-.2-.8-.16-1.96.11-2.4.79-3.94,2.43-5.54.5-.49,1-1.04,1.1-1.24.27-.53.24-1.68-.12-3.47-.18-.86-.45-2.46-.63-3.57-.35-2.26-1.06-4.98-1.59-6.03-.61-1.19-1.8-2.88-2.33-3.26-1.3-.94-3.2-1.76-5.83-2.49-4.18-1.16-10.08-3.43-13.12-5.04-1.17-.63-2.46-1.47-4.13-2.68-.54-.39-2.04-1.48-3.35-2.43-3.13-2.26-4.01-2.94-5.66-4.33-1.58-1.31-2.28-2.06-2.87-2.96l-.41-.63-.87,4.34c-1.8,9-1.95,9.79-2.13,12.47-.26,3.81-.5,5.38-1.09,6.99-.88,2.47-1.79,3.51-5.48,6.3-5.16,3.88-6.4,4.78-7.4,5.41-.6.37-1.65,1.05-2.34,1.49-1.29.85-6.94,3.78-8.42,4.37-1.43.57-3.17.81-7.86,1.12-2.75.18-3.57.14-4.96-.2-1.84-.45-2.74-1.49-3.18-3.7-.26-1.25-.24-2.19.06-3.15.31-.99.65-1.34,1.97-2.04,1.18-.63,1.9-.81,4.03-1.06,2.17-.25,3.33-.59,5.4-1.59,1.91-.93,3.09-1.78,4.66-3.32,1.53-1.51,2.25-2.37,3.64-4.34.68-.96,1.46-2.01,1.73-2.33.73-.86.9-1.25.9-2.1,0-1.03-.51-2.69-1.84-6-.62-1.52-1.31-3.3-1.57-3.94-.24-.65-.76-1.94-1.16-2.87-.39-.93-.98-2.32-1.29-3.07-.45-1.08-.62-1.37-.8-1.36-.12.01-.88.16-1.71.32-6.56,1.35-7.44,1.46-9.86,1.33-2.77-.17-12.38-.13-13.38.04-1.21.22-1.98.47-2.38.79-.32.26-.33.3-.16.57.67,1.05,1.02,4.93.63,7.1-.2,1.12-.7,3.33-1.03,4.54-.39,1.47-.5,2.28-.36,2.8.31,1.17,1.84,3.05,3.82,4.7,1,.84,3.3,3.58,3.97,4.74,1.27,2.22,1.22,4.04-.2,7.85-.98,2.62-1.71,4.18-2.39,5.13-.78,1.09-1.21,1.48-2.15,1.94-.76.37-.91.41-1.61.35-.98-.07-1.76-.39-2.44-1.03-1.11-1.03-1.58-2.32-1.74-4.84-.16-2.29-.31-3.11-.72-3.95-.37-.76-1.12-1.43-3.26-2.93-1.79-1.24-3.01-2.23-3.85-3.11-1.08-1.14-2.39-2.78-2.94-3.69-.69-1.14-1.54-3.15-1.94-4.66l-.37-1.37.02-4.24c.06-7.74-.23-9.07-2.22-10.13-.92-.49-1.86-.7-3.85-.86-.88-.07-2.39-.22-3.35-.32-2.38-.25-5.6-.25-6.99,0-.6.11-1.43.2-1.89.2-.49,0-.8.05-.8.13,0,.31-3.72,5.27-6.02,8.05-1.86,2.23-3.36,4.22-4.65,6.14-1.91,2.88-4.37,5.81-6.54,7.77-1.54,1.41-4.64,3.94-5.9,4.83-2.4,1.67-3.43,2.52-4.85,3.99-.87.9-1.72,1.9-2.03,2.4-1.39,2.26-2.87,4.42-3.29,4.83-.97.93-2.08,1.29-4.05,1.29-1.34,0-3.39.18-5.75.49-3.52.48-4.53.41-6.22-.43-1.12-.55-1.72-1.19-1.72-1.85,0-1.08.87-2.21,2.83-3.7,1.9-1.46,2.46-1.8,4.73-2.94,2.35-1.17,3.21-1.8,4.27-3.13,1.51-1.88,2.58-3.03,3.54-3.8.75-.61,1.19-1.08,1.66-1.78.76-1.16,1.48-2.49,1.91-3.52.18-.43.73-1.61,1.22-2.63.5-1.02,1.1-2.31,1.35-2.87.25-.56.81-1.83,1.25-2.81.43-.99,1.25-2.95,1.82-4.36.56-1.41,1.51-3.73,2.1-5.14,1.67-4.01,2.66-6.56,2.88-7.44.55-2.19.47-3.79-.37-7.01-.3-1.15-.65-2.55-.76-3.11-.62-2.77-1.35-10.49-1.48-15.53-.13-4.83-.38-6.97-1.1-9.02-1.09-3.13-2.14-4.68-5.66-8.39-.91-.96-1.14-1.3-1.88-2.75-1.73-3.44-2.28-4.96-2.54-7.13-.24-1.97.05-6,.56-8.02.27-1.08.94-2.81,1.73-4.49.72-1.54,1.11-2.83.97-3.19-.04-.12-.43-.61-.86-1.11-1-1.16-1.45-2.01-1.9-3.57-.45-1.59-.61-2.49-.61-3.39.01-2.04.86-3.17,2.4-3.18,1.49,0,5.41,1.39,7.58,2.69,1.45.87,1.79.99,2.69,1,3.87.04,14.91-.11,15.93-.22,2.02-.2,2.08-.23,3.24-1.47,1.66-1.76,3.17-2.8,4.91-3.38,1.23-.42,2.11-.45,2.47-.1.21.23.27.45.35,1.55.23,3.21.1,4.93-.5,6.67-.45,1.3-.17,2.71,1.33,6.63.5,1.35,1.02,2.71,1.12,3.05.36,1.14.84,3.52,1.09,5.46.06.49.12.57.33.57.14,0,.74.16,1.34.36,1.54.5,5.68,1.18,7.25,1.19.44,0,1.84-.13,3.11-.3,7.04-.9,10.96-.67,19.97,1.14,4.5.91,9.38,1.29,13.61,1.08,2.65-.14,3.94-.31,6.54-.84,3.73-.78,7.63-1.43,10.94-1.85,1.9-.24,4.09-.54,4.84-.66.75-.13,3.31-.45,5.68-.72s5.38-.61,6.69-.78c4.79-.61,11.96-.7,14.1-.19,2.22.54,4.59,1.42,6.71,2.51l2.1,1.09,1.15-1.11c.63-.61,1.45-1.33,1.82-1.6,1-.74,3.6-2.38,4.95-3.12.66-.36,1.67-.93,2.27-1.28.59-.35,1.8-1.02,2.69-1.49,3.43-1.85,4.05-2.21,5.41-3.19.79-.55,1.97-1.33,2.63-1.73,1.97-1.18,7.23-4.83,8.7-6.02,1.08-.87,5.9-5.81,7.13-7.28,1.98-2.37,3.26-4.56,4.74-8.12.87-2.1,1.08-2.94,1.57-6.28.42-2.95.5-5.79.24-8.39-.26-2.52-.78-6.58-.91-7.19-.36-1.61-1.22-7.56-1.33-9.13-.19-2.71-.1-4.99.26-6.05.35-1.06,1.28-2.06,2.2-2.38.81-.27,2.44-.35,3.42-.14Z"/>
  </g>
</svg>