<?xml version="1.0" encoding="UTF-8"?>
<svg id="Calque_2" data-name="Calque 2" xmlns="http://www.w3.org/2000/svg" viewBox="0 0 136.7 182.48">
  <defs>
    <style>
      .cls-1 {
        fill: #0f0b0d;
        fill-rule: evenodd;
        stroke-width: 0px;
      }
    </style>
  </defs>
  <g id="OBJECTS">
    <path class="cls-1" d="M136.06.3c.69.7.74,1.35.53,7.74-.11,3.07-.2,4.41-.39,5.5-.31,1.78-1.22,4.53-2.1,6.37-.59,1.19-.68,1.49-.69,2.11-.02,1.57.19,5.2.38,6.27.3,1.66.26,4.49-.06,5.97-.51,2.31-1.52,5.01-3.24,8.66l-.74,1.57-.35,2.5c-.51,3.74-.65,5.47-.57,7.58.08,2.1.23,2.86.94,4.67.9,2.31,1.24,4.03,1.77,8.71.75,6.75.86,9.04.6,12.62-.17,2.2-.65,6.15-.96,7.78-.87,4.58-3.07,10.73-5.65,15.82-3.66,7.2-4.41,8.7-5.42,10.93-1.36,2.96-1.54,3.44-2.43,6.43-1.66,5.68-2.03,7.58-3.17,16.03-.3,2.23-1.05,7.3-1.68,11.27-.62,3.97-1.17,7.65-1.21,8.18-.07,1.19.24,3.44.87,6.14.37,1.62,1.28,4.83,1.43,5.08.02.04.47-.11.97-.35.5-.23,1.11-.45,1.36-.48.53-.07,1.65.24,2.38.66,2.62,1.51,5.21,6.89,4.16,8.63-.19.32-1.22.86-2.41,1.25-.85.29-1.03.3-3.56.3-1.47,0-3.75.06-5.09.14-2.95.18-3.25.13-6.26-.87-2.47-.82-3.17-1.16-3.74-1.79-.5-.56-.62-1.02-.72-2.68-.04-.73-.18-2.54-.32-4.05l-.26-2.72.29-2c.25-1.71.3-2.41.29-5.09,0-3.23-.18-5.07-.88-9.08-.13-.73-.37-2.25-.54-3.38-.55-3.73-2.19-10.88-2.9-12.71-.19-.48-.44-1.17-.55-1.53-.12-.36-.24-.73-.26-.82-.04-.1-.27.12-.63.56l-.57.73.29,1.65c.39,2.2.41,3.78.05,5.41-.26,1.18-.27,1.39-.18,3.41.06,1.18.11,3.31.1,4.72,0,2.38-.02,2.66-.32,3.88-.78,3.14-1.36,4.59-2.68,6.54-.87,1.3-2.07,2.62-2.66,2.94-.8.42-1.68.33-2.54-.25-.5-.35-.75-.44-1.17-.44-.68,0-1.65-.29-2.04-.6-.17-.12-.45-.53-.65-.88-.23-.44-.49-.74-.78-.91-.8-.44-1.48-1.42-1.94-2.75-.1-.3-.35-1.31-.56-2.27-.22-.96-.43-1.78-.48-1.83-.05-.06-.45.81-.9,1.92-.72,1.84-.92,2.21-2.2,4.1-1.09,1.6-1.8,2.86-3.08,5.41-1.36,2.7-1.62,3.3-1.42,3.25.68-.2,2.58-.56,4.07-.78,2.78-.41,4.49-.48,9.5-.37,5.15.1,5.11.1,7.77.96,2.32.75,4.87,2.26,5.34,3.14.27.55.25,1.71-.07,2.34-.57,1.11-2.01,2.26-4.13,3.32-1.16.59-2.08.88-3.87,1.29-1.86.41-2.77.69-4.72,1.46-3.76,1.47-6.03,1.68-21.34,2.07-2.66.07-5.05.14-5.32.18-.26.04-2.26.12-4.42.18-2.17.07-4.99.2-6.27.3-1.28.1-4.07.29-6.21.42-5.02.31-9.04.65-13.2,1.08-4.9.51-7.04.63-11.83.65-4.53.01-4.82-.01-7.47-.6-1.71-.38-4.85-1.4-5.76-1.85-.38-.19-.97-.65-1.31-1-.33-.36-.69-.66-.78-.66s-.33-.17-.57-.37c-.99-.87-1.16-3.09-.43-5.87.81-3.08,1.54-4.85,4.77-11.63,2.49-5.23,2.92-6.25,4.6-10.93,1.52-4.23,2.08-6.08,3.07-10.07,1.84-7.49,3.05-10.23,6.7-15.16,1.79-2.41,2.43-3.48,3.87-6.55,1.33-2.83,3.88-7.81,4.76-9.31,1.03-1.76,2.49-3.82,5.01-7.09,2.84-3.69,3.91-4.95,7.3-8.64,4.93-5.35,9.24-9.47,14.42-13.81,1.28-1.08,3.13-2.65,4.12-3.51,4.18-3.66,7.83-6.32,12.01-8.78,1.15-.68,2.8-1.67,3.66-2.22.86-.54,2.1-1.25,2.76-1.58,1.58-.8,2.23-1.36,4.17-3.56.9-1.03,2.65-2.92,3.91-4.21,2.52-2.63,2.6-2.75,4.15-6.36,1.53-3.58,1.58-4.25.5-9.02-.99-4.42-1.06-4.85-1.23-7.24-.19-2.77-.01-6.34.5-10.22l.25-1.94-.59-.72c-1.49-1.79-2.21-3.45-2.65-6.12-.43-2.59-.51-3.95-.43-7.05.11-4.04.27-5.14.91-5.77.32-.31.42-.35.9-.29.65.07,2.63,1.21,6.08,3.49,4.23,2.81,5.99,4.44,7.14,6.71l.5.98.54-.06c.3-.04.81-.12,1.16-.17.35-.06,1.66-.17,2.93-.25,1.97-.12,2.63-.11,4.58.06,1.24.11,2.89.19,3.64.19,1.29.01,1.8.06,3.7.35.43.07,1.15.13,1.6.16l.82.02.79-.84c.53-.56,1.03-1.28,1.49-2.15.96-1.78,1.57-2.6,2.65-3.62s4.04-3.02,5.38-3.66c1.29-.62,3.6-1.46,4.27-1.55.5-.08.59-.06.91.26h0Z"/>
  </g>
</svg>