<?xml version="1.0" encoding="UTF-8"?>
<svg id="Calque_2" data-name="Calque 2" xmlns="http://www.w3.org/2000/svg" viewBox="0 0 225.92 146.49">
  <defs>
    <style>
      .cls-1 {
        fill: #0f0b0d;
        fill-rule: evenodd;
        stroke-width: 0px;
      }
    </style>
  </defs>
  <g id="OBJECTS">
    <path class="cls-1" d="M49.12.15c.55.3.63.72.55,2.71-.23,5.2-1.91,11.48-3.68,13.69-.27.35-.47.66-.43.69.04.04-.01.32-.11.62-.33,1.08-.41,1.59-.53,3.47-.26,4.47.68,10.36,2.06,12.77.47.84,1.43,1.88,2.08,2.26.68.39,1.66.5,2.31.24.27-.1,1.47-.43,2.66-.74,1.21-.3,2.92-.78,3.8-1.06,3.3-1.08,5.16-1.45,11.16-2.27,5.9-.81,9.31-1.4,18.3-3.17,5.22-1.03,9.65-1.73,13.49-2.15,8.93-.97,13.92-1.16,19.12-.73,4,.33,8.16.78,10.87,1.16,6.25.87,13.96,2.81,20,4.99,2.25.82,10.05,4.27,14.53,6.43,8.58,4.15,14.33,6.38,21.27,8.28,3.46.94,8.66,1.14,13.02.47,2.83-.43,4.7-1.17,7.83-3.12,5.15-3.19,7.29-4.34,9.25-4.99,2.22-.75,3.62-.81,5.26-.24,1.64.57,2.84,1.61,3.51,3.02.38.8.44,1.06.48,1.95.08,1.95-.5,3.42-2.09,5.21-2.45,2.75-4.23,4.19-6.64,5.34-2.27,1.08-7,2.37-10.77,2.93-1.29.19-1.92.36-2.87.74-3.54,1.46-5.34,2.02-8.97,2.8-3.84.81-7.83,1.06-15.72.98-4.83-.05-5.57-.08-6.74-.31-2.15-.39-5.52-1.36-9.12-2.59-1.86-.63-3.39-1.14-3.42-1.11-.01.02.02,1.19.08,2.6.23,4.62-.14,6.66-2.09,11.54-1.21,3.03-2.39,5.28-4.11,7.85-1.61,2.4-2.01,3.74-2.01,6.85,0,1.95.04,2.32.38,3.98.47,2.2,1.03,4,1.9,6,.86,1.97,2.58,5.31,4.09,7.87,1.35,2.29,1.64,2.93,2.08,4.46.68,2.34.85,3.49.86,5.71,0,1.88-.04,2.25-.33,3.58-.54,2.32-1.53,5.19-2.57,7.38-1.42,3-1.8,4.19-2.29,7.31-.49,3.03-1.1,4.59-2.21,5.59-1.06.98-2.75,1.66-5.56,2.27-1.43.3-1.64.32-5.08.32-3.29-.01-3.68-.02-4.72-.27-1.41-.32-2.57-.9-3.03-1.49-.29-.36-.37-.6-.41-1.17-.05-.63-.01-.81.35-1.52.79-1.54,2.34-2.84,4.03-3.37.42-.13,1.23-.3,1.82-.37.59-.07,1.12-.2,1.18-.27.07-.08.35-.92.61-1.85.27-.94.87-2.69,1.34-3.88.98-2.53,1.4-4.04,1.49-5.45.05-.86.02-1.12-.2-1.72-.3-.79-.37-.86-3.69-3.95-2.07-1.92-2.92-2.59-8.14-6.44-1.33-.98-2.1-1.65-2.47-2.13-.3-.38-.57-.69-.6-.69-.24,0-.63,1.7-1.36,5.87-.8,4.59-.87,4.9-1.72,7.55-1.24,3.86-1.92,5.14-4.01,7.56-1.55,1.82-3.12,3.09-6.98,5.66-3.9,2.59-4.85,3.37-5.77,4.66-2.57,3.61-4.33,5.56-5.56,6.15-.67.32-.81.35-3.06.43-1.52.06-3.07.2-4.37.42-1.84.29-2.25.31-4.36.25-2.11-.06-2.45-.1-3.67-.43-1.85-.5-2.71-.97-3.08-1.68-.39-.75-.22-1.34.9-2.99.93-1.37,1.39-1.89,2.49-2.76,1.14-.91,2.31-1.46,4.22-1.96,2.59-.69,4.44-1.61,5.41-2.68.25-.29.86-1.15,1.35-1.91.5-.76,1.55-2.38,2.34-3.6,2.09-3.19,4.15-7.29,4.91-9.81.84-2.74.72-4-1-11.1-1.21-4.98-1.24-5.25-1.24-8.9,0-2.98.01-3.15.31-4.22l.3-1.1-.79.06c-3.18.27-5.25.56-7.54,1.04-3.61.74-9.42,1.9-10.39,2.07-.62.11-2.06.43-3.17.7-2.51.65-7.12,1.67-8.72,1.94-.98.17-2.11.2-6.33.2-2.83.01-5.69-.05-6.34-.11-.67-.07-1.39-.11-1.6-.07-.37.05-.38.07-.31.53.07.45-.51,6.45-.99,10.19-.13.98-.35,2.63-.48,3.64-.36,2.75-.5,5.44-.61,11.41-.1,5.36-.14,5.94-.66,8.78-.1.55-.23,1.73-.3,2.63-.33,4.41-.5,5.42-1.09,6.69-.48,1.03-1.02,1.55-2.15,2.08-2.19,1.02-4.09,1.21-10.38,1.05-3.82-.08-4.16-.12-4.68-.35-1.03-.47-1.18-1.39-.56-3.35.79-2.45,1.42-3.45,3.74-5.89,2.55-2.66,2.92-3.68,2.53-6.87-.5-4.27-1.18-7.4-2.22-10.25-.35-.93-.85-2.46-1.14-3.41-.27-.94-.56-1.77-.62-1.83-.06-.06-.53.62-1.18,1.77-1.31,2.33-2.03,3.43-3.7,5.66-2.99,4-5.05,7.12-7.06,10.6-.61,1.08-1.31,2.26-1.57,2.63-.68,1.05-2.07,2.43-3.44,3.44-1.42,1.05-1.84,1.59-2.96,3.85-.37.74-.85,1.54-1.06,1.79-.22.24-.59.69-.84,1-1.17,1.46-4,2.04-9.77,1.98-1.96-.01-3.05.04-4.06.18-1.45.2-1.88.17-2.46-.22-.39-.26-.75-.88-.75-1.3,0-.88,1.64-3.18,3.42-4.79,1.45-1.31,1.78-1.55,3.62-2.64.88-.51,1.85-1.17,2.16-1.45.85-.76,1.4-1.96,2.45-5.29.5-1.61,1.3-4,1.79-5.32,1.61-4.43,3.09-10.23,3.81-14.88.61-3.98.69-5.15.75-10.84l.06-5.41-.66-1.1c-.82-1.4-2.41-4.28-3.11-5.66-1.91-3.82-4.5-11.45-5.39-15.88-.48-2.39-.63-3.52-1.03-7.41-.68-6.62-1.36-10.61-2.56-14.99-.82-2.99-1.24-4.99-1.79-8.5-.78-4.95-1.08-7.87-1.27-12.53-.1-2.4-.16-2.98-.42-3.94-.42-1.54-.72-2.13-1.78-3.52-1.53-2-2.7-4.72-2.7-6.26,0-.62.36-2.4.66-3.3.11-.33.51-1.27.9-2.09.74-1.6,1.05-2.51,1.42-4.28.13-.61.37-1.35.51-1.66.65-1.28,1.41-1.35,4.28-.42,3.01.98,3.58,1.1,5.2,1.11,1.31,0,1.55-.04,2.93-.44,3.05-.9,4.73-1.14,6.56-.9,1.02.13,4.05.86,5.87,1.41,2.19.66,3.46.88,5.33.96l1.82.07.99-.72c2.15-1.55,4.09-2.31,9.04-3.55,2.84-.72,3.14-.75,3.62-.49h0Z"/>
  </g>
</svg>