<?xml version="1.0" encoding="UTF-8"?>
<svg id="Calque_2" data-name="Calque 2" xmlns="http://www.w3.org/2000/svg" viewBox="0 0 141.6 87.9">
  <defs>
    <style>
      .cls-1 {
        fill: #0f0b0d;
        fill-rule: evenodd;
        stroke-width: 0px;
      }
    </style>
  </defs>
  <g id="OBJECTS">
    <path class="cls-1" d="M128.91,70.36c.92-.36,1.91.25,2.69.85s1.72,1.25,2.67.99c.77-.22,1.32-1,2.12-1.07.9-.08,1.62.78,2.51.89.69.09,1.38-.32,1.8-.88s.6-1.26.72-1.95c1.27-7.59-3.96-11.9-10.88-12.9-3.32-.48-6.7-.36-10.05-.57-2.95-.19-5.97-1.2-6.98-3.98-.42-1.18-.15-2.5.38-3.63.53-1.13,1.32-2.12,1.98-3.18,1.97-3.15,2.24-5.64,1.89-9.33,4.92-5.52,6.42-13.46,4.09-20.47.58-.51.72-1.36.66-2.13-.06-.77-.28-1.52-.26-2.29.03-1.36.87-2.47.91-3.84.04-1.42.24-3.02-.08-4.41-.2-.89-.72-1.76-1.53-2.18-.95-.48-2.1-.27-3.11.06-2.76.9-4.99,2.66-6.78,4.94-.73-.51-1.69-.58-2.58-.46-.89.12-1.75.39-2.64.48-1.59.17-3.18-.25-4.77-.46-.85-.11-1.72-.12-2.56.04-1.27.24-2.1.58-3.47.3-.89-.18-1.65-.73-2.59-.78-.47-.02-4.55.94-4.43,1.06-2.02-1.95-4.48-3.44-7.14-4.33-1.05-.35-2.38-.55-3.12.28-.58.65-.51,1.65-.37,2.51.51,3.09,1.47,6.11,2.84,8.93,1.16,2.39-.35,6.15-.35,8.81,0,1.45-.42,2.03-1.73,2.63s-2.83.56-4.27.51c-15.78-.64-32.11-2.95-46.98,2.36-2.84,1.01-5.58,2.3-8.12,3.92-4.32,2.76-6.79,6.07-9.58,10.15-3.15,4.6-6.21,9.32-8.07,14.62-2.17,6.18-2.55,13.28.47,19.1,2.21,4.26,6.1,7.5,10.45,9.53,4.35,2.03,9.16,2.92,13.94,3.25,6.08.42,12.18-.01,18.26-.45,11.97-.86,23.94-1.72,35.92-2.58,5.62-.4,11.31-.82,16.69-2.5,2.59-.81,5.1-1.93,7.37-3.42,1.18-.77,2.29-1.64,3.31-2.61.95-.91,1.78-2.65,2.81-3.36,1.8-1.25,6.15-1.29,8.42-1.81,3.14-.72,6.37-1.34,9.57-.63Z"/>
  </g>
</svg>