<?xml version="1.0" encoding="UTF-8"?>
<svg id="Calque_2" data-name="Calque 2" xmlns="http://www.w3.org/2000/svg" viewBox="0 0 83.11 176.17">
  <defs>
    <style>
      .cls-1 {
        fill: #0f0b0d;
        fill-rule: evenodd;
        stroke-width: 0px;
      }
    </style>
  </defs>
  <g id="OBJECTS">
    <path class="cls-1" d="M41.44.2c-.66.34-1.35,1.07-3.28,3.47-1,1.24-2.32,2.8-2.94,3.48-.63.67-1.54,1.75-2.04,2.39-1.54,1.99-4.04,4.43-6.78,6.63-4.6,3.69-6.9,6.46-10.21,12.36-1.87,3.33-2.38,4.54-2.76,6.54-.25,1.37-.7,2.34-2.06,4.62-2.05,3.37-2.91,5.19-4.21,8.99-1.37,3.98-2.71,7.47-4.36,11.33C.32,65.87-.1,67.71.02,72.04c.12,3.96,1.46,14,2.43,18.12.53,2.3,1.15,3.92,2.55,6.69,2.9,5.71,2.91,5.82,2.76,13.12-.05,2.28-.01,2.73.31,4.65.38,2.16.56,2.92,1.58,6.35.82,2.76,1.13,3.59,2.64,7.17,1.53,3.63,1.67,3.88,2.04,3.78.15-.04.27.01.31.16,1.42,4.92,1.78,6.98,2.02,11.52.11,2.38.12,3.42,0,4.4-.27,2.15-.67,2.96-2.46,5.03-1.07,1.23-1.79,2.47-2.13,3.66-.11.41-.26,1.64-.34,2.73-.11,1.82-.16,2.09-.67,3.42-1.31,3.4-1.26,6.42.12,8.1,1.39,1.69,3.81,2.28,6.97,1.69,1.38-.25,1.28-.26,4.56.25,1.79.27,3.84.26,5.51-.03.72-.12,1.54-.2,1.8-.2.79.04,3.7.44,4.65.64,2.12.45,4.39.75,7.51,1.02,2.91.25,7.62.83,12.98,1.61,2.6.37,7.64.31,11.48-.15,4.59-.55,6.65-1.16,8.53-2.55.42-.3,1.15-.67,1.63-.82,1.08-.34,2.25-1.09,3.29-2.13,1.41-1.41,1.98-2.53,2.64-5.18.34-1.34.38-1.75.38-3.83,0-4.75-1-8.76-4.28-17.36-1.64-4.28-2.21-5.98-2.77-8.32-.51-2.05-.53-2.58-.27-5.19.23-2.31.14-4.97-.25-7.1-.16-.87-.29-2.12-.29-2.98,0-2.71-.64-4.88-2.61-8.85-1.68-3.39-2.84-5.45-4.39-7.76-2.05-3.05-3.69-5.77-4.18-6.91-.26-.61-1-3.17-1.67-5.81-1.26-4.93-1.83-6.68-2.75-8.27-1.19-2.04-2.4-3.5-6.23-7.47-1.2-1.23-2.28-2.47-2.4-2.75-.15-.31-.3-1.12-.38-2.1-.18-2.12-.53-3.83-1.27-6.13-.64-1.98-.9-3.17-.9-4.03,0-.29-.05-.56-.14-.6-.07-.04-.14-.63-.14-1.28,0-1.02.04-1.24.27-1.45.26-.23.33-.23,1.8.08,1.2.25,1.99.31,3.52.31,2.27.01,3.09-.16,4.86-1.01,1.15-.55,1.68-1.04,3.1-2.87.31-.41.92-1.01,1.33-1.34,1.78-1.41,2.45-2.09,2.8-2.83.33-.66.37-.86.31-1.8-.1-1.56-.34-2.12-3.02-6.72-.98-1.69-2.01-3.99-2.35-5.27-.12-.45-.27-1.61-.34-2.6-.07-.97-.23-2.27-.36-2.87-.44-2.24-1.79-4.26-4.78-7.17-1.24-1.2-1.9-1.72-2.8-2.21-.66-.36-1.22-.75-1.27-.87-.19-.51-.04-1.08.63-2.34.67-1.28,2.16-5.16,2.16-5.64,0-.27-.56-.82-.85-.82-.46,0-2.71.74-3.78,1.24-1.2.56-2.01,1.11-3.36,2.3-.45.4-.93.7-1.09.7-.66,0-.67-.11-.78-5.79-.1-5.74-.22-6.84-.85-8.21-.22-.49-.46-.81-.75-.94-.51-.27-.66-.27-1.18,0ZM77.44,171.04c0,.07-.07.14-.15.14-.07,0-.1-.07-.05-.14.04-.08.11-.14.15-.14.03,0,.05.05.05.14Z"/>
  </g>
</svg>