<?xml version="1.0" encoding="UTF-8"?>
<svg id="Calque_2" data-name="Calque 2" xmlns="http://www.w3.org/2000/svg" xmlns:xlink="http://www.w3.org/1999/xlink" viewBox="0 0 393.89 162.81">
  <defs>
    <style>
      .cls-1 {
        fill: url(#Dégradé_sans_nom_6);
      }

      .cls-1, .cls-2, .cls-3, .cls-4, .cls-5, .cls-6, .cls-7, .cls-8 {
        stroke-width: 0px;
      }

      .cls-2 {
        fill: #000;
      }

      .cls-9 {
        fill: #3d383b;
        stroke: #000;
        stroke-miterlimit: 10;
      }

      .cls-3 {
        fill: url(#Dégradé_sans_nom_6-2);
      }

      .cls-4 {
        fill: url(#Dégradé_sans_nom_10-2);
      }

      .cls-4, .cls-6 {
        opacity: .36;
      }

      .cls-5 {
        opacity: .91;
      }

      .cls-5, .cls-8 {
        fill: #fff;
      }

      .cls-6 {
        fill: url(#Dégradé_sans_nom_10);
      }

      .cls-7 {
        fill: #0c090b;
      }
    </style>
    <linearGradient id="Dégradé_sans_nom_6" data-name="Dégradé sans nom 6" x1="122.24" y1="100.23" x2="171.35" y2="68.45" gradientUnits="userSpaceOnUse">
      <stop offset=".25" stop-color="#ffaedb"/>
      <stop offset=".66" stop-color="#ff7bac"/>
    </linearGradient>
    <linearGradient id="Dégradé_sans_nom_6-2" data-name="Dégradé sans nom 6" x1="228.74" y1="100.73" x2="277.85" y2="68.95" xlink:href="#Dégradé_sans_nom_6"/>
    <radialGradient id="Dégradé_sans_nom_10" data-name="Dégradé sans nom 10" cx="267.04" cy="95.71" fx="267.04" fy="95.71" r="9.08" gradientTransform="translate(382.33 -185.95) rotate(83.59) scale(1 1.53)" gradientUnits="userSpaceOnUse">
      <stop offset="0" stop-color="#fff"/>
      <stop offset=".37" stop-color="rgba(255, 255, 255, .99)" stop-opacity=".99"/>
      <stop offset=".51" stop-color="rgba(255, 255, 255, .97)" stop-opacity=".97"/>
      <stop offset=".6" stop-color="rgba(255, 255, 255, .92)" stop-opacity=".92"/>
      <stop offset=".68" stop-color="rgba(255, 255, 255, .85)" stop-opacity=".85"/>
      <stop offset=".75" stop-color="rgba(255, 255, 255, .77)" stop-opacity=".77"/>
      <stop offset=".8" stop-color="rgba(255, 255, 255, .66)" stop-opacity=".66"/>
      <stop offset=".86" stop-color="rgba(255, 255, 255, .53)" stop-opacity=".53"/>
      <stop offset=".91" stop-color="rgba(255, 255, 255, .39)" stop-opacity=".39"/>
      <stop offset=".95" stop-color="rgba(255, 255, 255, .22)" stop-opacity=".22"/>
      <stop offset=".99" stop-color="rgba(255, 255, 255, .04)" stop-opacity=".04"/>
      <stop offset="1" stop-color="#fff" stop-opacity="0"/>
    </radialGradient>
    <radialGradient id="Dégradé_sans_nom_10-2" data-name="Dégradé sans nom 10" cx="158.87" cy="96.18" fx="158.87" fy="96.18" gradientTransform="translate(286.94 -78.06) rotate(83.59) scale(1 1.53)" xlink:href="#Dégradé_sans_nom_10"/>
  </defs>
  <g id="Calque_1-2" data-name="Calque 1">
    <g>
      <path class="cls-9" d="M129.24,31.82S96.24,4.82,77.24,1.82s-19,0-19,0c0,0,7,75,16,81,0,0-13,36-9,44h264.51c.63-.16-3.88-34.02-6.51-39,0,0,20-67,20-84,0,0-54,2-77,30,0,0-64-30-137-2Z"/>
      <path class="cls-2" d="M78.24,30.82s4,32,6,38c6-11,18-24,32-30,0,0-27-11-38-8Z"/>
      <path class="cls-2" d="M319.45,33.12s-4,32-6,38c-6-11-18-24-32-30,0,0,27-11,38-8Z"/>
      <circle class="cls-1" cx="143.74" cy="86.32" r="30.5"/>
      <circle class="cls-2" cx="143.74" cy="85.32" r="22"/>
      <circle class="cls-8" cx="129.24" cy="70.82" r="8"/>
      <circle class="cls-5" cx="158.24" cy="69.82" r="4"/>
      <circle class="cls-3" cx="250.24" cy="86.82" r="30.5"/>
      <circle class="cls-2" cx="251.45" cy="84.62" r="22"/>
      <circle class="cls-8" cx="236.95" cy="70.12" r="8"/>
      <circle class="cls-5" cx="266.24" cy="69.82" r="4"/>
      <ellipse class="cls-6" cx="267.04" cy="95.71" rx="14.26" ry="8.13" transform="translate(50.64 279.12) rotate(-60)"/>
      <path class="cls-9" d="M47.24,152.02c-1.78.71-3.67.91-5.58.67-1.57,4.68-4.67,8.16-8.83,9.26-4.34,1.15-8.94-.52-12.71-4.1-1.04.42-2.14.68-3.28.75-8.22.55-15.5-8.4-16.27-19.99-.31-4.62.47-8.96,2.03-12.54,1.56-6.99,10.81-13.08,22.52-14.3,3.86-.4,7.56-.23,10.9.41,3.3.63,6.24,1.73,8.62,3.18,1.91,1.39,3.71,3.2,5.27,5.35,1.33,1.85,2.5,3.95,3.42,6.26,4.29,10.79,1.56,22-6.09,25.05Z"/>
      <path class="cls-7" d="M44.64,115.36c-2.38-1.45-5.32-2.55-8.62-3.18,2.9.06,5.88,1.19,8.62,3.18Z"/>
      <path class="cls-7" d="M23.99,120.97c.22-.02.44-.03.66-.03-.07.18-.13.36-.18.55-.15-.18-.31-.35-.48-.52Z"/>
      <path class="cls-7" d="M49.91,120.71c-1.56-2.15-3.36-3.96-5.27-5.35,2.38,1.46,4.2,3.27,5.27,5.35Z"/>
      <path class="cls-9" d="M345.33,150.21c1.71.87,3.57,1.24,5.5,1.17,1.14,4.8,3.91,8.55,7.96,10.02,4.22,1.54,8.95.29,13.03-2.93,1,.51,2.07.87,3.2,1.04,8.14,1.29,16.2-6.96,18.01-18.44.73-4.57.34-8.97-.89-12.67-.92-7.1-9.58-14-21.13-16.28-3.81-.75-7.51-.91-10.89-.58-3.34.33-6.37,1.16-8.87,2.39-2.03,1.21-3.98,2.85-5.73,4.85-1.49,1.72-2.85,3.71-3.97,5.92-5.25,10.36-3.54,21.77,3.8,25.5Z"/>
      <ellipse class="cls-4" cx="158.87" cy="96.18" rx="14.26" ry="8.13" transform="translate(-3.86 185.67) rotate(-60)"/>
    </g>
  </g>
</svg>