<?xml version="1.0" encoding="UTF-8"?>
<svg id="Calque_2" data-name="Calque 2" xmlns="http://www.w3.org/2000/svg" viewBox="0 0 235.19 185.77">
  <defs>
    <style>
      .cls-1 {
        fill: #f4e9e3;
        stroke-width: 0px;
      }
    </style>
  </defs>
  <g id="Calque_2-2" data-name="Calque 2">
    <g>
      <path class="cls-1" d="M119.17,55.81c-77.23-6.21-105.81,86.5-79.73,114.02,26.08,27.52,38.49-14.3,69.97-11.77,31.48,2.53,38.18,45.89,68.64,18.9,30.46-26.99,11.55-115.49-58.88-121.15Z"/>
      <path class="cls-1" d="M231.52,59.03c14.13,12.26-16.17,36.75-29.02,24.7-9.39-8.81,14.34-37.44,29.02-24.7Z"/>
      <path class="cls-1" d="M166.32.46c12.28,2.92,5.07,39.8-14.43,38.83-19.5-.97-8.18-44.21,14.43-38.83Z"/>
      <path class="cls-1" d="M71.99.43c15.87-4.82,24.77,31.97,10.7,36.7-14.07,4.73-29.28-31.06-10.7-36.7Z"/>
      <path class="cls-1" d="M4.37,51.09c12.03-8.71,34.1,20.85,22.26,29.35-11.84,8.5-36.68-18.91-22.26-29.35Z"/>
    </g>
  </g>
</svg>