<?xml version="1.0" encoding="UTF-8"?>
<svg id="Calque_2" data-name="Calque 2" xmlns="http://www.w3.org/2000/svg" viewBox="0 0 433.98 88.11">
  <defs>
    <style>
      .cls-1 {
        fill: #000;
      }

      .cls-1, .cls-2 {
        stroke-width: 0px;
      }

      .cls-2 {
        fill: #f4e9e3;
      }
    </style>
  </defs>
  <g id="Calque_2-2" data-name="Calque 2">
    <g>
      <path class="cls-1" d="M115.35,74.59v.34h-17.48v-.34l.08-.08c.92-.76,1.6-2.1,1.6-3.36V19.88c0-1.26-.67-2.6-1.6-3.45h-.08v-.34h17.48v.34l-8.07,1.09c-1.18.17-2.02,1.09-2.02,2.35v28.99c10-3.02,31.85-14.29,31.85-23.7,0-3.45-2.86-5.71-7.56-5.71-7.73,0-13.02,6.05-13.02,15.12,0,1.51.08,3.11.34,4.71l-1.26-1.26c-.25-1.43-.34-2.86-.34-4.29,0-10.59,6.05-18.4,14.45-18.4,5.55,0,9.24,3.53,9.24,8.32,0,8.57-12.18,17.06-22.86,22.1,2.02-.25,4.12-.08,4.96,1.76,1.68,3.03,5.88,12.77,9.08,19.75,2.27,5.04,6.13,7.06,8.15,7.06,2.6,0,3.61-3.78,2.52-9.41l.84-.25,1.6,8.49c-1.76,2.1-4.29,2.86-6.97,2.86-6.97,0-9.83-2.86-14.2-12.94-2.6-5.88-5.8-14.29-9.16-15.8-2.86,1.18-5.55,2.1-7.65,2.69v21.18c0,1.26.84,2.18,2.02,2.35l8.07,1.09ZM111.57,47.02h-.17.17Z"/>
      <path class="cls-1" d="M151.98,71.14c0,1.26.84,2.27,2.02,2.52l4.71.92v.34h-13.78v-.34l.08-.08c.92-.76,1.6-2.1,1.6-3.36V31.81h12.1v.34l-4.71,1.01c-1.18.25-2.02,1.26-2.02,2.52v35.46ZM149.97,14.67c2.1,0,3.78,1.76,3.78,3.87s-1.68,3.87-3.78,3.87-3.87-1.76-3.87-3.87,1.68-3.87,3.87-3.87Z"/>
      <path class="cls-1" d="M172.57,62.23c.17,8.15,1.6,11.85,5.63,11.68,4.37-.17,8.91-6.47,12.35-13.61l.92.67c-3.53,7.48-8.57,14.12-14.03,14.29-7.06.17-10.34-3.7-10.25-12.02v-28.32c0-1.34-.92-2.18-2.19-2.18h-3.87v-.92h.59c6.72,0,8.32-9.41,4.71-12.44v-.34h7.31c.08,5.71-3.02,10.84-7.81,12.77h20v.92h-11.26c-1.26,0-2.1.84-2.1,2.18v27.31Z"/>
      <path class="cls-1" d="M201.05,62.23c.17,8.15,1.6,11.85,5.63,11.68,4.37-.17,8.91-6.47,12.35-13.61l.92.67c-3.53,7.48-8.57,14.12-14.03,14.29-7.06.17-10.34-3.7-10.25-12.02v-28.32c0-1.34-.92-2.18-2.19-2.18h-3.87v-.92h.59c6.72,0,8.32-9.41,4.71-12.44v-.34h7.31c.08,5.71-3.02,10.84-7.81,12.77h20v.92h-11.26c-1.26,0-2.1.84-2.1,2.18v27.31Z"/>
      <path class="cls-1" d="M243.23,32.15v-.34h11.6v.34l-.59.42c-.84.59-1.6,1.6-2.02,2.52l-14.79,38.91c-2.77,7.23-4.87,14.12-13.87,14.12-1.76,0-3.53-.34-5.21-.92l2.19-6.97.34.08c1.01,2.52,3.7,3.78,6.3,3.78,5.88,0,7.06-4.45,8.74-9.16h-2.44l-15.21-39.83c-.34-.92-1.18-1.93-2.02-2.52l-.59-.42v-.34h16.22v.34l-6.47,1.09c-.92.17-1.43.92-1.09,1.85l13.02,35.96,13.36-35.96c.42-.92,0-1.68-1.01-1.85l-6.47-1.09Z"/>
    </g>
    <g>
      <path class="cls-1" d="M261.98,16.44v-.34h7.39v6.22c2.1-4.45,6.47-7.31,12.02-7.48,9.66-.34,16.3,5.63,16.3,14.87,0,7.23-4.29,12.52-11.09,14.29,9.08,1.68,15.13,7.39,15.13,14.96,0,10.5-8.57,15.97-24.79,15.97h-14.96v-.34l.34-.34c.84-.59,1.34-1.68,1.34-2.77V19.88c0-1.26-.67-2.6-1.6-3.45h-.08ZM273.66,41.39c1.68,1.26,3.87,2.02,6.72,2.02,7.14,0,11.76-4.96,11.76-13.7s-4.54-13.61-11.6-13.53c-5.38,0-10.34,3.95-11.18,10.42v46.05c0,.5.34.92.84.92h6.72c13.11.08,19.75-4.96,19.75-14.96,0-8.4-6.13-14.03-15.46-14.03-3.44,0-6.05-.76-7.98-2.1l.42-1.09Z"/>
      <path class="cls-1" d="M333.9,66.27c-2.44,5.97-7.73,9.83-14.79,9.83-8.32,0-13.78-4.87-13.78-12.1s5.38-10.08,11.34-12.77l-10.17-9.5c3.03-6.64,9.33-10.59,15.63-10.59,11.26,0,17.23,6.55,17.14,18.99v18.65c0,3.87.59,5.8,2.35,5.8,2.52,0,3.87-5.55,2.86-10.34l1.18-.25c.59,3.11.92,12.35-5.8,12.02-3.87-.17-5.97-2.35-5.97-7.23v-2.52ZM312.39,40.13c0,2.94,1.34,6.64,5.21,10.76,4.2-1.85,8.57-3.61,11.68-6.72v.08c.34.67.17,1.18-.34,1.68-7.31,6.3-17.98,6.22-17.98,17.31,0,6.72,3.95,11.34,9.66,11.34,7.39,0,12.6-6.47,13.28-13.7v-9.33c.08-13.36-3.45-19.24-11.6-19.24-5.88,0-9.92,2.94-9.92,7.81Z"/>
      <path class="cls-1" d="M387.68,74.92h-14.62v-.34l5.55-1.01c1.26-.25,2.02-1.18,2.02-2.44v-3.19l.08-24.12c0-8.07-1.76-11.85-5.71-11.6-8.32.34-17.39,23.19-17.65,31.85v7.06c0,1.26.76,2.18,2.02,2.44l5.55,1.01v.34h-14.62v-.42c1.01-.76,1.68-2.1,1.68-3.36v-35.54c0-1.26-.67-2.61-1.68-3.36v-.42h14.62v.34l-5.55,1.01c-1.26.25-2.02,1.18-2.02,2.44v21.51c2.6-10.17,9.83-26.05,18.4-26.22,7.06-.17,10.25,3.61,10.25,11.93v28.32c0,1.18.67,2.6,1.68,3.36v.42Z"/>
      <path class="cls-1" d="M401.63,56.69c2.77-11.01,10.92-25.97,20.92-25.97,4.79,0,8.49,2.94,8.49,7.98,0,8.23-9.33,14.37-17.56,15.88,2.86,5.13,10.42,19.75,15.55,19.75,2.6,0,3.53-4.29,2.35-10.76l.92-.17,1.68,9.75c-1.76,2.1-4.37,2.86-6.97,2.86-5.71,0-9.5-3.87-12.18-8.49l-7.9-13.53c9.66,1.26,18.57-5.46,18.57-14.79,0-3.11-1.43-6.47-5.04-6.47-9.66,0-18.57,22.77-18.82,31.34v7.06c0,1.26.76,2.18,2.02,2.44l5.55,1.01v.34h-14.62v-.42c1.01-.76,1.68-2.1,1.68-3.36V14.84h12.1v.34l-4.71,1.01c-1.26.25-2.02,1.26-2.02,2.52v37.98Z"/>
    </g>
    <g>
      <path class="cls-2" d="M37.29,29.75c-25.77,18.01-10.76,54.39,4.51,56.27,15.27,1.87,8.35-14.42,18.85-21.76,10.5-7.34,23.8,4.49,26.36-11.82,2.56-16.31-26.22-39.11-49.72-22.69Z"/>
      <path class="cls-2" d="M73.27,1.74c7.59.18,4.43,15.68-2.7,15.23-5.22-.33-5.18-15.42,2.7-15.23Z"/>
      <path class="cls-2" d="M37.74.25c4.6-2.26,11.87,11.14,5.52,15.88-6.35,4.73-13.98-11.72-5.52-15.88Z"/>
      <path class="cls-2" d="M8.22,24.61c3.72-5.61,16.01,3.61,12.83,8.72-3.18,5.11-17.18-2.15-12.83-8.72Z"/>
      <path class="cls-2" d="M.15,57.93c1.51-5.83,16.05-2.29,14.55,3.43-1.51,5.72-16.36,3.56-14.55-3.43Z"/>
    </g>
  </g>
</svg>