<?xml version="1.0" encoding="UTF-8"?>
<svg id="Calque_2" data-name="Calque 2" xmlns="http://www.w3.org/2000/svg" viewBox="0 0 799.57 356.42">
  <defs>
    <style>
      .cls-1 {
        fill: #262521;
      }

      .cls-1, .cls-2 {
        stroke-width: 0px;
      }

      .cls-2 {
        fill: #f4e9e3;
      }
    </style>
  </defs>
  <g id="Calque_2-2" data-name="Calque 2">
    <g>
      <path class="cls-1" d="M558.41,290.54c73.62,20.53,107.73,87.34,154.49,58.97,41.22-25,12.31-66.64,15.39-73.71,3.08-7.07,51.53,7.27,64.77-30.86,14.36-41.37-26.26-56.26-27.63-66.38-1.37-10.12,46-26.63,31.32-70.49-9.87-29.57-39.41-31.81-63.79-27.62-7.87.65,5.53-7.07,11.87-30.85,8.37-31.42-22.22-63.99-70.4-42.88-48.18,21.11-102.37,68.86-123.86,71.09-21.49,2.23-413.87-32.08-547-42.71C1.46,204.28,0,322.18,0,322.18c0,0,516.09-43.44,558.41-31.64Z"/>
      <path class="cls-2" d="M641.13,180.28c.64-51.42-52.34-66.05-66.79-47.52-14.45,18.54,9.43,24.82,9.17,45.78-.26,20.96-24.3,27.4-8.06,46.32,16.24,18.92,65.11,2.3,65.69-44.59Z"/>
      <path class="cls-2" d="M691.92,310.5c-11.27,14.93-37.76-13.65-26.61-27.28,8.15-9.97,38.32,11.77,26.61,27.28Z"/>
      <path class="cls-2" d="M741.92,221.47c-2.08,12.45-39.37,7.75-39.72-11.77-.35-19.52,43.56-11.16,39.72,11.77Z"/>
      <path class="cls-2" d="M742.53,122.01c5.89,15.51-30.22,26.88-35.89,13.17-5.67-13.71,29-31.32,35.89-13.17Z"/>
      <path class="cls-2" d="M693.23,44.35c9.51,11.41-18.49,35.44-27.77,24.2-9.28-11.24,16.38-37.88,27.77-24.2Z"/>
      <path class="cls-2" d="M3.56,35.1c79.21,6.33,250.18,21.03,380.22,31.44-2.86,79.59-59.88,80.84-123.72,53.29-71.49-30.85-61.45,125.74-143.21,77.19-43.4-25.78-82.27-8.6-115.28-1.33.55-44.68,1.23-99.26,1.99-160.58Z"/>
    </g>
  </g>
</svg>