<?xml version="1.0" standalone="no"?>
<!DOCTYPE svg PUBLIC "-//W3C//DTD SVG 1.1//EN" "http://www.w3.org/Graphics/SVG/1.1/DTD/svg11.dtd" >
<svg xmlns="http://www.w3.org/2000/svg" xmlns:xlink="http://www.w3.org/1999/xlink" version="1.1">
<metadata>
Created by FontForge 20201107 at Tue Apr 30 16:16:06 2024
 By 
copyright missing
</metadata>
<defs>
<font id="VintageLemonade-Regular" horiz-adv-x="1228" >
  <font-face 
    font-family="VintageLemonade"
    font-weight="400"
    font-stretch="normal"
    units-per-em="2048"
    panose-1="0 0 0 0 0 0 0 0 0 0"
    ascent="1638"
    descent="-410"
    x-height="1024"
    cap-height="1434"
    bbox="-266 -877 2167 2013"
    underline-thickness="102"
    underline-position="-255"
    unicode-range="U+0020-203A"
  />
<missing-glyph horiz-adv-x="1024" 
d="M840 1638v-2048h-650v2048h650zM342 -268h340v67h-209l143 97h66v67h-340v-67h143l-143 -97v-67zM342 10h340v232h-340v-232zM342 365h340v231h-205v-115h70v47h67v-96h-204v164h-68v-231zM342 641h340v205h-68v-135h-272v-70zM342 758h205v143h135v68h-340v-68h135v-76
h-135v-67zM342 1024h340v70h-135v143h-205v-213zM342 1290h340v68h-135v76h135v67h-338v-67h133v-76h-135v-68zM410 78v96h204v-96h-204zM410 1094v73h67v-73h-67z" />
    <glyph glyph-name="f_f" unicode="ff" horiz-adv-x="1685" 
d="M754 1047q0 275 110 438q-67 45 -194 45q-67 0 -102.5 -35t-35.5 -129v-344h222v25zM123 2v1045q0 298 127.5 461t331.5 163q271 0 368 -90q113 90 262 90q205 0 329 -74.5t124 -214.5q0 -87 -53 -139.5t-131 -52.5q-75 0 -126.5 51t-51.5 121q-4 65 34.5 115t75.5 57
q-51 37 -113 37t-99.5 -53t-37.5 -152v-344h316v-100h-316v-920h-409v920h-222v-920h-409z" />
    <glyph glyph-name="f_f_i" unicode="ffi" horiz-adv-x="1839" 
d="M754 1047q0 262 129 426q-69 57 -213 57q-67 0 -102.5 -35t-35.5 -129v-344h222v25zM123 2v1045q0 298 127.5 461t331.5 163q138 0 241.5 -26.5t145.5 -83.5q131 110 305 110q205 0 328.5 -74.5t123.5 -214.5q0 -87 -53 -139.5t-131 -52.5q-75 0 -126.5 51t-51.5 121
q-4 65 34.5 115t76.5 57q-51 37 -113 37q-70 0 -134.5 -56t-64.5 -149v-342h594v-1024h-389v922h-205v-920h-409v920h-222v-920h-409z" />
    <glyph glyph-name="f_i" unicode="fi" horiz-adv-x="1208" 
d="M123 1047q0 119 29 221.5t78.5 175.5t116 125t142 77t154.5 25q205 0 329 -74.5t124 -214.5q0 -87 -53.5 -139.5t-131.5 -52.5q-75 0 -126.5 51t-51.5 121q-4 65 34.5 115t76.5 57q-51 37 -113 37q-70 0 -134.5 -56t-64.5 -149v-342h594v-1024h-389v922h-205v-920h-409
v1045z" />
    <glyph glyph-name=".notdef" horiz-adv-x="1024" 
d="M840 1638v-2048h-650v2048h650zM342 -268h340v67h-209l143 97h66v67h-340v-67h143l-143 -97v-67zM342 10h340v232h-340v-232zM342 365h340v231h-205v-115h70v47h67v-96h-204v164h-68v-231zM342 641h340v205h-68v-135h-272v-70zM342 758h205v143h135v68h-340v-68h135v-76
h-135v-67zM342 1024h340v70h-135v143h-205v-213zM342 1290h340v68h-135v76h135v67h-338v-67h133v-76h-135v-68zM410 78v96h204v-96h-204zM410 1094v73h67v-73h-67z" />
    <glyph glyph-name=".null" horiz-adv-x="0" 
 />
    <glyph glyph-name="nonmarkingreturn" horiz-adv-x="682" 
 />
    <glyph glyph-name="space" unicode=" " horiz-adv-x="593" 
 />
    <glyph glyph-name="space" unicode="&#xa0;" horiz-adv-x="593" 
 />
    <glyph glyph-name="exclam" unicode="!" horiz-adv-x="614" 
d="M174 510l-61 760l389 164l-62 -924h-266zM137 172q0 70 50 120t118 50q72 0 123 -50t51 -120q0 -71 -51 -121.5t-123 -50.5q-68 0 -118 51t-50 121z" />
    <glyph glyph-name="quotedbl" unicode="&#x22;" 
d="M793 1024q77 65 94 92q102 163 45 287q-13 -16 -38.5 -28.5t-60.5 -15t-71 18.5q-54 25 -75 81.5t5 117.5q27 58 86 78.5t127 -8.5q63 -30 90.5 -102t17.5 -162t-52 -181q-55 -120 -168 -178zM240 1577q27 58 86 78.5t127 -8.5q63 -30 90.5 -102t17 -162t-52.5 -181
q-55 -120 -168 -178q77 65 94 92q102 163 45 287q-13 -16 -38.5 -28.5t-60.5 -15t-71 18.5q-54 25 -74.5 81.5t5.5 117.5z" />
    <glyph glyph-name="numbersign" unicode="#" horiz-adv-x="1998" 
d="M477 0l-63 211l123 321l-496 -2l233 138l316 2l121 313l-486 -2l234 137l303 2l211 547l57 -274l-108 -273l438 2l209 545l57 -274l-106 -269l438 2l-172 -137l-322 -2l-123 -313l433 2l-172 -137l-316 -2l-213 -537l-63 211l125 326l-447 -2zM743 670l445 2l119 315
l-439 -2z" />
    <glyph glyph-name="ampersand" unicode="&#x26;" horiz-adv-x="1728" 
d="M61 389q0 130 98.5 235t254.5 150q-125 42 -201 130t-76 200q0 149 135 254.5t330 105.5t333 -103.5t138 -256.5q0 -108 -76 -196.5t-202 -131.5l170 -190q61 123 142.5 204.5t166 112t168 21.5t153.5 -58q76 -53 90 -133.5t-34 -146.5q-47 -64 -123 -77t-137 30
q-60 35 -80 99t-2 101q-56 -12 -105 -75q-63 -89 -110 -224l415 -469l-305 -2l-182 178q-47 -70 -171 -124t-251 -54q-146 0 -269.5 54.5t-196.5 151.5t-73 214zM397 379q3 -171 57.5 -253t163.5 -75q103 3 151.5 86.5t45.5 261.5q-6 172 -59 253t-164 77q-102 -8 -150 -91
t-45 -259zM424 1096q6 -293 192 -287q174 9 168 303q-5 150 -51 220t-143 67q-86 -8 -126.5 -80.5t-39.5 -222.5z" />
    <glyph glyph-name="quotesingle" unicode="'" horiz-adv-x="583" 
d="M227 1024q79 67 95 92q102 163 45 287q-13 -16 -38.5 -28.5t-60.5 -15t-71 18.5q-54 25 -75 81.5t5 117.5q27 58 86 78.5t127 -8.5q63 -30 90.5 -102t17 -162t-52.5 -181q-55 -120 -168 -178z" />
    <glyph glyph-name="parenleft" unicode="(" horiz-adv-x="864" 
d="M535 -33q-160 36 -290.5 158t-203.5 317q-85 319 -2.5 657.5t303.5 569.5q66 5 118.5 -41t74.5 -127q28 -80 21 -158t-42 -147q-63 -97 -109 -183.5t-74 -154.5t-42.5 -136t-19.5 -116t0.5 -107t12.5 -96t21 -96q28 -116 232 -340z" />
    <glyph glyph-name="parenright" unicode=")" horiz-adv-x="862" 
d="M520 -25q-66 -4 -118 41t-72 125q-29 80 -22.5 160t42.5 148q63 96 109 182t74 153t42 134.5t19 114.5t-1 106.5t-13 96t-21 95.5q-16 65 -83 159.5t-146 180.5q158 -36 287 -158t204 -317q84 -316 1.5 -653t-302.5 -568z" />
    <glyph glyph-name="asterisk" unicode="*" horiz-adv-x="919" 
d="M326 1208q-24 -9 -46.5 3.5t-29.5 39.5q-18 38 14.5 81t93.5 65q47 19 103 6q-41 0 -53 -4q-77 -13 -105 -68q14 4 35.5 -9t26.5 -36q9 -20 -2.5 -45.5t-36.5 -32.5zM225 1513q27 33 77.5 24.5t98.5 -50.5q50 -24 60 -84q-11 26 -27 47q-54 54 -115 51q12 -6 11 -31
t-17 -43q-14 -15 -39 -19t-45 13q-23 15 -24 42t20 50zM360 1616q3 26 26 40t52 7q41 -3 60 -53.5t8 -114.5q-6 -50 -45 -92q23 40 24 49q24 77 -10 123q-2 -14 -22.5 -25.5t-44.5 -7.5q-22 5 -36.5 25.5t-11.5 48.5zM414 1313q9 52 47 90q-22 -35 -27 -49q-20 -77 10 -123
q5 15 26 26t44 5q21 -3 36 -24t9 -48q-1 -26 -24.5 -40.5t-51.5 -8.5q-42 7 -61 57t-8 115zM461 1403q6 -13 14 -27.5t10 -19.5q57 -57 115 -53q-10 8 -9 33t17 42q12 17 37.5 21t48.5 -13q20 -19 20.5 -45t-18.5 -49q-26 -32 -78.5 -24t-99.5 51q-51 28 -57 84zM461 1403
q41 0 53 6q75 11 102 66q-14 -2 -33 10.5t-26 36.5q-10 16 1 42t36 33q26 9 48.5 -3t31.5 -40q17 -39 -17 -80.5t-96 -62.5q-44 -18 -100 -8z" />
    <glyph glyph-name="comma" unicode="," horiz-adv-x="604" 
d="M0 -285q104 18 141 37q96 52 148.5 118.5t58.5 135.5q-36 -15 -92 1.5t-88 70.5q-38 51 -27 121t70 110q58 42 129 28.5t117 -79.5q65 -103 7 -233.5t-200 -229.5q-122 -86 -264 -80z" />
    <glyph glyph-name="hyphen" unicode="-" horiz-adv-x="563" 
d="M563 498l-563 2v100l563 -4v-98z" />
    <glyph glyph-name="period" unicode="." horiz-adv-x="544" 
d="M168 0q-68 0 -118 51t-50 121t50 120t118 50q72 0 123 -50t51 -120q0 -71 -51 -121.5t-123 -50.5z" />
    <glyph glyph-name="slash" unicode="/" 
d="M457 0l-64 211l559 1456l58 -274z" />
    <glyph glyph-name="zero" unicode="0" 
d="M82 711q0 205 71 378.5t193 275t266 101.5q106 0 203 -57t168.5 -155t113.5 -237.5t42 -297.5q0 -153 -41 -291.5t-111 -239t-168 -160t-207 -59.5q-107 0 -204 55.5t-169 151.5t-114.5 235.5t-42.5 299.5zM475 719q0 -88 0.5 -143.5t2.5 -122.5t6.5 -107.5t12 -84.5
t18.5 -69t26.5 -46.5t36 -30.5t47.5 -9q90 0 110.5 124t20.5 489q-4 353 -28 481.5t-122 128.5q-90 0 -111.5 -125.5t-19.5 -484.5z" />
    <glyph glyph-name="one" unicode="1" 
d="M403 -2v1272l410 164v-1436h-410z" />
    <glyph glyph-name="two" unicode="2" 
d="M879 1266q6 10 -5 22.5t-33.5 21.5t-45.5 9q-40 0 -77 -24.5t-72.5 -67t-70.5 -89.5t-85.5 -103t-102.5 -95q-37 -29 -90.5 -23t-94 39.5t-58.5 88t16 124.5q84 146 209 228t256 82q141 0 241 -49q101 -47 186 -150.5t85 -187.5q0 -28 -13 -54l-526 -938l475 -2v-100
l-932 2z" />
    <glyph glyph-name="three" unicode="3" 
d="M180 1171q30 70 101 139.5t173 122t222 61.5t248 -42q76 -32 138.5 -92t96 -129.5t39 -143.5t-32.5 -135q-23 -52 -89.5 -105t-158.5 -91t-180 -45q88 -7 180 -45.5t158.5 -91.5t89.5 -105q38 -61 32.5 -135t-39 -143.5t-96 -129.5t-138.5 -92q-128 -51 -248 -42
t-222 61.5t-173 122t-101 139.5q-45 105 -24 212t83 142.5t142 -10.5q266 -249 448 -309q74 -19 96 26q30 60 -57 186q-68 98 -196 214q218 196 254 328q22 77 -29 98q-27 11 -68 0q-180 -60 -448 -310q-75 -55 -142.5 -10.5t-83 142.5t24.5 212z" />
    <glyph glyph-name="four" unicode="4" 
d="M573 1434h394q-12 -17 -37 -80l-387 -983l229 -2v243h410v-411l-410 -328v395l-622 2v99h-3z" />
    <glyph glyph-name="five" unicode="5" 
d="M580 -29q-128 0 -231.5 71.5t-164.5 195.5q54 -26 117.5 -27.5t125 21t122 60.5t111.5 93t90.5 117.5t61.5 135.5t22 144q0 99 -86 99q-26 0 -47.5 -22t-40.5 -58.5t-40 -76.5t-55.5 -84.5t-77.5 -74.5q-72 -51 -143 -52t-118.5 47.5t-53.5 133.5v641h-2v101l801 -2v-101
h-389v-270q129 -1 236 -74.5t168 -197.5t61 -271q0 -155 -62.5 -281.5t-169.5 -197t-235 -70.5z" />
    <glyph glyph-name="six" unicode="6" 
d="M150 502q0 25 4 71q12 219 51 381t95 260.5t136.5 157t163.5 79t188 19.5q124 -1 226.5 -78.5t169.5 -197.5q-122 103 -283 123q-29 4 -65.5 -2t-79 -26t-78.5 -52.5t-62.5 -87.5t-33.5 -125q35 6 71 6q102 0 196 -40.5t163 -109.5t110 -168t41 -210q0 -143 -67 -263.5
t-184.5 -191t-258.5 -70.5q-102 0 -194 40t-160 109t-108.5 167.5t-40.5 208.5zM524 469q1 -86 2.5 -130.5t6.5 -99.5t14 -80t25 -49.5t40 -32t58 -5.5q47 2 72 23.5t36.5 68.5t12.5 123t0 188q-5 244 -20 322q-23 119 -94 135q-15 3 -34 2q-46 -4 -72 -35.5t-36 -89.5
t-12 -143t1 -197z" />
    <glyph glyph-name="seven" unicode="7" 
d="M1114 1333l-571 -1333h-393l575 1333l-535 2v101l924 -2v-99v-2z" />
    <glyph glyph-name="eight" unicode="8" 
d="M70 389q0 133 96 238.5t252 150.5q-123 42 -199 129t-76 197q0 151 135.5 256.5t331.5 105.5q127 0 235.5 -46.5t173 -130t64.5 -185.5q0 -108 -76 -196t-202 -130q157 -44 254.5 -149t97.5 -240q0 -114 -72 -210t-198 -152t-277 -56q-146 0 -270 54t-197 150.5
t-73 213.5zM469 389q0 -47 0.5 -72.5t2.5 -62.5t5 -56.5t8 -46t12.5 -39t19 -28t26.5 -21.5t34.5 -10t43.5 -2q29 1 50 8.5t36 17.5t24.5 34.5t15 44t8 63t3 75.5t0.5 95q-3 180 -15 233q-18 86 -81 102q-24 7 -56 5q-29 -2 -50 -10t-36 -18.5t-24.5 -35t-15 -44.5t-8 -63
t-3 -74.5t-0.5 -94.5zM475 1106q1 -65 4 -107.5t11.5 -81.5t24.5 -60.5t42 -34t64 -11.5q35 1 58 12t37 31t21.5 57.5t10 80t2.5 110.5q0 64 -2.5 106t-11 82.5t-24 62.5t-42 35.5t-64.5 12.5q-34 -2 -57.5 -14.5t-38 -33t-22 -58.5t-10 -80t-3.5 -109z" />
    <glyph glyph-name="nine" unicode="9" 
d="M66 932q0 143 67 263t184 190.5t258 70.5q102 0 194.5 -40t160.5 -109t108.5 -167t40.5 -208q0 -26 -4 -72q-9 -158 -31.5 -286t-55 -220.5t-78.5 -162t-96 -113t-113 -70t-125 -36.5t-136 -9q-124 1 -226 78.5t-169 198.5q122 -103 283 -123q29 -4 65.5 2t79 26
t78.5 52.5t62.5 87.5t33.5 125q-40 -7 -72 -7q-137 0 -253.5 68.5t-186 190.5t-69.5 270zM438 958q5 -243 20 -321q23 -119 94 -135q15 -3 34 -2q46 4 72 35.5t36 89.5t12 143t-1 197q-1 86 -2.5 130.5t-6.5 99.5t-14 80t-25 49.5t-40 32t-58 5.5q-47 -2 -72 -23.5
t-36.5 -68.5t-12.5 -123.5t0 -188.5z" />
    <glyph glyph-name="colon" unicode=":" horiz-adv-x="454" 
d="M168 508q-68 0 -118 51t-50 121t50 120t118 50q72 0 123 -50t51 -120q0 -71 -51 -121.5t-123 -50.5zM0 172q0 70 50 120t118 50q72 0 123 -50t51 -120q0 -71 -51 -121.5t-123 -50.5q-68 0 -118 51t-50 121z" />
    <glyph glyph-name="semicolon" unicode=";" horiz-adv-x="921" 
d="M113 -285q104 18 141 37q96 52 148.5 118.5t58.5 135.5q-36 -15 -92 1.5t-88 70.5q-38 51 -27 121t70 110q58 42 128.5 28.5t116.5 -79.5q66 -103 7.5 -233.5t-199.5 -229.5q-122 -86 -264 -80zM254 680q0 70 50 120t118 50q72 0 123 -50t51 -120q0 -71 -51 -121.5
t-123 -50.5q-68 0 -118 51t-50 121z" />
    <glyph glyph-name="question" unicode="?" horiz-adv-x="958" 
d="M586 1122q38 88 -26.5 162t-194.5 74q-71 0 -113 -27q37 -7 75.5 -57t34.5 -115q0 -70 -51.5 -121t-126.5 -51q-77 0 -130.5 53t-53.5 140q0 140 124 214t329 74q132 0 224 -43.5t133.5 -119.5t32 -182.5t-74.5 -227.5l-205 -387h-246zM266 172q0 70 50 120t118 50
q72 0 123 -50t51 -120q0 -71 -51 -121.5t-123 -50.5q-68 0 -118 51t-50 121z" />
    <glyph glyph-name="at" unicode="@" horiz-adv-x="1445" 
d="M684 360q-95 0 -161 76.5t-66 190.5q0 111 65.5 188.5t161.5 77.5q90 0 147 -57l117 43v-437q0 -8 7.5 -22.5t22 -26.5t32 -16t40.5 13.5t44 58.5v4q1 1 2 3t2 3q41 85 41 172q0 114 -33 205.5t-90.5 150t-133 89t-163.5 30.5q-179 0 -294 -123t-118 -344
q-3 -114 28.5 -206.5t88 -151.5t131.5 -90.5t160 -32.5q80 -2 109 6.5t122 58.5l98 -53q-61 -33 -151 -54t-180 -20q-169 2 -310.5 74.5t-223 197.5t-77.5 273q1 106 49 202.5t128.5 167.5t195.5 113.5t244 42.5q170 0 313.5 -71t227 -194.5t83.5 -270.5q0 -75 -67 -211
q-80 -139 -395 -76q-40 8 -93 45q-50 -29 -104 -29zM561 758q0 -121 54 -199.5t139 -89.5v213q0 84 -36 118t-85 34q-33 0 -52.5 -21.5t-19.5 -54.5z" />
    <glyph glyph-name="A" unicode="A" horiz-adv-x="1241" 
d="M1495 -690q-186 -38 -347.5 79t-248.5 375l-197 582l-403 2l-160 -348h-129l475 993l-39 113l-14 43q-26 81 -149 18q-26 -14 -50 -35.5t-34 -37.5q-3 52 80.5 149.5t171.5 147.5q55 32 111.5 41t111.5 -7t101 -73.5t73 -151.5l522 -1608q27 -82 77.5 -128t106.5 -33
q54 10 101 63q-38 -2 -89 36t-63 101q-19 67 17.5 130t109.5 83q75 21 140 -16.5t88 -122.5q18 -66 -9.5 -133.5t-84.5 -119t-128 -89.5t-141 -53zM346 449l324 -3l-138 406z" />
    <glyph glyph-name="B" unicode="B" horiz-adv-x="1241" 
d="M113 1229q0 52 -34 89.5t-81 37.5q-70 0 -111 -23q24 47 145.5 90t221.5 43q23 0 33 -2q2 2 10 2l346 -2q144 0 246 -89t102 -220q0 -84 -45 -155t-121 -111q169 -35 276 -154.5t107 -288.5q0 -198 -147.5 -338t-360.5 -137q-121 0 -178 2h-409v1256zM498 1329
q24 -55 24 -141v-49q0 -17 6 -47q51 -97 96 -139t97 -42q49 0 78.5 26.5t29.5 66.5q0 121 -95 208.5t-236 116.5zM522 463q0 -48 15 -113q71 -146 136.5 -209t141.5 -63q73 0 116.5 38t43.5 99q0 220 -128.5 362t-324.5 154v-268z" />
    <glyph glyph-name="C" unicode="C" horiz-adv-x="1347" 
d="M719 -27q-131 0 -250.5 57.5t-207 157t-139.5 241.5t-52 302q0 123 32 238t91 208t138.5 163t179.5 108.5t208 38.5q157 0 293 -71.5t211 -203.5q60 -108 63 -235q-4 -93 -57 -147t-129 -52q-56 -3 -101 25.5t-67 77.5q-93 233 -178 335.5t-181 102.5q-82 0 -116.5 -48
t-34.5 -167q0 -133 38 -263.5t101.5 -235t149.5 -184.5t178.5 -119.5t192 -32.5t186.5 69q-87 -169 -229.5 -267t-319.5 -98z" />
    <glyph glyph-name="D" unicode="D" horiz-adv-x="1394" 
d="M776 -33q-330 0 -428 2h-235v1260q0 52 -34 89.5t-81 37.5q-70 0 -111 -23q24 47 145.5 90t221.5 43q107 0 172 -45q85 36 160.5 43t165.5 -6q162 -18 294.5 -157t205.5 -352t73 -451q0 -108 -42.5 -206t-115.5 -169.5t-175 -113.5t-216 -42zM479 1364q43 -64 43 -176
v-670h2q0 -54 15 -127q70 -154 169 -229.5t191 -75.5q77 0 123.5 43.5t46.5 110.5q0 137 -48 313.5t-126.5 341t-190 296t-225.5 173.5z" />
    <glyph glyph-name="E" unicode="E" horiz-adv-x="1251" 
d="M768 -31q-52 -3 -115 -1.5t-121 14.5q-409 96 -409 593v54l2 805h410l493 -2v-101l-493 2v-461l309 -2v-100l-309 2v-301q0 -99 22.5 -165t69.5 -101t106 -48.5t144 -13.5q36 0 55 6.5t57 30.5q-37 7 -75.5 57t-34.5 115q0 70 51.5 121t126.5 51q76 0 130 -59.5
t54 -147.5q0 -68 -51 -134t-125.5 -110.5t-154.5 -73t-142 -30.5z" />
    <glyph glyph-name="F" unicode="F" horiz-adv-x="1046" 
d="M113 10v1424h409l494 -2v-101l-494 2v-461l309 -2v-100l-309 2v-762h-409z" />
    <glyph glyph-name="G" unicode="G" horiz-adv-x="1357" 
d="M719 0q-131 0 -250.5 56.5t-207 154t-139.5 236.5t-52 296q0 203 85 373.5t234.5 270.5t329.5 100q157 0 293.5 -70t210.5 -200q60 -105 63 -232q-4 -91 -57 -143.5t-129 -50.5q-59 -3 -123.5 26.5t-85.5 73.5q-116 285 -197 371.5t-205 44.5q-46 -16 -70.5 -48
t-29.5 -80t10.5 -122t45 -162t79.5 -211q83 -206 130 -284q93 -158 216 -181l2 242q0 51 -33.5 88t-80.5 37q-70 0 -111 -23q24 46 145.5 88.5t221.5 42.5q128 0 198 -67t70 -207l-2 -418h-399q-45 -2 -162 -2z" />
    <glyph glyph-name="H" unicode="H" horiz-adv-x="1347" 
d="M1284 -594q-206 0 -332.5 157.5t-126.5 436.5v770l-307 2v-772h-409v1434q0 52 -34 89.5t-81 37.5q-70 0 -111 -23q24 47 145.5 90t221.5 43q128 0 198 -68t70 -210v-521l307 -2v564h410v-1723q0 -87 39.5 -146t97.5 -59q36 0 55.5 6.5t57.5 30.5q-38 7 -76.5 57
t-34.5 115q0 70 51.5 121t126.5 51q78 0 131.5 -52.5t53.5 -139.5q0 -140 -124 -214.5t-329 -74.5z" />
    <glyph glyph-name="I" unicode="I" horiz-adv-x="634" 
d="M113 -2v1436h409v-1436h-409z" />
    <glyph glyph-name="J" unicode="J" horiz-adv-x="1044" 
d="M473 -33q-205 0 -329 74.5t-124 214.5q0 87 53.5 140t131.5 53q75 0 126.5 -51.5t51.5 -121.5q4 -65 -34.5 -115t-76.5 -57q56 -36 113 -36q137 0 137 204v1063h-317v101l727 -2v-873q0 -277 -128.5 -435.5t-330.5 -158.5z" />
    <glyph glyph-name="K" unicode="K" horiz-adv-x="1193" 
d="M113 1233q0 52 -34 89.5t-81 37.5q-70 0 -111 -23q24 47 145.5 90t221.5 43q246 0 266 -237q10 9 96 82q103 86 200.5 126t184.5 26.5t148 -85.5q55 -69 47.5 -142t-66.5 -124q-59 -47 -130 -41t-115 60q-32 33 -43 75.5t-5 75.5t21 51q-29 0 -50.5 -7.5t-30.5 -14
t-29 -23.5q-46 -37 -87 -86t-69.5 -99.5t-44.5 -98t-14.5 -86t22.5 -58.5l74 -92l626 -772h-354l-379 438v-440h-409v1235z" />
    <glyph glyph-name="L" unicode="L" horiz-adv-x="1251" 
d="M768 -31q-52 -3 -115 -1.5t-121 14.5q-409 96 -409 593v54l2 805h410v-963q0 -99 22.5 -165t69.5 -101t106 -48.5t144 -13.5q36 0 55 6.5t57 30.5q-37 7 -75.5 57t-34.5 115q0 70 51.5 121t126.5 51q76 0 130 -59.5t54 -147.5q0 -68 -51 -134t-125.5 -110.5t-154.5 -73
t-142 -30.5z" />
    <glyph glyph-name="M" unicode="M" horiz-adv-x="1765" 
d="M133 1434q0 52 -34 89.5t-81 37.5q-69 0 -110 -23q24 47 145 90t221 43q224 0 263 -198l366 -1074l340 1031v4h410v-1436h-410v1137l-340 -988l-360 1006v-1153h-410v1434z" />
    <glyph glyph-name="N" unicode="N" horiz-adv-x="1351" 
d="M109 1434q0 52 -34 89.5t-81 37.5q-70 0 -111 -23q24 47 145.5 90t221.5 43q235 0 264 -215v2l315 -1089v1065h410v-1436h-410l-311 1098v-1096h-409v1434z" />
    <glyph glyph-name="O" unicode="O" horiz-adv-x="1425" 
d="M70 721q0 121 31.5 234.5t90 205.5t137 160.5t177 106.5t205.5 38q130 0 248.5 -57t205.5 -154.5t139 -237t52 -296.5q0 -204 -84.5 -375.5t-233 -272t-327.5 -100.5q-130 0 -247.5 57t-204.5 155t-138 238t-51 298zM483 1284q-38 -13 -59.5 -37.5t-27 -65.5t0 -89.5
t27 -121.5t48.5 -148.5t69 -182.5q31 -77 54 -131.5t49 -110t47 -92t45.5 -70t47 -51.5t48.5 -29.5t53.5 -10.5t58.5 12q38 13 59.5 37.5t27 65.5t-0.5 90t-27.5 122t-49 149t-70.5 183q-31 77 -53.5 131t-48.5 110t-47 92t-45 70t-46.5 51.5t-48 28.5t-53 10t-58.5 -12z
" />
    <glyph glyph-name="P" unicode="P" horiz-adv-x="1277" 
d="M700 399q-89 0 -178 29v-428h-409v1229q0 52 -34 89.5t-81 37.5q-70 0 -111 -23q23 44 134.5 86t211.5 47h9h12h446q103 0 196.5 -40.5t162 -111t109 -170t40.5 -212.5q0 -145 -66.5 -267t-183.5 -194t-258 -72zM518 1253q4 -40 4 -65v-236q0 -54 15 -127
q71 -164 136.5 -235.5t141.5 -71.5q73 0 116.5 44t43.5 112q0 248 -130 407.5t-327 171.5z" />
    <glyph glyph-name="Q" unicode="Q" horiz-adv-x="1441" 
d="M70 711q0 205 85 378.5t234.5 275t329.5 101.5q131 0 251 -57.5t208.5 -156.5t141 -240.5t52.5 -300.5q0 -252 -126 -451.5t-328 -271.5l-101 -54q-45 -25 -76.5 -73t-17.5 -80q7 -26 17 -39t38 -37q-4 31 24 74t79 59q54 19 107 -7t71 -85q22 -56 -3.5 -109.5
t-92.5 -82.5q-69 -25 -136.5 -21t-121 28.5t-86.5 78t-33 127.5q0 43 39.5 97t97.5 89h-4q-131 0 -250.5 57.5t-207 157t-139.5 241.5t-52 302zM489 1282q-38 -13 -60.5 -38t-28.5 -66.5t-0.5 -91.5t26.5 -123t49 -150t70 -184q131 -327 202 -430t189 -62q46 16 69.5 48.5
t28 81.5t-11.5 124.5t-46.5 165.5t-80.5 217q-29 72 -48.5 119.5t-44.5 103.5t-43 91t-40.5 73t-41.5 59t-41.5 40.5t-45 25.5t-48 6t-53.5 -10z" />
    <glyph glyph-name="R" unicode="R" horiz-adv-x="1265" 
d="M113 1229q0 52 -34 89.5t-81 37.5q-70 0 -111 -23q23 44 134.5 86t211.5 47h9h12h446q103 0 196.5 -40.5t162 -111t109 -170t40.5 -212.5q0 -177 -99 -317.5t-257 -190.5l475 -424h-354l-451 356v-356h-409v1229zM518 1253q4 -40 4 -65v-236q0 -54 15 -127
q71 -164 136.5 -235.5t141.5 -71.5q73 0 116.5 44t43.5 112q0 248 -130 407.5t-327 171.5z" />
    <glyph glyph-name="S" unicode="S" horiz-adv-x="1202" 
d="M436 1448q40 13 98 15t124.5 -6.5t137 -30t131.5 -52.5t111.5 -78t75.5 -102q33 -70 26 -155t-57 -130q-50 -42 -168.5 -16.5t-185.5 90.5q-45 43 -119.5 82.5t-147 62.5t-131.5 19t-73 -43q-7 -41 19.5 -75t114 -74.5t243.5 -84.5l70 -18q2 -1 7 -2t7 -2q9 -4 25 -8.5
t18 -5.5q177 -62 274 -162.5t97 -259.5q0 -113 -72.5 -208.5t-220.5 -185.5q-23 -17 -60 -30q-95 -33 -199.5 -27t-196.5 38t-168 97t-114 150q-33 72 -26 155.5t59 124.5q48 42 165.5 17.5t188.5 -90.5q46 -44 117 -86t142.5 -69t130.5 -21.5t77 51.5h2q28 90 -37.5 125.5
t-303.5 89.5q-69 15 -107 24q-2 1 -7 2t-7 2q-135 35 -218 71t-129.5 85.5t-62.5 105t-16 140.5q0 75 15 138t50.5 123t100 110t157.5 88q26 11 43 16z" />
    <glyph glyph-name="T" unicode="T" horiz-adv-x="1124" 
d="M356 0v1333h-356v101l1124 -2v-101h-358v-1331h-410z" />
    <glyph glyph-name="U" unicode="U" horiz-adv-x="1351" 
d="M647 -33q-52 0 -118.5 10t-140 32.5t-134.5 54t-101 79t-40 103.5v1188h409v-1229q0 -55 45.5 -117.5t91.5 -62.5h35q45 3 90 65t45 115v1229h410v-1188q0 -56 -40 -103.5t-101 -79t-134.5 -54t-140 -32.5t-118.5 -10h-39h-19z" />
    <glyph glyph-name="V" unicode="V" horiz-adv-x="1288" 
d="M115 1163q-16 34 -55.5 40.5t-94.5 -19.5q-57 -33 -78 -70q-3 49 76 141.5t162 143.5q83 44 156 43t132.5 -59.5t90.5 -168.5l401 -1062l314 1052h90l-346 -1202v-2h-2v-2v2h-367l-461 1124z" />
    <glyph glyph-name="W" unicode="W" horiz-adv-x="2111" 
d="M-113 1077q-3 52 77 148t165 151q82 49 152 47.5t128 -63.5t95 -182l401 -1033l168 471l-188 592h409l338 -1063l369 1063h90l-412 -1208h-409l-148 465l-159 -465h-410l-444 1149q-38 63 -144 4q-25 -14 -47.5 -37t-30.5 -39z" />
    <glyph glyph-name="X" unicode="X" horiz-adv-x="1083" 
d="M111 0l346 612l-258 568l-15 28q-19 41 -56.5 43t-90.5 -26q-25 -13 -47.5 -33t-30.5 -35q-3 47 76 136t162 134q236 129 374 -172l158 -344l195 346h118l-264 -454l367 -803h-410l-231 508l-297 -508h-96z" />
    <glyph glyph-name="Y" unicode="Y" horiz-adv-x="948" 
d="M369 0v492l-256 675l-19 43q-18 39 -51 42.5t-84 -25.5q-24 -13 -45 -33.5t-27 -34.5q-3 46 71.5 137t150.5 138q50 30 99.5 38t97.5 -7t88.5 -68t64.5 -140l229 -639l197 658h84l-236 -782v-2v-492h-149v-2v2h-215z" />
    <glyph glyph-name="Z" unicode="Z" horiz-adv-x="1406" 
d="M20 0l795 1331l-680 2v101h1217l-690 -1084q-29 -64 -5.5 -111t87 -78t139 -46t149.5 -15q36 0 55.5 6.5t57.5 30.5q-38 7 -76.5 57t-34.5 115q0 70 51.5 121t126.5 51q78 0 131.5 -52.5t53.5 -139.5q0 -140 -124 -214.5t-329 -74.5h-506h-28h-390z" />
    <glyph glyph-name="backslash" unicode="\" 
d="M874 0l-552 1389l57 274l559 -1452z" />
    <glyph glyph-name="underscore" unicode="_" 
d="M1163 -240l-1126 2v101l1126 -4v-99z" />
    <glyph glyph-name="grave" unicode="`" 
d="M993 1239q-116 -16 -250 6.5t-258.5 89t-183.5 164.5q-18 41 15.5 73t86.5 32q70 0 119 -52q44 -49 61.5 -68.5t53 -56.5t56.5 -52.5t57 -40.5t68.5 -38.5t77 -29t97.5 -27.5z" />
    <glyph glyph-name="a" unicode="a" horiz-adv-x="1179" 
d="M526 -29q-194 0 -329.5 155.5t-135.5 387.5q0 225 135 384t330 159q178 0 301 -117l236 86v-889q0 -34 33 -59t78 -25q70 0 108 15q-26 -30 -142 -58t-214 -28q-108 0 -178 45q-118 -56 -222 -56zM356 799q0 -211 85.5 -361.5t224.5 -204.5v435q-6 62 -29 111.5t-52.5 78
t-63.5 47t-58.5 25t-40.5 6.5q-40 0 -53 -34.5t-13 -102.5z" />
    <glyph glyph-name="b" unicode="b" horiz-adv-x="1153" 
d="M641 -33h-4h-2h-19q-247 7 -384.5 157.5t-145.5 401.5v947q0 34 -27.5 62t-83.5 28q-73 0 -108 -17q33 42 128.5 65t223.5 23q109 0 163 -19t73.5 -59.5t19.5 -121.5v-400h160q93 0 177 -40.5t145.5 -111t98 -170t36.5 -212.5q0 -144 -59 -265.5t-162.5 -193.5
t-229.5 -74zM475 518q0 -59 12 -125q67 -172 116 -239.5t114 -67.5q61 0 61 115q0 201 -84 356t-219 221v-260z" />
    <glyph glyph-name="c" unicode="c" horiz-adv-x="966" 
d="M518 -43q-124 0 -228.5 69t-166.5 192.5t-62 273.5q0 145 60 267t165 193.5t232 71.5q110 0 206 -50.5t150 -142.5q41 -78 44 -167q-3 -65 -41 -104t-91 -36q-61 4 -104 24.5t-66 51t-39 66t-30.5 70.5t-33 63.5t-53 46.5t-85.5 18q-38 0 -60 -24t-22 -70q0 -82 27 -165
t74 -151.5t109.5 -125.5t132.5 -87t144.5 -35t145.5 30q-61 -121 -172 -200t-236 -79z" />
    <glyph glyph-name="d" unicode="d" horiz-adv-x="1138" 
d="M518 -43q-124 0 -228.5 69t-166.5 192.5t-62 273.5q0 145 60 267t165 193.5t232 71.5q65 0 137 -20v426h2v51q0 34 -33 58t-77 24q-69 0 -107 -15q24 30 140 58t211 28q119 0 187.5 -53.5t68.5 -146.5v-1303v-10q0 -34 32 -58t76 -24q72 0 107 14q-24 -30 -140 -58
t-211 -28q-115 0 -182 49q-92 -59 -211 -59zM272 750q0 -170 114 -323t269 -212v414q-61 147 -117.5 211.5t-121.5 64.5t-104.5 -43.5t-39.5 -111.5z" />
    <glyph glyph-name="e" unicode="e" horiz-adv-x="1003" 
d="M530 -43q-194 0 -331.5 158t-137.5 393q0 149 61.5 274.5t169.5 199t238 73.5q113 0 212 -52t155 -145q45 -83 45 -174v-41v-104l-606 2q58 -121 161 -211.5t215.5 -120.5t217.5 14q-61 -124 -165 -195t-235 -71zM279 772q0 -61 16 -127l319 -2q-56 132 -111.5 191
t-117.5 59q-106 0 -106 -121z" />
    <glyph glyph-name="f" unicode="f" horiz-adv-x="1054" 
d="M123 1047q0 298 127.5 461t331.5 163q205 0 328.5 -74.5t123.5 -214.5q0 -87 -53 -139.5t-131 -52.5q-75 0 -126.5 51t-51.5 121q-4 65 34.5 115t75.5 57q-51 37 -112 37q-62 0 -100 -53.5t-38 -151.5v-344h316v-100h-316v-920h-409v1045z" />
    <glyph glyph-name="g" unicode="g" horiz-adv-x="1191" 
d="M41 -463q0 167 130.5 271t360.5 104h373q36 0 55 33.5t13.5 87.5t-35.5 108q-145 -129 -336 -129q-136 0 -251 68.5t-183 190.5t-68 270q0 143 66 263.5t181.5 191.5t254.5 71q25 0 39 -2q-63 60 -63 117q0 60 27 104.5t71 65t99.5 24t113.5 -17.5q56 -22 77 -67.5
t3 -90.5q-17 -50 -61.5 -71.5t-88.5 -6.5q-42 12 -65 48.5t-19 64.5q-25 -23 -32 -33.5t-13 -32.5q-13 -26 13.5 -65.5t64.5 -59.5l51 -26q14 -7 35 -21h2q116 -68 185 -188.5t69 -267.5q0 -115 -44 -218t-122 -176q47 -52 101.5 -169.5t54.5 -184.5q0 -105 -56 -163
t-172 -58h-579q-71 0 -120.5 -31t-49.5 -78q0 -30 5 -44.5t26 -49.5q5 32 46.5 64t94.5 28q60 0 102.5 -42t42.5 -105t-44.5 -107.5t-116.5 -44.5q-116 0 -177 102.5t-61 272.5zM426 936q-25 -8 -39 -21.5t-17.5 -34t1.5 -47t17.5 -61t30.5 -75.5t40 -91q36 -78 55 -123
q16 -36 36 -82t31.5 -73t26.5 -60t25.5 -50.5t24.5 -37t26.5 -27.5t29 -14.5t34.5 -4.5t40 9q25 8 38.5 21.5t16 35t-2 47.5t-18.5 63t-31.5 76.5t-41.5 93.5q-34 75 -53 118q-16 37 -36 82.5t-31.5 72.5t-26.5 59.5t-25 50t-23.5 37t-26 27.5t-28.5 14t-33.5 4t-39.5 -9z
" />
    <glyph glyph-name="h" unicode="h" horiz-adv-x="1126" 
d="M61 1485q0 34 -33 58t-77 24q-70 0 -107 -15q24 30 140 58t211 28q119 0 187.5 -53.5t68.5 -146.5v-439q66 23 170.5 40.5t187.5 17.5q119 0 187.5 -53.5t68.5 -147.5v-860h-389v907q0 34 -33 58t-78 24q-55 0 -114 -6v-979h-390v1485z" />
    <glyph glyph-name="i" unicode="i" horiz-adv-x="614" 
d="M113 0v1024h389v-1024h-389zM82 1331q0 94 65.5 159.5t157.5 65.5q94 0 160.5 -65.5t66.5 -159.5t-66.5 -159.5t-160.5 -65.5q-92 0 -157.5 65.5t-65.5 159.5z" />
    <glyph glyph-name="j" unicode="j" horiz-adv-x="731" 
d="M174 -877q-200 0 -315 61t-115 191q0 83 50.5 134t123.5 51q72 0 121 -48.5t49 -115.5q4 -62 -32 -109.5t-72 -54.5q54 -35 106 -35q129 0 129 195v1632h389v-1153q0 -180 -15.5 -307t-46.5 -213.5t-84.5 -136t-122 -70.5t-165.5 -21zM178 1331q0 94 65.5 159.5
t157.5 65.5q94 0 161 -66t67 -159t-67 -159t-161 -66q-92 0 -157.5 65.5t-65.5 159.5z" />
    <glyph glyph-name="k" unicode="k" horiz-adv-x="1105" 
d="M115 1485q0 34 -33 58t-78 24q-68 0 -106 -15q24 30 139.5 58t210.5 28q119 0 187.5 -53.5t68.5 -146.5v-596l147 -180l250 362h105l-299 -432l481 -592h-354l-330 381v-381h-389v1485z" />
    <glyph glyph-name="l" unicode="l" horiz-adv-x="667" 
d="M389 -37q-119 0 -187.5 53.5t-68.5 147.5v1474h389v-1521q0 -34 33 -58t78 -24q71 0 106 14q-24 -30 -139.5 -58t-210.5 -28z" />
    <glyph glyph-name="m" unicode="m" horiz-adv-x="1763" 
d="M1272 903q0 34 -33 58t-78 24q-59 0 -117 -6q43 -53 43 -123v-856h-389v903q0 34 -33 58t-77 24q-58 0 -117 -6q43 -53 43 -123v-856h-389v903q0 34 -33 58t-78 24q-71 0 -106 -14q24 30 139.5 58t210.5 28q132 0 199 -64q61 24 173.5 44t200.5 20q132 0 199 -64
q61 24 174 44t201 20q119 0 187.5 -53.5t68.5 -147.5v-856h-389v903z" />
    <glyph glyph-name="n" unicode="n" horiz-adv-x="1280" 
d="M768 903q0 34 -33 58t-78 24q-107 0 -153 -10q39 -51 39 -119v-856h-389v903q0 37 -27.5 56.5t-67.5 21.5q-34 0 -61 -12q26 32 112.5 60t176.5 28q145 0 213 -78q41 27 170 52.5t231 25.5q119 0 187.5 -53.5t68.5 -147.5v-856h-389v903z" />
    <glyph glyph-name="o" unicode="o" horiz-adv-x="1230" 
d="M61 512q0 149 72 274t199.5 198t281.5 73q112 0 213.5 -41.5t177 -113t120 -173.5t44.5 -217q0 -148 -72.5 -272.5t-200.5 -197.5t-282 -73q-149 0 -275.5 69.5t-202 195t-75.5 278.5zM426 932q-18 -6 -30.5 -14.5t-20.5 -19.5t-10 -27t-0.5 -32.5t8 -39.5t14.5 -45.5
t21 -53.5t26 -60t31 -68q34 -75 53 -117q17 -38 37.5 -86.5t32 -77t27.5 -63.5t26.5 -53.5t25.5 -39.5t28.5 -30t30.5 -15.5t37 -4.5t44 9q32 9 46.5 29.5t14.5 48.5t-14 73t-34.5 93t-52.5 119q-35 77 -54 121q-17 39 -37.5 86t-32.5 75.5t-28 62.5t-26.5 52.5t-25 38.5
t-27.5 29t-30 15t-36.5 4.5t-43.5 -9.5z" />
    <glyph glyph-name="p" unicode="p" horiz-adv-x="1159" 
d="M662 -27q-67 0 -138 23v-408h-389v1309q0 34 -33 58t-77 24q-72 0 -107 -14q24 30 139.5 58t210.5 28q110 0 183 -50q99 60 211 60q93 0 176.5 -41.5t145 -113t98 -173.5t36.5 -217q0 -148 -59.5 -272.5t-164.5 -197.5t-232 -73zM524 432q0 -1 1 -2t1 -2
q64 -166 123.5 -239.5t128.5 -73.5q129 0 129 139q0 173 -114 329.5t-269 215.5v-367z" />
    <glyph glyph-name="q" unicode="q" horiz-adv-x="1118" 
d="M510 -35q-186 0 -317.5 153t-131.5 380q0 145 58.5 267t162 193.5t228.5 71.5q154 0 272 -98l254 94v-1438h-389v402q-67 -25 -137 -25zM268 756q0 -169 113.5 -322.5t265.5 -212.5v328q-64 166 -121.5 243.5t-122.5 77.5q-67 0 -101 -30t-34 -84z" />
    <glyph glyph-name="r" unicode="r" horiz-adv-x="991" 
d="M135 901q0 34 -33 58t-77 24q-72 0 -107 -14q24 30 139.5 58t210.5 28t154 -33q85 32 186 35q162 0 252 -81.5t90 -207.5q0 -81 -50 -132.5t-122 -51.5q-70 0 -119 50t-49 116q-5 61 30.5 97t76.5 44q-14 45 -80.5 65t-151.5 15q39 -48 39 -117v-854h-389v901z" />
    <glyph glyph-name="s" unicode="s" horiz-adv-x="864" 
d="M324 1032q34 11 85.5 11.5t110.5 -12t114.5 -34.5t101.5 -60t67 -85q24 -51 19.5 -110.5t-40.5 -92.5q-36 -30 -120 -11.5t-132 64.5q-32 30 -84 58t-103 44.5t-93 14.5t-53 -28q-10 -43 41.5 -81t201.5 -81q85 -20 149 -46t117.5 -65t82 -95.5t28.5 -127.5
q0 -80 -51.5 -147t-155.5 -130q-17 -14 -43 -24q-68 -23 -142 -18.5t-139 27t-119 68.5t-81 107q-25 51 -19.5 110t42.5 89q34 30 116.5 12.5t134.5 -63.5q45 -43 116 -80t132.5 -45.5t83.5 35.5q6 19 6.5 33.5t-3 25.5t-16 21t-26 17.5t-40.5 15.5t-51.5 14t-65.5 16
q-114 24 -188.5 46.5t-124.5 47.5t-76 58t-36 70.5t-10 92.5q0 110 51.5 190.5t178.5 135.5z" />
    <glyph glyph-name="t" unicode="t" horiz-adv-x="770" 
d="M399 -27q-120 0 -190 55t-70 150v737h-104v103h104v227l396 148v-375h217v-103h-217v-786q0 -33 33.5 -57.5t78.5 -24.5q74 0 109 14q-24 -32 -141.5 -60t-215.5 -28z" />
    <glyph glyph-name="u" unicode="u" horiz-adv-x="1302" 
d="M389 -33q-119 0 -187.5 53.5t-68.5 147.5v856h389v-903q0 -34 33 -58t78 -24q107 0 153 10q-38 50 -38 119v856h389v-903q0 -34 33 -58t77 -24q72 0 107 14q-24 -30 -139.5 -58t-210.5 -28q-145 0 -213 78q-41 -27 -170.5 -52.5t-231.5 -25.5z" />
    <glyph glyph-name="v" unicode="v" horiz-adv-x="1003" 
d="M-82 809q-1 39 55.5 111.5t116.5 111.5q36 22 89 28.5t107.5 -4t102 -51t66.5 -104.5q2 -2 2 -4l278 -793l264 922h66l-293 -1024v-2h-2v-2v2h-369l-331 868q-26 36 -95 -4q-41 -23 -57 -55z" />
    <glyph glyph-name="w" unicode="w" horiz-adv-x="1675" 
d="M-41 866q-3 54 58 156.5t126 155.5q94 72 200.5 24t152.5 -178l4 -10l319 -871l88 258l-229 623h409l17 -45v2l8 -31l274 -803l259 836h92l-301 -983h-381l-99 264l-84 -264h-391l-327 897l-13 29q-34 84 -121 16q-20 -15 -38 -38t-23 -38z" />
    <glyph glyph-name="x" unicode="x" horiz-adv-x="956" 
d="M49 0l311 449l-229 509l-12 23q-32 56 -144 14q-25 -10 -47 -27t-30 -30q-3 38 75.5 111t161.5 112q53 23 106 29t105 -6t95.5 -54.5t68.5 -111.5l158 -348l241 350h119l-317 -442l262 -578h-410l-160 356l-258 -356h-96z" />
    <glyph glyph-name="y" unicode="y" horiz-adv-x="1081" 
d="M283 -633q-178 48 -268.5 140t-57.5 214q21 76 79.5 111t123.5 16q68 -17 100 -73.5t14 -120.5q-11 -56 -55.5 -89.5t-79.5 -31.5q14 -14 36 -25t36 -15t44 -10t34 -7q40 -11 76.5 10.5t61.5 70t38 113t7.5 146.5t-30.5 164l-315 888q-26 36 -94 -4q-42 -24 -58 -55
q-1 39 55.5 111.5t116.5 111.5q37 22 89.5 28.5t106.5 -4t101.5 -50.5t67.5 -105q2 -2 2 -4l301 -913l262 919h66l-293 -1026h-2l-29 -100q-69 -241 -215.5 -349t-320.5 -61z" />
    <glyph glyph-name="z" unicode="z" horiz-adv-x="1122" 
d="M49 0l539 922l-547 2v100h1003l-561 -924l598 -2v-100z" />
    <glyph glyph-name="exclamdown" unicode="&#xa1;" 
d="M825 -412l-389 164l62 760h266zM461 850q0 70 50 121t118 51q72 0 123 -50.5t51 -121.5q0 -70 -51 -120t-123 -50q-68 0 -118 50t-50 120z" />
    <glyph glyph-name="dieresis" unicode="&#xa8;" 
d="M801 1188q-51 0 -86 35.5t-35 85.5q0 53 35 89t86 36t88 -36.5t37 -88.5q0 -49 -37 -85t-88 -36zM313 1309q0 52 36 88.5t87 36.5t87 -36.5t36 -88.5q0 -50 -36 -85.5t-87 -35.5t-87 35.5t-36 85.5z" />
    <glyph glyph-name="guillemotleft" unicode="&#xab;" horiz-adv-x="1069" 
d="M467 117q-13 50 -28 89.5t-38.5 75t-41.5 59t-55.5 56t-61 50.5t-76.5 58l-12 9q-26 22 -37 55q-4 12 -4 19v12v14q0 7 4 19q11 33 37 55q133 99 176 143q88 87 128 220q5 16 9 34q20 -116 -15.5 -251.5t-119.5 -231.5q84 -97 119.5 -233t15.5 -252zM528 586v12v14
q0 9 11 27q14 28 34 45q132 101 173 142q89 89 130 219q6 18 11 38q20 -115 -16 -251t-121 -232q85 -98 121 -234t16 -251q-25 95 -70 165.5t-85.5 106.5t-139.5 112q-12 10 -19 15q-20 17 -34 45q-11 18 -11 27z" />
    <glyph glyph-name="acute" unicode="&#xb4;" 
d="M260 1274q71 16 127 37.5t95.5 43t82.5 60t71.5 68t79.5 87.5q10 11 15 17q48 51 119 51q53 0 86.5 -32t15.5 -72q-59 -98 -183 -164.5t-258 -89t-251 -6.5z" />
    <glyph glyph-name="periodcentered" unicode="&#xb7;" horiz-adv-x="468" 
d="M233 489q-50 0 -85 36t-35 87t35 87t85 36q51 0 87 -36t36 -87t-36 -87t-87 -36z" />
    <glyph glyph-name="cedilla" unicode="&#xb8;" 
d="M481 -436q-67 29 -92.5 82.5t-3.5 109.5q18 59 71 85t107 7q51 -16 79 -59t24 -74q28 24 38 37t17 39q14 32 -17.5 80.5t-76.5 73.5l-109 57l88 -2q88 -1 170 -78.5t82 -144.5q0 -74 -33 -127.5t-86.5 -78t-121 -28.5t-136.5 21z" />
    <glyph glyph-name="guillemotright" unicode="&#xbb;" horiz-adv-x="1069" 
d="M623 117q-20 116 15.5 252t119.5 233q-84 96 -119.5 231.5t-15.5 251.5q13 -50 28 -89.5t38.5 -75t41.5 -59t55.5 -56t61 -50.5t76.5 -58l12 -9q26 -22 37 -55q4 -12 4 -19v-12v-14q0 -7 -4 -19q-11 -33 -37 -55q-133 -99 -176 -143q-88 -87 -128 -220q-5 -16 -9 -34z
M203 115q-20 115 16 251t121 234q-85 96 -121 232t-16 251q13 -49 28.5 -88.5t38 -74.5t41.5 -59t54 -55.5t59.5 -51t74.5 -57.5q11 -8 17 -13q22 -19 35 -45q10 -17 10 -27v-12v-14q0 -10 -10 -27q-13 -26 -35 -45q-132 -101 -173 -143q-89 -89 -130 -221q-5 -17 -10 -35z
" />
    <glyph glyph-name="questiondown" unicode="&#xbf;" 
d="M621 -440q-132 0 -224 43.5t-134 119.5t-32.5 182.5t74.5 227.5l205 387h246l-269 -614q-38 -88 27 -162t195 -74q70 0 112 27q-37 7 -75.5 57t-34.5 115q0 70 51.5 121t126.5 51q77 0 130.5 -53t53.5 -140q0 -140 -123.5 -214t-328.5 -74zM465 856q0 71 51 121.5
t123 50.5q68 0 118 -51t50 -121t-50 -120t-118 -50q-72 0 -123 50t-51 120z" />
    <glyph glyph-name="Agrave" unicode="&#xc0;" horiz-adv-x="1241" 
d="M1495 -690q-186 -38 -347.5 79t-248.5 375l-197 582l-403 2l-160 -348h-129l475 993l-39 113l-14 43q-26 81 -149 18q-26 -14 -50 -35.5t-34 -37.5q-3 52 80.5 149.5t171.5 147.5q55 32 111.5 41t111.5 -7t101 -73.5t73 -151.5l522 -1608q27 -82 77.5 -128t106.5 -33
q54 10 101 63q-38 -2 -89 36t-63 101q-19 67 17.5 130t109.5 83q75 21 140 -16.5t88 -122.5q18 -66 -9.5 -133.5t-84.5 -119t-128 -89.5t-141 -53zM285 1909q-18 41 15.5 72.5t86.5 31.5q71 0 119 -51q44 -49 61.5 -68.5t53 -56.5t56.5 -52.5t57 -40.5t68.5 -38.5t77 -29
t97.5 -27.5q-116 -16 -250 6.5t-258.5 89t-183.5 164.5zM346 449l324 -3l-138 406z" />
    <glyph glyph-name="Acircumflex" unicode="&#xc2;" horiz-adv-x="1241" 
d="M1495 -690q-186 -38 -347.5 79t-248.5 375l-197 582l-403 2l-160 -348h-129l475 993l-39 113l-14 43q-26 81 -149 18q-26 -14 -50 -35.5t-34 -37.5q-3 52 80.5 149.5t171.5 147.5q55 32 111.5 41t111.5 -7t101 -73.5t73 -151.5l522 -1608q27 -82 77.5 -128t106.5 -33
q54 10 101 63q-38 -2 -89 36t-63 101q-19 67 17.5 130t109.5 83q75 21 140 -16.5t88 -122.5q18 -66 -9.5 -133.5t-84.5 -119t-128 -89.5t-141 -53zM137 1516q74 20 127.5 47.5t99 71.5t78 85.5t85.5 116.5q5 8 8 12q40 43 88 43q46 0 86 -43q99 -140 142 -186
q86 -92 215 -135q19 -6 40 -12q-117 -20 -252 17.5t-231 127.5q-97 -90 -233 -127.5t-253 -17.5zM346 449l324 -3l-138 406z" />
    <glyph glyph-name="Adieresis" unicode="&#xc4;" horiz-adv-x="1241" 
d="M1495 -690q-186 -38 -347.5 79t-248.5 375l-197 582l-403 2l-160 -348h-129l475 993l-39 113l-14 43q-26 81 -149 18q-26 -14 -50 -35.5t-34 -37.5q-3 52 80.5 149.5t171.5 147.5q55 32 111.5 41t111.5 -7t101 -73.5t73 -151.5l522 -1608q27 -82 77.5 -128t106.5 -33
q54 10 101 63q-38 -2 -89 36t-63 101q-19 67 17.5 130t109.5 83q75 21 140 -16.5t88 -122.5q18 -66 -9.5 -133.5t-84.5 -119t-128 -89.5t-141 -53zM315 1675q0 52 36 88.5t87 36.5t87 -36.5t36 -88.5q0 -50 -36 -85.5t-87 -35.5t-87 35.5t-36 85.5zM346 449l324 -3l-138 406
zM682 1675q0 53 35 89t86 36t88 -36.5t37 -88.5q0 -49 -37 -85t-88 -36t-86 35.5t-35 85.5z" />
    <glyph glyph-name="AE" unicode="&#xc6;" horiz-adv-x="1980" 
d="M10 0l854 1434h410l493 -2v-101l-493 2v-461l309 -2v-100l-309 2v-301q0 -99 22.5 -165t69.5 -101t106 -48.5t144 -13.5q36 0 55.5 6.5t57.5 30.5q-38 7 -76.5 57t-34.5 115q0 70 51.5 121t126.5 51q76 0 130 -59.5t54 -147.5q0 -68 -51 -134t-125.5 -110.5t-154.5 -73
t-142 -30.5q-52 -3 -114.5 -1.5t-120.5 14.5q-410 97 -410 593v54v147l-258 2l-465 -778h-129zM666 879l196 -2l2 333z" />
    <glyph glyph-name="Ccedilla" unicode="&#xc7;" horiz-adv-x="1347" 
d="M553 -436q-67 29 -92.5 82.5t-3.5 109.5q18 59 71 85t107 7q51 -16 78.5 -59t23.5 -74q29 24 39 37.5t17 38.5q14 32 -18 80.5t-77 73.5l-67 35q-117 18 -220 82.5t-178 161.5t-119 228.5t-44 278.5q0 123 32 238t91 208t138.5 163t179.5 108.5t208 38.5q157 0 293 -71.5
t211 -203.5q60 -108 63 -235q-4 -93 -57 -147t-129 -52q-56 -3 -101 25.5t-67 77.5q-93 233 -178 335.5t-181 102.5q-82 0 -116.5 -48t-34.5 -167q0 -133 38 -263.5t101.5 -235t149.5 -184.5t178.5 -119.5t192 -32.5t186.5 69q-80 -156 -209.5 -253t-288.5 -110
q65 -32 112.5 -91t47.5 -107q0 -74 -33 -127.5t-86.5 -78t-121 -28.5t-136.5 21z" />
    <glyph glyph-name="Egrave" unicode="&#xc8;" horiz-adv-x="1251" 
d="M768 -31q-52 -3 -115 -1.5t-121 14.5q-409 96 -409 593v54l2 805h410l493 -2v-101l-493 2v-461l309 -2v-100l-309 2v-301q0 -99 22.5 -165t69.5 -101t106 -48.5t144 -13.5q36 0 55 6.5t57 30.5q-37 7 -75.5 57t-34.5 115q0 70 51.5 121t126.5 51q76 0 130 -59.5
t54 -147.5q0 -68 -51 -134t-125.5 -110.5t-154.5 -73t-142 -30.5zM293 1909q-18 41 15.5 72.5t86.5 31.5q71 0 119 -51q44 -49 61.5 -68.5t53 -56.5t56.5 -52.5t57 -40.5t68.5 -38.5t77 -29t97.5 -27.5q-116 -16 -250 6.5t-258.5 89t-183.5 164.5z" />
    <glyph glyph-name="Eacute" unicode="&#xc9;" horiz-adv-x="1251" 
d="M768 -31q-52 -3 -115 -1.5t-121 14.5q-409 96 -409 593v54l2 805h410l493 -2v-101l-493 2v-461l309 -2v-100l-309 2v-301q0 -99 22.5 -165t69.5 -101t106 -48.5t144 -13.5q36 0 55 6.5t57 30.5q-37 7 -75.5 57t-34.5 115q0 70 51.5 121t126.5 51q76 0 130 -59.5
t54 -147.5q0 -68 -51 -134t-125.5 -110.5t-154.5 -73t-142 -30.5zM270 1649q71 16 127 37.5t95.5 43t82.5 60t71.5 68t79.5 87.5q10 11 15 17q48 51 119 51q53 0 87 -32t16 -72q-59 -98 -183.5 -164.5t-258.5 -89t-251 -6.5z" />
    <glyph glyph-name="Ecircumflex" unicode="&#xca;" horiz-adv-x="1251" 
d="M768 -31q-52 -3 -115 -1.5t-121 14.5q-409 96 -409 593v54l2 805h410l493 -2v-101l-493 2v-461l309 -2v-100l-309 2v-301q0 -99 22.5 -165t69.5 -101t106 -48.5t144 -13.5q36 0 55 6.5t57 30.5q-37 7 -75.5 57t-34.5 115q0 70 51.5 121t126.5 51q76 0 130 -59.5
t54 -147.5q0 -68 -51 -134t-125.5 -110.5t-154.5 -73t-142 -30.5zM145 1516q74 20 127.5 47.5t99 71.5t78 85.5t85.5 116.5q5 8 8 12q40 43 88 43q46 0 86 -43q99 -140 142 -186q86 -92 215 -135q19 -6 40 -12q-117 -20 -252 17.5t-231 127.5q-97 -90 -233 -127.5
t-253 -17.5z" />
    <glyph glyph-name="Edieresis" unicode="&#xcb;" horiz-adv-x="1251" 
d="M768 -31q-52 -3 -115 -1.5t-121 14.5q-409 96 -409 593v54l2 805h410l493 -2v-101l-493 2v-461l309 -2v-100l-309 2v-301q0 -99 22.5 -165t69.5 -101t106 -48.5t144 -13.5q36 0 55 6.5t57 30.5q-37 7 -75.5 57t-34.5 115q0 70 51.5 121t126.5 51q76 0 130 -59.5
t54 -147.5q0 -68 -51 -134t-125.5 -110.5t-154.5 -73t-142 -30.5zM324 1675q0 52 35.5 88.5t86.5 36.5t87 -36.5t36 -88.5q0 -50 -36 -85.5t-87 -35.5t-86.5 35.5t-35.5 85.5zM690 1675q0 53 35 89t86 36t88 -36.5t37 -88.5q0 -49 -37 -85t-88 -36t-86 35.5t-35 85.5z" />
    <glyph glyph-name="Icircumflex" unicode="&#xce;" horiz-adv-x="634" 
d="M113 -2v1436h409v-1436h-409zM-166 1516q74 20 127.5 47.5t97.5 70t77.5 85.5t84.5 115q7 10 10 15q40 43 88 43q47 0 87 -43q99 -140 142 -186q86 -92 215 -135q19 -6 40 -12q-117 -20 -253 17.5t-231 127.5q-97 -90 -233 -127.5t-252 -17.5z" />
    <glyph glyph-name="Idieresis" unicode="&#xcf;" horiz-adv-x="634" 
d="M113 -2v1436h409v-1436h-409zM12 1675q0 52 36 88.5t87 36.5t87 -36.5t36 -88.5q0 -50 -36 -85.5t-87 -35.5t-87 35.5t-36 85.5zM379 1675q0 53 35 89t86 36t88 -36.5t37 -88.5q0 -49 -37 -85t-88 -36t-86 35.5t-35 85.5z" />
    <glyph glyph-name="Ocircumflex" unicode="&#xd4;" horiz-adv-x="1425" 
d="M70 721q0 121 31.5 234.5t90 205.5t137 160.5t177 106.5t205.5 38q130 0 248.5 -57t205.5 -154.5t139 -237t52 -296.5q0 -204 -84.5 -375.5t-233 -272t-327.5 -100.5q-130 0 -247.5 57t-204.5 155t-138 238t-51 298zM229 1516q74 20 127.5 47.5t99 71.5t78 85.5
t85.5 116.5q5 8 8 12q40 43 88 43q46 0 86 -43q99 -140 142 -186q86 -92 215 -135q19 -6 40 -12q-117 -20 -252 17.5t-231 127.5q-97 -90 -233 -127.5t-253 -17.5zM483 1284q-38 -13 -59.5 -37.5t-27 -65.5t0 -89.5t27 -121.5t48.5 -148.5t69 -182.5q31 -77 54 -131.5
t49 -110t47 -92t45.5 -70t47 -51.5t48.5 -29.5t53.5 -10.5t58.5 12q38 13 59.5 37.5t27 65.5t-0.5 90t-27.5 122t-49 149t-70.5 183q-31 77 -53.5 131t-48.5 110t-47 92t-45 70t-46.5 51.5t-48 28.5t-53 10t-58.5 -12z" />
    <glyph glyph-name="Ugrave" unicode="&#xd9;" horiz-adv-x="1351" 
d="M647 -33q-52 0 -118.5 10t-140 32.5t-134.5 54t-101 79t-40 103.5v1188h409v-1229q0 -55 45.5 -117.5t91.5 -62.5h35q45 3 90 65t45 115v1229h410v-1188q0 -56 -40 -103.5t-101 -79t-134.5 -54t-140 -32.5t-118.5 -10h-39h-19zM340 1909q-18 41 15.5 72.5t86.5 31.5
q71 0 119 -51q44 -49 61.5 -68.5t53 -56.5t56.5 -52.5t57 -40.5t68.5 -38.5t77 -29t97.5 -27.5q-116 -16 -250 6.5t-258.5 89t-183.5 164.5z" />
    <glyph glyph-name="Ucircumflex" unicode="&#xdb;" horiz-adv-x="1351" 
d="M647 -33q-52 0 -118.5 10t-140 32.5t-134.5 54t-101 79t-40 103.5v1188h409v-1229q0 -55 45.5 -117.5t91.5 -62.5h35q45 3 90 65t45 115v1229h410v-1188q0 -56 -40 -103.5t-101 -79t-134.5 -54t-140 -32.5t-118.5 -10h-39h-19zM193 1516q74 20 127.5 47.5t97.5 70
t77.5 85.5t84.5 115q7 10 10 15q40 43 88 43q46 0 86 -43q99 -140 142 -186q86 -92 215 -135q19 -6 40 -12q-117 -20 -252 17.5t-231 127.5q-97 -90 -233 -127.5t-252 -17.5z" />
    <glyph glyph-name="Udieresis" unicode="&#xdc;" horiz-adv-x="1351" 
d="M647 -33q-52 0 -118.5 10t-140 32.5t-134.5 54t-101 79t-40 103.5v1188h409v-1229q0 -55 45.5 -117.5t91.5 -62.5h35q45 3 90 65t45 115v1229h410v-1188q0 -56 -40 -103.5t-101 -79t-134.5 -54t-140 -32.5t-118.5 -10h-39h-19zM371 1675q0 52 36 88.5t87 36.5t86.5 -36.5
t35.5 -88.5q0 -50 -35.5 -85.5t-86.5 -35.5t-87 35.5t-36 85.5zM737 1675q0 53 35 89t86 36t88 -36.5t37 -88.5q0 -49 -37 -85t-88 -36t-86 35.5t-35 85.5z" />
    <glyph glyph-name="agrave" unicode="&#xe0;" horiz-adv-x="1179" 
d="M526 -29q-194 0 -329.5 155.5t-135.5 387.5q0 225 135 384t330 159q178 0 301 -117l236 86v-889q0 -34 33 -59t78 -25q70 0 108 15q-26 -30 -142 -58t-214 -28q-108 0 -178 45q-118 -56 -222 -56zM254 1499q-18 41 15.5 73t86.5 32q70 0 119 -52q44 -49 61.5 -68.5
t53 -56.5t56.5 -52.5t57 -40.5t68.5 -38.5t77 -29t97.5 -27.5q-116 -16 -250 6.5t-258.5 89t-183.5 164.5zM356 799q0 -211 85.5 -361.5t224.5 -204.5v435q-6 62 -29 111.5t-52.5 78t-63.5 47t-58.5 25t-40.5 6.5q-40 0 -53 -34.5t-13 -102.5z" />
    <glyph glyph-name="acircumflex" unicode="&#xe2;" horiz-adv-x="1179" 
d="M526 -29q-194 0 -329.5 155.5t-135.5 387.5q0 225 135 384t330 159q178 0 301 -117l236 86v-889q0 -34 33 -59t78 -25q70 0 108 15q-26 -30 -142 -58t-214 -28q-108 0 -178 45q-118 -56 -222 -56zM106 1106q34 9 64.5 21.5t54 22t49.5 29.5t40.5 29.5t40 38t35 38.5
t37.5 47.5t36 49.5t41 58q40 43 88 43q46 0 86 -43q99 -140 141 -185q87 -94 214 -136q20 -7 42 -13q-117 -20 -252 17.5t-231 127.5q-97 -90 -233 -127.5t-253 -17.5zM356 799q0 -211 85.5 -361.5t224.5 -204.5v435q-6 62 -29 111.5t-52.5 78t-63.5 47t-58.5 25t-40.5 6.5
q-40 0 -53 -34.5t-13 -102.5z" />
    <glyph glyph-name="adieresis" unicode="&#xe4;" horiz-adv-x="1179" 
d="M526 -29q-194 0 -329.5 155.5t-135.5 387.5q0 225 135 384t330 159q178 0 301 -117l236 86v-889q0 -34 33 -59t78 -25q70 0 108 15q-26 -30 -142 -58t-214 -28q-108 0 -178 45q-118 -56 -222 -56zM285 1266q0 52 36 88.5t87 36.5t86.5 -36.5t35.5 -88.5
q0 -50 -35.5 -85.5t-86.5 -35.5t-87 35.5t-36 85.5zM356 799q0 -211 85.5 -361.5t224.5 -204.5v435q-6 62 -29 111.5t-52.5 78t-63.5 47t-58.5 25t-40.5 6.5q-40 0 -53 -34.5t-13 -102.5zM651 1266q0 53 35 89t86 36t88 -36.5t37 -88.5q0 -49 -37 -85t-88 -36t-86 35.5
t-35 85.5z" />
    <glyph glyph-name="ae" unicode="&#xe6;" horiz-adv-x="1802" 
d="M526 -29q-194 0 -329.5 155.5t-135.5 387.5q0 225 135 384t330 159q178 0 301 -117l236 86v-65q121 94 266 94q113 0 212 -52t155 -145q45 -83 45 -174v-41v-104l-606 2q58 -121 161 -211.5t215.5 -120.5t217.5 14q-61 -124 -165 -195t-235 -71q-104 0 -196.5 49.5
t-159.5 138.5q-74 -82 -201 -128t-246 -46zM356 799q0 -206 86.5 -364t223.5 -224l2 438q-3 67 -26 120t-52.5 83t-65 50.5t-60.5 27t-42 6.5q-40 0 -53 -34.5t-13 -102.5zM1077 772q0 -57 17 -127l319 -2q-56 132 -111.5 191t-117.5 59q-107 0 -107 -121z" />
    <glyph glyph-name="ccedilla" unicode="&#xe7;" horiz-adv-x="966" 
d="M371 -436q-67 29 -93 83t-4 109q18 59 71.5 85t107.5 7q51 -16 78.5 -59t23.5 -74q28 24 38 37t17 39q14 32 -17.5 80.5t-76.5 73.5l-24 12q-181 12 -306 163.5t-125 371.5q0 145 60 267t165 193.5t232 71.5q110 0 206 -50.5t150 -142.5q41 -78 44 -167q-3 -65 -41 -104
t-91 -36q-61 4 -104 24.5t-66 51t-39 66t-30.5 70.5t-33 63.5t-53 46.5t-85.5 18q-38 0 -60 -24t-22 -70q0 -82 27 -165t74 -151.5t109.5 -125.5t132.5 -87t144.5 -35t145.5 30q-51 -99 -136.5 -172t-185.5 -97q60 -35 102 -90.5t42 -99.5q0 -74 -33 -127.5t-86.5 -78
t-121 -28.5t-136.5 21z" />
    <glyph glyph-name="egrave" unicode="&#xe8;" horiz-adv-x="1003" 
d="M530 -43q-194 0 -331.5 158t-137.5 393q0 149 61.5 274.5t169.5 199t238 73.5q113 0 212 -52t155 -145q45 -83 45 -174v-41v-104l-606 2q58 -121 161 -211.5t215.5 -120.5t217.5 14q-61 -124 -165 -195t-235 -71zM162 1499q-18 41 15.5 73t86.5 32q70 0 119 -52
q44 -49 61.5 -68.5t53 -56.5t56.5 -52.5t57 -40.5t68.5 -38.5t77 -29t97.5 -27.5q-116 -16 -250 6.5t-258.5 89t-183.5 164.5zM279 772q0 -61 16 -127l319 -2q-56 132 -111.5 191t-117.5 59q-106 0 -106 -121z" />
    <glyph glyph-name="eacute" unicode="&#xe9;" horiz-adv-x="1003" 
d="M530 -43q-194 0 -331.5 158t-137.5 393q0 149 61.5 274.5t169.5 199t238 73.5q113 0 212 -52t155 -145q45 -83 45 -174v-41v-104l-606 2q58 -121 161 -211.5t215.5 -120.5t217.5 14q-61 -124 -165 -195t-235 -71zM139 1239q71 16 127 37.5t95.5 43t82.5 60t71.5 68
t79.5 87.5q10 11 15 17q49 52 119 52q53 0 86.5 -32.5t15.5 -72.5q-59 -98 -183 -164.5t-258 -89t-251 -6.5zM279 772q0 -61 16 -127l319 -2q-56 132 -111.5 191t-117.5 59q-106 0 -106 -121z" />
    <glyph glyph-name="ecircumflex" unicode="&#xea;" horiz-adv-x="1003" 
d="M530 -43q-194 0 -331.5 158t-137.5 393q0 149 61.5 274.5t169.5 199t238 73.5q113 0 212 -52t155 -145q45 -83 45 -174v-41v-104l-606 2q58 -121 161 -211.5t215.5 -120.5t217.5 14q-61 -124 -165 -195t-235 -71zM14 1106q34 9 64.5 21.5t54 22t49.5 29.5t40.5 29.5
t40 38t35 38.5t37.5 47.5t36 49.5t41 58q40 43 88 43q46 0 86 -43q99 -140 141 -185q87 -94 214 -136q20 -7 42 -13q-117 -20 -252 17.5t-231 127.5q-97 -90 -233 -127.5t-253 -17.5zM279 772q0 -61 16 -127l319 -2q-56 132 -111.5 191t-117.5 59q-106 0 -106 -121z" />
    <glyph glyph-name="edieresis" unicode="&#xeb;" horiz-adv-x="1003" 
d="M530 -43q-194 0 -331.5 158t-137.5 393q0 149 61.5 274.5t169.5 199t238 73.5q113 0 212 -52t155 -145q45 -83 45 -174v-41v-104l-606 2q58 -121 161 -211.5t215.5 -120.5t217.5 14q-61 -124 -165 -195t-235 -71zM193 1266q0 52 35.5 88.5t86.5 36.5t87 -36.5t36 -88.5
q0 -50 -36 -85.5t-87 -35.5t-86.5 35.5t-35.5 85.5zM279 772q0 -61 16 -127l319 -2q-56 132 -111.5 191t-117.5 59q-106 0 -106 -121zM559 1266q0 53 35 89t86 36t88 -36.5t37 -88.5q0 -49 -37 -85t-88 -36t-86 35.5t-35 85.5z" />
    <glyph glyph-name="icircumflex" unicode="&#xee;" horiz-adv-x="614" 
d="M113 0v1024h389v-1024h-389zM-178 1106q50 14 89 30t74.5 40.5t59 44t55.5 59t50.5 64.5t56.5 79q8 11 12 17q40 43 88 43q46 0 86 -43q33 -46 41 -58t36 -49.5t37.5 -47.5t35 -38.5t40 -38t40.5 -29.5t49.5 -29.5t54 -22t64.5 -21.5q-117 -20 -253 17.5t-231 127.5
q-97 -90 -233 -127.5t-252 -17.5z" />
    <glyph glyph-name="idieresis" unicode="&#xef;" horiz-adv-x="614" 
d="M113 0v1024h389v-1024h-389zM0 1266q0 52 36 88.5t87 36.5t87 -36.5t36 -88.5q0 -50 -36 -85.5t-87 -35.5t-87 35.5t-36 85.5zM367 1266q0 53 34.5 89t85.5 36t88 -36.5t37 -88.5q0 -49 -37 -85t-88 -36t-85.5 35.5t-34.5 85.5z" />
    <glyph glyph-name="ocircumflex" unicode="&#xf4;" horiz-adv-x="1230" 
d="M61 512q0 149 72 274t199.5 198t281.5 73q112 0 213.5 -41.5t177 -113t120 -173.5t44.5 -217q0 -148 -72.5 -272.5t-200.5 -197.5t-282 -73q-149 0 -275.5 69.5t-202 195t-75.5 278.5zM133 1106q50 14 89 30t74.5 40.5t59 44t55.5 59t50.5 64.5t56.5 79q8 11 12 17
q40 43 88 43q47 0 87 -43q99 -140 141 -185q87 -94 214 -136q20 -7 42 -13q-117 -20 -253 17.5t-231 127.5q-97 -90 -233 -127.5t-252 -17.5zM426 932q-18 -6 -30.5 -14.5t-20.5 -19.5t-10 -27t-0.5 -32.5t8 -39.5t14.5 -45.5t21 -53.5t26 -60t31 -68q34 -75 53 -117
q17 -38 37.5 -86.5t32 -77t27.5 -63.5t26.5 -53.5t25.5 -39.5t28.5 -30t30.5 -15.5t37 -4.5t44 9q32 9 46.5 29.5t14.5 48.5t-14 73t-34.5 93t-52.5 119q-35 77 -54 121q-17 39 -37.5 86t-32.5 75.5t-28 62.5t-26.5 52.5t-25 38.5t-27.5 29t-30 15t-36.5 4.5t-43.5 -9.5z
" />
    <glyph glyph-name="ugrave" unicode="&#xf9;" horiz-adv-x="1302" 
d="M389 -33q-119 0 -187.5 53.5t-68.5 147.5v856h389v-903q0 -34 33 -58t78 -24q107 0 153 10q-38 50 -38 119v856h389v-903q0 -34 33 -58t77 -24q72 0 107 14q-24 -30 -139.5 -58t-210.5 -28q-145 0 -213 78q-41 -27 -170.5 -52.5t-231.5 -25.5zM336 1499q-18 41 15.5 73
t86.5 32q70 0 119 -52q44 -49 61.5 -68.5t53 -56.5t56.5 -52.5t57 -40.5t68.5 -38.5t77 -29t97.5 -27.5q-116 -16 -250 6.5t-258.5 89t-183.5 164.5z" />
    <glyph glyph-name="ucircumflex" unicode="&#xfb;" horiz-adv-x="1302" 
d="M389 -33q-119 0 -187.5 53.5t-68.5 147.5v856h389v-903q0 -34 33 -58t78 -24q107 0 153 10q-38 50 -38 119v856h389v-903q0 -34 33 -58t77 -24q72 0 107 14q-24 -30 -139.5 -58t-210.5 -28q-145 0 -213 78q-41 -27 -170.5 -52.5t-231.5 -25.5zM188 1106q34 9 64.5 21.5
t54 22t49.5 29.5t40.5 29.5t40 38t35 38.5t37.5 47.5t36 49.5t41 58q40 43 88 43q46 0 86 -43q99 -140 141 -185q87 -94 214 -136q20 -7 42 -13q-117 -20 -252 17.5t-231 127.5q-97 -90 -233 -127.5t-253 -17.5z" />
    <glyph glyph-name="udieresis" unicode="&#xfc;" horiz-adv-x="1302" 
d="M389 -33q-119 0 -187.5 53.5t-68.5 147.5v856h389v-903q0 -34 33 -58t78 -24q107 0 153 10q-38 50 -38 119v856h389v-903q0 -34 33 -58t77 -24q72 0 107 14q-24 -30 -139.5 -58t-210.5 -28q-145 0 -213 78q-41 -27 -170.5 -52.5t-231.5 -25.5zM367 1266q0 52 35.5 88.5
t86.5 36.5t87 -36.5t36 -88.5q0 -50 -36 -85.5t-87 -35.5t-86.5 35.5t-35.5 85.5zM733 1266q0 53 35 89t86 36t88 -36.5t37 -88.5q0 -49 -37 -85t-88 -36t-86 35.5t-35 85.5z" />
    <glyph glyph-name="ydieresis" unicode="&#xff;" horiz-adv-x="1081" 
d="M283 -633q-178 48 -268.5 140t-57.5 214q21 76 79.5 111t123.5 16q68 -17 100 -73.5t14 -120.5q-11 -56 -55.5 -89.5t-79.5 -31.5q14 -14 36 -25t36 -15t44 -10t34 -7q40 -11 76.5 10.5t61.5 70t38 113t7.5 146.5t-30.5 164l-315 888q-26 36 -94 -4q-42 -24 -58 -55
q-1 39 55.5 111.5t116.5 111.5q37 22 89.5 28.5t106.5 -4t101.5 -50.5t67.5 -105q2 -2 2 -4l301 -913l262 919h66l-293 -1026h-2l-29 -100q-69 -241 -215.5 -349t-320.5 -61zM236 1266q0 52 35.5 88.5t86.5 36.5t87 -36.5t36 -88.5q0 -50 -36 -85.5t-87 -35.5t-86.5 35.5
t-35.5 85.5zM602 1266q0 53 35 89t86 36t88 -36.5t37 -88.5q0 -49 -37 -85t-88 -36t-86 35.5t-35 85.5z" />
    <glyph glyph-name="dotlessi" unicode="&#x131;" horiz-adv-x="614" 
d="M113 0v1024h389v-1024h-389z" />
    <glyph glyph-name="OE" unicode="&#x152;" horiz-adv-x="2166" 
d="M70 721q0 151 49.5 285.5t134.5 232t202.5 158t250.5 69.5h2q34 3 67 0l684 -2l494 -2v-100l-494 2v-483l309 -2v-101l-309 2v-301q0 -99 22.5 -164.5t69.5 -100.5t105.5 -48.5t144.5 -13.5q37 0 56.5 6t56.5 30q-38 7 -76.5 57t-34.5 115q0 70 51.5 121t126.5 51
q76 0 130.5 -59t54.5 -147q0 -68 -51 -134t-125.5 -111t-154.5 -73.5t-142 -30.5q-52 -3 -115 -1.5t-121 14.5q-200 49 -303 192q-88 -99 -202 -153t-244 -54q-129 0 -246.5 57t-204 155t-137.5 237.5t-51 296.5zM483 1284q-38 -13 -60 -37.5t-27.5 -65.5t0 -89.5t26.5 -121
t48 -148.5t69 -181q26 -66 43 -107t39 -92.5t37 -82t34.5 -67t35 -56t35 -41.5t37 -30.5t38.5 -14.5t43 -3.5t47 11.5q45 15 67.5 49.5t26.5 85.5t-13 128.5t-47.5 168t-80.5 215.5q-31 77 -53.5 130.5t-48.5 109.5t-47 91.5t-45 69.5t-46 51.5t-47.5 28.5t-52.5 10t-58 -12
z" />
    <glyph glyph-name="oe" unicode="&#x153;" horiz-adv-x="1859" 
d="M61 512q0 149 72 274t199.5 198t281.5 73q130 0 244 -53.5t191 -147.5q63 88 154 138t196 50q110 0 206 -50t150 -142q43 -82 43 -168v-41v-100l-590 2q43 -87 111.5 -159.5t147.5 -116t162.5 -56t156.5 22.5q-60 -120 -160.5 -189.5t-226.5 -69.5q-105 0 -196.5 50.5
t-155.5 140.5q-77 -93 -189.5 -146t-243.5 -53q-149 0 -275.5 69.5t-202 195t-75.5 278.5zM426 932q-18 -6 -30.5 -14.5t-20.5 -19.5t-10 -27t-0.5 -32.5t8 -39.5t14.5 -45.5t21 -53.5t26 -60t31 -68q34 -75 53 -117q17 -38 37.5 -86.5t32 -77t27.5 -63.5t26.5 -53.5
t25.5 -39.5t28.5 -30t30.5 -15.5t37 -4.5t44 9q21 6 34 16t17.5 26t4 33.5t-9 44t-18.5 52t-27.5 63.5t-34 72t-39.5 83.5t-42 93.5q-21 45 -41.5 95.5t-33 83t-27 66.5t-25 53t-25 36t-30.5 23t-36.5 5.5t-47.5 -8.5zM1153 770q0 -59 16 -125h299q-58 138 -113.5 199
t-119.5 61q-36 0 -59 -35t-23 -100z" />
    <glyph glyph-name="Ydieresis" unicode="&#x178;" horiz-adv-x="948" 
d="M369 0v492l-256 675l-19 43q-18 39 -51 42.5t-84 -25.5q-24 -13 -45 -33.5t-27 -34.5q-3 46 71.5 137t150.5 138q50 30 99.5 38t97.5 -7t88.5 -68t64.5 -140l229 -639l197 658h84l-236 -782v-2v-492h-149v-2v2h-215zM170 1675q0 52 36 88.5t87 36.5t87 -36.5t36 -88.5
q0 -50 -36 -85.5t-87 -35.5t-87 35.5t-36 85.5zM537 1675q0 53 34.5 89t85.5 36t88 -36.5t37 -88.5q0 -49 -37 -85t-88 -36t-85.5 35.5t-34.5 85.5z" />
    <glyph glyph-name="circumflex" unicode="&#x2c6;" 
d="M1085 1270q-117 -20 -252 17.5t-231 127.5q-97 -90 -233 -127.5t-252 -17.5q50 14 89 30t74.5 40.5t59 44t55.5 59t50.5 64.5t56.5 79q8 11 12 17q40 43 88 43q46 0 86 -43q99 -140 141 -185q87 -94 214 -136q20 -7 42 -13z" />
    <glyph glyph-name="endash" unicode="&#x2013;" 
d="M1112 498l-1006 2v100l1006 -4v-98z" />
    <glyph glyph-name="emdash" unicode="&#x2014;" 
d="M1399 498l-1534 2v100l1534 -4v-98z" />
    <glyph glyph-name="quoteleft" unicode="&#x2018;" 
d="M514 1669q102 0 175 -46.5t106 -119.5q16 -49 23.5 -99t2.5 -109.5t-27 -108.5t-73.5 -91t-128.5 -63q-87 -26 -115 43q-9 18 4 55t37 64q50 65 78.5 116t37 91.5t7.5 65.5t-8 61q-8 30 -45.5 75t-73.5 66z" />
    <glyph glyph-name="quoteright" unicode="&#x2019;" 
d="M707 1024q-99 28 -157.5 92t-72.5 146q-2 53 3.5 103.5t26 108t54.5 99.5t95.5 70t142.5 28q48 0 72 -17.5t30 -58.5q3 -20 -19.5 -51.5t-52.5 -52.5q-54 -41 -91.5 -78t-57.5 -63.5t-31.5 -57.5t-14.5 -48.5t-5 -47.5q0 -32 24.5 -86t53.5 -86z" />
    <glyph glyph-name="quotesinglbase" unicode="&#x201a;" 
d="M0 -285q104 18 141 37q96 52 148.5 118.5t58.5 135.5q-36 -15 -92 1.5t-88 70.5q-38 51 -27 121t70 110q58 42 129 28.5t117 -79.5q65 -103 7 -233.5t-200 -229.5q-122 -86 -264 -80z" />
    <glyph glyph-name="quotedblleft" unicode="&#x201c;" horiz-adv-x="1126" 
d="M885 1073q-58 -42 -129 -28.5t-117 79.5q-66 103 -7.5 233.5t199.5 229.5q122 86 265 80q-106 -18 -142 -37q-96 -52 -148 -118.5t-58 -135.5q23 6 53.5 6.5t67.5 -20t59 -57.5q38 -51 26.5 -121.5t-69.5 -110.5zM147 1124q-65 103 -7 233.5t200 229.5q122 86 264 80
q-104 -18 -141 -37q-96 -52 -148.5 -118.5t-58.5 -135.5q23 6 53.5 6.5t67.5 -20t59 -57.5q38 -51 26.5 -121.5t-69.5 -110.5q-58 -42 -129 -28.5t-117 79.5z" />
    <glyph glyph-name="quotedblright" unicode="&#x201d;" 
d="M344 1073q-58 40 -69.5 110.5t26.5 121.5q22 37 59 57.5t67.5 20t53.5 -6.5q-6 69 -58.5 135.5t-148.5 118.5q-37 19 -141 37q142 6 264 -80q142 -99 200 -229.5t-7 -233.5q-46 -66 -117 -79.5t-129 28.5zM625 1667q142 6 264 -80q141 -99 199.5 -229.5t-7.5 -233.5
q-46 -66 -116.5 -79.5t-128.5 28.5q-58 40 -69.5 110.5t26.5 121.5q22 37 59 57.5t67.5 20t53.5 -6.5q-6 69 -58.5 135.5t-148.5 118.5q-37 19 -141 37z" />
    <glyph glyph-name="quotedblbase" unicode="&#x201e;" 
d="M262 -285q104 18 141 37q96 52 148.5 118.5t58.5 135.5q-36 -15 -92 1.5t-88 70.5q-38 51 -27 121t70 110q58 42 129 28.5t117 -79.5q65 -103 7 -233.5t-200 -229.5q-122 -86 -264 -80zM-266 -285q104 18 141 37q96 52 148.5 118.5t58.5 135.5q-36 -15 -92 1.5t-88 70.5
q-38 51 -27 121t70 110q58 42 128.5 28.5t116.5 -79.5q66 -103 7.5 -233.5t-199.5 -229.5q-122 -86 -264 -80z" />
    <glyph glyph-name="bullet" unicode="&#x2022;" 
d="M618 344q-91 0 -157 67t-66 160t66 159.5t157 66.5q95 0 162.5 -66t67.5 -160t-67.5 -160.5t-162.5 -66.5z" />
    <glyph glyph-name="ellipsis" unicode="&#x2026;" horiz-adv-x="1302" 
d="M1016 0q-68 0 -118 51t-50 121t50 120t118 50q72 0 123 -50t51 -120q0 -71 -51 -121.5t-123 -50.5zM0 172q0 70 50 120t118 50q72 0 123 -50t51 -120q0 -71 -51 -121.5t-123 -50.5q-68 0 -118 51t-50 121zM424 172q0 70 50 120t118 50q72 0 123 -50t51 -120
q0 -71 -51 -121.5t-123 -50.5q-68 0 -118 51t-50 121z" />
    <glyph glyph-name="guilsinglleft" unicode="&#x2039;" horiz-adv-x="722" 
d="M494 115q-20 72 -46 124t-70.5 98.5t-80.5 75t-112 83.5q-16 12 -25 18q-27 20 -39 47q-8 16 -8 25v12v14q0 9 8 25q12 27 39 47q139 101 180 139q95 87 138 209q9 24 16 51q20 -116 -18 -251.5t-128 -231.5q90 -97 128 -233t18 -252z" />
    <glyph glyph-name="guilsinglright" unicode="&#x203a;" horiz-adv-x="722" 
d="M229 115q-20 116 18 252t128 233q-90 96 -128 231.5t-18 251.5q20 -72 46 -124t70.5 -98.5t80.5 -75t112 -83.5q16 -12 25 -18q27 -20 39 -47q8 -16 8 -25v-12v-14q0 -9 -8 -25q-12 -27 -39 -47q-139 -101 -180 -139q-95 -87 -138 -209q-9 -24 -16 -51z" />
    <glyph glyph-name="t_i" horiz-adv-x="1247" 
d="M399 -27q-120 0 -190 55t-70 150v737h-104v103h104v227l396 148v-375h210v6h390v-1024h-390v51q-38 -29 -147.5 -53.5t-198.5 -24.5zM535 129q0 -33 33.5 -57.5t78.5 -24.5q56 0 98 10v858h-210v-786zM715 1331q0 94 65.5 159.5t157.5 65.5q94 0 160.5 -65.5t66.5 -159.5
t-66.5 -159.5t-160.5 -65.5q-92 0 -157.5 65.5t-65.5 159.5z" />
    <glyph glyph-name="t_t" horiz-adv-x="1372" 
d="M399 -27q-120 0 -190 55t-70 150v737h-104v103h104v227l396 148v-375h114v6h103v223l389 146v-369h213v-100h-213v-770q0 -34 33 -58t77 -24q72 0 107 14q-24 -30 -139.5 -58t-210.5 -28q-119 0 -187.5 53.5t-68.5 147.5v714h-217v-786q0 -33 33.5 -57.5t78.5 -24.5
q74 0 109 14q-24 -32 -141.5 -60t-215.5 -28z" />
    <glyph glyph-name="t_t_i" horiz-adv-x="1855" 
d="M399 -27q-120 0 -190 55t-70 150v737h-104v103h104v227l396 148v-375h114v6h103v223l389 146v-369h602v-1024h-389v82q-32 -30 -143 -56t-203 -26q-119 0 -187.5 53.5t-68.5 147.5v714h-217v-786q0 -33 33.5 -57.5t78.5 -24.5q74 0 109 14q-24 -32 -141.5 -60t-215.5 -28
zM1141 154q0 -34 33 -58t77 -24q65 0 103 12v840h-213v-770zM1323 1331q0 94 65.5 159.5t157.5 65.5q94 0 161 -66t67 -159t-67 -159t-161 -66q-92 0 -157.5 65.5t-65.5 159.5z" />
    <glyph glyph-name="z_z" horiz-adv-x="1732" 
d="M49 0l539 922l-547 2v100l610 -2v2h393h611l-561 -924l598 -2v-100l-611 2v-2zM483 100l234 -2l481 824l-215 2z" />
    </font>
</defs>
</svg>
