<?xml version="1.0" standalone="no"?>
<!DOCTYPE svg PUBLIC "-//W3C//DTD SVG 1.1//EN" "http://www.w3.org/Graphics/SVG/1.1/DTD/svg11.dtd" >
<svg xmlns="http://www.w3.org/2000/svg" xmlns:xlink="http://www.w3.org/1999/xlink" version="1.1">
<metadata>
Created by FontForge 20201107 at Thu Apr  8 00:26:23 2021
 By 
Copyright (c)2021 by Kulokale Studio. All rights reserved.
</metadata>
<defs>
<font id="Ageya-Regular" horiz-adv-x="495" >
  <font-face 
    font-family="Ageya"
    font-weight="400"
    font-stretch="normal"
    units-per-em="1000"
    panose-1="0 0 0 0 0 0 0 0 0 0"
    ascent="800"
    descent="-200"
    x-height="512"
    cap-height="700"
    bbox="-62 -165.031 1244 958"
    underline-thickness="50"
    underline-position="-125"
    unicode-range="U+000D-FB03"
  />
<missing-glyph horiz-adv-x="803" 
d="M50 490h703v-490h-703v490zM396 98q0 5 -7 5q-6 -2 -12 0.5t-11.5 9t-10.5 13.5t-10.5 17t-8.5 16.5t-7.5 16t-5.5 12.5q-18 33 -56 31q9 6 24 15.5t18 11.5q12 8 23 14.5t16.5 9t9.5 5.5t5.5 5t1.5 6v5q0 8 -8 8h-68q-9 0 -9 -7q-1 -10 1 -13q9 -9 9 -13.5t-13 -13.5
l-65 -42q0 36 0.5 97.5t0.5 68.5q0 41 -10.5 50t-39.5 3q-41 -8 -68 -24q-12 -7 0 -21q2 -1 11.5 -5t15 -11.5t5.5 -20.5v-221q0 -12 -17 -29.5t-18 -19.5v-10q0 -8 8 -8h138q7 0 7 8v4q0 6 -16.5 23.5t-16.5 30.5v58l11 7l43 -84q25 -48 64 -48q26 0 45 13.5t21 26.5z
M712 98q0 5 -5 5q-8 -2 -16.5 3t-17 18t-13.5 21t-12 25l-8 18q-18 33 -56 31q34 21 42 27q12 8 23 14.5t16.5 9t9.5 5.5t5.5 5t1.5 6v5q0 8 -7 8h-70q-8 0 -8 -7q-2 -10 1 -13q9 -9 9 -12.5t-12 -14.5l-65 -42v166q0 41 -10.5 50t-39.5 3q-41 -8 -67 -24q-5 -3 -5 -9.5
t4 -11.5q2 -1 11.5 -5t15 -11.5t5.5 -20.5v-221q1 -12 -16 -29.5t-18 -19.5v-10q0 -8 8 -8h137q8 0 8 8v4q0 6 -16.5 23.5t-16.5 30.5v58l11 7l43 -84q25 -48 64 -48q25 0 44 13.5t20 26.5z" />
    <glyph glyph-name="uniE000" unicode="fk" horiz-adv-x="870" 
d="M202 727q109 0 173 -61.5t64 -170.5v-275q30 114 99 210t150 96q44 0 72.5 -25.5t28.5 -69.5q0 -69 -64 -121.5t-145 -67.5q24 -45 36.5 -66t43.5 -70.5t57.5 -74t47.5 -24.5q23 0 30.5 35t-3.5 93l12 2l20 -116q-29 -34 -84 -34q-85 0 -144 101l-94 161q87 -11 154 41
t67 135q0 31 -15 54t-45 23q-51 0 -103.5 -68.5t-83.5 -150.5t-37 -142v-96q0 -25 25 -30l55 -11v-4h-164v4l1 1q19 14 19 40v450q0 107 -43 163.5t-124 56.5q-44 0 -70 -17.5t-26 -52.5q0 -53 56 -90t116 -42h32v-11h-124q-11 0 -18 -7.5t-7 -18.5v-381v-50q0 -25 24 -30
l56 -11v-4h-164v4l1 1q19 16 19 40v81h1v350q0 11 -7 18.5t-19 7.5h-76v11h212q-59 5 -112 39t-53 86q0 33 25 54t57.5 28t70.5 7z" />
    <glyph glyph-name="uniE001" unicode="fh" horiz-adv-x="846" 
d="M202 727q109 0 173 -61.5t64 -170.5v-282q13 49 34 100t49 99.5t64 79.5t72 32q63 2 93 -33t30 -109l-1 -299h1v-38q0 -24 19 -40l1 -1v-4h-174v4l66 12q24 5 24 29v38v287q0 73 -16 106.5t-52 31.5q-45 -2 -94.5 -74t-80.5 -158.5t-35 -142.5v-88q0 -25 25 -30l55 -11
v-4h-164v4l1 1q19 14 19 40v450q0 107 -43 163.5t-124 56.5q-44 0 -70 -17.5t-26 -52.5q0 -53 56 -90t116 -42h32v-11h-124q-11 0 -18 -7.5t-7 -18.5v-381v-50q0 -25 24 -30l56 -11v-4h-164v4l1 1q19 16 19 40v81h1v350q0 11 -7 18.5t-19 7.5h-76v11h212q-59 5 -112 39
t-53 86q0 33 25 54t57.5 28t70.5 7z" />
    <glyph glyph-name="uniE002" unicode="fb" horiz-adv-x="822" 
d="M202 727q109 0 173 -61.5t64 -170.5v-334q0 -162 129 -162q83 0 124.5 71t41.5 184t-41.5 184t-124.5 71q-47 0 -83 -25q-8 -7 -13 3l-2 2q43 32 98 32q104 0 168 -74t64 -193q0 -120 -63.5 -193.5t-168.5 -73.5q-37 0 -68.5 12.5t-46.5 23.5t-34.5 7t-43.5 -31v496
q0 107 -43 163.5t-124 56.5q-44 0 -70 -17.5t-26 -52.5q0 -53 56 -90t116 -42h32v-11h-124q-11 0 -18 -7.5t-7 -18.5v-381v-50q0 -25 24 -30l56 -11v-4h-164v4l1 1q19 16 19 40v81h1v350q0 11 -7 18.5t-19 7.5h-76v11h212q-59 5 -112 39t-53 86q0 33 25 54t57.5 28t70.5 7z
" />
    <glyph glyph-name="uniE003" unicode="ft" horiz-adv-x="615" 
d="M445 476v-325q1 -74 16.5 -107t50.5 -32q70 3 147 162l11 -8q-81 -167 -167 -170q-63 -1 -93 34t-30 109v337q0 11 -7 18.5t-18 7.5h-161q-11 0 -18.5 -7.5t-7.5 -18.5v-431q0 -25 24 -30l56 -11v-4h-164v4l1 1q19 16 19 40v81v350q0 11 -7 18.5t-18 7.5h-76v11h195
q-52 5 -100.5 40.5t-47.5 84.5q1 48 39.5 69.5t86.5 19.5q50 -2 89 -29.5t56 -79.5l-58 -42q14 43 -9 91t-73 48q-31 0 -50.5 -21.5t-15.5 -55.5q4 -38 36 -68.5t73 -44.5t77 -12h15q38 0 59 29.5t19.5 65t-23.5 53.5v4h87q2 -51 -24 -93t-69 -59h238v-11h-133
q-11 0 -18 -7.5t-7 -18.5z" />
    <glyph glyph-name="uniE004" unicode="th" horiz-adv-x="877" 
d="M159 476v-325q2 -75 17 -107.5t50 -31.5q43 2 85.5 47.5t94.5 127.5v482q0 25 -19 41l-1 1v4h174v-4l-65 -12q-25 -5 -25 -30v-376q33 54 55.5 87.5t52 71t57 55t54.5 17.5q63 0 93.5 -34t30.5 -108l-1 -337q0 -24 19 -40l1 -1v-4h-174v4l66 12q24 5 24 29v38v287
q0 73 -14.5 105t-49.5 33q-39 1 -85 -51t-90 -127.5t-90 -151.5t-99 -129t-103 -53q-63 0 -93 34.5t-29 108.5v337q0 11 -7.5 18.5t-18.5 7.5h-46v11h7q37 0 59 29.5t20 65t-23 53.5v4h87q1 -51 -24.5 -93t-68.5 -59h238v-11h-134q-11 0 -18 -7.5t-7 -18.5zM495 16l65 -12
v-4h-174v4l1 1q19 16 19 40v71l51 84q13 21 13 -4v-151q0 -24 25 -29z" />
    <glyph glyph-name="uniE005" unicode="tn" horiz-adv-x="877" 
d="M159 476v-325q2 -75 17 -107.5t50 -31.5q43 2 85.5 47.5t94.5 127.5v280q0 24 -19 41l-1 1v4h174v-4l-65 -13q-11 -1 -18 -9.5t-7 -19.5v-174q33 54 55.5 87.5t52 71t57 55t54.5 17.5q64 0 94 -34.5t30 -108.5l-1 -336q0 -24 19 -40l1 -1v-4h-174v4l66 12q24 5 24 29v38
v287q0 73 -14.5 105t-49.5 33q-39 1 -85 -51t-90 -127.5t-90 -151.5t-99 -129t-103 -53q-63 0 -93 34.5t-29 108.5v337q0 11 -7.5 18.5t-18.5 7.5h-46v11h7q37 0 59 29.5t20 65t-23 53.5v4h87q1 -51 -24.5 -93t-68.5 -59h238v-11h-134q-11 0 -18 -7.5t-7 -18.5zM495 16
l65 -12v-4h-174v4l1 1q19 16 19 40v71l51 84q13 21 13 -4v-151q0 -24 25 -29z" />
    <glyph glyph-name="uniE006" unicode="tm" horiz-adv-x="1168" 
d="M159 476v-325q2 -75 17 -107.5t50 -31.5q45 2 87.5 51.5t92.5 138.5v265q0 24 -19 41l-1 1v4h163v-4l-54 -13q-25 -5 -25 -29v-149q55 99 100.5 152.5t93.5 53.5q63 0 93 -34.5t30 -108.5v-162q17 68 44.5 133.5t70 118t85.5 53.5q58 2 87 -33.5t29 -109.5l-1 -303v-33
q0 -25 20 -40v-1v-4h-174v4l66 12q24 5 24 29v33v292q0 73 -13.5 105t-45.5 31q-40 -2 -84 -68.5t-72.5 -148t-35.5 -141.5v-103q0 -25 24 -30l56 -11v-4h-224v4l55 11q25 5 25 30v38v287q0 73 -14.5 105t-49.5 33q-39 1 -83 -51t-84.5 -127.5t-82.5 -151.5t-92.5 -129
t-99.5 -53q-63 0 -93 34.5t-29 108.5v337q0 11 -7.5 18.5t-18.5 7.5h-46v11h7q37 0 59 29.5t20 65t-23 53.5v4h87q1 -51 -24.5 -93t-68.5 -59h238v-11h-134q-11 0 -18 -7.5t-7 -18.5zM494 15l56 -11v-4h-164v4l1 1q19 16 19 40v85l52 93q12 22 12 -4v-174q0 -25 24 -30z" />
    <glyph glyph-name="uniE009" unicode="LA" horiz-adv-x="957" 
d="M129 15h236q20 0 27 19l243 647q-12 17 -29 18l-91 11v5h174l252 -676q7 -19 23 -30l8 -5v-4h-203q-63 0 -118.5 19.5t-94.5 65t-39 109.5q0 60 37 101.5t96 41.5q79 0 131 -64l-138 388l-229 -622q-4 -8 0 -14t12 -7l127 -14v-4h-188h-246h-88v4l1 1q19 16 19 40v610
q0 24 -19 41h-1v4h208v-4l-96 -13q-24 -3 -24 -28v-630q0 -10 10 -10zM533 196q0 -88 70.5 -133t165.5 -47h34q31 -1 44.5 17.5t2.5 47.5l-35 100q-58 141 -165 141q-53 0 -85 -36.5t-32 -89.5z" />
    <glyph glyph-name="uniE00A" unicode="KA" horiz-adv-x="1114" 
d="M143 17l96 -13v-4h-208v4l1 1q19 16 19 40v610q0 24 -19 41h-1v4h208v-4l-96 -13q-24 -3 -24 -28v-345q67 20 151 63t156 105t72 114q0 30 -24.5 49t-66.5 19q-69 0 -111.5 -49.5t-42.5 -130.5q0 -31 4 -56l-15 15q-4 23 -4 51q0 95 48.5 157t123.5 62q49 0 79.5 -28
t30.5 -71q0 -71 -81 -141t-193 -123q12 2 19 2q29 0 42 -22q10 -16 32 -74.5t42.5 -110t52 -92.5t62.5 -37q20 3 39.5 24.5t42 66t38.5 82t42 104.5q57 146 134 391q-9 17 -29 19l-92 11v5h175l252 -676q7 -19 23 -30l8 -5v-4h-203q-63 0 -118.5 19.5t-94.5 65t-39 109.5
q0 60 37 101.5t96 41.5q79 0 131 -64l-135 383q-68 -229 -124 -371q-19 -47 -28 -69.5t-24.5 -59.5t-25 -53.5t-24 -41.5t-26 -36t-26.5 -23t-31 -16t-34 -4q-68 1 -115 87q-19 36 -45.5 102.5t-47.5 108t-42 50.5q-47 -21 -91 -33v-252q0 -25 24 -28zM690 196
q0 -88 70.5 -133t165.5 -47h34q31 -1 44.5 17.5t2.5 47.5l-36 100q-56 141 -164 141q-53 0 -85 -36.5t-32 -89.5z" />
    <glyph glyph-name="uniE00B" unicode="RA" horiz-adv-x="1101" 
d="M32 695l-1 1v4h88v-89q19 47 59 74.5t92 29.5q91 3 148 -53.5t57 -150.5q0 -91 -56.5 -147t-148.5 -56q-5 0 -9 2q15 -36 33.5 -73.5t51.5 -97.5t67.5 -95.5t62.5 -31.5q37 6 73 74t89 203q56 145 136 398q-9 10 -24 12l-91 11v5h174l252 -676q6 -17 23 -30l8 -5v-4h-203
q-46 0 -89.5 11.5t-80.5 34t-59.5 61t-22.5 87.5q0 60 37.5 101.5t96.5 41.5q77 0 131 -64l-140 393q-71 -242 -127 -381q-19 -47 -28 -69.5t-24.5 -59.5t-25 -53.5t-24 -41.5t-26 -36t-26.5 -23t-31 -16t-34 -4q-85 2 -131 86q-96 177 -141 269l5 15q33 -28 84 -28
q68 0 108 49.5t40 137.5q0 85 -39.5 135.5t-106.5 49.5q-53 0 -93 -40.5t-47 -106.5v-471v-33q0 -25 24 -28l96 -13v-4h-208v4v1q20 15 20 40v81v528q0 25 -19 41zM994 81l-35 99q-58 142 -165 142q-52 0 -84.5 -36.5t-32.5 -89.5q0 -88 71 -133t165 -47h35q31 -1 44 17.5
t2 47.5z" />
    <glyph glyph-name="uniE00C" unicode="TT" horiz-adv-x="916" 
d="M20 636l-20 -96h-10l30 170h4q7 -10 19 -10h830q12 0 18 9h4l30 -169h-10l-20 96q-4 22 -21 35.5t-40 13.5l-125 -1q-11 0 -18 -6.5t-7 -17.5v-614q0 -25 24 -30l66 -12v-4h-248v4l66 12q24 5 24 30v80l1 534q0 25 -25 25l-268 -1q-11 0 -18 -6.5t-7 -17.5v-604v-10
q0 -25 24 -30l66 -12v-4h-248v4l66 12q24 5 24 30v80l1 534q0 25 -25 25h-126q-23 0 -39.5 -13.5t-21.5 -35.5z" />
    <glyph glyph-name="uniE00D" unicode="TH" horiz-adv-x="1045" 
d="M20 637l-20 -96h-10l30 170h4q7 -10 18 -10l668 -1v-4l-96 -13q-24 -3 -24 -28v-248q9 18 27 29.5t38 11.5q34 0 73.5 -24.5t76.5 -49t63 -24.5q27 0 42.5 24t15.5 53v228q0 25 -24 28l-96 13v4h208v-4h-1q-19 -17 -19 -41v-610q0 -24 19 -40l1 -1v-4h-208v4l96 13
q24 3 24 28v330q-23 -39 -59 -39q-30 0 -69 24.5t-76.5 49t-63.5 24.5q-28 0 -47 -23.5t-21 -52.5v-313q0 -25 24 -28l96 -13v-4h-208v4l1 1q19 16 19 40v616q0 23 -23 25l-175 -1q-11 0 -18 -6.5t-7 -17.5v-615q0 -25 24 -30l66 -12v-4h-248v4l66 12q24 5 24 30v80l1 535
q0 25 -25 25h-126q-23 0 -40 -13.5t-21 -35.5z" />
    <glyph glyph-name="uniE010" unicode="EA" horiz-adv-x="1021" 
d="M1028 9l7 -5v-4h-202q-63 0 -118.5 19.5t-94.5 65t-39 109.5q0 60 37 101.5t96 41.5q79 0 131 -64l-138 388l-230 -622q-7 -19 13 -21l126 -14v-4h-188h-309h-88v4l1 1q19 16 19 40v33v577q0 25 -19 41l-1 1v4l88 -1h300q8 0 13 7l2 3h4l30 -169h-10l-19 91
q-5 24 -23.5 39t-43.5 15h-243q-10 0 -10 -10v-297l159 -1q25 0 36.5 15t6.5 39l-19 82l9 2l69 -295l-10 -2l-22 95q-5 24 -24 39t-44 15l-161 1v-243v-101q0 -10 10 -10h299h2q20 0 27 18l242 648q-11 16 -29 18l-92 11v5h174l252 -676q9 -19 24 -30zM914 81l-36 99
q-56 142 -165 142q-52 0 -84 -36.5t-32 -89.5q0 -88 70.5 -133t165.5 -47h34q31 -1 44.5 17.5t2.5 47.5z" />
    <glyph glyph-name="f_f" unicode="ff" horiz-adv-x="649" 
d="M167 476v-381v-50q0 -25 24 -30l56 -11v-4h-164v4l1 1q19 16 19 40v50v381q0 26 -25 26h-76v11h212q-58 5 -111.5 39.5t-53.5 85.5q0 43 38.5 67.5t100.5 21.5q34 -2 62 -11t49.5 -26.5t33.5 -29.5t29 -35t21 -27q-10 20 -10 40q0 32 24.5 53.5t54 28.5t60.5 7
q60 0 107 -23.5t65 -74.5l-42 -52q-5 57 -37 97.5t-87 40.5q-35 0 -59 -18t-24 -52q0 -52 56 -89.5t116 -42.5h33v-11h-124q-11 0 -18 -7.5t-7 -18.5v-381v-50q0 -25 24 -30l56 -11v-4h-164v4v1q20 15 20 40v81v350q0 11 -7 18.5t-18 7.5h-209q-12 0 -19 -7.5t-7 -18.5z
M365 513h156q-50 3 -97 25t-81 51t-64.5 57t-59 47.5t-52.5 19.5q-55 0 -55 -66q0 -62 70 -99.5t184 -34.5h-1z" />
    <glyph glyph-name="fi" unicode="fi" horiz-adv-x="543" 
d="M167 476v-381v-50q0 -25 24 -30l56 -11v-4h-164v4l1 1q19 16 19 40v81h1v350q0 11 -7 18.5t-19 7.5h-76v11h211q-58 5 -111.5 40t-53.5 87q0 42 31.5 65.5t75.5 23.5q37 0 77.5 -18.5t69 -40t60.5 -40t56 -18.5q25 0 42 22q-12 -9 -27 -9q-19 0 -32.5 13.5t-13.5 32.5
t13.5 32.5t32.5 13.5t32.5 -13.5t13.5 -32.5q0 -41 -25 -67t-66 -26q-28 0 -51.5 14t-41 34t-34.5 39.5t-39.5 33.5t-49.5 14q-28 0 -44.5 -18t-16.5 -47q0 -54 55.5 -92t116.5 -43h33v-11h-124q-11 0 -18 -7.5t-7 -18.5zM458 467v-422q0 -25 24 -30l56 -11v-4h-164v4v1
q20 15 20 40v468h144v-4l-56 -12q-24 -5 -24 -30z" />
    <glyph glyph-name="fl" unicode="fl" horiz-adv-x="515" 
d="M202 727q109 0 173 -61.5t64 -170.5v-450q0 -23 25 -30l55 -11v-4h-164v4l1 1q19 14 19 40v450q0 107 -43 163.5t-124 56.5q-44 0 -70 -17.5t-26 -52.5q0 -53 56 -90t116 -42h32v-11h-123q-26 0 -26 -26v-431q0 -23 24 -30l56 -11v-4h-164v4l1 1q19 16 19 40v81h1v350
q0 26 -26 26h-76v11h212q-59 5 -112 39t-53 86q0 33 25 54t57.5 28t70.5 7z" />
    <glyph glyph-name="f_f_i" unicode="ffi" horiz-adv-x="858" 
d="M482 476v-381v-50q0 -25 25 -30l55 -11v-4h-164v4l1 1q19 16 19 40v50v381q0 26 -24 26h-201q-11 0 -18 -7.5t-7 -18.5l-1 -381v-50q0 -25 25 -30l55 -11v-4h-164v4l1 1q19 14 19 40v50v381q0 26 -24 26h-76v11h201q-57 5 -110.5 39.5t-53.5 85.5q0 43 38 67.5t101 21.5
q42 -2 78.5 -20t51 -31.5t40.5 -46.5t27 -34q-13 21 -13 45q0 42 32 65.5t75 23.5q37 0 77.5 -18.5t69 -40t60.5 -40t56 -18.5q25 0 42 22q-11 -9 -27 -9q-19 0 -32 13.5t-13 32.5t13 32.5t32 13.5t32.5 -13.5t13.5 -32.5q0 -41 -25 -67t-66 -26q-28 0 -51.5 14t-40.5 34
t-34 39.5t-40 33.5t-49 14q-29 0 -45.5 -18t-16.5 -47q0 -54 55.5 -92t116.5 -43h34v-11h-124q-12 0 -19 -7.5t-7 -18.5zM356 513h156q-50 3 -97 25t-81.5 51t-64.5 57t-58.5 47.5t-52.5 19.5q-56 0 -56 -66q0 -62 70 -99.5t184 -34.5zM773 467v-422q0 -25 24 -30l56 -11v-4
h-164v4l1 1q19 16 19 40v468h144v-4l-56 -12q-24 -5 -24 -30z" />
    <glyph glyph-name=".notdef" horiz-adv-x="803" 
d="M50 490h703v-490h-703v490zM396 98q0 5 -7 5q-6 -2 -12 0.5t-11.5 9t-10.5 13.5t-10.5 17t-8.5 16.5t-7.5 16t-5.5 12.5q-18 33 -56 31q9 6 24 15.5t18 11.5q12 8 23 14.5t16.5 9t9.5 5.5t5.5 5t1.5 6v5q0 8 -8 8h-68q-9 0 -9 -7q-1 -10 1 -13q9 -9 9 -13.5t-13 -13.5
l-65 -42q0 36 0.5 97.5t0.5 68.5q0 41 -10.5 50t-39.5 3q-41 -8 -68 -24q-12 -7 0 -21q2 -1 11.5 -5t15 -11.5t5.5 -20.5v-221q0 -12 -17 -29.5t-18 -19.5v-10q0 -8 8 -8h138q7 0 7 8v4q0 6 -16.5 23.5t-16.5 30.5v58l11 7l43 -84q25 -48 64 -48q26 0 45 13.5t21 26.5z
M712 98q0 5 -5 5q-8 -2 -16.5 3t-17 18t-13.5 21t-12 25l-8 18q-18 33 -56 31q34 21 42 27q12 8 23 14.5t16.5 9t9.5 5.5t5.5 5t1.5 6v5q0 8 -7 8h-70q-8 0 -8 -7q-2 -10 1 -13q9 -9 9 -12.5t-12 -14.5l-65 -42v166q0 41 -10.5 50t-39.5 3q-41 -8 -67 -24q-5 -3 -5 -9.5
t4 -11.5q2 -1 11.5 -5t15 -11.5t5.5 -20.5v-221q1 -12 -16 -29.5t-18 -19.5v-10q0 -8 8 -8h137q8 0 8 8v4q0 6 -16.5 23.5t-16.5 30.5v58l11 7l43 -84q25 -48 64 -48q25 0 44 13.5t20 26.5z" />
    <glyph glyph-name="uni0000" horiz-adv-x="0" 
 />
    <glyph glyph-name="uni0000" horiz-adv-x="0" 
 />
    <glyph glyph-name="uni000D" unicode="&#xd;" horiz-adv-x="250" 
 />
    <glyph glyph-name="space" unicode=" " horiz-adv-x="300" 
 />
    <glyph glyph-name="exclam" unicode="!" horiz-adv-x="505" 
d="M50 490h703v-490h-703v490zM396 98q0 7 -7 5q-6 -2 -12 0.5t-11.5 9t-10.5 13.5t-10.5 17t-8.5 16.5t-7.5 16t-5.5 12.5q-18 33 -56 31q9 6 24 15.5t18 11.5q12 8 23 14.5t16.5 9t9.5 5.5t5.5 5t1.5 6v5q0 8 -8 8h-68q-9 0 -9 -7q-1 -10 1 -13q9 -9 9 -13.5t-13 -13.5
l-65 -42q0 36 0.5 97.5t0.5 68.5q0 41 -10.5 50t-39.5 3q-41 -8 -68 -24q-12 -7 0 -21q2 -1 11.5 -5t15 -11.5t5.5 -20.5v-221q0 -12 -17 -29.5t-18 -19.5v-10q0 -8 8 -8h138q7 0 7 8v4q0 6 -16.5 23.5t-16.5 30.5v58l11 7l43 -84q25 -48 64 -48q26 0 45 13.5t21 26.5z
M712 98q0 3 -1.5 4.5t-3.5 0.5q-8 -2 -16.5 3t-17 18t-13.5 21t-12 25l-8 18q-18 33 -56 31q34 21 42 27q12 8 23 14.5t16.5 9t9.5 5.5t5.5 5t1.5 6v5q0 8 -7 8h-70q-8 0 -8 -7q-2 -10 1 -13q9 -9 9 -12.5t-12 -14.5l-65 -42v166q0 41 -10.5 50t-39.5 3q-41 -8 -67 -24
q-5 -3 -5 -9.5t4 -11.5q2 -1 11.5 -5t15 -11.5t5.5 -20.5v-221q1 -12 -16 -29.5t-18 -19.5v-10q0 -8 8 -8h137q8 0 8 8v4q0 6 -16.5 23.5t-16.5 30.5v58l11 7l43 -84q25 -48 64 -48q25 0 44 13.5t20 26.5z" />
    <glyph glyph-name="quotedbl" unicode="&#x22;" 
d="M45 490h703v-490h-703v490zM391 98q0 5 -7 5q-6 -2 -12 0.5t-11.5 9t-10.5 13.5t-10.5 17t-8.5 16.5t-7.5 16t-5.5 12.5q-18 33 -56 31q9 6 24 15.5t18 11.5q12 8 23 14.5t16.5 9t9.5 5.5t5.5 5t1.5 6v5q0 8 -8 8h-68q-9 0 -9 -7q-1 -10 1 -13q8 -9 8 -13.5t-12 -13.5
l-65 -42q0 36 0.5 97.5t0.5 68.5q0 41 -10.5 50t-39.5 3q-41 -8 -68 -24q-12 -7 0 -21q2 -1 11.5 -5t15 -11.5t5.5 -20.5v-221q0 -12 -17 -29.5t-18 -19.5v-10q0 -8 8 -8h138q7 0 7 8v4q0 6 -16.5 23.5t-16.5 30.5v58l11 7l43 -84q25 -48 64 -48q26 0 45 13.5t21 26.5z
M707 98q0 5 -5 5q-8 -2 -16.5 3t-17 18t-13.5 21t-13 25l-7 18q-18 33 -56 31q34 21 42 27q12 8 23 14.5t16.5 9t9.5 5.5t5.5 5t1.5 6v5q0 8 -7 8h-70q-8 0 -8 -7q-2 -10 1 -13q9 -9 9 -12.5t-12 -14.5l-65 -42v166q0 41 -10.5 50t-39.5 3q-41 -8 -67 -24q-5 -3 -5 -9.5
t4 -11.5q2 -1 11.5 -5t15 -11.5t5.5 -20.5v-221q1 -12 -16 -29.5t-18 -19.5v-10q0 -8 8 -8h137q8 0 8 8v4q0 6 -16.5 23.5t-16.5 30.5v58l11 7l43 -84q25 -48 64 -48q25 0 44 13.5t20 26.5z" />
    <glyph glyph-name="numbersign" unicode="#" horiz-adv-x="475" 
d="M35 490h703v-490h-703v490zM381 98q0 7 -7 5q-6 -2 -12 0.5t-11.5 9t-10.5 13.5t-10.5 17t-8.5 16.5t-7.5 16t-5.5 12.5q-18 33 -56 31q9 6 24 15.5t18 11.5q12 8 23 14.5t16.5 9t9.5 5.5t5.5 5t1.5 6v5q0 8 -8 8h-68q-9 0 -9 -7q-1 -10 1 -13q8 -9 8 -13.5t-12 -13.5
l-65 -42q0 36 0.5 97.5t0.5 68.5q0 41 -10.5 50t-39.5 3q-41 -8 -68 -24q-12 -7 0 -21q2 -1 11.5 -5t15 -11.5t5.5 -20.5v-221q0 -12 -17 -29.5t-18 -19.5v-10q0 -8 8 -8h138q7 0 7 8v4q0 6 -16.5 23.5t-16.5 30.5v58l11 7l43 -84q25 -48 64 -48q26 0 45 13.5t21 26.5z
M697 98q0 3 -1.5 4.5t-3.5 0.5q-8 -2 -16.5 3t-17 18t-13.5 21t-13 25l-7 18q-18 33 -56 31q34 21 42 27q12 8 23 14.5t16.5 9t9.5 5.5t5.5 5t1.5 6v5q0 8 -7 8h-70q-8 0 -8 -7q-2 -10 1 -13q9 -9 9 -12.5t-12 -14.5l-65 -42v166q0 41 -10.5 50t-39.5 3q-41 -8 -67 -24
q-5 -3 -5 -9.5t4 -11.5q2 -1 11.5 -5t15 -11.5t5.5 -20.5v-221q1 -12 -16 -29.5t-18 -19.5v-10q0 -8 8 -8h137q8 0 8 8v4q0 6 -16.5 23.5t-16.5 30.5v58l11 7l43 -84q25 -48 64 -48q25 0 44 13.5t20 26.5z" />
    <glyph glyph-name="dollar" unicode="$" 
d="M45 490h703v-490h-703v490zM391 98q0 7 -7 5q-6 -2 -12 0.5t-11.5 9t-10.5 13.5t-10.5 17t-8.5 16.5t-7.5 16t-5.5 12.5q-18 33 -56 31q9 6 24 15.5t18 11.5q12 8 23 14.5t16.5 9t9.5 5.5t5.5 5t1.5 6v5q0 8 -8 8h-68q-9 0 -9 -7q-1 -10 1 -13q8 -9 8 -13.5t-12 -13.5
l-65 -42q0 36 0.5 97.5t0.5 68.5q0 41 -10.5 50t-39.5 3q-41 -8 -68 -24q-12 -7 0 -21q2 -1 11.5 -5t15 -11.5t5.5 -20.5v-221q0 -12 -17 -29.5t-18 -19.5v-10q0 -8 8 -8h138q7 0 7 8v4q0 6 -16.5 23.5t-16.5 30.5v58l11 7l43 -84q25 -48 64 -48q26 0 45 13.5t21 26.5z
M707 98q0 3 -1.5 4.5t-3.5 0.5q-8 -2 -16.5 3t-17 18t-13.5 21t-13 25l-7 18q-18 33 -56 31q34 21 42 27q12 8 23 14.5t16.5 9t9.5 5.5t5.5 5t1.5 6v5q0 8 -7 8h-70q-8 0 -8 -7q-2 -10 1 -13q9 -9 9 -12.5t-12 -14.5l-65 -42v166q0 41 -10.5 50t-39.5 3q-41 -8 -67 -24
q-5 -3 -5 -9.5t4 -11.5q2 -1 11.5 -5t15 -11.5t5.5 -20.5v-221q1 -12 -16 -29.5t-18 -19.5v-10q0 -8 8 -8h137q8 0 8 8v4q0 6 -16.5 23.5t-16.5 30.5v58l11 7l43 -84q25 -48 64 -48q25 0 44 13.5t20 26.5z" />
    <glyph glyph-name="percent" unicode="%" 
d="M45 490h703v-490h-703v490zM391 98q0 7 -7 5q-6 -2 -12 0.5t-11.5 9t-10.5 13.5t-10.5 17t-8.5 16.5t-7.5 16t-5.5 12.5q-18 33 -56 31q9 6 24 15.5t18 11.5q12 8 23 14.5t16.5 9t9.5 5.5t5.5 5t1.5 6v5q0 8 -8 8h-68q-9 0 -9 -7q-1 -10 1 -13q8 -9 8 -13.5t-12 -13.5
l-65 -42q0 36 0.5 97.5t0.5 68.5q0 41 -10.5 50t-39.5 3q-41 -8 -68 -24q-12 -7 0 -21q2 -1 11.5 -5t15 -11.5t5.5 -20.5v-221q0 -12 -17 -29.5t-18 -19.5v-10q0 -8 8 -8h138q7 0 7 8v4q0 6 -16.5 23.5t-16.5 30.5v58l11 7l43 -84q25 -48 64 -48q26 0 45 13.5t21 26.5z
M707 98q0 3 -1.5 4.5t-3.5 0.5q-8 -2 -16.5 3t-17 18t-13.5 21t-13 25l-7 18q-18 33 -56 31q34 21 42 27q12 8 23 14.5t16.5 9t9.5 5.5t5.5 5t1.5 6v5q0 8 -7 8h-70q-8 0 -8 -7q-2 -10 1 -13q9 -9 9 -12.5t-12 -14.5l-65 -42v166q0 41 -10.5 50t-39.5 3q-41 -8 -67 -24
q-5 -3 -5 -9.5t4 -11.5q2 -1 11.5 -5t15 -11.5t5.5 -20.5v-221q1 -12 -16 -29.5t-18 -19.5v-10q0 -8 8 -8h137q8 0 8 8v4q0 6 -16.5 23.5t-16.5 30.5v58l11 7l43 -84q25 -48 64 -48q25 0 44 13.5t20 26.5z" />
    <glyph glyph-name="ampersand" unicode="&#x26;" 
d="M45 490h703v-490h-703v490zM391 98q0 7 -7 5q-6 -2 -12 0.5t-11.5 9t-10.5 13.5t-10.5 17t-8.5 16.5t-7.5 16t-5.5 12.5q-18 33 -56 31q9 6 24 15.5t18 11.5q12 8 23 14.5t16.5 9t9.5 5.5t5.5 5t1.5 6v5q0 8 -8 8h-68q-9 0 -9 -7q-1 -10 1 -13q8 -9 8 -13.5t-12 -13.5
l-65 -42q0 36 0.5 97.5t0.5 68.5q0 41 -10.5 50t-39.5 3q-41 -8 -68 -24q-12 -7 0 -21q2 -1 11.5 -5t15 -11.5t5.5 -20.5v-221q0 -12 -17 -29.5t-18 -19.5v-10q0 -8 8 -8h138q7 0 7 8v4q0 6 -16.5 23.5t-16.5 30.5v58l11 7l43 -84q25 -48 64 -48q26 0 45 13.5t21 26.5z
M707 98q0 3 -1.5 4.5t-3.5 0.5q-8 -2 -16.5 3t-17 18t-13.5 21t-13 25l-7 18q-18 33 -56 31q34 21 42 27q12 8 23 14.5t16.5 9t9.5 5.5t5.5 5t1.5 6v5q0 8 -7 8h-70q-8 0 -8 -7q-2 -10 1 -13q9 -9 9 -12.5t-12 -14.5l-65 -42v166q0 41 -10.5 50t-39.5 3q-41 -8 -67 -24
q-5 -3 -5 -9.5t4 -11.5q2 -1 11.5 -5t15 -11.5t5.5 -20.5v-221q1 -12 -16 -29.5t-18 -19.5v-10q0 -8 8 -8h137q8 0 8 8v4q0 6 -16.5 23.5t-16.5 30.5v58l11 7l43 -84q25 -48 64 -48q25 0 44 13.5t20 26.5z" />
    <glyph glyph-name="quotesingle" unicode="'" 
d="M45 490h703v-490h-703v490zM391 98q0 5 -7 5q-6 -2 -12 0.5t-11.5 9t-10.5 13.5t-10.5 17t-8.5 16.5t-7.5 16t-5.5 12.5q-18 33 -56 31q9 6 24 15.5t18 11.5q12 8 23 14.5t16.5 9t9.5 5.5t5.5 5t1.5 6v5q0 8 -8 8h-68q-9 0 -9 -7q-1 -10 1 -13q8 -9 8 -13.5t-12 -13.5
l-65 -42q0 36 0.5 97.5t0.5 68.5q0 41 -10.5 50t-39.5 3q-41 -8 -68 -24q-12 -7 0 -21q2 -1 11.5 -5t15 -11.5t5.5 -20.5v-221q0 -12 -17 -29.5t-18 -19.5v-10q0 -8 8 -8h138q7 0 7 8v4q0 6 -16.5 23.5t-16.5 30.5v58l11 7l43 -84q25 -48 64 -48q26 0 45 13.5t21 26.5z
M707 98q0 5 -5 5q-8 -2 -16.5 3t-17 18t-13.5 21t-13 25l-7 18q-18 33 -56 31q34 21 42 27q12 8 23 14.5t16.5 9t9.5 5.5t5.5 5t1.5 6v5q0 8 -7 8h-70q-8 0 -8 -7q-2 -10 1 -13q9 -9 9 -12.5t-12 -14.5l-65 -42v166q0 41 -10.5 50t-39.5 3q-41 -8 -67 -24q-5 -3 -5 -9.5
t4 -11.5q2 -1 11.5 -5t15 -11.5t5.5 -20.5v-221q1 -12 -16 -29.5t-18 -19.5v-10q0 -8 8 -8h137q8 0 8 8v4q0 6 -16.5 23.5t-16.5 30.5v58l11 7l43 -84q25 -48 64 -48q25 0 44 13.5t20 26.5z" />
    <glyph glyph-name="parenleft" unicode="(" horiz-adv-x="485" 
d="M50 490h703v-490h-703v490zM396 98q0 7 -7 5q-6 -2 -12 0.5t-11.5 9t-10.5 13.5t-10.5 17t-8.5 16.5t-7.5 16t-5.5 12.5q-18 33 -56 31q9 6 24 15.5t18 11.5q12 8 23 14.5t16.5 9t9.5 5.5t5.5 5t1.5 6v5q0 8 -8 8h-68q-9 0 -9 -7q-1 -10 1 -13q9 -9 9 -13.5t-13 -13.5
l-65 -42q0 36 0.5 97.5t0.5 68.5q0 41 -10.5 50t-39.5 3q-41 -8 -68 -24q-12 -7 0 -21q2 -1 11.5 -5t15 -11.5t5.5 -20.5v-221q0 -12 -17 -29.5t-18 -19.5v-10q0 -8 8 -8h138q7 0 7 8v4q0 6 -16.5 23.5t-16.5 30.5v58l11 7l43 -84q25 -48 64 -48q26 0 45 13.5t21 26.5z
M712 98q0 3 -1.5 4.5t-3.5 0.5q-8 -2 -16.5 3t-17 18t-13.5 21t-12 25l-8 18q-18 33 -56 31q34 21 42 27q12 8 23 14.5t16.5 9t9.5 5.5t5.5 5t1.5 6v5q0 8 -7 8h-70q-8 0 -8 -7q-2 -10 1 -13q9 -9 9 -12.5t-12 -14.5l-65 -42v166q0 41 -10.5 50t-39.5 3q-41 -8 -67 -24
q-5 -3 -5 -9.5t4 -11.5q2 -1 11.5 -5t15 -11.5t5.5 -20.5v-221q1 -12 -16 -29.5t-18 -19.5v-10q0 -8 8 -8h137q8 0 8 8v4q0 6 -16.5 23.5t-16.5 30.5v58l11 7l43 -84q25 -48 64 -48q25 0 44 13.5t20 26.5z" />
    <glyph glyph-name="parenright" unicode=")" horiz-adv-x="485" 
d="M30 490h703v-490h-703v490zM376 98q0 7 -7 5q-6 -2 -12 0.5t-11.5 9t-10.5 13.5t-10.5 17t-8.5 16.5t-7.5 16t-5.5 12.5q-18 33 -56 31q9 6 24 15.5t18 11.5q12 8 23 14.5t16.5 9t9.5 5.5t5.5 5t1.5 6v5q0 8 -8 8h-68q-9 0 -9 -7q-1 -10 1 -13q9 -9 9 -13.5t-13 -13.5
l-65 -42q0 36 0.5 97.5t0.5 68.5q0 41 -10.5 50t-39.5 3q-41 -8 -68 -24q-12 -7 0 -21q2 -1 11.5 -5t15 -11.5t5.5 -20.5v-221q0 -12 -17 -29.5t-18 -19.5v-10q0 -8 8 -8h138q7 0 7 8v4q0 6 -16.5 23.5t-16.5 30.5v58l11 7l43 -84q25 -48 64 -48q26 0 45 13.5t21 26.5z
M692 98q0 3 -1.5 4.5t-3.5 0.5q-8 -2 -16.5 3t-17 18t-13.5 21t-12 25l-8 18q-18 33 -56 31q34 21 42 27q12 8 23 14.5t16.5 9t9.5 5.5t5.5 5t1.5 6v5q0 8 -7 8h-70q-8 0 -8 -7q-2 -10 1 -13q9 -9 9 -12.5t-12 -14.5l-65 -42v166q0 41 -10.5 50t-39.5 3q-41 -8 -67 -24
q-5 -3 -5 -9.5t4 -11.5q2 -1 11.5 -5t15 -11.5t5.5 -20.5v-221q1 -12 -16 -29.5t-18 -19.5v-10q0 -8 8 -8h137q8 0 8 8v4q0 6 -16.5 23.5t-16.5 30.5v58l11 7l43 -84q25 -48 64 -48q25 0 44 13.5t20 26.5z" />
    <glyph glyph-name="asterisk" unicode="*" horiz-adv-x="475" 
d="M35 490h703v-490h-703v490zM381 98q0 7 -7 5q-6 -2 -12 0.5t-11.5 9t-10.5 13.5t-10.5 17t-8.5 16.5t-7.5 16t-5.5 12.5q-18 33 -56 31q9 6 24 15.5t18 11.5q12 8 23 14.5t16.5 9t9.5 5.5t5.5 5t1.5 6v5q0 8 -8 8h-68q-9 0 -9 -7q-1 -10 1 -13q8 -9 8 -13.5t-12 -13.5
l-65 -42q0 36 0.5 97.5t0.5 68.5q0 41 -10.5 50t-39.5 3q-41 -8 -68 -24q-12 -7 0 -21q2 -1 11.5 -5t15 -11.5t5.5 -20.5v-221q0 -12 -17 -29.5t-18 -19.5v-10q0 -8 8 -8h138q7 0 7 8v4q0 6 -16.5 23.5t-16.5 30.5v58l11 7l43 -84q25 -48 64 -48q26 0 45 13.5t21 26.5z
M697 98q0 3 -1.5 4.5t-3.5 0.5q-8 -2 -16.5 3t-17 18t-13.5 21t-13 25l-7 18q-18 33 -56 31q34 21 42 27q12 8 23 14.5t16.5 9t9.5 5.5t5.5 5t1.5 6v5q0 8 -7 8h-70q-8 0 -8 -7q-2 -10 1 -13q9 -9 9 -12.5t-12 -14.5l-65 -42v166q0 41 -10.5 50t-39.5 3q-41 -8 -67 -24
q-5 -3 -5 -9.5t4 -11.5q2 -1 11.5 -5t15 -11.5t5.5 -20.5v-221q1 -12 -16 -29.5t-18 -19.5v-10q0 -8 8 -8h137q8 0 8 8v4q0 6 -16.5 23.5t-16.5 30.5v58l11 7l43 -84q25 -48 64 -48q25 0 44 13.5t20 26.5z" />
    <glyph glyph-name="plus" unicode="+" horiz-adv-x="505" 
d="M50 490h703v-490h-703v490zM396 98q0 7 -7 5q-6 -2 -12 0.5t-11.5 9t-10.5 13.5t-10.5 17t-8.5 16.5t-7.5 16t-5.5 12.5q-18 33 -56 31q9 6 24 15.5t18 11.5q12 8 23 14.5t16.5 9t9.5 5.5t5.5 5t1.5 6v5q0 8 -8 8h-68q-9 0 -9 -7q-1 -10 1 -13q9 -9 9 -13.5t-13 -13.5
l-65 -42q0 36 0.5 97.5t0.5 68.5q0 41 -10.5 50t-39.5 3q-41 -8 -68 -24q-12 -7 0 -21q2 -1 11.5 -5t15 -11.5t5.5 -20.5v-221q0 -12 -17 -29.5t-18 -19.5v-10q0 -8 8 -8h138q7 0 7 8v4q0 6 -16.5 23.5t-16.5 30.5v58l11 7l43 -84q25 -48 64 -48q26 0 45 13.5t21 26.5z
M712 98q0 3 -1.5 4.5t-3.5 0.5q-8 -2 -16.5 3t-17 18t-13.5 21t-12 25l-8 18q-18 33 -56 31q34 21 42 27q12 8 23 14.5t16.5 9t9.5 5.5t5.5 5t1.5 6v5q0 8 -7 8h-70q-8 0 -8 -7q-2 -10 1 -13q9 -9 9 -12.5t-12 -14.5l-65 -42v166q0 41 -10.5 50t-39.5 3q-41 -8 -67 -24
q-5 -3 -5 -9.5t4 -11.5q2 -1 11.5 -5t15 -11.5t5.5 -20.5v-221q1 -12 -16 -29.5t-18 -19.5v-10q0 -8 8 -8h137q8 0 8 8v4q0 6 -16.5 23.5t-16.5 30.5v58l11 7l43 -84q25 -48 64 -48q25 0 44 13.5t20 26.5z" />
    <glyph glyph-name="comma" unicode="," horiz-adv-x="0" 
d="M36 78q0 21 14 35t35 14q22 0 35.5 -13.5t13.5 -35.5q0 -28 -15 -56.5t-30 -45t-41 -41.5q-1 1 -5.5 6t-5.5 6q37 24 54 60q11 24 -6 22q-20 -1 -34.5 13t-14.5 36z" />
    <glyph glyph-name="hyphen" unicode="-" 
d="M45 490h703v-490h-703v490zM391 98q0 7 -7 5q-6 -2 -12 0.5t-11.5 9t-10.5 13.5t-10.5 17t-8.5 16.5t-7.5 16t-5.5 12.5q-18 33 -56 31q9 6 24 15.5t18 11.5q12 8 23 14.5t16.5 9t9.5 5.5t5.5 5t1.5 6v5q0 8 -8 8h-68q-9 0 -9 -7q-1 -10 1 -13q8 -9 8 -13.5t-12 -13.5
l-65 -42q0 36 0.5 97.5t0.5 68.5q0 41 -10.5 50t-39.5 3q-41 -8 -68 -24q-12 -7 0 -21q2 -1 11.5 -5t15 -11.5t5.5 -20.5v-221q0 -12 -17 -29.5t-18 -19.5v-10q0 -8 8 -8h138q7 0 7 8v4q0 6 -16.5 23.5t-16.5 30.5v58l11 7l43 -84q25 -48 64 -48q26 0 45 13.5t21 26.5z
M707 98q0 3 -1.5 4.5t-3.5 0.5q-8 -2 -16.5 3t-17 18t-13.5 21t-13 25l-7 18q-18 33 -56 31q34 21 42 27q12 8 23 14.5t16.5 9t9.5 5.5t5.5 5t1.5 6v5q0 8 -7 8h-70q-8 0 -8 -7q-2 -10 1 -13q9 -9 9 -12.5t-12 -14.5l-65 -42v166q0 41 -10.5 50t-39.5 3q-41 -8 -67 -24
q-5 -3 -5 -9.5t4 -11.5q2 -1 11.5 -5t15 -11.5t5.5 -20.5v-221q1 -12 -16 -29.5t-18 -19.5v-10q0 -8 8 -8h137q8 0 8 8v4q0 6 -16.5 23.5t-16.5 30.5v58l11 7l43 -84q25 -48 64 -48q25 0 44 13.5t20 26.5z" />
    <glyph glyph-name="period" unicode="." horiz-adv-x="0" 
d="M66 49q0 20 14.5 34.5t34.5 14.5t34.5 -14.5t14.5 -34.5t-14.5 -34.5t-34.5 -14.5t-34.5 14.5t-14.5 34.5z" />
    <glyph glyph-name="slash" unicode="/" horiz-adv-x="475" 
d="M35 490h703v-490h-703v490zM381 98q0 7 -7 5q-6 -2 -12 0.5t-11.5 9t-10.5 13.5t-10.5 17t-8.5 16.5t-7.5 16t-5.5 12.5q-18 33 -56 31q9 6 24 15.5t18 11.5q12 8 23 14.5t16.5 9t9.5 5.5t5.5 5t1.5 6v5q0 8 -8 8h-68q-9 0 -9 -7q-1 -10 1 -13q8 -9 8 -13.5t-12 -13.5
l-65 -42q0 36 0.5 97.5t0.5 68.5q0 41 -10.5 50t-39.5 3q-41 -8 -68 -24q-12 -7 0 -21q2 -1 11.5 -5t15 -11.5t5.5 -20.5v-221q0 -12 -17 -29.5t-18 -19.5v-10q0 -8 8 -8h138q7 0 7 8v4q0 6 -16.5 23.5t-16.5 30.5v58l11 7l43 -84q25 -48 64 -48q26 0 45 13.5t21 26.5z
M697 98q0 3 -1.5 4.5t-3.5 0.5q-8 -2 -16.5 3t-17 18t-13.5 21t-13 25l-7 18q-18 33 -56 31q34 21 42 27q12 8 23 14.5t16.5 9t9.5 5.5t5.5 5t1.5 6v5q0 8 -7 8h-70q-8 0 -8 -7q-2 -10 1 -13q9 -9 9 -12.5t-12 -14.5l-65 -42v166q0 41 -10.5 50t-39.5 3q-41 -8 -67 -24
q-5 -3 -5 -9.5t4 -11.5q2 -1 11.5 -5t15 -11.5t5.5 -20.5v-221q1 -12 -16 -29.5t-18 -19.5v-10q0 -8 8 -8h137q8 0 8 8v4q0 6 -16.5 23.5t-16.5 30.5v58l11 7l43 -84q25 -48 64 -48q25 0 44 13.5t20 26.5z" />
    <glyph glyph-name="zero" unicode="0" horiz-adv-x="623" 
d="M32 351q0 164 78.5 264t206.5 100q127 0 206 -100.5t79 -263.5t-78.5 -263t-206.5 -100q-129 0 -207 100t-78 263zM97 351q0 -158 59.5 -252t160.5 -94t160.5 94t59.5 252q0 157 -59.5 252t-160.5 95q-103 0 -161.5 -94t-58.5 -253z" />
    <glyph glyph-name="one" unicode="1" horiz-adv-x="333" 
d="M247 15l56 -11v-4h-224v4l55 11q25 5 25 30v594q0 10 -10 7l-111 -34l-3 9l188 79v-655q0 -25 24 -30z" />
    <glyph glyph-name="two" unicode="2" horiz-adv-x="558" 
d="M463 6l-425 -1l4 27q12 10 56 45.5t67 55t66.5 58.5t68.5 66t58.5 66.5t51.5 72t31 70.5t13 72q0 76 -40.5 118.5t-114.5 42.5q-75 0 -134.5 -41t-59.5 -112q0 -31 14 -66t26 -53t39 -56l-11 -10l-135 184q38 82 106.5 125.5t158.5 43.5q87 0 153 -43.5t66 -126.5
q0 -42 -23.5 -91t-52.5 -87t-84 -91.5t-86 -80t-94 -77.5t-74 -60q-9 -7 3 -7h307q25 0 44 15t25 39l17 61h10l-30 -169h-4l-1 1q-5 9 -16 9z" />
    <glyph glyph-name="three" unicode="3" horiz-adv-x="580" 
d="M441 641l-181 -139q16 2 25 2q115 0 186 -71.5t71 -187.5q0 -115 -69.5 -186.5t-180.5 -71.5q-83 0 -152.5 42.5t-103.5 126.5l144 184l11 -10l-11 -16q-12 -16 -15.5 -21.5t-14 -21.5t-15 -27t-11 -26.5t-9 -30.5t-2.5 -30q0 -50 30.5 -87t71 -52.5t82.5 -15.5
q81 0 129.5 67t48.5 176t-52 176t-139 67q-27 0 -54 -8l-16 14v1l206 153q9 7 -3 7h-232q-25 0 -44 -15t-25 -39l-17 -61h-10l30 169h4l1 -1q7 -9 17 -9l344 1l-4 -28q-6 -4 -20 -15t-20 -16z" />
    <glyph glyph-name="four" unicode="4" horiz-adv-x="572" 
d="M463 15l56 -11v-4h-224v4l55 12q25 5 25 29v134h-338v15l-1 1l352 505h51v-505h52q25 0 27 25l14 125h4v-206h-4l-7 17q-10 23 -34 23h-52v-134q0 -25 24 -30zM58 195h317v454z" />
    <glyph glyph-name="five" unicode="5" horiz-adv-x="587" 
d="M152 644l-25 -195q73 55 164 55q116 0 187 -71.5t71 -187.5q0 -115 -69.5 -186.5t-180.5 -71.5q-83 0 -152.5 42.5t-103.5 126.5l144 184l11 -10q-1 -1 -10.5 -14t-12.5 -18t-12 -19t-13.5 -22t-11 -22.5t-10 -25.5t-6 -25t-2.5 -27q0 -50 30.5 -87t71 -52.5t82.5 -15.5
q81 0 129.5 67t48.5 176t-52 176t-139 67q-64 0 -112.5 -39t-64.5 -101l-48 31l54 252q5 26 -15 41l-4 28l344 -1q10 0 17 9l1 1h4l30 -169h-10l-17 61q-6 24 -25 38.5t-44 14.5h-236q-11 0 -13 -10z" />
    <glyph glyph-name="six" unicode="6" horiz-adv-x="608" 
d="M321 715q67 0 127 -28.5t90 -83.5l-101 -95l-7 7q41 47 41 87q0 48 -45.5 73t-97.5 25q-56 0 -99 -29.5t-67.5 -78t-37 -100t-15.5 -106.5q69 121 214 121q112 0 180.5 -70.5t68.5 -182.5q0 -116 -71.5 -191t-186.5 -75q-58 0 -105 21.5t-78.5 57t-52.5 83t-30.5 98
t-9.5 103.5q0 69 16.5 131.5t49 116t88.5 85t129 31.5zM113 283q6 -51 19.5 -96.5t36.5 -88t61 -68t87 -25.5q48 0 85.5 23.5t59 62t32 82t10.5 88.5q0 98 -47 163.5t-141 65.5q-89 0 -142 -59t-61 -148z" />
    <glyph glyph-name="seven" unicode="7" horiz-adv-x="504" 
d="M79 699l436 1l-4 -27l-1 -1q-18 -15 -27 -39l-206 -589q-8 -23 15 -31l27 -9v-4h-218v4l65 12q26 5 34 28l252 588q5 10 0.5 16t-15.5 6h-313q-25 0 -44 -14.5t-25 -38.5l-17 -61h-10l30 169h4l1 -1q5 -9 16 -9z" />
    <glyph glyph-name="eight" unicode="8" horiz-adv-x="626" 
d="M320 -12q-45 0 -90.5 9.5t-90 29.5t-72.5 57.5t-28 86.5q0 69 49.5 131.5t118.5 94.5q-126 71 -126 163q0 42 24 73.5t62 48.5t77 25t78 8q35 0 71.5 -7t72.5 -22t59 -44t23 -68q0 -19 -4.5 -36.5t-16 -34t-20 -28t-28.5 -27.5t-28 -22.5t-32 -23.5t-28 -20
q93 -47 144.5 -96.5t51.5 -120.5q0 -48 -26 -84t-68 -55t-85.5 -28.5t-87.5 -9.5zM374 390q122 103 122 186q0 42 -33.5 71.5t-74.5 40t-82 10.5q-38 0 -75.5 -9t-69.5 -35.5t-32 -65.5q0 -15 4 -29t13.5 -27t19 -23.5t27 -22t29.5 -20t35.5 -20t37 -18.5t40 -19.5
t39.5 -18.5zM224 387q-52 -30 -87 -89.5t-35 -118.5q0 -83 73.5 -128.5t161.5 -45.5q45 0 87 12t74.5 44t32.5 79q0 31 -14.5 58.5t-35.5 47t-55 40t-63 34.5t-71.5 33.5t-67.5 33.5z" />
    <glyph glyph-name="nine" unicode="9" horiz-adv-x="611" 
d="M289 -12q-68 0 -127 28.5t-89 83.5l101 94l7 -7q-41 -45 -41 -88q0 -47 46 -72t98 -25q56 0 99 29.5t67 78t36 100t15 106.5q-68 -121 -213 -121q-112 0 -180.5 71t-68.5 183q0 116 72.5 191t188.5 75q73 0 127.5 -30t85 -81t45 -112t14.5 -130q0 -70 -15.5 -134
t-47.5 -119t-88.5 -88t-131.5 -33zM498 423q-5 51 -18.5 96.5t-36.5 87t-62.5 66t-89.5 24.5q-62 0 -105.5 -42.5t-61 -98.5t-17.5 -116q0 -97 47.5 -162t140.5 -65q90 0 143 60t60 150z" />
    <glyph glyph-name="colon" unicode=":" horiz-adv-x="535" 
d="M65 490h703v-490h-703v490zM411 98q0 7 -7 5q-6 -2 -12 0.5t-11.5 9t-10.5 13.5t-10.5 17t-8.5 16.5t-7.5 16t-5.5 12.5q-18 33 -56 31q9 6 24 15.5t18 11.5q12 8 23 14.5t16.5 9t9.5 5.5t5.5 5t1.5 6v5q0 8 -8 8h-68q-9 0 -9 -7q-1 -10 1 -13q8 -9 8 -13.5t-12 -13.5
l-65 -42q0 36 0.5 97.5t0.5 68.5q0 41 -10.5 50t-39.5 3q-41 -8 -68 -24q-12 -7 0 -21q2 -1 11.5 -5t15 -11.5t5.5 -20.5v-221q0 -12 -17 -29.5t-18 -19.5v-10q0 -8 8 -8h138q7 0 7 8v4q0 6 -16.5 23.5t-16.5 30.5v58l11 7l43 -84q25 -48 64 -48q26 0 45 13.5t21 26.5z
M727 98q0 3 -1.5 4.5t-3.5 0.5q-8 -2 -16.5 3t-17 18t-13.5 21t-13 25l-7 18q-18 33 -56 31q34 21 42 27q12 8 23 14.5t16.5 9t9.5 5.5t5.5 5t1.5 6v5q0 8 -7 8h-70q-8 0 -8 -7q-2 -10 1 -13q9 -9 9 -12.5t-12 -14.5l-65 -42v166q0 41 -10.5 50t-39.5 3q-41 -8 -67 -24
q-5 -3 -5 -9.5t4 -11.5q2 -1 11.5 -5t15 -11.5t5.5 -20.5v-221q1 -12 -16 -29.5t-18 -19.5v-10q0 -8 8 -8h137q8 0 8 8v4q0 6 -16.5 23.5t-16.5 30.5v58l11 7l43 -84q25 -48 64 -48q25 0 44 13.5t20 26.5z" />
    <glyph glyph-name="semicolon" unicode=";" horiz-adv-x="535" 
d="M65 490h703v-490h-703v490zM411 98q0 7 -7 5q-6 -2 -12 0.5t-11.5 9t-10.5 13.5t-10.5 17t-8.5 16.5t-7.5 16t-5.5 12.5q-18 33 -56 31q9 6 24 15.5t18 11.5q12 8 23 14.5t16.5 9t9.5 5.5t5.5 5t1.5 6v5q0 8 -8 8h-68q-9 0 -9 -7q-1 -10 1 -13q8 -9 8 -13.5t-12 -13.5
l-65 -42q0 36 0.5 97.5t0.5 68.5q0 41 -10.5 50t-39.5 3q-41 -8 -68 -24q-12 -7 0 -21q2 -1 11.5 -5t15 -11.5t5.5 -20.5v-221q0 -12 -17 -29.5t-18 -19.5v-10q0 -8 8 -8h138q7 0 7 8v4q0 6 -16.5 23.5t-16.5 30.5v58l11 7l43 -84q25 -48 64 -48q26 0 45 13.5t21 26.5z
M727 98q0 3 -1.5 4.5t-3.5 0.5q-8 -2 -16.5 3t-17 18t-13.5 21t-13 25l-7 18q-18 33 -56 31q34 21 42 27q12 8 23 14.5t16.5 9t9.5 5.5t5.5 5t1.5 6v5q0 8 -7 8h-70q-8 0 -8 -7q-2 -10 1 -13q9 -9 9 -12.5t-12 -14.5l-65 -42v166q0 41 -10.5 50t-39.5 3q-41 -8 -67 -24
q-5 -3 -5 -9.5t4 -11.5q2 -1 11.5 -5t15 -11.5t5.5 -20.5v-221q1 -12 -16 -29.5t-18 -19.5v-10q0 -8 8 -8h137q8 0 8 8v4q0 6 -16.5 23.5t-16.5 30.5v58l11 7l43 -84q25 -48 64 -48q25 0 44 13.5t20 26.5z" />
    <glyph glyph-name="less" unicode="&#x3c;" 
d="M45 490h703v-490h-703v490zM391 98q0 5 -7 5q-6 -2 -12 0.5t-11.5 9t-10.5 13.5t-10.5 17t-8.5 16.5t-7.5 16t-5.5 12.5q-18 33 -56 31q9 6 24 15.5t18 11.5q12 8 23 14.5t16.5 9t9.5 5.5t5.5 5t1.5 6v5q0 8 -8 8h-68q-9 0 -9 -7q-1 -10 1 -13q8 -9 8 -13.5t-12 -13.5
l-65 -42q0 36 0.5 97.5t0.5 68.5q0 41 -10.5 50t-39.5 3q-41 -8 -68 -24q-12 -7 0 -21q2 -1 11.5 -5t15 -11.5t5.5 -20.5v-221q0 -12 -17 -29.5t-18 -19.5v-10q0 -8 8 -8h138q7 0 7 8v4q0 6 -16.5 23.5t-16.5 30.5v58l11 7l43 -84q25 -48 64 -48q26 0 45 13.5t21 26.5z
M707 98q0 5 -5 5q-8 -2 -16.5 3t-17 18t-13.5 21t-13 25l-7 18q-18 33 -56 31q34 21 42 27q12 8 23 14.5t16.5 9t9.5 5.5t5.5 5t1.5 6v5q0 8 -7 8h-70q-8 0 -8 -7q-2 -10 1 -13q9 -9 9 -12.5t-12 -14.5l-65 -42v166q0 41 -10.5 50t-39.5 3q-41 -8 -67 -24q-5 -3 -5 -9.5
t4 -11.5q2 -1 11.5 -5t15 -11.5t5.5 -20.5v-221q1 -12 -16 -29.5t-18 -19.5v-10q0 -8 8 -8h137q8 0 8 8v4q0 6 -16.5 23.5t-16.5 30.5v58l11 7l43 -84q25 -48 64 -48q25 0 44 13.5t20 26.5z" />
    <glyph glyph-name="equal" unicode="=" horiz-adv-x="505" 
d="M50 490h703v-490h-703v490zM396 98q0 7 -7 5q-6 -2 -12 0.5t-11.5 9t-10.5 13.5t-10.5 17t-8.5 16.5t-7.5 16t-5.5 12.5q-18 33 -56 31q9 6 24 15.5t18 11.5q12 8 23 14.5t16.5 9t9.5 5.5t5.5 5t1.5 6v5q0 8 -8 8h-68q-9 0 -9 -7q-1 -10 1 -13q9 -9 9 -13.5t-13 -13.5
l-65 -42q0 36 0.5 97.5t0.5 68.5q0 41 -10.5 50t-39.5 3q-41 -8 -68 -24q-12 -7 0 -21q2 -1 11.5 -5t15 -11.5t5.5 -20.5v-221q0 -12 -17 -29.5t-18 -19.5v-10q0 -8 8 -8h138q7 0 7 8v4q0 6 -16.5 23.5t-16.5 30.5v58l11 7l43 -84q25 -48 64 -48q26 0 45 13.5t21 26.5z
M712 98q0 3 -1.5 4.5t-3.5 0.5q-8 -2 -16.5 3t-17 18t-13.5 21t-12 25l-8 18q-18 33 -56 31q34 21 42 27q12 8 23 14.5t16.5 9t9.5 5.5t5.5 5t1.5 6v5q0 8 -7 8h-70q-8 0 -8 -7q-2 -10 1 -13q9 -9 9 -12.5t-12 -14.5l-65 -42v166q0 41 -10.5 50t-39.5 3q-41 -8 -67 -24
q-5 -3 -5 -9.5t4 -11.5q2 -1 11.5 -5t15 -11.5t5.5 -20.5v-221q1 -12 -16 -29.5t-18 -19.5v-10q0 -8 8 -8h137q8 0 8 8v4q0 6 -16.5 23.5t-16.5 30.5v58l11 7l43 -84q25 -48 64 -48q25 0 44 13.5t20 26.5z" />
    <glyph glyph-name="greater" unicode="&#x3e;" 
d="M45 490h703v-490h-703v490zM391 98q0 5 -7 5q-6 -2 -12 0.5t-11.5 9t-10.5 13.5t-10.5 17t-8.5 16.5t-7.5 16t-5.5 12.5q-18 33 -56 31q9 6 24 15.5t18 11.5q12 8 23 14.5t16.5 9t9.5 5.5t5.5 5t1.5 6v5q0 8 -8 8h-68q-9 0 -9 -7q-1 -10 1 -13q8 -9 8 -13.5t-12 -13.5
l-65 -42q0 36 0.5 97.5t0.5 68.5q0 41 -10.5 50t-39.5 3q-41 -8 -68 -24q-12 -7 0 -21q2 -1 11.5 -5t15 -11.5t5.5 -20.5v-221q0 -12 -17 -29.5t-18 -19.5v-10q0 -8 8 -8h138q7 0 7 8v4q0 6 -16.5 23.5t-16.5 30.5v58l11 7l43 -84q25 -48 64 -48q26 0 45 13.5t21 26.5z
M707 98q0 5 -5 5q-8 -2 -16.5 3t-17 18t-13.5 21t-13 25l-7 18q-18 33 -56 31q34 21 42 27q12 8 23 14.5t16.5 9t9.5 5.5t5.5 5t1.5 6v5q0 8 -7 8h-70q-8 0 -8 -7q-2 -10 1 -13q9 -9 9 -12.5t-12 -14.5l-65 -42v166q0 41 -10.5 50t-39.5 3q-41 -8 -67 -24q-5 -3 -5 -9.5
t4 -11.5q2 -1 11.5 -5t15 -11.5t5.5 -20.5v-221q1 -12 -16 -29.5t-18 -19.5v-10q0 -8 8 -8h137q8 0 8 8v4q0 6 -16.5 23.5t-16.5 30.5v58l11 7l43 -84q25 -48 64 -48q25 0 44 13.5t20 26.5z" />
    <glyph glyph-name="question" unicode="?" horiz-adv-x="520" 
d="M50 490h703v-490h-703v490zM396 98q0 7 -7 5q-6 -2 -12 0.5t-11.5 9t-10.5 13.5t-10.5 17t-8.5 16.5t-7.5 16t-5.5 12.5q-18 33 -56 31q9 6 24 15.5t18 11.5q12 8 23 14.5t16.5 9t9.5 5.5t5.5 5t1.5 6v5q0 8 -8 8h-68q-9 0 -9 -7q-1 -10 1 -13q9 -9 9 -13.5t-13 -13.5
l-65 -42q0 36 0.5 97.5t0.5 68.5q0 41 -10.5 50t-39.5 3q-41 -8 -68 -24q-12 -7 0 -21q2 -1 11.5 -5t15 -11.5t5.5 -20.5v-221q0 -12 -17 -29.5t-18 -19.5v-10q0 -8 8 -8h138q7 0 7 8v4q0 6 -16.5 23.5t-16.5 30.5v58l11 7l43 -84q25 -48 64 -48q26 0 45 13.5t21 26.5z
M712 98q0 3 -1.5 4.5t-3.5 0.5q-8 -2 -16.5 3t-17 18t-13.5 21t-12 25l-8 18q-18 33 -56 31q34 21 42 27q12 8 23 14.5t16.5 9t9.5 5.5t5.5 5t1.5 6v5q0 8 -7 8h-70q-8 0 -8 -7q-2 -10 1 -13q9 -9 9 -12.5t-12 -14.5l-65 -42v166q0 41 -10.5 50t-39.5 3q-41 -8 -67 -24
q-5 -3 -5 -9.5t4 -11.5q2 -1 11.5 -5t15 -11.5t5.5 -20.5v-221q1 -12 -16 -29.5t-18 -19.5v-10q0 -8 8 -8h137q8 0 8 8v4q0 6 -16.5 23.5t-16.5 30.5v58l11 7l43 -84q25 -48 64 -48q25 0 44 13.5t20 26.5z" />
    <glyph glyph-name="at" unicode="@" horiz-adv-x="505" 
d="M50 490h703v-490h-703v490zM396 98q0 7 -7 5q-6 -2 -12 0.5t-11.5 9t-10.5 13.5t-10.5 17t-8.5 16.5t-7.5 16t-5.5 12.5q-18 33 -56 31q9 6 24 15.5t18 11.5q12 8 23 14.5t16.5 9t9.5 5.5t5.5 5t1.5 6v5q0 8 -8 8h-68q-9 0 -9 -7q-1 -10 1 -13q9 -9 9 -13.5t-13 -13.5
l-65 -42q0 36 0.5 97.5t0.5 68.5q0 41 -10.5 50t-39.5 3q-41 -8 -68 -24q-12 -7 0 -21q2 -1 11.5 -5t15 -11.5t5.5 -20.5v-221q0 -12 -17 -29.5t-18 -19.5v-10q0 -8 8 -8h138q7 0 7 8v4q0 6 -16.5 23.5t-16.5 30.5v58l11 7l43 -84q25 -48 64 -48q26 0 45 13.5t21 26.5z
M712 98q0 3 -1.5 4.5t-3.5 0.5q-8 -2 -16.5 3t-17 18t-13.5 21t-12 25l-8 18q-18 33 -56 31q34 21 42 27q12 8 23 14.5t16.5 9t9.5 5.5t5.5 5t1.5 6v5q0 8 -7 8h-70q-8 0 -8 -7q-2 -10 1 -13q9 -9 9 -12.5t-12 -14.5l-65 -42v166q0 41 -10.5 50t-39.5 3q-41 -8 -67 -24
q-5 -3 -5 -9.5t4 -11.5q2 -1 11.5 -5t15 -11.5t5.5 -20.5v-221q1 -12 -16 -29.5t-18 -19.5v-10q0 -8 8 -8h137q8 0 8 8v4q0 6 -16.5 23.5t-16.5 30.5v58l11 7l43 -84q25 -48 64 -48q25 0 44 13.5t20 26.5z" />
    <glyph glyph-name="A" unicode="A" horiz-adv-x="578" 
d="M585 9l8 -5v-4h-203q-63 0 -118.5 19.5t-94.5 65t-39 109.5q0 60 37 101.5t96 41.5q78 0 132 -64l-139 388l-229 -622q-4 -8 0 -14t12 -7l127 -14v-4h-188v4l6 4q15 13 23 31l241 642q-12 17 -29 18l-91 11v5h174l252 -676q7 -19 23 -30zM471 81l-35 99q-58 142 -165 142
q-53 0 -85 -36.5t-32 -89.5q0 -88 70.5 -133t165.5 -47h34q32 -1 45 17t2 48z" />
    <glyph glyph-name="B" unicode="B" horiz-adv-x="516" 
d="M32 696h-1v4h88v-74q19 40 56.5 64t86.5 25q86 3 140 -46t54 -131q0 -64 -35.5 -109t-96.5 -61q82 -15 131 -63t49 -115q0 -94 -75 -142t-220 -48h-178v4l4 4q16 11 16 33v614q0 24 -19 41zM165 386l5 13q32 -24 80 -24q65 0 102.5 43t37.5 120q0 74 -37.5 118t-100.5 43
q-50 0 -88 -34t-45 -90v-548q0 -11 10 -11h80q235 -2 235 178q0 75 -50.5 121t-133.5 46q-59 0 -95 25z" />
    <glyph glyph-name="C" unicode="C" horiz-adv-x="659" 
d="M367 715q79 0 149 -41.5t107 -110.5l-259 -234l-4 4q1 1 36.5 35t54 53t47.5 49.5t43 51t15 30.5q3 59 -53 103t-137 44q-69 0 -121 -31t-82 -82.5t-44.5 -110.5t-14.5 -124q0 -88 33 -162.5t100 -122t157 -47.5q81 0 144 43t87 119l12 -10q-33 -89 -104 -136t-167 -47
q-154 0 -242 103t-88 260t88 260.5t243 103.5z" />
    <glyph glyph-name="D" unicode="D" horiz-adv-x="627" 
d="M51 45v610q0 24 -19 41h-1v4h88v-93q20 50 67 78.5t110 28.5q127 1 211 -101t84 -257q0 -167 -104 -261.5t-290 -94.5h-166v4l1 1q19 14 19 40zM130 16h77q149 0 232.5 89.5t83.5 249.5q0 149 -68 246.5t-172 97.5q-67 0 -112 -41.5t-52 -109.5v-521q0 -11 11 -11z" />
    <glyph glyph-name="E" unicode="E" horiz-adv-x="518" 
d="M439 0h-408v4l1 1q19 16 19 40v610q0 25 -19 41l-1 1v4l88 -1h300q8 0 13 7l2 3h4l30 -169h-10l-19 91q-5 24 -23.5 39t-42.5 15h-244q-10 0 -10 -10v-297l159 -1q25 0 36.5 15t6.5 39l-19 82l9 2l69 -295l-10 -2l-22 95q-5 24 -24 39t-44 16h-161v-344q0 -10 10 -10h264
q24 0 42.5 15t23.5 39l19 91h10l-30 -170h-4l-2 3q-4 7 -13 7z" />
    <glyph glyph-name="F" unicode="F" horiz-adv-x="478" 
d="M32 696l-1 1v4l88 -1h320q8 0 13 7l2 3h4l30 -169h-10l-19 91q-5 24 -23.5 39t-43.5 15h-264q-9 0 -9 -10v-327l159 -1q25 0 36.5 15t6.5 39l-19 82l9 2l69 -295l-10 -2l-22 95q-5 24 -24 39t-44 16h-161v-294q0 -25 24 -28l106 -13v-4h-218v4l1 1q19 16 19 40v610
q0 25 -19 41z" />
    <glyph glyph-name="G" unicode="G" horiz-adv-x="676" 
d="M542 284l-225 15v4h338v-4l-1 -1q-19 -16 -19 -40v-258q-30 30 -63 30q-18 0 -84 -21.5t-122 -20.5q-154 2 -242 104.5t-88 258.5q0 157 88.5 260.5t242.5 103.5q79 0 149 -41.5t107 -110.5l-194 -176l-5 5q4 4 30 29.5t37.5 37.5t30 32.5t26.5 35t9 25.5q2 60 -54 103.5
t-137 43.5q-68 0 -120.5 -31t-82.5 -82t-44.5 -110.5t-14.5 -124.5q0 -137 79 -236.5t212 -99.5q163 0 172 110v133q0 24 -25 26z" />
    <glyph glyph-name="H" unicode="H" horiz-adv-x="573" 
d="M143 17l95 -13v-4h-208v4l1 1q19 14 19 40v610q0 25 -19 41h-1v4h208v-4l-95 -13q-25 -3 -25 -28v-248q9 18 27.5 29.5t38.5 11.5q34 0 73.5 -24.5t76 -49t62.5 -24.5q28 0 43.5 24t15.5 53v228q0 25 -25 28l-95 13v4h208v-4h-1q-19 -17 -19 -41v-610q0 -24 19 -40l1 -1
v-4h-208v4l95 13q25 3 25 28v330q-23 -39 -59 -39q-37 0 -108 49.5t-102 49.5q-28 0 -47.5 -24.5t-20.5 -53.5v-312q0 -25 25 -28z" />
    <glyph glyph-name="I" unicode="I" horiz-adv-x="259" 
d="M188 15l56 -11v-4h-228v4l55 11q25 5 25 30v610q0 25 -24 30l-56 11v4h228v-4l-56 -11q-24 -5 -24 -30v-610q0 -25 24 -30z" />
    <glyph glyph-name="J" unicode="J" horiz-adv-x="258" 
d="M-58 -83l-4 17q30 -15 70 -15q33 0 58 8.5t39 27t22.5 34.5t12 45.5t4 44.5t0.5 46v530q0 25 -24 28l-106 13v4h218v-4h-1q-19 -17 -19 -41v-541q0 -103 -49.5 -156.5t-141.5 -53.5q-47 0 -79 13z" />
    <glyph glyph-name="K" unicode="K" horiz-adv-x="552" 
d="M143 17l96 -13v-4h-208v4l1 1q19 16 19 40v610q0 24 -19 41h-1v4h208v-4l-96 -13q-24 -3 -24 -28v-345q67 20 151 63t156 105t72 114q0 31 -24 49.5t-66 18.5q-69 0 -112 -49.5t-43 -130.5q0 -31 4 -56l-15 15q-4 23 -4 51q0 95 48.5 157t123.5 62q49 0 79.5 -28
t30.5 -71q0 -70 -80.5 -140t-191.5 -123q47 6 59 -21q2 -4 108 -235q18 -41 46.5 -62.5t50.5 -21.5q23 0 31.5 31t-1.5 81l10 3l19 -101q-29 -34 -83 -34q-62 0 -96 31.5t-73 122.5q-4 10 -13.5 31.5t-15 34t-14.5 32t-16 31.5t-16 25.5t-17.5 21.5t-16.5 12
q-49 -20 -91 -32v-252q0 -25 24 -28zM192 332h2h-2z" />
    <glyph glyph-name="L" unicode="L" horiz-adv-x="459" 
d="M419 0h-388v4l1 1q19 16 19 40v610q0 24 -19 41h-1v4h208v-4l-95 -13q-25 -3 -25 -28v-630q0 -10 10 -10h244q25 0 43 15t23 39l19 91h10l-30 -170h-4l-2 3q-4 7 -13 7z" />
    <glyph glyph-name="M" unicode="M" horiz-adv-x="804" 
d="M796 9l8 -5v-4h-187v4l66 12q19 5 16 24l-125 586l-166 -559l9 -28q7 -18 26 -23l64 -12v-4h-154l-198 624l-109 -584q-3 -19 16 -21l176 -15v-4h-238v4l6 4q17 12 20 32l119 616l-5 14q-5 20 -26 20l-57 4v6h142l200 -606l168 564l-1 6q-5 24 -30 26l-73 5l1 5h157
l154 -660q5 -20 21 -31z" />
    <glyph glyph-name="N" unicode="N" horiz-adv-x="569" 
d="M43 693l-8 1l1 6h96l351 -581v536q0 25 -25 27l-125 14v4h206v-4l-17 -7q-23 -10 -23 -34v-655h-25l-387 648v-603q0 -24 24 -27l166 -14v-4h-246v4l17 7q23 11 23 34v630q-11 15 -28 18z" />
    <glyph glyph-name="O" unicode="O" horiz-adv-x="731" 
d="M35 351q0 163 91 263.5t239 100.5t239.5 -100.5t91.5 -263.5t-91 -263t-240 -100q-148 0 -239 100t-91 263zM103 351q0 -157 72 -251.5t191 -94.5q118 0 190 95t72 251t-72.5 251.5t-189.5 95.5q-120 0 -191.5 -94.5t-71.5 -252.5z" />
    <glyph glyph-name="P" unicode="P" horiz-adv-x="490" 
d="M143 17l105 -13v-4h-218v4l1 1q19 14 19 40v609q0 27 -19 41l-1 1v4h88v-98q20 51 60 81t92 32q91 4 147.5 -57.5t56.5 -164.5q0 -99 -56 -160t-148 -61q-64 0 -102 32l5 14q33 -30 84 -30q68 0 108 54.5t40 150.5q0 93 -40 149t-106 55q-53 -1 -93.5 -45.5t-47.5 -117.5
v-489q0 -25 25 -28z" />
    <glyph glyph-name="Q" unicode="Q" horiz-adv-x="726" 
d="M362 -134q26 0 47.5 16t38.5 39t35.5 45.5t47.5 38.5t65 16q53 0 89 -33t36 -86q0 -27 -12 -58h-244v9q1 0 29.5 0.5t39.5 1.5t38 4t40.5 8.5t30.5 14t24.5 23t7.5 32.5q0 34 -23.5 52t-57.5 18q-33 0 -59 -17.5t-44.5 -42t-37.5 -49t-48 -42t-66 -17.5q-48 0 -79.5 26.5
t-31.5 72.5q0 42 25 67q-101 34 -159.5 126t-58.5 220q0 163 91 263.5t240 100.5q148 0 239 -100.5t91 -263.5t-91 -263t-239 -100q-34 0 -59 4q-12 -18 -13 -42q-2 -38 17 -61t51 -23zM104 351q0 -123 45.5 -209.5t125.5 -118.5q43 25 114 25q49 0 97 -11
q67 40 104.5 121.5t37.5 192.5q0 156 -72.5 251.5t-189.5 95.5q-120 0 -191 -94.5t-71 -252.5zM321 9q30 -4 45 -4q58 0 104 24q-31 7 -60 7q-58 0 -89 -27z" />
    <glyph glyph-name="R" unicode="R" horiz-adv-x="522" 
d="M167 337l5 15q33 -28 85 -28q68 0 107.5 49.5t39.5 137.5q0 86 -39 136t-106 50q-54 -1 -94 -41.5t-47 -106.5v-504q0 -25 25 -28l95 -13v-4h-208v4l1 1q19 14 19 40v609q0 27 -19 41l-1 1v4h88v-89q42 99 152 104q90 3 147 -53.5t57 -150.5q0 -91 -56 -147t-148 -56
q-8 0 -11 1q92 -171 124 -218q58 -84 90 -84q23 0 31 31t-2 81l10 3l20 -101q-29 -34 -84 -34q-90 0 -145 101z" />
    <glyph glyph-name="S" unicode="S" horiz-adv-x="605" 
d="M322 -12q-95 0 -172.5 41.5t-114.5 115.5l148 135q1 0 5.5 -5t5.5 -5q-91 -78 -92 -136q-1 -53 65 -93t156 -40q89 0 144.5 41.5t55.5 104.5q0 55 -47 98.5t-113.5 74t-133.5 61t-114 74.5t-47 100q0 69 63.5 114.5t163.5 45.5q83 0 146 -33.5t94 -94.5l-122 -109l-9 9
q75 62 76 109q1 43 -54 74.5t-132 31.5q-79 0 -129 -33t-50 -84q0 -46 48 -85t116 -69t136.5 -62.5t116.5 -81.5t48 -111q0 -81 -73 -135t-185 -53z" />
    <glyph glyph-name="T" unicode="T" horiz-adv-x="531" 
d="M20 636l-20 -96h-10l30 170h4q7 -10 18 -10h446q11 0 18 9h4l30 -169h-10l-20 96q-4 22 -21 35.5t-40 13.5l-125 -1q-11 0 -18 -6.5t-7 -17.5v-614q0 -25 24 -30l66 -12v-4h-248v4l66 12q24 5 24 30v80l1 534q0 25 -25 25h-126q-23 0 -39.5 -13.5t-21.5 -35.5z" />
    <glyph glyph-name="U" unicode="U" horiz-adv-x="628" 
d="M109 655v-390q0 -121 58.5 -191.5t159.5 -69.5q109 0 174 71t66 190v390q0 25 -25 28l-115 13v4h176v-4h-1q-19 -16 -19 -41v-390q0 -125 -70.5 -201t-185.5 -76q-133 -1 -209.5 73.5t-76.5 203.5v390q0 24 -19 41h-1v4h228v-4l-115 -13q-25 -3 -25 -28z" />
    <glyph glyph-name="V" unicode="V" horiz-adv-x="648" 
d="M28 691l-7 5v4h237v-4l-117 -14q-19 -4 -13 -21l221 -608l230 608q6 18 -13 21l-126 14v4h188v-4l-6 -5q-16 -11 -23 -30l-241 -628q10 -15 28 -18l92 -10v-5h-174l-252 661q-6 18 -24 30z" />
    <glyph glyph-name="W" unicode="W" horiz-adv-x="975" 
d="M28 691l-7 5v4h187v-4l-67 -13q-20 -3 -13 -22l221 -608l130 344l-101 264q-7 19 -27 22l-64 13v4h177v-4l-2 -2q-13 -15 -7 -33l67 -186l71 186q6 18 -7 33l-2 2v4h138v-4l-83 -13q-19 -3 -27 -22l-81 -211l144 -398l230 609q7 19 -13 22l-76 13v4h138v-4l-6 -5
q-17 -13 -23 -30l-242 -632q8 -18 27 -20l57 -4v-5h-137l-142 373l-131 -342q10 -19 32 -21l72 -5v-5h-157l-252 661q-9 19 -24 30z" />
    <glyph glyph-name="X" unicode="X" horiz-adv-x="530" 
d="M530 11l9 -6v-5h-220v5l95 16q14 2 7 15l-172 290l-189 -290q-8 -13 6 -15l95 -16v-5h-161v5l9 5q21 13 35 34l195 299l-184 311q-11 21 -34 35l-10 6v5h220v-5l-94 -17q-15 -2 -7 -15l161 -272l177 273q9 12 -6 14l-96 17v5h161v-5l-8 -6q-19 -12 -36 -34l-182 -281
l194 -329q14 -23 35 -34z" />
    <glyph glyph-name="Y" unicode="Y" horiz-adv-x="531" 
d="M344 16l66 -12v-4h-248v4l65 12q25 5 25 29v242l-207 367q-14 23 -35 35l-10 6v5h230v-5l-105 -17q-15 -2 -7 -15l193 -343l174 343q5 13 -8 15l-108 17v5h171v-5l-8 -6q-22 -13 -33 -36l-180 -349l1 -259q0 -24 24 -29z" />
    <glyph glyph-name="Z" unicode="Z" horiz-adv-x="493" 
d="M79 632l-20 -92h-10l30 170h4l1 -1q7 -9 17 -9h395v-15l-396 -670h307q25 0 43 14.5t23 39.5l19 91h10l-30 -170h-4v1q-7 9 -17 9h-429v15h-1l398 670h-274q-25 0 -43.5 -14.5t-22.5 -38.5z" />
    <glyph glyph-name="bracketleft" unicode="[" horiz-adv-x="485" 
d="M50 490h703v-490h-703v490zM396 98q0 7 -7 5q-6 -2 -12 0.5t-11.5 9t-10.5 13.5t-10.5 17t-8.5 16.5t-7.5 16t-5.5 12.5q-18 33 -56 31q9 6 24 15.5t18 11.5q12 8 23 14.5t16.5 9t9.5 5.5t5.5 5t1.5 6v5q0 8 -8 8h-68q-9 0 -9 -7q-1 -10 1 -13q9 -9 9 -13.5t-13 -13.5
l-65 -42q0 36 0.5 97.5t0.5 68.5q0 41 -10.5 50t-39.5 3q-41 -8 -68 -24q-12 -7 0 -21q2 -1 11.5 -5t15 -11.5t5.5 -20.5v-221q0 -12 -17 -29.5t-18 -19.5v-10q0 -8 8 -8h138q7 0 7 8v4q0 6 -16.5 23.5t-16.5 30.5v58l11 7l43 -84q25 -48 64 -48q26 0 45 13.5t21 26.5z
M712 98q0 3 -1.5 4.5t-3.5 0.5q-8 -2 -16.5 3t-17 18t-13.5 21t-12 25l-8 18q-18 33 -56 31q34 21 42 27q12 8 23 14.5t16.5 9t9.5 5.5t5.5 5t1.5 6v5q0 8 -7 8h-70q-8 0 -8 -7q-2 -10 1 -13q9 -9 9 -12.5t-12 -14.5l-65 -42v166q0 41 -10.5 50t-39.5 3q-41 -8 -67 -24
q-5 -3 -5 -9.5t4 -11.5q2 -1 11.5 -5t15 -11.5t5.5 -20.5v-221q1 -12 -16 -29.5t-18 -19.5v-10q0 -8 8 -8h137q8 0 8 8v4q0 6 -16.5 23.5t-16.5 30.5v58l11 7l43 -84q25 -48 64 -48q25 0 44 13.5t20 26.5z" />
    <glyph glyph-name="backslash" unicode="\" horiz-adv-x="475" 
d="M35 490h703v-490h-703v490zM381 98q0 7 -7 5q-6 -2 -12 0.5t-11.5 9t-10.5 13.5t-10.5 17t-8.5 16.5t-7.5 16t-5.5 12.5q-18 33 -56 31q9 6 24 15.5t18 11.5q12 8 23 14.5t16.5 9t9.5 5.5t5.5 5t1.5 6v5q0 8 -8 8h-68q-9 0 -9 -7q-1 -10 1 -13q8 -9 8 -13.5t-12 -13.5
l-65 -42q0 36 0.5 97.5t0.5 68.5q0 41 -10.5 50t-39.5 3q-41 -8 -68 -24q-12 -7 0 -21q2 -1 11.5 -5t15 -11.5t5.5 -20.5v-221q0 -12 -17 -29.5t-18 -19.5v-10q0 -8 8 -8h138q7 0 7 8v4q0 6 -16.5 23.5t-16.5 30.5v58l11 7l43 -84q25 -48 64 -48q26 0 45 13.5t21 26.5z
M697 98q0 3 -1.5 4.5t-3.5 0.5q-8 -2 -16.5 3t-17 18t-13.5 21t-13 25l-7 18q-18 33 -56 31q34 21 42 27q12 8 23 14.5t16.5 9t9.5 5.5t5.5 5t1.5 6v5q0 8 -7 8h-70q-8 0 -8 -7q-2 -10 1 -13q9 -9 9 -12.5t-12 -14.5l-65 -42v166q0 41 -10.5 50t-39.5 3q-41 -8 -67 -24
q-5 -3 -5 -9.5t4 -11.5q2 -1 11.5 -5t15 -11.5t5.5 -20.5v-221q1 -12 -16 -29.5t-18 -19.5v-10q0 -8 8 -8h137q8 0 8 8v4q0 6 -16.5 23.5t-16.5 30.5v58l11 7l43 -84q25 -48 64 -48q25 0 44 13.5t20 26.5z" />
    <glyph glyph-name="bracketright" unicode="]" horiz-adv-x="485" 
d="M30 490h703v-490h-703v490zM376 98q0 7 -7 5q-6 -2 -12 0.5t-11.5 9t-10.5 13.5t-10.5 17t-8.5 16.5t-7.5 16t-5.5 12.5q-18 33 -56 31q9 6 24 15.5t18 11.5q12 8 23 14.5t16.5 9t9.5 5.5t5.5 5t1.5 6v5q0 8 -8 8h-68q-9 0 -9 -7q-1 -10 1 -13q9 -9 9 -13.5t-13 -13.5
l-65 -42q0 36 0.5 97.5t0.5 68.5q0 41 -10.5 50t-39.5 3q-41 -8 -68 -24q-12 -7 0 -21q2 -1 11.5 -5t15 -11.5t5.5 -20.5v-221q0 -12 -17 -29.5t-18 -19.5v-10q0 -8 8 -8h138q7 0 7 8v4q0 6 -16.5 23.5t-16.5 30.5v58l11 7l43 -84q25 -48 64 -48q26 0 45 13.5t21 26.5z
M692 98q0 3 -1.5 4.5t-3.5 0.5q-8 -2 -16.5 3t-17 18t-13.5 21t-12 25l-8 18q-18 33 -56 31q34 21 42 27q12 8 23 14.5t16.5 9t9.5 5.5t5.5 5t1.5 6v5q0 8 -7 8h-70q-8 0 -8 -7q-2 -10 1 -13q9 -9 9 -12.5t-12 -14.5l-65 -42v166q0 41 -10.5 50t-39.5 3q-41 -8 -67 -24
q-5 -3 -5 -9.5t4 -11.5q2 -1 11.5 -5t15 -11.5t5.5 -20.5v-221q1 -12 -16 -29.5t-18 -19.5v-10q0 -8 8 -8h137q8 0 8 8v4q0 6 -16.5 23.5t-16.5 30.5v58l11 7l43 -84q25 -48 64 -48q25 0 44 13.5t20 26.5z" />
    <glyph glyph-name="underscore" unicode="_" 
d="M45 490h703v-490h-703v490zM391 98q0 7 -7 5q-6 -2 -12 0.5t-11.5 9t-10.5 13.5t-10.5 17t-8.5 16.5t-7.5 16t-5.5 12.5q-18 33 -56 31q9 6 24 15.5t18 11.5q12 8 23 14.5t16.5 9t9.5 5.5t5.5 5t1.5 6v5q0 8 -8 8h-68q-9 0 -9 -7q-1 -10 1 -13q8 -9 8 -13.5t-12 -13.5
l-65 -42q0 36 0.5 97.5t0.5 68.5q0 41 -10.5 50t-39.5 3q-41 -8 -68 -24q-12 -7 0 -21q2 -1 11.5 -5t15 -11.5t5.5 -20.5v-221q0 -12 -17 -29.5t-18 -19.5v-10q0 -8 8 -8h138q7 0 7 8v4q0 6 -16.5 23.5t-16.5 30.5v58l11 7l43 -84q25 -48 64 -48q26 0 45 13.5t21 26.5z
M707 98q0 3 -1.5 4.5t-3.5 0.5q-8 -2 -16.5 3t-17 18t-13.5 21t-13 25l-7 18q-18 33 -56 31q34 21 42 27q12 8 23 14.5t16.5 9t9.5 5.5t5.5 5t1.5 6v5q0 8 -7 8h-70q-8 0 -8 -7q-2 -10 1 -13q9 -9 9 -12.5t-12 -14.5l-65 -42v166q0 41 -10.5 50t-39.5 3q-41 -8 -67 -24
q-5 -3 -5 -9.5t4 -11.5q2 -1 11.5 -5t15 -11.5t5.5 -20.5v-221q1 -12 -16 -29.5t-18 -19.5v-10q0 -8 8 -8h137q8 0 8 8v4q0 6 -16.5 23.5t-16.5 30.5v58l11 7l43 -84q25 -48 64 -48q25 0 44 13.5t20 26.5z" />
    <glyph glyph-name="a" unicode="a" horiz-adv-x="510" 
d="M371 73v30q-22 -54 -68 -85.5t-108 -31.5q-74 0 -119 39.5t-45 104.5q0 58 34 90t101 62l-121 113q27 58 78 92t108 34q101 0 153 -57.5t51 -168.5v-222q0 -69 28 -69q22 0 32.5 39.5t1.5 83.5l14 3q3 -17 3 -39t-4.5 -47.5t-22 -41.5t-45.5 -15q-71 3 -71 86zM233 507
q-53 0 -85.5 -25t-32.5 -68q0 -62 62 -128q1 0 16 7t17.5 8t16 7t17.5 8.5t15 8t16 9.5t13.5 9.5t15 11t12.5 11.5v-1q5 -11 -4 -20q-22 -19 -55 -37t-58.5 -30.5t-49.5 -30t-37.5 -44.5t-13.5 -64q0 -60 32 -97.5t83 -37.5q64 0 108 48t50 115v111q1 119 -32 174t-106 55z
" />
    <glyph glyph-name="b" unicode="b" horiz-adv-x="502" 
d="M55 -1v716h144v-4l-55 -12q-25 -5 -25 -30v-508q0 -162 129 -162q83 0 124.5 71t41.5 184t-41.5 184t-124.5 71q-47 0 -83 -25q-8 -7 -13 3l-2 2q43 32 98 32q104 0 168 -73.5t64 -193.5t-63.5 -193.5t-168.5 -73.5q-46 0 -89 22t-54 22q-22 0 -50 -32z" />
    <glyph glyph-name="c" unicode="c" horiz-adv-x="498" 
d="M465 190h14q-17 -94 -76 -148.5t-146 -54.5q-103 0 -164.5 72.5t-61.5 194.5q0 120 62.5 193.5t163.5 73.5q67 0 120 -34t80 -92l-162 -152l-7 7q7 7 24.5 24t27.5 27.5t22 25t18 26t7 21.5q2 55 -35 93.5t-94 39.5q-98 1 -143 -96q-42 -89 -16 -201q26 -116 107 -163
q45 -26 100 -23q51 3 94 41.5t65 124.5z" />
    <glyph glyph-name="d" unicode="d" horiz-adv-x="552" 
d="M344 485q-35 24 -81 24q-83 0 -124.5 -71t-41.5 -184t41.5 -184t124.5 -71q60 0 94 41.5t36 117.5v-1v512q0 25 -24 30l-56 12v4h144v-642q0 -69 28 -69q22 0 32.5 39.5t1.5 83.5l14 3q3 -17 3 -39t-4.5 -47.5t-22 -41.5t-45.5 -15q-71 2 -71 85q-38 -83 -130 -85
q-100 -4 -166 72t-66 195t64 193t168 74q56 0 99 -32q-6 -11 -18 -4z" />
    <glyph glyph-name="e" unicode="e" horiz-adv-x="498" 
d="M151 365v13h248q-13 60 -50.5 94t-90.5 35q-98 1 -143 -96q-42 -89 -16 -201q26 -116 107 -163q45 -26 100 -23q51 3 94 41.5t65 124.5h14q-17 -94 -76 -148.5t-146 -54.5q-103 0 -164.5 72.5t-61.5 194.5q0 120 62.5 193.5t163.5 73.5q75 0 132 -42t78 -113l1 -1h-317z
" />
    <glyph glyph-name="f" unicode="f" horiz-adv-x="326" 
d="M168 476v-431q0 -25 24 -30l56 -11v-4h-164v5q20 15 20 40v431q0 26 -25 26h-76v11h211q-59 5 -111.5 39t-52.5 86q0 32 24.5 53.5t54 28.5t60.5 7q59 0 106 -23.5t66 -74.5l-42 -52q-5 57 -37 97.5t-87 40.5q-35 0 -59 -18t-24 -52q0 -52 56 -89.5t116 -42.5h33v-11
h-124q-25 0 -25 -26z" />
    <glyph glyph-name="g" unicode="g" horiz-adv-x="540" 
d="M31 287q0 106 66 170t173 64q23 0 44 -3q-39 26 -39 58q0 33 25.5 49t63.5 16q42 0 78 -17l-37 -61q-6 20 -29.5 34.5t-46.5 14.5q-38 0 -38 -36q0 -11 4 -20.5t15 -17.5t17 -12t22.5 -12t19.5 -10q65 -26 102.5 -83t37.5 -134q0 -105 -65.5 -169.5t-173.5 -64.5
q-58 0 -102 -30t-44 -85q0 -28 14 -48t41 -20q22 0 41.5 16.5t35.5 40t33 47.5t42.5 40.5t56.5 16.5q52 0 83.5 -36t31.5 -89q0 -31 -11 -62h-222v10q4 0 23 0.5t27 1t27.5 2t29 4t25.5 6.5t24.5 11t17.5 15.5t13 21t4 27.5q0 34 -20 53.5t-53 19.5q-30 0 -54 -18t-41 -44
t-34 -52.5t-43.5 -44.5t-60.5 -18q-43 0 -72 26.5t-29 69.5q0 50 40 83.5t108 42.5q-79 19 -125 79t-46 147zM98 287q0 -99 43 -161t129 -62t128.5 62t42.5 161t-43 161t-128 62t-128.5 -62t-43.5 -161z" />
    <glyph glyph-name="h" unicode="h" horiz-adv-x="546" 
d="M500 5l1 -1v-4h-174v4l66 12q24 5 24 29v325q0 73 -16 106.5t-51 31.5q-46 -2 -96.5 -76t-81.5 -161.5t-33 -141.5v-84q0 -24 25 -29l65 -12v-4h-174v4l1 1q19 14 19 40v624q0 27 -19 41l-1 1v4h174v-4l-65 -12q-25 -5 -25 -30v-457q12 49 33.5 100.5t49.5 100t64 79.5
t72 32q63 2 93 -33t30 -109v-337q0 -24 19 -40z" />
    <glyph glyph-name="i" unicode="i" horiz-adv-x="219" 
d="M63 671q0 19 13.5 32.5t32.5 13.5t32 -13.5t13 -32.5t-13 -32.5t-32 -13.5t-32.5 13.5t-13.5 32.5zM133 467v-422q0 -25 24 -30l56 -11v-4h-164v4l1 1q19 16 19 40v468h144v-4l-56 -12q-24 -5 -24 -30z" />
    <glyph glyph-name="j" unicode="j" horiz-adv-x="220" 
d="M73 671q0 19 13 32.5t32 13.5t32.5 -13.5t13.5 -32.5t-13.5 -32.5t-32.5 -13.5t-32 13.5t-13 32.5zM65 496l-56 12v4h144v-508q0 -79 -44.5 -119.5t-115.5 -40.5v10q96 0 96 134v478q0 25 -24 30z" />
    <glyph glyph-name="k" unicode="k" horiz-adv-x="561" 
d="M130 669v-452q18 71 52 138.5t87.5 119t109.5 51.5q44 0 72.5 -25.5t28.5 -69.5q0 -69 -64 -121.5t-145 -67.5q2 -4 13 -24t17 -31t19 -33t22.5 -35.5t22.5 -33t24 -31.5t23 -24t23 -17.5t21 -5.5q23 0 31 35t-3 93l11 2l20 -116q-29 -34 -83 -34q-86 0 -145 101l-94 161
q87 -11 154 41t67 135q0 31 -15 54t-45 23q-53 0 -107 -73t-84.5 -159t-32.5 -141v-84q0 -24 24 -29l66 -12v-4h-174v5q20 15 20 40v670h144v-4l-56 -12q-24 -5 -24 -30z" />
    <glyph glyph-name="l" unicode="l" horiz-adv-x="205" 
d="M129 669v-624q0 -25 25 -30l55 -11v-4h-164v4l1 1q19 14 19 40v670h144v-4l-55 -12q-25 -5 -25 -30z" />
    <glyph glyph-name="m" unicode="m" horiz-adv-x="838" 
d="M481 15l55 -11v-4h-224v4l56 11q24 5 24 30v325q0 73 -13.5 105.5t-45.5 30.5q-40 -2 -85 -70.5t-73.5 -151.5t-34.5 -142v-97q0 -25 24 -30l56 -11v-4h-164v4l1 1q19 16 19 40v423q0 24 -19 40l-1 1v4h164v-4l-56 -11q-24 -5 -24 -30v-252q16 67 44 133.5t71 120
t86 54.5q58 2 87 -33t29 -109v-163q17 68 44.5 133.5t70 118t85.5 53.5q58 2 87 -33t28 -109v-337q0 -24 19 -40l1 -1v-4h-174v4l66 12q24 5 24 29v325q0 73 -13.5 105.5t-45.5 30.5q-40 -2 -84 -68t-72.5 -147.5t-35.5 -142.5l-1 -70v-33q0 -25 25 -30z" />
    <glyph glyph-name="n" unicode="n" horiz-adv-x="547" 
d="M501 5v-5h-174v4l66 12q24 5 24 29v38l1 287q0 72 -16.5 106t-51.5 32q-46 -2 -96.5 -76t-81 -161.5t-32.5 -141.5v-84q0 -24 24 -29l66 -12v-4h-174v5q20 15 20 40v423q0 25 -20 40v5h174v-4l-66 -12q-24 -5 -24 -29v-256q17 68 47 135t77.5 121.5t94.5 55.5
q63 1 92.5 -33.5t29.5 -108.5v-337q0 -25 20 -40z" />
    <glyph glyph-name="o" unicode="o" horiz-adv-x="530" 
d="M31 254q0 120 66 193.5t173 73.5t173 -74t66 -193t-66 -193t-173 -74q-108 0 -173.5 73.5t-65.5 193.5zM98 254q0 -113 43 -184t129 -71t128.5 71t42.5 184t-43 184t-128 71t-128.5 -71t-43.5 -184z" />
    <glyph glyph-name="p" unicode="p" horiz-adv-x="523" 
d="M176 28l2 3q38 -32 92 -32q82 0 124 71t42 184t-41.5 184t-124.5 71q-60 0 -94 -41t-36 -118v1v-462q0 -26 24 -29l66 -12v-4h-174v4h1q19 17 19 41v578q0 24 -19 41h-1v4h84v-75q36 81 130 85q101 3 166.5 -72.5t65.5 -195.5q0 -119 -64 -193t-168 -74q-51 0 -91 27
q-8 5 -3 14z" />
    <glyph glyph-name="q" unicode="q" horiz-adv-x="522" 
d="M456 509v-620q0 -24 20 -41v-4h-184v4l76 12q24 5 24 29v470q-4 73 -37.5 111.5t-91.5 38.5q-83 0 -124.5 -71t-41.5 -184t42 -184t124 -71q49 0 83 25q9 7 14 -2l2 -3q-43 -32 -99 -32q-103 0 -167 74t-64 193q0 120 63.5 194t167.5 73q36 0 64.5 -11t48 -22t31.5 -11
q22 0 49 32z" />
    <glyph glyph-name="r" unicode="r" horiz-adv-x="429" 
d="M164 16l66 -12v-4h-174v4l1 1q19 16 19 40v423q0 24 -19 41h-1v4h134v-4l-27 -8q-23 -8 -23 -33v-206q10 66 26.5 119t49.5 97t75 47q49 4 81 -21t42 -75l-118 -115l-7 7q34 35 48 54.5t17 42.5q4 41 -15 65t-53 22q-33 -2 -62 -43.5t-46 -100.5t-27 -117.5t-11 -103.5
v-95q0 -24 24 -29z" />
    <glyph glyph-name="s" unicode="s" horiz-adv-x="473" 
d="M250 0q71 -1 116 27t46 73q1 54 -81 93l-188 89q-84 39 -82 114q2 58 52 93t129 34q69 -1 119.5 -30t73.5 -82l-93 -94l-7 7q20 19 33.5 46.5t14.5 50.5q0 38 -39 62.5t-102 25.5q-61 1 -97.5 -21.5t-37.5 -62.5q0 -57 70 -89l195 -90q90 -41 90 -117
q-1 -64 -60.5 -104.5t-148.5 -38.5q-76 1 -135.5 33t-86.5 87l109 101l8 -8q-55 -48 -55 -99q-1 -43 43 -70.5t114 -29.5z" />
    <glyph glyph-name="t" unicode="t" horiz-adv-x="329" 
d="M159 476v-325q2 -75 17 -107.5t50 -31.5q70 3 147 162l11 -8q-35 -74 -78 -121.5t-89 -48.5q-63 -1 -93 34t-29 109v337q0 12 -7.5 19t-18.5 7h-46v11h7q37 0 59 29.5t20 65t-23 53.5v4h87q1 -51 -24.5 -93t-68.5 -59h238v-11h-134q-25 0 -25 -26z" />
    <glyph glyph-name="u" unicode="u" horiz-adv-x="527" 
d="M37 509h-1v4h174v-4l-66 -12q-11 -2 -17.5 -10t-6.5 -19v-317q0 -73 16 -106.5t51 -32.5q46 2 96.5 74t81.5 158t33 139v85q0 11 -7 19.5t-18 9.5l-65 12v4h174v-4h-1q-19 -16 -19 -41v-422q0 -27 19 -41l1 -1v-4h-174v4l65 12q25 5 25 30v263q-17 -67 -47.5 -134.5
t-77.5 -122.5t-95 -56q-62 -1 -92 34t-30 109v329q0 24 -19 41z" />
    <glyph glyph-name="v" unicode="v" horiz-adv-x="485" 
d="M11 503l-8 5v4h193v-4l-76 -13q-20 -3 -13 -22l154 -426l160 426q7 19 -13 22l-76 13v4h138v-4l-7 -5q-18 -12 -24 -30l-171 -445l11 -28h-63l-182 473q-7 19 -23 30z" />
    <glyph glyph-name="w" unicode="w" horiz-adv-x="718" 
d="M11 504l-8 5v4h163v-4l-46 -11q-20 -5 -13 -24l154 -427l83 224l-77 203q-9 20 -26 26l-25 9v4h173v-4l-37 -11q-20 -5 -13 -24l47 -130l50 130q7 19 -7 33l-2 2v4h108v-4l-55 -12q-19 -3 -26 -23l-59 -154l99 -273l159 426q9 19 -12 24l-47 11v4h108v-4l-7 -5
q-18 -12 -24 -30l-170 -445l10 -28h-63l-95 248l-85 -220l11 -28h-63l-182 474q-7 19 -23 30z" />
    <glyph glyph-name="x" unicode="x" horiz-adv-x="443" 
d="M423 7l4 -3v-4h-186v4l70 14q14 2 7 15l-124 197l-137 -197q-8 -13 6 -15l69 -14v-4h-126v4l5 3q19 12 36 34l140 200l-144 229q-13 21 -35 36l-5 3v4h186v-4l-69 -15q-15 -2 -7 -15l123 -196l137 196q8 13 -6 15l-70 15v4h126v-4l-5 -3q-23 -18 -35 -35l-139 -200
l144 -229q13 -22 35 -35z" />
    <glyph glyph-name="y" unicode="y" horiz-adv-x="486" 
d="M409 496l-77 13v4h138v-4l-7 -5q-15 -11 -24 -30l-176 -463q-33 -86 -52 -113q-40 -55 -113 -55q-31 0 -62 11l26 83l4 -1q9 -22 29.5 -33.5t45.5 -11.5q31 0 52 16.5t28 31t20 51.5q3 7 4 10h-29l-181 474q-6 18 -24 30l-7 5v4h193v-4l-77 -13q-20 -4 -13 -22l155 -428
l159 428q8 19 -12 22z" />
    <glyph glyph-name="z" unicode="z" horiz-adv-x="431" 
d="M4 11l313 490h-194q-25 0 -43 -15t-23 -39l-20 -94h-10l30 169h4l1 -1q7 -9 17 -9h314v-11l-312 -490h229q25 0 43 15t23 39l19 95h10l-30 -170h-4q-7 10 -18 10h-349v11z" />
    <glyph glyph-name="braceleft" unicode="{" horiz-adv-x="485" 
d="M50 490h703v-490h-703v490zM396 98q0 7 -7 5q-6 -2 -12 0.5t-11.5 9t-10.5 13.5t-10.5 17t-8.5 16.5t-7.5 16t-5.5 12.5q-18 33 -56 31q9 6 24 15.5t18 11.5q12 8 23 14.5t16.5 9t9.5 5.5t5.5 5t1.5 6v5q0 8 -8 8h-68q-9 0 -9 -7q-1 -10 1 -13q9 -9 9 -13.5t-13 -13.5
l-65 -42q0 36 0.5 97.5t0.5 68.5q0 41 -10.5 50t-39.5 3q-41 -8 -68 -24q-12 -7 0 -21q2 -1 11.5 -5t15 -11.5t5.5 -20.5v-221q0 -12 -17 -29.5t-18 -19.5v-10q0 -8 8 -8h138q7 0 7 8v4q0 6 -16.5 23.5t-16.5 30.5v58l11 7l43 -84q25 -48 64 -48q26 0 45 13.5t21 26.5z
M712 98q0 3 -1.5 4.5t-3.5 0.5q-8 -2 -16.5 3t-17 18t-13.5 21t-12 25l-8 18q-18 33 -56 31q34 21 42 27q12 8 23 14.5t16.5 9t9.5 5.5t5.5 5t1.5 6v5q0 8 -7 8h-70q-8 0 -8 -7q-2 -10 1 -13q9 -9 9 -12.5t-12 -14.5l-65 -42v166q0 41 -10.5 50t-39.5 3q-41 -8 -67 -24
q-5 -3 -5 -9.5t4 -11.5q2 -1 11.5 -5t15 -11.5t5.5 -20.5v-221q1 -12 -16 -29.5t-18 -19.5v-10q0 -8 8 -8h137q8 0 8 8v4q0 6 -16.5 23.5t-16.5 30.5v58l11 7l43 -84q25 -48 64 -48q25 0 44 13.5t20 26.5z" />
    <glyph glyph-name="bar" unicode="|" 
d="M45 490h703v-490h-703v490zM391 98q0 7 -7 5q-6 -2 -12 0.5t-11.5 9t-10.5 13.5t-10.5 17t-8.5 16.5t-7.5 16t-5.5 12.5q-18 33 -56 31q9 6 24 15.5t18 11.5q12 8 23 14.5t16.5 9t9.5 5.5t5.5 5t1.5 6v5q0 8 -8 8h-68q-9 0 -9 -7q-1 -10 1 -13q8 -9 8 -13.5t-12 -13.5
l-65 -42q0 36 0.5 97.5t0.5 68.5q0 41 -10.5 50t-39.5 3q-41 -8 -68 -24q-12 -7 0 -21q2 -1 11.5 -5t15 -11.5t5.5 -20.5v-221q0 -12 -17 -29.5t-18 -19.5v-10q0 -8 8 -8h138q7 0 7 8v4q0 6 -16.5 23.5t-16.5 30.5v58l11 7l43 -84q25 -48 64 -48q26 0 45 13.5t21 26.5z
M707 98q0 3 -1.5 4.5t-3.5 0.5q-8 -2 -16.5 3t-17 18t-13.5 21t-13 25l-7 18q-18 33 -56 31q34 21 42 27q12 8 23 14.5t16.5 9t9.5 5.5t5.5 5t1.5 6v5q0 8 -7 8h-70q-8 0 -8 -7q-2 -10 1 -13q9 -9 9 -12.5t-12 -14.5l-65 -42v166q0 41 -10.5 50t-39.5 3q-41 -8 -67 -24
q-5 -3 -5 -9.5t4 -11.5q2 -1 11.5 -5t15 -11.5t5.5 -20.5v-221q1 -12 -16 -29.5t-18 -19.5v-10q0 -8 8 -8h137q8 0 8 8v4q0 6 -16.5 23.5t-16.5 30.5v58l11 7l43 -84q25 -48 64 -48q25 0 44 13.5t20 26.5z" />
    <glyph glyph-name="braceright" unicode="}" horiz-adv-x="485" 
d="M30 490h703v-490h-703v490zM376 98q0 7 -7 5q-6 -2 -12 0.5t-11.5 9t-10.5 13.5t-10.5 17t-8.5 16.5t-7.5 16t-5.5 12.5q-18 33 -56 31q9 6 24 15.5t18 11.5q12 8 23 14.5t16.5 9t9.5 5.5t5.5 5t1.5 6v5q0 8 -8 8h-68q-9 0 -9 -7q-1 -10 1 -13q9 -9 9 -13.5t-13 -13.5
l-65 -42q0 36 0.5 97.5t0.5 68.5q0 41 -10.5 50t-39.5 3q-41 -8 -68 -24q-12 -7 0 -21q2 -1 11.5 -5t15 -11.5t5.5 -20.5v-221q0 -12 -17 -29.5t-18 -19.5v-10q0 -8 8 -8h138q7 0 7 8v4q0 6 -16.5 23.5t-16.5 30.5v58l11 7l43 -84q25 -48 64 -48q26 0 45 13.5t21 26.5z
M692 98q0 3 -1.5 4.5t-3.5 0.5q-8 -2 -16.5 3t-17 18t-13.5 21t-12 25l-8 18q-18 33 -56 31q34 21 42 27q12 8 23 14.5t16.5 9t9.5 5.5t5.5 5t1.5 6v5q0 8 -7 8h-70q-8 0 -8 -7q-2 -10 1 -13q9 -9 9 -12.5t-12 -14.5l-65 -42v166q0 41 -10.5 50t-39.5 3q-41 -8 -67 -24
q-5 -3 -5 -9.5t4 -11.5q2 -1 11.5 -5t15 -11.5t5.5 -20.5v-221q1 -12 -16 -29.5t-18 -19.5v-10q0 -8 8 -8h137q8 0 8 8v4q0 6 -16.5 23.5t-16.5 30.5v58l11 7l43 -84q25 -48 64 -48q25 0 44 13.5t20 26.5z" />
    <glyph glyph-name="exclamdown" unicode="&#xa1;" horiz-adv-x="505" 
d="M50 490h703v-490h-703v490zM396 98q0 7 -7 5q-6 -2 -12 0.5t-11.5 9t-10.5 13.5t-10.5 17t-8.5 16.5t-7.5 16t-5.5 12.5q-18 33 -56 31q9 6 24 15.5t18 11.5q12 8 23 14.5t16.5 9t9.5 5.5t5.5 5t1.5 6v5q0 8 -8 8h-68q-9 0 -9 -7q-1 -10 1 -13q9 -9 9 -13.5t-13 -13.5
l-65 -42q0 36 0.5 97.5t0.5 68.5q0 41 -10.5 50t-39.5 3q-41 -8 -68 -24q-12 -7 0 -21q2 -1 11.5 -5t15 -11.5t5.5 -20.5v-221q0 -12 -17 -29.5t-18 -19.5v-10q0 -8 8 -8h138q7 0 7 8v4q0 6 -16.5 23.5t-16.5 30.5v58l11 7l43 -84q25 -48 64 -48q26 0 45 13.5t21 26.5z
M712 98q0 3 -1.5 4.5t-3.5 0.5q-8 -2 -16.5 3t-17 18t-13.5 21t-12 25l-8 18q-18 33 -56 31q34 21 42 27q12 8 23 14.5t16.5 9t9.5 5.5t5.5 5t1.5 6v5q0 8 -7 8h-70q-8 0 -8 -7q-2 -10 1 -13q9 -9 9 -12.5t-12 -14.5l-65 -42v166q0 41 -10.5 50t-39.5 3q-41 -8 -67 -24
q-5 -3 -5 -9.5t4 -11.5q2 -1 11.5 -5t15 -11.5t5.5 -20.5v-221q1 -12 -16 -29.5t-18 -19.5v-10q0 -8 8 -8h137q8 0 8 8v4q0 6 -16.5 23.5t-16.5 30.5v58l11 7l43 -84q25 -48 64 -48q25 0 44 13.5t20 26.5z" />
    <glyph glyph-name="cent" unicode="&#xa2;" 
d="M45 490h703v-490h-703v490zM391 98q0 7 -7 5q-6 -2 -12 0.5t-11.5 9t-10.5 13.5t-10.5 17t-8.5 16.5t-7.5 16t-5.5 12.5q-18 33 -56 31q9 6 24 15.5t18 11.5q12 8 23 14.5t16.5 9t9.5 5.5t5.5 5t1.5 6v5q0 8 -8 8h-68q-9 0 -9 -7q-1 -10 1 -13q8 -9 8 -13.5t-12 -13.5
l-65 -42q0 36 0.5 97.5t0.5 68.5q0 41 -10.5 50t-39.5 3q-41 -8 -68 -24q-12 -7 0 -21q2 -1 11.5 -5t15 -11.5t5.5 -20.5v-221q0 -12 -17 -29.5t-18 -19.5v-10q0 -8 8 -8h138q7 0 7 8v4q0 6 -16.5 23.5t-16.5 30.5v58l11 7l43 -84q25 -48 64 -48q26 0 45 13.5t21 26.5z
M707 98q0 3 -1.5 4.5t-3.5 0.5q-8 -2 -16.5 3t-17 18t-13.5 21t-13 25l-7 18q-18 33 -56 31q34 21 42 27q12 8 23 14.5t16.5 9t9.5 5.5t5.5 5t1.5 6v5q0 8 -7 8h-70q-8 0 -8 -7q-2 -10 1 -13q9 -9 9 -12.5t-12 -14.5l-65 -42v166q0 41 -10.5 50t-39.5 3q-41 -8 -67 -24
q-5 -3 -5 -9.5t4 -11.5q2 -1 11.5 -5t15 -11.5t5.5 -20.5v-221q1 -12 -16 -29.5t-18 -19.5v-10q0 -8 8 -8h137q8 0 8 8v4q0 6 -16.5 23.5t-16.5 30.5v58l11 7l43 -84q25 -48 64 -48q25 0 44 13.5t20 26.5z" />
    <glyph glyph-name="sterling" unicode="&#xa3;" 
d="M45 490h703v-490h-703v490zM391 98q0 7 -7 5q-6 -2 -12 0.5t-11.5 9t-10.5 13.5t-10.5 17t-8.5 16.5t-7.5 16t-5.5 12.5q-18 33 -56 31q9 6 24 15.5t18 11.5q12 8 23 14.5t16.5 9t9.5 5.5t5.5 5t1.5 6v5q0 8 -8 8h-68q-9 0 -9 -7q-1 -10 1 -13q8 -9 8 -13.5t-12 -13.5
l-65 -42q0 36 0.5 97.5t0.5 68.5q0 41 -10.5 50t-39.5 3q-41 -8 -68 -24q-12 -7 0 -21q2 -1 11.5 -5t15 -11.5t5.5 -20.5v-221q0 -12 -17 -29.5t-18 -19.5v-10q0 -8 8 -8h138q7 0 7 8v4q0 6 -16.5 23.5t-16.5 30.5v58l11 7l43 -84q25 -48 64 -48q26 0 45 13.5t21 26.5z
M707 98q0 3 -1.5 4.5t-3.5 0.5q-8 -2 -16.5 3t-17 18t-13.5 21t-13 25l-7 18q-18 33 -56 31q34 21 42 27q12 8 23 14.5t16.5 9t9.5 5.5t5.5 5t1.5 6v5q0 8 -7 8h-70q-8 0 -8 -7q-2 -10 1 -13q9 -9 9 -12.5t-12 -14.5l-65 -42v166q0 41 -10.5 50t-39.5 3q-41 -8 -67 -24
q-5 -3 -5 -9.5t4 -11.5q2 -1 11.5 -5t15 -11.5t5.5 -20.5v-221q1 -12 -16 -29.5t-18 -19.5v-10q0 -8 8 -8h137q8 0 8 8v4q0 6 -16.5 23.5t-16.5 30.5v58l11 7l43 -84q25 -48 64 -48q25 0 44 13.5t20 26.5z" />
    <glyph glyph-name="yen" unicode="&#xa5;" 
d="M45 490h703v-490h-703v490zM391 98q0 5 -7 5q-6 -2 -12 0.5t-11.5 9t-10.5 13.5t-10.5 17t-8.5 16.5t-7.5 16t-5.5 12.5q-18 33 -56 31q9 6 24 15.5t18 11.5q12 8 23 14.5t16.5 9t9.5 5.5t5.5 5t1.5 6v5q0 8 -8 8h-68q-9 0 -9 -7q-1 -10 1 -13q8 -9 8 -13.5t-12 -13.5
l-65 -42q0 36 0.5 97.5t0.5 68.5q0 41 -10.5 50t-39.5 3q-41 -8 -68 -24q-12 -7 0 -21q2 -1 11.5 -5t15 -11.5t5.5 -20.5v-221q0 -12 -17 -29.5t-18 -19.5v-10q0 -8 8 -8h138q7 0 7 8v4q0 6 -16.5 23.5t-16.5 30.5v58l11 7l43 -84q25 -48 64 -48q26 0 45 13.5t21 26.5z
M707 98q0 5 -5 5q-8 -2 -16.5 3t-17 18t-13.5 21t-13 25l-7 18q-18 33 -56 31q34 21 42 27q12 8 23 14.5t16.5 9t9.5 5.5t5.5 5t1.5 6v5q0 8 -7 8h-70q-8 0 -8 -7q-2 -10 1 -13q9 -9 9 -12.5t-12 -14.5l-65 -42v166q0 41 -10.5 50t-39.5 3q-41 -8 -67 -24q-5 -3 -5 -9.5
t4 -11.5q2 -1 11.5 -5t15 -11.5t5.5 -20.5v-221q1 -12 -16 -29.5t-18 -19.5v-10q0 -8 8 -8h137q8 0 8 8v4q0 6 -16.5 23.5t-16.5 30.5v58l11 7l43 -84q25 -48 64 -48q25 0 44 13.5t20 26.5z" />
    <glyph glyph-name="section" unicode="&#xa7;" 
d="M45 490h703v-490h-703v490zM391 98q0 5 -7 5q-6 -2 -12 0.5t-11.5 9t-10.5 13.5t-10.5 17t-8.5 16.5t-7.5 16t-5.5 12.5q-18 33 -56 31q9 6 24 15.5t18 11.5q12 8 23 14.5t16.5 9t9.5 5.5t5.5 5t1.5 6v5q0 8 -8 8h-68q-9 0 -9 -7q-1 -10 1 -13q8 -9 8 -13.5t-12 -13.5
l-65 -42q0 36 0.5 97.5t0.5 68.5q0 41 -10.5 50t-39.5 3q-41 -8 -68 -24q-12 -7 0 -21q2 -1 11.5 -5t15 -11.5t5.5 -20.5v-221q0 -12 -17 -29.5t-18 -19.5v-10q0 -8 8 -8h138q7 0 7 8v4q0 6 -16.5 23.5t-16.5 30.5v58l11 7l43 -84q25 -48 64 -48q26 0 45 13.5t21 26.5z
M707 98q0 5 -5 5q-8 -2 -16.5 3t-17 18t-13.5 21t-13 25l-7 18q-18 33 -56 31q34 21 42 27q12 8 23 14.5t16.5 9t9.5 5.5t5.5 5t1.5 6v5q0 8 -7 8h-70q-8 0 -8 -7q-2 -10 1 -13q9 -9 9 -12.5t-12 -14.5l-65 -42v166q0 41 -10.5 50t-39.5 3q-41 -8 -67 -24q-5 -3 -5 -9.5
t4 -11.5q2 -1 11.5 -5t15 -11.5t5.5 -20.5v-221q1 -12 -16 -29.5t-18 -19.5v-10q0 -8 8 -8h137q8 0 8 8v4q0 6 -16.5 23.5t-16.5 30.5v58l11 7l43 -84q25 -48 64 -48q25 0 44 13.5t20 26.5z" />
    <glyph glyph-name="copyright" unicode="&#xa9;" horiz-adv-x="505" 
d="M50 490h703v-490h-703v490zM396 98q0 7 -7 5q-6 -2 -12 0.5t-11.5 9t-10.5 13.5t-10.5 17t-8.5 16.5t-7.5 16t-5.5 12.5q-18 33 -56 31q9 6 24 15.5t18 11.5q12 8 23 14.5t16.5 9t9.5 5.5t5.5 5t1.5 6v5q0 8 -8 8h-68q-9 0 -9 -7q-1 -10 1 -13q9 -9 9 -13.5t-13 -13.5
l-65 -42q0 36 0.5 97.5t0.5 68.5q0 41 -10.5 50t-39.5 3q-41 -8 -68 -24q-12 -7 0 -21q2 -1 11.5 -5t15 -11.5t5.5 -20.5v-221q0 -12 -17 -29.5t-18 -19.5v-10q0 -8 8 -8h138q7 0 7 8v4q0 6 -16.5 23.5t-16.5 30.5v58l11 7l43 -84q25 -48 64 -48q26 0 45 13.5t21 26.5z
M712 98q0 3 -1.5 4.5t-3.5 0.5q-8 -2 -16.5 3t-17 18t-13.5 21t-12 25l-8 18q-18 33 -56 31q34 21 42 27q12 8 23 14.5t16.5 9t9.5 5.5t5.5 5t1.5 6v5q0 8 -7 8h-70q-8 0 -8 -7q-2 -10 1 -13q9 -9 9 -12.5t-12 -14.5l-65 -42v166q0 41 -10.5 50t-39.5 3q-41 -8 -67 -24
q-5 -3 -5 -9.5t4 -11.5q2 -1 11.5 -5t15 -11.5t5.5 -20.5v-221q1 -12 -16 -29.5t-18 -19.5v-10q0 -8 8 -8h137q8 0 8 8v4q0 6 -16.5 23.5t-16.5 30.5v58l11 7l43 -84q25 -48 64 -48q25 0 44 13.5t20 26.5z" />
    <glyph glyph-name="guillemotleft" unicode="&#xab;" horiz-adv-x="505" 
d="M50 490h703v-490h-703v490zM396 98q0 7 -7 5q-6 -2 -12 0.5t-11.5 9t-10.5 13.5t-10.5 17t-8.5 16.5t-7.5 16t-5.5 12.5q-18 33 -56 31q9 6 24 15.5t18 11.5q12 8 23 14.5t16.5 9t9.5 5.5t5.5 5t1.5 6v5q0 8 -8 8h-68q-9 0 -9 -7q-1 -10 1 -13q9 -9 9 -13.5t-13 -13.5
l-65 -42q0 36 0.5 97.5t0.5 68.5q0 41 -10.5 50t-39.5 3q-41 -8 -68 -24q-12 -7 0 -21q2 -1 11.5 -5t15 -11.5t5.5 -20.5v-221q0 -12 -17 -29.5t-18 -19.5v-10q0 -8 8 -8h138q7 0 7 8v4q0 6 -16.5 23.5t-16.5 30.5v58l11 7l43 -84q25 -48 64 -48q26 0 45 13.5t21 26.5z
M712 98q0 3 -1.5 4.5t-3.5 0.5q-8 -2 -16.5 3t-17 18t-13.5 21t-12 25l-8 18q-18 33 -56 31q34 21 42 27q12 8 23 14.5t16.5 9t9.5 5.5t5.5 5t1.5 6v5q0 8 -7 8h-70q-8 0 -8 -7q-2 -10 1 -13q9 -9 9 -12.5t-12 -14.5l-65 -42v166q0 41 -10.5 50t-39.5 3q-41 -8 -67 -24
q-5 -3 -5 -9.5t4 -11.5q2 -1 11.5 -5t15 -11.5t5.5 -20.5v-221q1 -12 -16 -29.5t-18 -19.5v-10q0 -8 8 -8h137q8 0 8 8v4q0 6 -16.5 23.5t-16.5 30.5v58l11 7l43 -84q25 -48 64 -48q25 0 44 13.5t20 26.5z" />
    <glyph glyph-name="registered" unicode="&#xae;" horiz-adv-x="475" 
d="M35 490h703v-490h-703v490zM381 98q0 5 -7 5q-6 -2 -12 0.5t-11.5 9t-10.5 13.5t-10.5 17t-8.5 16.5t-7.5 16t-5.5 12.5q-18 33 -56 31q9 6 24 15.5t18 11.5q12 8 23 14.5t16.5 9t9.5 5.5t5.5 5t1.5 6v5q0 8 -8 8h-68q-9 0 -9 -7q-1 -10 1 -13q8 -9 8 -13.5t-12 -13.5
l-65 -42q0 36 0.5 97.5t0.5 68.5q0 41 -10.5 50t-39.5 3q-41 -8 -68 -24q-12 -7 0 -21q2 -1 11.5 -5t15 -11.5t5.5 -20.5v-221q0 -12 -17 -29.5t-18 -19.5v-10q0 -8 8 -8h138q7 0 7 8v4q0 6 -16.5 23.5t-16.5 30.5v58l11 7l43 -84q25 -48 64 -48q26 0 45 13.5t21 26.5z
M697 98q0 5 -5 5q-8 -2 -16.5 3t-17 18t-13.5 21t-13 25l-7 18q-18 33 -56 31q34 21 42 27q12 8 23 14.5t16.5 9t9.5 5.5t5.5 5t1.5 6v5q0 8 -7 8h-70q-8 0 -8 -7q-2 -10 1 -13q9 -9 9 -12.5t-12 -14.5l-65 -42v166q0 41 -10.5 50t-39.5 3q-41 -8 -67 -24q-5 -3 -5 -9.5
t4 -11.5q2 -1 11.5 -5t15 -11.5t5.5 -20.5v-221q1 -12 -16 -29.5t-18 -19.5v-10q0 -8 8 -8h137q8 0 8 8v4q0 6 -16.5 23.5t-16.5 30.5v58l11 7l43 -84q25 -48 64 -48q25 0 44 13.5t20 26.5z" />
    <glyph glyph-name="degree" unicode="&#xb0;" 
d="M45 490h703v-490h-703v490zM391 98q0 7 -7 5q-6 -2 -12 0.5t-11.5 9t-10.5 13.5t-10.5 17t-8.5 16.5t-7.5 16t-5.5 12.5q-18 33 -56 31q9 6 24 15.5t18 11.5q12 8 23 14.5t16.5 9t9.5 5.5t5.5 5t1.5 6v5q0 8 -8 8h-68q-9 0 -9 -7q-1 -10 1 -13q8 -9 8 -13.5t-12 -13.5
l-65 -42q0 36 0.5 97.5t0.5 68.5q0 41 -10.5 50t-39.5 3q-41 -8 -68 -24q-12 -7 0 -21q2 -1 11.5 -5t15 -11.5t5.5 -20.5v-221q0 -12 -17 -29.5t-18 -19.5v-10q0 -8 8 -8h138q7 0 7 8v4q0 6 -16.5 23.5t-16.5 30.5v58l11 7l43 -84q25 -48 64 -48q26 0 45 13.5t21 26.5z
M707 98q0 3 -1.5 4.5t-3.5 0.5q-8 -2 -16.5 3t-17 18t-13.5 21t-13 25l-7 18q-18 33 -56 31q34 21 42 27q12 8 23 14.5t16.5 9t9.5 5.5t5.5 5t1.5 6v5q0 8 -7 8h-70q-8 0 -8 -7q-2 -10 1 -13q9 -9 9 -12.5t-12 -14.5l-65 -42v166q0 41 -10.5 50t-39.5 3q-41 -8 -67 -24
q-5 -3 -5 -9.5t4 -11.5q2 -1 11.5 -5t15 -11.5t5.5 -20.5v-221q1 -12 -16 -29.5t-18 -19.5v-10q0 -8 8 -8h137q8 0 8 8v4q0 6 -16.5 23.5t-16.5 30.5v58l11 7l43 -84q25 -48 64 -48q25 0 44 13.5t20 26.5z" />
    <glyph glyph-name="twosuperior" unicode="&#xb2;" horiz-adv-x="445" 
d="M20 490h703v-490h-703v490zM366 98q0 5 -7 5q-6 -2 -12 0.5t-11.5 9t-10.5 13.5t-10.5 17t-8.5 16.5t-7.5 16t-5.5 12.5q-18 33 -56 31q9 6 24 15.5t18 11.5q12 8 23 14.5t16.5 9t9.5 5.5t5.5 5t1.5 6v5q0 8 -8 8h-68q-9 0 -9 -7q-1 -10 1 -13q9 -9 9 -13.5t-13 -13.5
l-65 -42q0 36 0.5 97.5t0.5 68.5q0 41 -10.5 50t-39.5 3q-41 -8 -68 -24q-12 -7 0 -21q2 -1 11.5 -5t15 -11.5t5.5 -20.5v-221q0 -12 -17 -29.5t-18 -19.5v-10q0 -8 8 -8h138q7 0 7 8v4q0 6 -16.5 23.5t-16.5 30.5v58l11 7l43 -84q25 -48 64 -48q26 0 45 13.5t21 26.5z
M682 98q0 5 -5 5q-8 -2 -16.5 3t-17 18t-13.5 21t-12 25l-8 18q-18 33 -56 31q34 21 42 27q12 8 23 14.5t16.5 9t9.5 5.5t5.5 5t1.5 6v5q0 8 -7 8h-70q-8 0 -8 -7q-2 -10 1 -13q9 -9 9 -12.5t-12 -14.5l-65 -42v166q0 41 -10.5 50t-39.5 3q-41 -8 -67 -24q-5 -3 -5 -9.5
t4 -11.5q2 -1 11.5 -5t15 -11.5t5.5 -20.5v-221q1 -12 -16 -29.5t-18 -19.5v-10q0 -8 8 -8h137q8 0 8 8v4q0 6 -16.5 23.5t-16.5 30.5v58l11 7l43 -84q25 -48 64 -48q25 0 44 13.5t20 26.5z" />
    <glyph glyph-name="threesuperior" unicode="&#xb3;" horiz-adv-x="445" 
d="M20 490h703v-490h-703v490zM366 98q0 5 -7 5q-6 -2 -12 0.5t-11.5 9t-10.5 13.5t-10.5 17t-8.5 16.5t-7.5 16t-5.5 12.5q-18 33 -56 31q9 6 24 15.5t18 11.5q12 8 23 14.5t16.5 9t9.5 5.5t5.5 5t1.5 6v5q0 8 -8 8h-68q-9 0 -9 -7q-1 -10 1 -13q9 -9 9 -13.5t-13 -13.5
l-65 -42q0 36 0.5 97.5t0.5 68.5q0 41 -10.5 50t-39.5 3q-41 -8 -68 -24q-12 -7 0 -21q2 -1 11.5 -5t15 -11.5t5.5 -20.5v-221q0 -12 -17 -29.5t-18 -19.5v-10q0 -8 8 -8h138q7 0 7 8v4q0 6 -16.5 23.5t-16.5 30.5v58l11 7l43 -84q25 -48 64 -48q26 0 45 13.5t21 26.5z
M682 98q0 5 -5 5q-8 -2 -16.5 3t-17 18t-13.5 21t-12 25l-8 18q-18 33 -56 31q34 21 42 27q12 8 23 14.5t16.5 9t9.5 5.5t5.5 5t1.5 6v5q0 8 -7 8h-70q-8 0 -8 -7q-2 -10 1 -13q9 -9 9 -12.5t-12 -14.5l-65 -42v166q0 41 -10.5 50t-39.5 3q-41 -8 -67 -24q-5 -3 -5 -9.5
t4 -11.5q2 -1 11.5 -5t15 -11.5t5.5 -20.5v-221q1 -12 -16 -29.5t-18 -19.5v-10q0 -8 8 -8h137q8 0 8 8v4q0 6 -16.5 23.5t-16.5 30.5v58l11 7l43 -84q25 -48 64 -48q25 0 44 13.5t20 26.5z" />
    <glyph glyph-name="periodcentered" unicode="&#xb7;" horiz-adv-x="505" 
d="M50 490h703v-490h-703v490zM396 98q0 7 -7 5q-6 -2 -12 0.5t-11.5 9t-10.5 13.5t-10.5 17t-8.5 16.5t-7.5 16t-5.5 12.5q-18 33 -56 31q9 6 24 15.5t18 11.5q12 8 23 14.5t16.5 9t9.5 5.5t5.5 5t1.5 6v5q0 8 -8 8h-68q-9 0 -9 -7q-1 -10 1 -13q9 -9 9 -13.5t-13 -13.5
l-65 -42q0 36 0.5 97.5t0.5 68.5q0 41 -10.5 50t-39.5 3q-41 -8 -68 -24q-12 -7 0 -21q2 -1 11.5 -5t15 -11.5t5.5 -20.5v-221q0 -12 -17 -29.5t-18 -19.5v-10q0 -8 8 -8h138q7 0 7 8v4q0 6 -16.5 23.5t-16.5 30.5v58l11 7l43 -84q25 -48 64 -48q26 0 45 13.5t21 26.5z
M712 98q0 3 -1.5 4.5t-3.5 0.5q-8 -2 -16.5 3t-17 18t-13.5 21t-12 25l-8 18q-18 33 -56 31q34 21 42 27q12 8 23 14.5t16.5 9t9.5 5.5t5.5 5t1.5 6v5q0 8 -7 8h-70q-8 0 -8 -7q-2 -10 1 -13q9 -9 9 -12.5t-12 -14.5l-65 -42v166q0 41 -10.5 50t-39.5 3q-41 -8 -67 -24
q-5 -3 -5 -9.5t4 -11.5q2 -1 11.5 -5t15 -11.5t5.5 -20.5v-221q1 -12 -16 -29.5t-18 -19.5v-10q0 -8 8 -8h137q8 0 8 8v4q0 6 -16.5 23.5t-16.5 30.5v58l11 7l43 -84q25 -48 64 -48q25 0 44 13.5t20 26.5z" />
    <glyph glyph-name="onesuperior" unicode="&#xb9;" horiz-adv-x="445" 
d="M20 490h703v-490h-703v490zM366 98q0 5 -7 5q-6 -2 -12 0.5t-11.5 9t-10.5 13.5t-10.5 17t-8.5 16.5t-7.5 16t-5.5 12.5q-18 33 -56 31q9 6 24 15.5t18 11.5q12 8 23 14.5t16.5 9t9.5 5.5t5.5 5t1.5 6v5q0 8 -8 8h-68q-9 0 -9 -7q-1 -10 1 -13q9 -9 9 -13.5t-13 -13.5
l-65 -42q0 36 0.5 97.5t0.5 68.5q0 41 -10.5 50t-39.5 3q-41 -8 -68 -24q-12 -7 0 -21q2 -1 11.5 -5t15 -11.5t5.5 -20.5v-221q0 -12 -17 -29.5t-18 -19.5v-10q0 -8 8 -8h138q7 0 7 8v4q0 6 -16.5 23.5t-16.5 30.5v58l11 7l43 -84q25 -48 64 -48q26 0 45 13.5t21 26.5z
M682 98q0 5 -5 5q-8 -2 -16.5 3t-17 18t-13.5 21t-12 25l-8 18q-18 33 -56 31q34 21 42 27q12 8 23 14.5t16.5 9t9.5 5.5t5.5 5t1.5 6v5q0 8 -7 8h-70q-8 0 -8 -7q-2 -10 1 -13q9 -9 9 -12.5t-12 -14.5l-65 -42v166q0 41 -10.5 50t-39.5 3q-41 -8 -67 -24q-5 -3 -5 -9.5
t4 -11.5q2 -1 11.5 -5t15 -11.5t5.5 -20.5v-221q1 -12 -16 -29.5t-18 -19.5v-10q0 -8 8 -8h137q8 0 8 8v4q0 6 -16.5 23.5t-16.5 30.5v58l11 7l43 -84q25 -48 64 -48q25 0 44 13.5t20 26.5z" />
    <glyph glyph-name="guillemotright" unicode="&#xbb;" horiz-adv-x="505" 
d="M50 490h703v-490h-703v490zM396 98q0 7 -7 5q-6 -2 -12 0.5t-11.5 9t-10.5 13.5t-10.5 17t-8.5 16.5t-7.5 16t-5.5 12.5q-18 33 -56 31q9 6 24 15.5t18 11.5q12 8 23 14.5t16.5 9t9.5 5.5t5.5 5t1.5 6v5q0 8 -8 8h-68q-9 0 -9 -7q-1 -10 1 -13q9 -9 9 -13.5t-13 -13.5
l-65 -42q0 36 0.5 97.5t0.5 68.5q0 41 -10.5 50t-39.5 3q-41 -8 -68 -24q-12 -7 0 -21q2 -1 11.5 -5t15 -11.5t5.5 -20.5v-221q0 -12 -17 -29.5t-18 -19.5v-10q0 -8 8 -8h138q7 0 7 8v4q0 6 -16.5 23.5t-16.5 30.5v58l11 7l43 -84q25 -48 64 -48q26 0 45 13.5t21 26.5z
M712 98q0 3 -1.5 4.5t-3.5 0.5q-8 -2 -16.5 3t-17 18t-13.5 21t-12 25l-8 18q-18 33 -56 31q34 21 42 27q12 8 23 14.5t16.5 9t9.5 5.5t5.5 5t1.5 6v5q0 8 -7 8h-70q-8 0 -8 -7q-2 -10 1 -13q9 -9 9 -12.5t-12 -14.5l-65 -42v166q0 41 -10.5 50t-39.5 3q-41 -8 -67 -24
q-5 -3 -5 -9.5t4 -11.5q2 -1 11.5 -5t15 -11.5t5.5 -20.5v-221q1 -12 -16 -29.5t-18 -19.5v-10q0 -8 8 -8h137q8 0 8 8v4q0 6 -16.5 23.5t-16.5 30.5v58l11 7l43 -84q25 -48 64 -48q25 0 44 13.5t20 26.5z" />
    <glyph glyph-name="questiondown" unicode="&#xbf;" horiz-adv-x="520" 
d="M50 490h703v-490h-703v490zM396 98q0 7 -7 5q-6 -2 -12 0.5t-11.5 9t-10.5 13.5t-10.5 17t-8.5 16.5t-7.5 16t-5.5 12.5q-18 33 -56 31q9 6 24 15.5t18 11.5q12 8 23 14.5t16.5 9t9.5 5.5t5.5 5t1.5 6v5q0 8 -8 8h-68q-9 0 -9 -7q-1 -10 1 -13q9 -9 9 -13.5t-13 -13.5
l-65 -42q0 36 0.5 97.5t0.5 68.5q0 41 -10.5 50t-39.5 3q-41 -8 -68 -24q-12 -7 0 -21q2 -1 11.5 -5t15 -11.5t5.5 -20.5v-221q0 -12 -17 -29.5t-18 -19.5v-10q0 -8 8 -8h138q7 0 7 8v4q0 6 -16.5 23.5t-16.5 30.5v58l11 7l43 -84q25 -48 64 -48q26 0 45 13.5t21 26.5z
M712 98q0 3 -1.5 4.5t-3.5 0.5q-8 -2 -16.5 3t-17 18t-13.5 21t-12 25l-8 18q-18 33 -56 31q34 21 42 27q12 8 23 14.5t16.5 9t9.5 5.5t5.5 5t1.5 6v5q0 8 -7 8h-70q-8 0 -8 -7q-2 -10 1 -13q9 -9 9 -12.5t-12 -14.5l-65 -42v166q0 41 -10.5 50t-39.5 3q-41 -8 -67 -24
q-5 -3 -5 -9.5t4 -11.5q2 -1 11.5 -5t15 -11.5t5.5 -20.5v-221q1 -12 -16 -29.5t-18 -19.5v-10q0 -8 8 -8h137q8 0 8 8v4q0 6 -16.5 23.5t-16.5 30.5v58l11 7l43 -84q25 -48 64 -48q25 0 44 13.5t20 26.5z" />
    <glyph glyph-name="Agrave" unicode="&#xc0;" horiz-adv-x="673" 
d="M-15 490h703v-490h-703v490zM331 98q0 7 -7 5q-6 -2 -12 0.5t-11.5 9t-10.5 13.5t-10.5 17t-8.5 16.5t-7.5 16t-5.5 12.5q-18 33 -56 31q9 6 24 15.5t18 11.5q12 8 23 14.5t16.5 9t9.5 5.5t5.5 5t1.5 6v5q0 8 -8 8h-68q-9 0 -9 -7q-1 -10 1 -13q8 -9 8 -13.5t-12 -13.5
l-65 -42q0 36 0.5 97.5t0.5 68.5q0 41 -10.5 50t-39.5 3q-41 -8 -68 -24q-12 -7 0 -21q2 -1 11.5 -5t15 -11.5t5.5 -20.5v-221q0 -12 -17 -29.5t-18 -19.5v-10q0 -8 8 -8h138q7 0 7 8v4q0 6 -16.5 23.5t-16.5 30.5v58l11 7l43 -84q25 -48 64 -48q26 0 45 13.5t21 26.5z
M647 98q0 3 -1.5 4.5t-3.5 0.5q-8 -2 -16.5 3t-17 18t-13.5 21t-13 25l-7 18q-18 33 -56 31q34 21 42 27q12 8 23 14.5t16.5 9t9.5 5.5t5.5 5t1.5 6v5q0 8 -7 8h-70q-8 0 -8 -7q-2 -10 1 -13q9 -9 9 -12.5t-12 -14.5l-65 -42v166q0 41 -10.5 50t-39.5 3q-41 -8 -67 -24
q-5 -3 -5 -9.5t4 -11.5q2 -1 11.5 -5t15 -11.5t5.5 -20.5v-221q1 -12 -16 -29.5t-18 -19.5v-10q0 -8 8 -8h137q8 0 8 8v4q0 6 -16.5 23.5t-16.5 30.5v58l11 7l43 -84q25 -48 64 -48q25 0 44 13.5t20 26.5z" />
    <glyph glyph-name="Aacute" unicode="&#xc1;" horiz-adv-x="673" 
d="M-15 490h703v-490h-703v490zM331 98q0 7 -7 5q-6 -2 -12 0.5t-11.5 9t-10.5 13.5t-10.5 17t-8.5 16.5t-7.5 16t-5.5 12.5q-18 33 -56 31q9 6 24 15.5t18 11.5q12 8 23 14.5t16.5 9t9.5 5.5t5.5 5t1.5 6v5q0 8 -8 8h-68q-9 0 -9 -7q-1 -10 1 -13q8 -9 8 -13.5t-12 -13.5
l-65 -42q0 36 0.5 97.5t0.5 68.5q0 41 -10.5 50t-39.5 3q-41 -8 -68 -24q-12 -7 0 -21q2 -1 11.5 -5t15 -11.5t5.5 -20.5v-221q0 -12 -17 -29.5t-18 -19.5v-10q0 -8 8 -8h138q7 0 7 8v4q0 6 -16.5 23.5t-16.5 30.5v58l11 7l43 -84q25 -48 64 -48q26 0 45 13.5t21 26.5z
M647 98q0 3 -1.5 4.5t-3.5 0.5q-8 -2 -16.5 3t-17 18t-13.5 21t-13 25l-7 18q-18 33 -56 31q34 21 42 27q12 8 23 14.5t16.5 9t9.5 5.5t5.5 5t1.5 6v5q0 8 -7 8h-70q-8 0 -8 -7q-2 -10 1 -13q9 -9 9 -12.5t-12 -14.5l-65 -42v166q0 41 -10.5 50t-39.5 3q-41 -8 -67 -24
q-5 -3 -5 -9.5t4 -11.5q2 -1 11.5 -5t15 -11.5t5.5 -20.5v-221q1 -12 -16 -29.5t-18 -19.5v-10q0 -8 8 -8h137q8 0 8 8v4q0 6 -16.5 23.5t-16.5 30.5v58l11 7l43 -84q25 -48 64 -48q25 0 44 13.5t20 26.5z" />
    <glyph glyph-name="Acircumflex" unicode="&#xc2;" horiz-adv-x="673" 
d="M-15 490h703v-490h-703v490zM331 98q0 7 -7 5q-6 -2 -12 0.5t-11.5 9t-10.5 13.5t-10.5 17t-8.5 16.5t-7.5 16t-5.5 12.5q-18 33 -56 31q9 6 24 15.5t18 11.5q12 8 23 14.5t16.5 9t9.5 5.5t5.5 5t1.5 6v5q0 8 -8 8h-68q-9 0 -9 -7q-1 -10 1 -13q8 -9 8 -13.5t-12 -13.5
l-65 -42q0 36 0.5 97.5t0.5 68.5q0 41 -10.5 50t-39.5 3q-41 -8 -68 -24q-12 -7 0 -21q2 -1 11.5 -5t15 -11.5t5.5 -20.5v-221q0 -12 -17 -29.5t-18 -19.5v-10q0 -8 8 -8h138q7 0 7 8v4q0 6 -16.5 23.5t-16.5 30.5v58l11 7l43 -84q25 -48 64 -48q26 0 45 13.5t21 26.5z
M647 98q0 3 -1.5 4.5t-3.5 0.5q-8 -2 -16.5 3t-17 18t-13.5 21t-13 25l-7 18q-18 33 -56 31q34 21 42 27q12 8 23 14.5t16.5 9t9.5 5.5t5.5 5t1.5 6v5q0 8 -7 8h-70q-8 0 -8 -7q-2 -10 1 -13q9 -9 9 -12.5t-12 -14.5l-65 -42v166q0 41 -10.5 50t-39.5 3q-41 -8 -67 -24
q-5 -3 -5 -9.5t4 -11.5q2 -1 11.5 -5t15 -11.5t5.5 -20.5v-221q1 -12 -16 -29.5t-18 -19.5v-10q0 -8 8 -8h137q8 0 8 8v4q0 6 -16.5 23.5t-16.5 30.5v58l11 7l43 -84q25 -48 64 -48q25 0 44 13.5t20 26.5z" />
    <glyph glyph-name="Atilde" unicode="&#xc3;" horiz-adv-x="673" 
d="M-15 490h703v-490h-703v490zM331 98q0 7 -7 5q-6 -2 -12 0.5t-11.5 9t-10.5 13.5t-10.5 17t-8.5 16.5t-7.5 16t-5.5 12.5q-18 33 -56 31q9 6 24 15.5t18 11.5q12 8 23 14.5t16.5 9t9.5 5.5t5.5 5t1.5 6v5q0 8 -8 8h-68q-9 0 -9 -7q-1 -10 1 -13q8 -9 8 -13.5t-12 -13.5
l-65 -42q0 36 0.5 97.5t0.5 68.5q0 41 -10.5 50t-39.5 3q-41 -8 -68 -24q-12 -7 0 -21q2 -1 11.5 -5t15 -11.5t5.5 -20.5v-221q0 -12 -17 -29.5t-18 -19.5v-10q0 -8 8 -8h138q7 0 7 8v4q0 6 -16.5 23.5t-16.5 30.5v58l11 7l43 -84q25 -48 64 -48q26 0 45 13.5t21 26.5z
M647 98q0 3 -1.5 4.5t-3.5 0.5q-8 -2 -16.5 3t-17 18t-13.5 21t-13 25l-7 18q-18 33 -56 31q34 21 42 27q12 8 23 14.5t16.5 9t9.5 5.5t5.5 5t1.5 6v5q0 8 -7 8h-70q-8 0 -8 -7q-2 -10 1 -13q9 -9 9 -12.5t-12 -14.5l-65 -42v166q0 41 -10.5 50t-39.5 3q-41 -8 -67 -24
q-5 -3 -5 -9.5t4 -11.5q2 -1 11.5 -5t15 -11.5t5.5 -20.5v-221q1 -12 -16 -29.5t-18 -19.5v-10q0 -8 8 -8h137q8 0 8 8v4q0 6 -16.5 23.5t-16.5 30.5v58l11 7l43 -84q25 -48 64 -48q25 0 44 13.5t20 26.5z" />
    <glyph glyph-name="Adieresis" unicode="&#xc4;" horiz-adv-x="673" 
d="M-15 490h703v-490h-703v490zM331 98q0 7 -7 5q-6 -2 -12 0.5t-11.5 9t-10.5 13.5t-10.5 17t-8.5 16.5t-7.5 16t-5.5 12.5q-18 33 -56 31q9 6 24 15.5t18 11.5q12 8 23 14.5t16.5 9t9.5 5.5t5.5 5t1.5 6v5q0 8 -8 8h-68q-9 0 -9 -7q-1 -10 1 -13q8 -9 8 -13.5t-12 -13.5
l-65 -42q0 36 0.5 97.5t0.5 68.5q0 41 -10.5 50t-39.5 3q-41 -8 -68 -24q-12 -7 0 -21q2 -1 11.5 -5t15 -11.5t5.5 -20.5v-221q0 -12 -17 -29.5t-18 -19.5v-10q0 -8 8 -8h138q7 0 7 8v4q0 6 -16.5 23.5t-16.5 30.5v58l11 7l43 -84q25 -48 64 -48q26 0 45 13.5t21 26.5z
M647 98q0 3 -1.5 4.5t-3.5 0.5q-8 -2 -16.5 3t-17 18t-13.5 21t-13 25l-7 18q-18 33 -56 31q34 21 42 27q12 8 23 14.5t16.5 9t9.5 5.5t5.5 5t1.5 6v5q0 8 -7 8h-70q-8 0 -8 -7q-2 -10 1 -13q9 -9 9 -12.5t-12 -14.5l-65 -42v166q0 41 -10.5 50t-39.5 3q-41 -8 -67 -24
q-5 -3 -5 -9.5t4 -11.5q2 -1 11.5 -5t15 -11.5t5.5 -20.5v-221q1 -12 -16 -29.5t-18 -19.5v-10q0 -8 8 -8h137q8 0 8 8v4q0 6 -16.5 23.5t-16.5 30.5v58l11 7l43 -84q25 -48 64 -48q25 0 44 13.5t20 26.5z" />
    <glyph glyph-name="Aring" unicode="&#xc5;" horiz-adv-x="673" 
d="M-15 490h703v-490h-703v490zM331 98q0 5 -7 5q-6 -2 -12 0.5t-11.5 9t-10.5 13.5t-10.5 17t-8.5 16.5t-7.5 16t-5.5 12.5q-18 33 -56 31q9 6 24 15.5t18 11.5q12 8 23 14.5t16.5 9t9.5 5.5t5.5 5t1.5 6v5q0 8 -8 8h-68q-9 0 -9 -7q-1 -10 1 -13q8 -9 8 -13.5t-12 -13.5
l-65 -42q0 36 0.5 97.5t0.5 68.5q0 41 -10.5 50t-39.5 3q-41 -8 -68 -24q-12 -7 0 -21q2 -1 11.5 -5t15 -11.5t5.5 -20.5v-221q0 -12 -17 -29.5t-18 -19.5v-10q0 -8 8 -8h138q7 0 7 8v4q0 6 -16.5 23.5t-16.5 30.5v58l11 7l43 -84q25 -48 64 -48q26 0 45 13.5t21 26.5z
M647 98q0 5 -5 5q-8 -2 -16.5 3t-17 18t-13.5 21t-13 25l-7 18q-18 33 -56 31q34 21 42 27q12 8 23 14.5t16.5 9t9.5 5.5t5.5 5t1.5 6v5q0 8 -7 8h-70q-8 0 -8 -7q-2 -10 1 -13q9 -9 9 -12.5t-12 -14.5l-65 -42v166q0 41 -10.5 50t-39.5 3q-41 -8 -67 -24q-5 -3 -5 -9.5
t4 -11.5q2 -1 11.5 -5t15 -11.5t5.5 -20.5v-221q1 -12 -16 -29.5t-18 -19.5v-10q0 -8 8 -8h137q8 0 8 8v4q0 6 -16.5 23.5t-16.5 30.5v58l11 7l43 -84q25 -48 64 -48q25 0 44 13.5t20 26.5z" />
    <glyph glyph-name="AE" unicode="&#xc6;" horiz-adv-x="718" 
d="M-15 490h703v-490h-703v490zM331 98q0 7 -7 5q-6 -2 -12 0.5t-11.5 9t-10.5 13.5t-10.5 17t-8.5 16.5t-7.5 16t-5.5 12.5q-18 33 -56 31q9 6 24 15.5t18 11.5q12 8 23 14.5t16.5 9t9.5 5.5t5.5 5t1.5 6v5q0 8 -8 8h-68q-9 0 -9 -7q-1 -10 1 -13q8 -9 8 -13.5t-12 -13.5
l-65 -42q0 36 0.5 97.5t0.5 68.5q0 41 -10.5 50t-39.5 3q-41 -8 -68 -24q-12 -7 0 -21q2 -1 11.5 -5t15 -11.5t5.5 -20.5v-221q0 -12 -17 -29.5t-18 -19.5v-10q0 -8 8 -8h138q7 0 7 8v4q0 6 -16.5 23.5t-16.5 30.5v58l11 7l43 -84q25 -48 64 -48q26 0 45 13.5t21 26.5z
M647 98q0 3 -1.5 4.5t-3.5 0.5q-8 -2 -16.5 3t-17 18t-13.5 21t-13 25l-7 18q-18 33 -56 31q34 21 42 27q12 8 23 14.5t16.5 9t9.5 5.5t5.5 5t1.5 6v5q0 8 -7 8h-70q-8 0 -8 -7q-2 -10 1 -13q9 -9 9 -12.5t-12 -14.5l-65 -42v166q0 41 -10.5 50t-39.5 3q-41 -8 -67 -24
q-5 -3 -5 -9.5t4 -11.5q2 -1 11.5 -5t15 -11.5t5.5 -20.5v-221q1 -12 -16 -29.5t-18 -19.5v-10q0 -8 8 -8h137q8 0 8 8v4q0 6 -16.5 23.5t-16.5 30.5v58l11 7l43 -84q25 -48 64 -48q25 0 44 13.5t20 26.5z" />
    <glyph glyph-name="Ccedilla" unicode="&#xc7;" horiz-adv-x="759" 
d="M35 490h703v-490h-703v490zM381 98q0 7 -7 5q-6 -2 -12 0.5t-11.5 9t-10.5 13.5t-10.5 17t-8.5 16.5t-7.5 16t-5.5 12.5q-18 33 -56 31q9 6 24 15.5t18 11.5q12 8 23 14.5t16.5 9t9.5 5.5t5.5 5t1.5 6v5q0 8 -8 8h-68q-9 0 -9 -7q-1 -10 1 -13q8 -9 8 -13.5t-12 -13.5
l-65 -42q0 36 0.5 97.5t0.5 68.5q0 41 -10.5 50t-39.5 3q-41 -8 -68 -24q-12 -7 0 -21q2 -1 11.5 -5t15 -11.5t5.5 -20.5v-221q0 -12 -17 -29.5t-18 -19.5v-10q0 -8 8 -8h138q7 0 7 8v4q0 6 -16.5 23.5t-16.5 30.5v58l11 7l43 -84q25 -48 64 -48q26 0 45 13.5t21 26.5z
M697 98q0 3 -1.5 4.5t-3.5 0.5q-8 -2 -16.5 3t-17 18t-13.5 21t-13 25l-7 18q-18 33 -56 31q34 21 42 27q12 8 23 14.5t16.5 9t9.5 5.5t5.5 5t1.5 6v5q0 8 -7 8h-70q-8 0 -8 -7q-2 -10 1 -13q9 -9 9 -12.5t-12 -14.5l-65 -42v166q0 41 -10.5 50t-39.5 3q-41 -8 -67 -24
q-5 -3 -5 -9.5t4 -11.5q2 -1 11.5 -5t15 -11.5t5.5 -20.5v-221q1 -12 -16 -29.5t-18 -19.5v-10q0 -8 8 -8h137q8 0 8 8v4q0 6 -16.5 23.5t-16.5 30.5v58l11 7l43 -84q25 -48 64 -48q25 0 44 13.5t20 26.5z" />
    <glyph glyph-name="Egrave" unicode="&#xc8;" horiz-adv-x="763" 
d="M30 490h703v-490h-703v490zM376 98q0 7 -7 5q-6 -2 -12 0.5t-11.5 9t-10.5 13.5t-10.5 17t-8.5 16.5t-7.5 16t-5.5 12.5q-18 33 -56 31q9 6 24 15.5t18 11.5q12 8 23 14.5t16.5 9t9.5 5.5t5.5 5t1.5 6v5q0 8 -8 8h-68q-9 0 -9 -7q-1 -10 1 -13q9 -9 9 -13.5t-13 -13.5
l-65 -42q0 36 0.5 97.5t0.5 68.5q0 41 -10.5 50t-39.5 3q-41 -8 -68 -24q-12 -7 0 -21q2 -1 11.5 -5t15 -11.5t5.5 -20.5v-221q0 -12 -17 -29.5t-18 -19.5v-10q0 -8 8 -8h138q7 0 7 8v4q0 6 -16.5 23.5t-16.5 30.5v58l11 7l43 -84q25 -48 64 -48q26 0 45 13.5t21 26.5z
M692 98q0 3 -1.5 4.5t-3.5 0.5q-8 -2 -16.5 3t-17 18t-13.5 21t-12 25l-8 18q-18 33 -56 31q34 21 42 27q12 8 23 14.5t16.5 9t9.5 5.5t5.5 5t1.5 6v5q0 8 -7 8h-70q-8 0 -8 -7q-2 -10 1 -13q9 -9 9 -12.5t-12 -14.5l-65 -42v166q0 41 -10.5 50t-39.5 3q-41 -8 -67 -24
q-5 -3 -5 -9.5t4 -11.5q2 -1 11.5 -5t15 -11.5t5.5 -20.5v-221q1 -12 -16 -29.5t-18 -19.5v-10q0 -8 8 -8h137q8 0 8 8v4q0 6 -16.5 23.5t-16.5 30.5v58l11 7l43 -84q25 -48 64 -48q25 0 44 13.5t20 26.5z" />
    <glyph glyph-name="Eacute" unicode="&#xc9;" horiz-adv-x="763" 
d="M30 490h703v-490h-703v490zM376 98q0 5 -7 5q-6 -2 -12 0.5t-11.5 9t-10.5 13.5t-10.5 17t-8.5 16.5t-7.5 16t-5.5 12.5q-18 33 -56 31q9 6 24 15.5t18 11.5q12 8 23 14.5t16.5 9t9.5 5.5t5.5 5t1.5 6v5q0 8 -8 8h-68q-9 0 -9 -7q-1 -10 1 -13q9 -9 9 -13.5t-13 -13.5
l-65 -42q0 36 0.5 97.5t0.5 68.5q0 41 -10.5 50t-39.5 3q-41 -8 -68 -24q-12 -7 0 -21q2 -1 11.5 -5t15 -11.5t5.5 -20.5v-221q0 -12 -17 -29.5t-18 -19.5v-10q0 -8 8 -8h138q7 0 7 8v4q0 6 -16.5 23.5t-16.5 30.5v58l11 7l43 -84q25 -48 64 -48q26 0 45 13.5t21 26.5z
M692 98q0 5 -5 5q-8 -2 -16.5 3t-17 18t-13.5 21t-12 25l-8 18q-18 33 -56 31q34 21 42 27q12 8 23 14.5t16.5 9t9.5 5.5t5.5 5t1.5 6v5q0 8 -7 8h-70q-8 0 -8 -7q-2 -10 1 -13q9 -9 9 -12.5t-12 -14.5l-65 -42v166q0 41 -10.5 50t-39.5 3q-41 -8 -67 -24q-5 -3 -5 -9.5
t4 -11.5q2 -1 11.5 -5t15 -11.5t5.5 -20.5v-221q1 -12 -16 -29.5t-18 -19.5v-10q0 -8 8 -8h137q8 0 8 8v4q0 6 -16.5 23.5t-16.5 30.5v58l11 7l43 -84q25 -48 64 -48q25 0 44 13.5t20 26.5z" />
    <glyph glyph-name="Ecircumflex" unicode="&#xca;" horiz-adv-x="763" 
d="M30 490h703v-490h-703v490zM376 98q0 7 -7 5q-6 -2 -12 0.5t-11.5 9t-10.5 13.5t-10.5 17t-8.5 16.5t-7.5 16t-5.5 12.5q-18 33 -56 31q9 6 24 15.5t18 11.5q12 8 23 14.5t16.5 9t9.5 5.5t5.5 5t1.5 6v5q0 8 -8 8h-68q-9 0 -9 -7q-1 -10 1 -13q9 -9 9 -13.5t-13 -13.5
l-65 -42q0 36 0.5 97.5t0.5 68.5q0 41 -10.5 50t-39.5 3q-41 -8 -68 -24q-12 -7 0 -21q2 -1 11.5 -5t15 -11.5t5.5 -20.5v-221q0 -12 -17 -29.5t-18 -19.5v-10q0 -8 8 -8h138q7 0 7 8v4q0 6 -16.5 23.5t-16.5 30.5v58l11 7l43 -84q25 -48 64 -48q26 0 45 13.5t21 26.5z
M692 98q0 3 -1.5 4.5t-3.5 0.5q-8 -2 -16.5 3t-17 18t-13.5 21t-12 25l-8 18q-18 33 -56 31q34 21 42 27q12 8 23 14.5t16.5 9t9.5 5.5t5.5 5t1.5 6v5q0 8 -7 8h-70q-8 0 -8 -7q-2 -10 1 -13q9 -9 9 -12.5t-12 -14.5l-65 -42v166q0 41 -10.5 50t-39.5 3q-41 -8 -67 -24
q-5 -3 -5 -9.5t4 -11.5q2 -1 11.5 -5t15 -11.5t5.5 -20.5v-221q1 -12 -16 -29.5t-18 -19.5v-10q0 -8 8 -8h137q8 0 8 8v4q0 6 -16.5 23.5t-16.5 30.5v58l11 7l43 -84q25 -48 64 -48q25 0 44 13.5t20 26.5z" />
    <glyph glyph-name="Edieresis" unicode="&#xcb;" horiz-adv-x="763" 
d="M30 490h703v-490h-703v490zM376 98q0 7 -7 5q-6 -2 -12 0.5t-11.5 9t-10.5 13.5t-10.5 17t-8.5 16.5t-7.5 16t-5.5 12.5q-18 33 -56 31q9 6 24 15.5t18 11.5q12 8 23 14.5t16.5 9t9.5 5.5t5.5 5t1.5 6v5q0 8 -8 8h-68q-9 0 -9 -7q-1 -10 1 -13q9 -9 9 -13.5t-13 -13.5
l-65 -42q0 36 0.5 97.5t0.5 68.5q0 41 -10.5 50t-39.5 3q-41 -8 -68 -24q-12 -7 0 -21q2 -1 11.5 -5t15 -11.5t5.5 -20.5v-221q0 -12 -17 -29.5t-18 -19.5v-10q0 -8 8 -8h138q7 0 7 8v4q0 6 -16.5 23.5t-16.5 30.5v58l11 7l43 -84q25 -48 64 -48q26 0 45 13.5t21 26.5z
M692 98q0 3 -1.5 4.5t-3.5 0.5q-8 -2 -16.5 3t-17 18t-13.5 21t-12 25l-8 18q-18 33 -56 31q34 21 42 27q12 8 23 14.5t16.5 9t9.5 5.5t5.5 5t1.5 6v5q0 8 -7 8h-70q-8 0 -8 -7q-2 -10 1 -13q9 -9 9 -12.5t-12 -14.5l-65 -42v166q0 41 -10.5 50t-39.5 3q-41 -8 -67 -24
q-5 -3 -5 -9.5t4 -11.5q2 -1 11.5 -5t15 -11.5t5.5 -20.5v-221q1 -12 -16 -29.5t-18 -19.5v-10q0 -8 8 -8h137q8 0 8 8v4q0 6 -16.5 23.5t-16.5 30.5v58l11 7l43 -84q25 -48 64 -48q25 0 44 13.5t20 26.5z" />
    <glyph glyph-name="Igrave" unicode="&#xcc;" horiz-adv-x="733" 
d="M15 490h703v-490h-703v490zM361 98q0 7 -7 5q-6 -2 -12 0.5t-11.5 9t-10.5 13.5t-10.5 17t-8.5 16.5t-7.5 16t-5.5 12.5q-18 33 -56 31q9 6 24 15.5t18 11.5q12 8 23 14.5t16.5 9t9.5 5.5t5.5 5t1.5 6v5q0 8 -8 8h-68q-9 0 -9 -7q-1 -10 1 -13q8 -9 8 -13.5t-12 -13.5
l-65 -42q0 36 0.5 97.5t0.5 68.5q0 41 -10.5 50t-39.5 3q-41 -8 -68 -24q-12 -7 0 -21q2 -1 11.5 -5t15 -11.5t5.5 -20.5v-221q0 -12 -17 -29.5t-18 -19.5v-10q0 -8 8 -8h138q7 0 7 8v4q0 6 -16.5 23.5t-16.5 30.5v58l11 7l43 -84q25 -48 64 -48q26 0 45 13.5t21 26.5z
M677 98q0 3 -1.5 4.5t-3.5 0.5q-8 -2 -16.5 3t-17 18t-13.5 21t-13 25l-7 18q-18 33 -56 31q34 21 42 27q12 8 23 14.5t16.5 9t9.5 5.5t5.5 5t1.5 6v5q0 8 -7 8h-70q-8 0 -8 -7q-2 -10 1 -13q9 -9 9 -12.5t-12 -14.5l-65 -42v166q0 41 -10.5 50t-39.5 3q-41 -8 -67 -24
q-5 -3 -5 -9.5t4 -11.5q2 -1 11.5 -5t15 -11.5t5.5 -20.5v-221q1 -12 -16 -29.5t-18 -19.5v-10q0 -8 8 -8h137q8 0 8 8v4q0 6 -16.5 23.5t-16.5 30.5v58l11 7l43 -84q25 -48 64 -48q25 0 44 13.5t20 26.5z" />
    <glyph glyph-name="Iacute" unicode="&#xcd;" horiz-adv-x="733" 
d="M15 490h703v-490h-703v490zM361 98q0 7 -7 5q-6 -2 -12 0.5t-11.5 9t-10.5 13.5t-10.5 17t-8.5 16.5t-7.5 16t-5.5 12.5q-18 33 -56 31q9 6 24 15.5t18 11.5q12 8 23 14.5t16.5 9t9.5 5.5t5.5 5t1.5 6v5q0 8 -8 8h-68q-9 0 -9 -7q-1 -10 1 -13q8 -9 8 -13.5t-12 -13.5
l-65 -42q0 36 0.5 97.5t0.5 68.5q0 41 -10.5 50t-39.5 3q-41 -8 -68 -24q-12 -7 0 -21q2 -1 11.5 -5t15 -11.5t5.5 -20.5v-221q0 -12 -17 -29.5t-18 -19.5v-10q0 -8 8 -8h138q7 0 7 8v4q0 6 -16.5 23.5t-16.5 30.5v58l11 7l43 -84q25 -48 64 -48q26 0 45 13.5t21 26.5z
M677 98q0 3 -1.5 4.5t-3.5 0.5q-8 -2 -16.5 3t-17 18t-13.5 21t-13 25l-7 18q-18 33 -56 31q34 21 42 27q12 8 23 14.5t16.5 9t9.5 5.5t5.5 5t1.5 6v5q0 8 -7 8h-70q-8 0 -8 -7q-2 -10 1 -13q9 -9 9 -12.5t-12 -14.5l-65 -42v166q0 41 -10.5 50t-39.5 3q-41 -8 -67 -24
q-5 -3 -5 -9.5t4 -11.5q2 -1 11.5 -5t15 -11.5t5.5 -20.5v-221q1 -12 -16 -29.5t-18 -19.5v-10q0 -8 8 -8h137q8 0 8 8v4q0 6 -16.5 23.5t-16.5 30.5v58l11 7l43 -84q25 -48 64 -48q25 0 44 13.5t20 26.5z" />
    <glyph glyph-name="Icircumflex" unicode="&#xce;" horiz-adv-x="733" 
d="M15 490h703v-490h-703v490zM361 98q0 7 -7 5q-6 -2 -12 0.5t-11.5 9t-10.5 13.5t-10.5 17t-8.5 16.5t-7.5 16t-5.5 12.5q-18 33 -56 31q9 6 24 15.5t18 11.5q12 8 23 14.5t16.5 9t9.5 5.5t5.5 5t1.5 6v5q0 8 -8 8h-68q-9 0 -9 -7q-1 -10 1 -13q8 -9 8 -13.5t-12 -13.5
l-65 -42q0 36 0.5 97.5t0.5 68.5q0 41 -10.5 50t-39.5 3q-41 -8 -68 -24q-12 -7 0 -21q2 -1 11.5 -5t15 -11.5t5.5 -20.5v-221q0 -12 -17 -29.5t-18 -19.5v-10q0 -8 8 -8h138q7 0 7 8v4q0 6 -16.5 23.5t-16.5 30.5v58l11 7l43 -84q25 -48 64 -48q26 0 45 13.5t21 26.5z
M677 98q0 3 -1.5 4.5t-3.5 0.5q-8 -2 -16.5 3t-17 18t-13.5 21t-13 25l-7 18q-18 33 -56 31q34 21 42 27q12 8 23 14.5t16.5 9t9.5 5.5t5.5 5t1.5 6v5q0 8 -7 8h-70q-8 0 -8 -7q-2 -10 1 -13q9 -9 9 -12.5t-12 -14.5l-65 -42v166q0 41 -10.5 50t-39.5 3q-41 -8 -67 -24
q-5 -3 -5 -9.5t4 -11.5q2 -1 11.5 -5t15 -11.5t5.5 -20.5v-221q1 -12 -16 -29.5t-18 -19.5v-10q0 -8 8 -8h137q8 0 8 8v4q0 6 -16.5 23.5t-16.5 30.5v58l11 7l43 -84q25 -48 64 -48q25 0 44 13.5t20 26.5z" />
    <glyph glyph-name="Idieresis" unicode="&#xcf;" horiz-adv-x="733" 
d="M15 490h703v-490h-703v490zM361 98q0 7 -7 5q-6 -2 -12 0.5t-11.5 9t-10.5 13.5t-10.5 17t-8.5 16.5t-7.5 16t-5.5 12.5q-18 33 -56 31q9 6 24 15.5t18 11.5q12 8 23 14.5t16.5 9t9.5 5.5t5.5 5t1.5 6v5q0 8 -8 8h-68q-9 0 -9 -7q-1 -10 1 -13q8 -9 8 -13.5t-12 -13.5
l-65 -42q0 36 0.5 97.5t0.5 68.5q0 41 -10.5 50t-39.5 3q-41 -8 -68 -24q-12 -7 0 -21q2 -1 11.5 -5t15 -11.5t5.5 -20.5v-221q0 -12 -17 -29.5t-18 -19.5v-10q0 -8 8 -8h138q7 0 7 8v4q0 6 -16.5 23.5t-16.5 30.5v58l11 7l43 -84q25 -48 64 -48q26 0 45 13.5t21 26.5z
M677 98q0 3 -1.5 4.5t-3.5 0.5q-8 -2 -16.5 3t-17 18t-13.5 21t-13 25l-7 18q-18 33 -56 31q34 21 42 27q12 8 23 14.5t16.5 9t9.5 5.5t5.5 5t1.5 6v5q0 8 -7 8h-70q-8 0 -8 -7q-2 -10 1 -13q9 -9 9 -12.5t-12 -14.5l-65 -42v166q0 41 -10.5 50t-39.5 3q-41 -8 -67 -24
q-5 -3 -5 -9.5t4 -11.5q2 -1 11.5 -5t15 -11.5t5.5 -20.5v-221q1 -12 -16 -29.5t-18 -19.5v-10q0 -8 8 -8h137q8 0 8 8v4q0 6 -16.5 23.5t-16.5 30.5v58l11 7l43 -84q25 -48 64 -48q25 0 44 13.5t20 26.5z" />
    <glyph glyph-name="Eth" unicode="&#xd0;" horiz-adv-x="768" 
d="M30 490h703v-490h-703v490zM376 98q0 5 -7 5q-6 -2 -12 0.5t-11.5 9t-10.5 13.5t-10.5 17t-8.5 16.5t-7.5 16t-5.5 12.5q-18 33 -56 31q9 6 24 15.5t18 11.5q12 8 23 14.5t16.5 9t9.5 5.5t5.5 5t1.5 6v5q0 8 -8 8h-68q-9 0 -9 -7q-1 -10 1 -13q9 -9 9 -13.5t-13 -13.5
l-65 -42q0 36 0.5 97.5t0.5 68.5q0 41 -10.5 50t-39.5 3q-41 -8 -68 -24q-12 -7 0 -21q2 -1 11.5 -5t15 -11.5t5.5 -20.5v-221q0 -12 -17 -29.5t-18 -19.5v-10q0 -8 8 -8h138q7 0 7 8v4q0 6 -16.5 23.5t-16.5 30.5v58l11 7l43 -84q25 -48 64 -48q26 0 45 13.5t21 26.5z
M692 98q0 5 -5 5q-8 -2 -16.5 3t-17 18t-13.5 21t-12 25l-8 18q-18 33 -56 31q34 21 42 27q12 8 23 14.5t16.5 9t9.5 5.5t5.5 5t1.5 6v5q0 8 -7 8h-70q-8 0 -8 -7q-2 -10 1 -13q9 -9 9 -12.5t-12 -14.5l-65 -42v166q0 41 -10.5 50t-39.5 3q-41 -8 -67 -24q-5 -3 -5 -9.5
t4 -11.5q2 -1 11.5 -5t15 -11.5t5.5 -20.5v-221q1 -12 -16 -29.5t-18 -19.5v-10q0 -8 8 -8h137q8 0 8 8v4q0 6 -16.5 23.5t-16.5 30.5v58l11 7l43 -84q25 -48 64 -48q25 0 44 13.5t20 26.5z" />
    <glyph glyph-name="Ntilde" unicode="&#xd1;" horiz-adv-x="763" 
d="M30 490h703v-490h-703v490zM376 98q0 7 -7 5q-6 -2 -12 0.5t-11.5 9t-10.5 13.5t-10.5 17t-8.5 16.5t-7.5 16t-5.5 12.5q-18 33 -56 31q9 6 24 15.5t18 11.5q12 8 23 14.5t16.5 9t9.5 5.5t5.5 5t1.5 6v5q0 8 -8 8h-68q-9 0 -9 -7q-1 -10 1 -13q9 -9 9 -13.5t-13 -13.5
l-65 -42q0 36 0.5 97.5t0.5 68.5q0 41 -10.5 50t-39.5 3q-41 -8 -68 -24q-12 -7 0 -21q2 -1 11.5 -5t15 -11.5t5.5 -20.5v-221q0 -12 -17 -29.5t-18 -19.5v-10q0 -8 8 -8h138q7 0 7 8v4q0 6 -16.5 23.5t-16.5 30.5v58l11 7l43 -84q25 -48 64 -48q26 0 45 13.5t21 26.5z
M692 98q0 3 -1.5 4.5t-3.5 0.5q-8 -2 -16.5 3t-17 18t-13.5 21t-12 25l-8 18q-18 33 -56 31q34 21 42 27q12 8 23 14.5t16.5 9t9.5 5.5t5.5 5t1.5 6v5q0 8 -7 8h-70q-8 0 -8 -7q-2 -10 1 -13q9 -9 9 -12.5t-12 -14.5l-65 -42v166q0 41 -10.5 50t-39.5 3q-41 -8 -67 -24
q-5 -3 -5 -9.5t4 -11.5q2 -1 11.5 -5t15 -11.5t5.5 -20.5v-221q1 -12 -16 -29.5t-18 -19.5v-10q0 -8 8 -8h137q8 0 8 8v4q0 6 -16.5 23.5t-16.5 30.5v58l11 7l43 -84q25 -48 64 -48q25 0 44 13.5t20 26.5z" />
    <glyph glyph-name="Ograve" unicode="&#xd2;" horiz-adv-x="773" 
d="M35 490h703v-490h-703v490zM381 98q0 7 -7 5q-6 -2 -12 0.5t-11.5 9t-10.5 13.5t-10.5 17t-8.5 16.5t-7.5 16t-5.5 12.5q-18 33 -56 31q9 6 24 15.5t18 11.5q12 8 23 14.5t16.5 9t9.5 5.5t5.5 5t1.5 6v5q0 8 -8 8h-68q-9 0 -9 -7q-1 -10 1 -13q8 -9 8 -13.5t-12 -13.5
l-65 -42q0 36 0.5 97.5t0.5 68.5q0 41 -10.5 50t-39.5 3q-41 -8 -68 -24q-12 -7 0 -21q2 -1 11.5 -5t15 -11.5t5.5 -20.5v-221q0 -12 -17 -29.5t-18 -19.5v-10q0 -8 8 -8h138q7 0 7 8v4q0 6 -16.5 23.5t-16.5 30.5v58l11 7l43 -84q25 -48 64 -48q26 0 45 13.5t21 26.5z
M697 98q0 3 -1.5 4.5t-3.5 0.5q-8 -2 -16.5 3t-17 18t-13.5 21t-13 25l-7 18q-18 33 -56 31q34 21 42 27q12 8 23 14.5t16.5 9t9.5 5.5t5.5 5t1.5 6v5q0 8 -7 8h-70q-8 0 -8 -7q-2 -10 1 -13q9 -9 9 -12.5t-12 -14.5l-65 -42v166q0 41 -10.5 50t-39.5 3q-41 -8 -67 -24
q-5 -3 -5 -9.5t4 -11.5q2 -1 11.5 -5t15 -11.5t5.5 -20.5v-221q1 -12 -16 -29.5t-18 -19.5v-10q0 -8 8 -8h137q8 0 8 8v4q0 6 -16.5 23.5t-16.5 30.5v58l11 7l43 -84q25 -48 64 -48q25 0 44 13.5t20 26.5z" />
    <glyph glyph-name="Oacute" unicode="&#xd3;" horiz-adv-x="773" 
d="M35 490h703v-490h-703v490zM381 98q0 7 -7 5q-6 -2 -12 0.5t-11.5 9t-10.5 13.5t-10.5 17t-8.5 16.5t-7.5 16t-5.5 12.5q-18 33 -56 31q9 6 24 15.5t18 11.5q12 8 23 14.5t16.5 9t9.5 5.5t5.5 5t1.5 6v5q0 8 -8 8h-68q-9 0 -9 -7q-1 -10 1 -13q8 -9 8 -13.5t-12 -13.5
l-65 -42q0 36 0.5 97.5t0.5 68.5q0 41 -10.5 50t-39.5 3q-41 -8 -68 -24q-12 -7 0 -21q2 -1 11.5 -5t15 -11.5t5.5 -20.5v-221q0 -12 -17 -29.5t-18 -19.5v-10q0 -8 8 -8h138q7 0 7 8v4q0 6 -16.5 23.5t-16.5 30.5v58l11 7l43 -84q25 -48 64 -48q26 0 45 13.5t21 26.5z
M697 98q0 3 -1.5 4.5t-3.5 0.5q-8 -2 -16.5 3t-17 18t-13.5 21t-13 25l-7 18q-18 33 -56 31q34 21 42 27q12 8 23 14.5t16.5 9t9.5 5.5t5.5 5t1.5 6v5q0 8 -7 8h-70q-8 0 -8 -7q-2 -10 1 -13q9 -9 9 -12.5t-12 -14.5l-65 -42v166q0 41 -10.5 50t-39.5 3q-41 -8 -67 -24
q-5 -3 -5 -9.5t4 -11.5q2 -1 11.5 -5t15 -11.5t5.5 -20.5v-221q1 -12 -16 -29.5t-18 -19.5v-10q0 -8 8 -8h137q8 0 8 8v4q0 6 -16.5 23.5t-16.5 30.5v58l11 7l43 -84q25 -48 64 -48q25 0 44 13.5t20 26.5z" />
    <glyph glyph-name="Ocircumflex" unicode="&#xd4;" horiz-adv-x="773" 
d="M35 490h703v-490h-703v490zM381 98q0 7 -7 5q-6 -2 -12 0.5t-11.5 9t-10.5 13.5t-10.5 17t-8.5 16.5t-7.5 16t-5.5 12.5q-18 33 -56 31q9 6 24 15.5t18 11.5q12 8 23 14.5t16.5 9t9.5 5.5t5.5 5t1.5 6v5q0 8 -8 8h-68q-9 0 -9 -7q-1 -10 1 -13q8 -9 8 -13.5t-12 -13.5
l-65 -42q0 36 0.5 97.5t0.5 68.5q0 41 -10.5 50t-39.5 3q-41 -8 -68 -24q-12 -7 0 -21q2 -1 11.5 -5t15 -11.5t5.5 -20.5v-221q0 -12 -17 -29.5t-18 -19.5v-10q0 -8 8 -8h138q7 0 7 8v4q0 6 -16.5 23.5t-16.5 30.5v58l11 7l43 -84q25 -48 64 -48q26 0 45 13.5t21 26.5z
M697 98q0 3 -1.5 4.5t-3.5 0.5q-8 -2 -16.5 3t-17 18t-13.5 21t-13 25l-7 18q-18 33 -56 31q34 21 42 27q12 8 23 14.5t16.5 9t9.5 5.5t5.5 5t1.5 6v5q0 8 -7 8h-70q-8 0 -8 -7q-2 -10 1 -13q9 -9 9 -12.5t-12 -14.5l-65 -42v166q0 41 -10.5 50t-39.5 3q-41 -8 -67 -24
q-5 -3 -5 -9.5t4 -11.5q2 -1 11.5 -5t15 -11.5t5.5 -20.5v-221q1 -12 -16 -29.5t-18 -19.5v-10q0 -8 8 -8h137q8 0 8 8v4q0 6 -16.5 23.5t-16.5 30.5v58l11 7l43 -84q25 -48 64 -48q25 0 44 13.5t20 26.5z" />
    <glyph glyph-name="Otilde" unicode="&#xd5;" horiz-adv-x="773" 
d="M35 490h703v-490h-703v490zM381 98q0 7 -7 5q-6 -2 -12 0.5t-11.5 9t-10.5 13.5t-10.5 17t-8.5 16.5t-7.5 16t-5.5 12.5q-18 33 -56 31q9 6 24 15.5t18 11.5q12 8 23 14.5t16.5 9t9.5 5.5t5.5 5t1.5 6v5q0 8 -8 8h-68q-9 0 -9 -7q-1 -10 1 -13q8 -9 8 -13.5t-12 -13.5
l-65 -42q0 36 0.5 97.5t0.5 68.5q0 41 -10.5 50t-39.5 3q-41 -8 -68 -24q-12 -7 0 -21q2 -1 11.5 -5t15 -11.5t5.5 -20.5v-221q0 -12 -17 -29.5t-18 -19.5v-10q0 -8 8 -8h138q7 0 7 8v4q0 6 -16.5 23.5t-16.5 30.5v58l11 7l43 -84q25 -48 64 -48q26 0 45 13.5t21 26.5z
M697 98q0 3 -1.5 4.5t-3.5 0.5q-8 -2 -16.5 3t-17 18t-13.5 21t-13 25l-7 18q-18 33 -56 31q34 21 42 27q12 8 23 14.5t16.5 9t9.5 5.5t5.5 5t1.5 6v5q0 8 -7 8h-70q-8 0 -8 -7q-2 -10 1 -13q9 -9 9 -12.5t-12 -14.5l-65 -42v166q0 41 -10.5 50t-39.5 3q-41 -8 -67 -24
q-5 -3 -5 -9.5t4 -11.5q2 -1 11.5 -5t15 -11.5t5.5 -20.5v-221q1 -12 -16 -29.5t-18 -19.5v-10q0 -8 8 -8h137q8 0 8 8v4q0 6 -16.5 23.5t-16.5 30.5v58l11 7l43 -84q25 -48 64 -48q25 0 44 13.5t20 26.5z" />
    <glyph glyph-name="Odieresis" unicode="&#xd6;" horiz-adv-x="773" 
d="M35 490h703v-490h-703v490zM381 98q0 7 -7 5q-6 -2 -12 0.5t-11.5 9t-10.5 13.5t-10.5 17t-8.5 16.5t-7.5 16t-5.5 12.5q-18 33 -56 31q9 6 24 15.5t18 11.5q12 8 23 14.5t16.5 9t9.5 5.5t5.5 5t1.5 6v5q0 8 -8 8h-68q-9 0 -9 -7q-1 -10 1 -13q8 -9 8 -13.5t-12 -13.5
l-65 -42q0 36 0.5 97.5t0.5 68.5q0 41 -10.5 50t-39.5 3q-41 -8 -68 -24q-12 -7 0 -21q2 -1 11.5 -5t15 -11.5t5.5 -20.5v-221q0 -12 -17 -29.5t-18 -19.5v-10q0 -8 8 -8h138q7 0 7 8v4q0 6 -16.5 23.5t-16.5 30.5v58l11 7l43 -84q25 -48 64 -48q26 0 45 13.5t21 26.5z
M697 98q0 3 -1.5 4.5t-3.5 0.5q-8 -2 -16.5 3t-17 18t-13.5 21t-13 25l-7 18q-18 33 -56 31q34 21 42 27q12 8 23 14.5t16.5 9t9.5 5.5t5.5 5t1.5 6v5q0 8 -7 8h-70q-8 0 -8 -7q-2 -10 1 -13q9 -9 9 -12.5t-12 -14.5l-65 -42v166q0 41 -10.5 50t-39.5 3q-41 -8 -67 -24
q-5 -3 -5 -9.5t4 -11.5q2 -1 11.5 -5t15 -11.5t5.5 -20.5v-221q1 -12 -16 -29.5t-18 -19.5v-10q0 -8 8 -8h137q8 0 8 8v4q0 6 -16.5 23.5t-16.5 30.5v58l11 7l43 -84q25 -48 64 -48q25 0 44 13.5t20 26.5z" />
    <glyph glyph-name="multiply" unicode="&#xd7;" horiz-adv-x="505" 
d="M50 490h703v-490h-703v490zM396 98q0 5 -7 5q-6 -2 -12 0.5t-11.5 9t-10.5 13.5t-10.5 17t-8.5 16.5t-7.5 16t-5.5 12.5q-18 33 -56 31q9 6 24 15.5t18 11.5q12 8 23 14.5t16.5 9t9.5 5.5t5.5 5t1.5 6v5q0 8 -8 8h-68q-9 0 -9 -7q-1 -10 1 -13q9 -9 9 -13.5t-13 -13.5
l-65 -42q0 36 0.5 97.5t0.5 68.5q0 41 -10.5 50t-39.5 3q-41 -8 -68 -24q-12 -7 0 -21q2 -1 11.5 -5t15 -11.5t5.5 -20.5v-221q0 -12 -17 -29.5t-18 -19.5v-10q0 -8 8 -8h138q7 0 7 8v4q0 6 -16.5 23.5t-16.5 30.5v58l11 7l43 -84q25 -48 64 -48q26 0 45 13.5t21 26.5z
M712 98q0 5 -5 5q-8 -2 -16.5 3t-17 18t-13.5 21t-12 25l-8 18q-18 33 -56 31q34 21 42 27q12 8 23 14.5t16.5 9t9.5 5.5t5.5 5t1.5 6v5q0 8 -7 8h-70q-8 0 -8 -7q-2 -10 1 -13q9 -9 9 -12.5t-12 -14.5l-65 -42v166q0 41 -10.5 50t-39.5 3q-41 -8 -67 -24q-5 -3 -5 -9.5
t4 -11.5q2 -1 11.5 -5t15 -11.5t5.5 -20.5v-221q1 -12 -16 -29.5t-18 -19.5v-10q0 -8 8 -8h137q8 0 8 8v4q0 6 -16.5 23.5t-16.5 30.5v58l11 7l43 -84q25 -48 64 -48q25 0 44 13.5t20 26.5z" />
    <glyph glyph-name="Oslash" unicode="&#xd8;" horiz-adv-x="773" 
d="M35 490h703v-490h-703v490zM381 98q0 5 -7 5q-6 -2 -12 0.5t-11.5 9t-10.5 13.5t-10.5 17t-8.5 16.5t-7.5 16t-5.5 12.5q-18 33 -56 31q9 6 24 15.5t18 11.5q12 8 23 14.5t16.5 9t9.5 5.5t5.5 5t1.5 6v5q0 8 -8 8h-68q-9 0 -9 -7q-1 -10 1 -13q8 -9 8 -13.5t-12 -13.5
l-65 -42q0 36 0.5 97.5t0.5 68.5q0 41 -10.5 50t-39.5 3q-41 -8 -68 -24q-12 -7 0 -21q2 -1 11.5 -5t15 -11.5t5.5 -20.5v-221q0 -12 -17 -29.5t-18 -19.5v-10q0 -8 8 -8h138q7 0 7 8v4q0 6 -16.5 23.5t-16.5 30.5v58l11 7l43 -84q25 -48 64 -48q26 0 45 13.5t21 26.5z
M697 98q0 5 -5 5q-8 -2 -16.5 3t-17 18t-13.5 21t-13 25l-7 18q-18 33 -56 31q34 21 42 27q12 8 23 14.5t16.5 9t9.5 5.5t5.5 5t1.5 6v5q0 8 -7 8h-70q-8 0 -8 -7q-2 -10 1 -13q9 -9 9 -12.5t-12 -14.5l-65 -42v166q0 41 -10.5 50t-39.5 3q-41 -8 -67 -24q-5 -3 -5 -9.5
t4 -11.5q2 -1 11.5 -5t15 -11.5t5.5 -20.5v-221q1 -12 -16 -29.5t-18 -19.5v-10q0 -8 8 -8h137q8 0 8 8v4q0 6 -16.5 23.5t-16.5 30.5v58l11 7l43 -84q25 -48 64 -48q25 0 44 13.5t20 26.5z" />
    <glyph glyph-name="Ugrave" unicode="&#xd9;" horiz-adv-x="748" 
d="M20 490h703v-490h-703v490zM366 98q0 7 -7 5q-6 -2 -12 0.5t-11.5 9t-10.5 13.5t-10.5 17t-8.5 16.5t-7.5 16t-5.5 12.5q-18 33 -56 31q9 6 24 15.5t18 11.5q12 8 23 14.5t16.5 9t9.5 5.5t5.5 5t1.5 6v5q0 8 -8 8h-68q-9 0 -9 -7q-1 -10 1 -13q9 -9 9 -13.5t-13 -13.5
l-65 -42q0 36 0.5 97.5t0.5 68.5q0 41 -10.5 50t-39.5 3q-41 -8 -68 -24q-12 -7 0 -21q2 -1 11.5 -5t15 -11.5t5.5 -20.5v-221q0 -12 -17 -29.5t-18 -19.5v-10q0 -8 8 -8h138q7 0 7 8v4q0 6 -16.5 23.5t-16.5 30.5v58l11 7l43 -84q25 -48 64 -48q26 0 45 13.5t21 26.5z
M682 98q0 3 -1.5 4.5t-3.5 0.5q-8 -2 -16.5 3t-17 18t-13.5 21t-12 25l-8 18q-18 33 -56 31q34 21 42 27q12 8 23 14.5t16.5 9t9.5 5.5t5.5 5t1.5 6v5q0 8 -7 8h-70q-8 0 -8 -7q-2 -10 1 -13q9 -9 9 -12.5t-12 -14.5l-65 -42v166q0 41 -10.5 50t-39.5 3q-41 -8 -67 -24
q-5 -3 -5 -9.5t4 -11.5q2 -1 11.5 -5t15 -11.5t5.5 -20.5v-221q1 -12 -16 -29.5t-18 -19.5v-10q0 -8 8 -8h137q8 0 8 8v4q0 6 -16.5 23.5t-16.5 30.5v58l11 7l43 -84q25 -48 64 -48q25 0 44 13.5t20 26.5z" />
    <glyph glyph-name="Uacute" unicode="&#xda;" horiz-adv-x="748" 
d="M20 490h703v-490h-703v490zM366 98q0 7 -7 5q-6 -2 -12 0.5t-11.5 9t-10.5 13.5t-10.5 17t-8.5 16.5t-7.5 16t-5.5 12.5q-18 33 -56 31q9 6 24 15.5t18 11.5q12 8 23 14.5t16.5 9t9.5 5.5t5.5 5t1.5 6v5q0 8 -8 8h-68q-9 0 -9 -7q-1 -10 1 -13q9 -9 9 -13.5t-13 -13.5
l-65 -42q0 36 0.5 97.5t0.5 68.5q0 41 -10.5 50t-39.5 3q-41 -8 -68 -24q-12 -7 0 -21q2 -1 11.5 -5t15 -11.5t5.5 -20.5v-221q0 -12 -17 -29.5t-18 -19.5v-10q0 -8 8 -8h138q7 0 7 8v4q0 6 -16.5 23.5t-16.5 30.5v58l11 7l43 -84q25 -48 64 -48q26 0 45 13.5t21 26.5z
M682 98q0 3 -1.5 4.5t-3.5 0.5q-8 -2 -16.5 3t-17 18t-13.5 21t-12 25l-8 18q-18 33 -56 31q34 21 42 27q12 8 23 14.5t16.5 9t9.5 5.5t5.5 5t1.5 6v5q0 8 -7 8h-70q-8 0 -8 -7q-2 -10 1 -13q9 -9 9 -12.5t-12 -14.5l-65 -42v166q0 41 -10.5 50t-39.5 3q-41 -8 -67 -24
q-5 -3 -5 -9.5t4 -11.5q2 -1 11.5 -5t15 -11.5t5.5 -20.5v-221q1 -12 -16 -29.5t-18 -19.5v-10q0 -8 8 -8h137q8 0 8 8v4q0 6 -16.5 23.5t-16.5 30.5v58l11 7l43 -84q25 -48 64 -48q25 0 44 13.5t20 26.5z" />
    <glyph glyph-name="Ucircumflex" unicode="&#xdb;" horiz-adv-x="748" 
d="M20 490h703v-490h-703v490zM366 98q0 7 -7 5q-6 -2 -12 0.5t-11.5 9t-10.5 13.5t-10.5 17t-8.5 16.5t-7.5 16t-5.5 12.5q-18 33 -56 31q9 6 24 15.5t18 11.5q12 8 23 14.5t16.5 9t9.5 5.5t5.5 5t1.5 6v5q0 8 -8 8h-68q-9 0 -9 -7q-1 -10 1 -13q9 -9 9 -13.5t-13 -13.5
l-65 -42q0 36 0.5 97.5t0.5 68.5q0 41 -10.5 50t-39.5 3q-41 -8 -68 -24q-12 -7 0 -21q2 -1 11.5 -5t15 -11.5t5.5 -20.5v-221q0 -12 -17 -29.5t-18 -19.5v-10q0 -8 8 -8h138q7 0 7 8v4q0 6 -16.5 23.5t-16.5 30.5v58l11 7l43 -84q25 -48 64 -48q26 0 45 13.5t21 26.5z
M682 98q0 3 -1.5 4.5t-3.5 0.5q-8 -2 -16.5 3t-17 18t-13.5 21t-12 25l-8 18q-18 33 -56 31q34 21 42 27q12 8 23 14.5t16.5 9t9.5 5.5t5.5 5t1.5 6v5q0 8 -7 8h-70q-8 0 -8 -7q-2 -10 1 -13q9 -9 9 -12.5t-12 -14.5l-65 -42v166q0 41 -10.5 50t-39.5 3q-41 -8 -67 -24
q-5 -3 -5 -9.5t4 -11.5q2 -1 11.5 -5t15 -11.5t5.5 -20.5v-221q1 -12 -16 -29.5t-18 -19.5v-10q0 -8 8 -8h137q8 0 8 8v4q0 6 -16.5 23.5t-16.5 30.5v58l11 7l43 -84q25 -48 64 -48q25 0 44 13.5t20 26.5z" />
    <glyph glyph-name="Udieresis" unicode="&#xdc;" horiz-adv-x="748" 
d="M20 490h703v-490h-703v490zM366 98q0 5 -7 5q-6 -2 -12 0.5t-11.5 9t-10.5 13.5t-10.5 17t-8.5 16.5t-7.5 16t-5.5 12.5q-18 33 -56 31q9 6 24 15.5t18 11.5q12 8 23 14.5t16.5 9t9.5 5.5t5.5 5t1.5 6v5q0 8 -8 8h-68q-9 0 -9 -7q-1 -10 1 -13q9 -9 9 -13.5t-13 -13.5
l-65 -42q0 36 0.5 97.5t0.5 68.5q0 41 -10.5 50t-39.5 3q-41 -8 -68 -24q-12 -7 0 -21q2 -1 11.5 -5t15 -11.5t5.5 -20.5v-221q0 -12 -17 -29.5t-18 -19.5v-10q0 -8 8 -8h138q7 0 7 8v4q0 6 -16.5 23.5t-16.5 30.5v58l11 7l43 -84q25 -48 64 -48q26 0 45 13.5t21 26.5z
M682 98q0 5 -5 5q-8 -2 -16.5 3t-17 18t-13.5 21t-12 25l-8 18q-18 33 -56 31q34 21 42 27q12 8 23 14.5t16.5 9t9.5 5.5t5.5 5t1.5 6v5q0 8 -7 8h-70q-8 0 -8 -7q-2 -10 1 -13q9 -9 9 -12.5t-12 -14.5l-65 -42v166q0 41 -10.5 50t-39.5 3q-41 -8 -67 -24q-5 -3 -5 -9.5
t4 -11.5q2 -1 11.5 -5t15 -11.5t5.5 -20.5v-221q1 -12 -16 -29.5t-18 -19.5v-10q0 -8 8 -8h137q8 0 8 8v4q0 6 -16.5 23.5t-16.5 30.5v58l11 7l43 -84q25 -48 64 -48q25 0 44 13.5t20 26.5z" />
    <glyph glyph-name="Yacute" unicode="&#xdd;" horiz-adv-x="693" 
d="M0 490h703v-490h-703v490zM346 98q0 5 -7 5q-6 -2 -12 0.5t-11.5 9t-10.5 13.5t-10.5 17t-8.5 16.5t-7.5 16t-5.5 12.5q-18 33 -56 31q9 6 24 15.5t18 11.5q12 8 23 14.5t16.5 9t9.5 5.5t5.5 5t1.5 6v5q0 8 -8 8h-68q-9 0 -9 -7q-1 -10 1 -13q9 -9 9 -13.5t-13 -13.5
l-65 -42q0 36 0.5 97.5t0.5 68.5q0 41 -10.5 50t-39.5 3q-41 -8 -68 -24q-12 -7 0 -21q2 -1 11.5 -5t15 -11.5t5.5 -20.5v-221q0 -12 -17 -29.5t-18 -19.5v-10q0 -8 8 -8h138q7 0 7 8v4q0 6 -16.5 23.5t-16.5 30.5v58l11 7l43 -84q25 -48 64 -48q26 0 45 13.5t21 26.5z
M662 98q0 5 -5 5q-8 -2 -16.5 3t-17 18t-13.5 21t-12 25l-8 18q-18 33 -56 31q34 21 42 27q12 8 23 14.5t16.5 9t9.5 5.5t5.5 5t1.5 6v5q0 8 -7 8h-70q-8 0 -8 -7q-2 -10 1 -13q9 -9 9 -12.5t-12 -14.5l-65 -42v166q0 41 -10.5 50t-39.5 3q-41 -8 -67 -24q-5 -3 -5 -9.5
t4 -11.5q2 -1 11.5 -5t15 -11.5t5.5 -20.5v-221q1 -12 -16 -29.5t-18 -19.5v-10q0 -8 8 -8h137q8 0 8 8v4q0 6 -16.5 23.5t-16.5 30.5v58l11 7l43 -84q25 -48 64 -48q25 0 44 13.5t20 26.5z" />
    <glyph glyph-name="germandbls" unicode="&#xdf;" horiz-adv-x="744" 
d="M30 490h703v-490h-703v490zM376 98q0 7 -7 5q-6 -2 -12 0.5t-11.5 9t-10.5 13.5t-10.5 17t-8.5 16.5t-7.5 16t-5.5 12.5q-18 33 -56 31q9 6 24 15.5t18 11.5q12 8 23 14.5t16.5 9t9.5 5.5t5.5 5t1.5 6v5q0 8 -8 8h-68q-9 0 -9 -7q-1 -10 1 -13q9 -9 9 -13.5t-13 -13.5
l-65 -42q0 36 0.5 97.5t0.5 68.5q0 41 -10.5 50t-39.5 3q-41 -8 -68 -24q-12 -7 0 -21q2 -1 11.5 -5t15 -11.5t5.5 -20.5v-221q0 -12 -17 -29.5t-18 -19.5v-10q0 -8 8 -8h138q7 0 7 8v4q0 6 -16.5 23.5t-16.5 30.5v58l11 7l43 -84q25 -48 64 -48q26 0 45 13.5t21 26.5z
M692 98q0 3 -1.5 4.5t-3.5 0.5q-8 -2 -16.5 3t-17 18t-13.5 21t-12 25l-8 18q-18 33 -56 31q34 21 42 27q12 8 23 14.5t16.5 9t9.5 5.5t5.5 5t1.5 6v5q0 8 -7 8h-70q-8 0 -8 -7q-2 -10 1 -13q9 -9 9 -12.5t-12 -14.5l-65 -42v166q0 41 -10.5 50t-39.5 3q-41 -8 -67 -24
q-5 -3 -5 -9.5t4 -11.5q2 -1 11.5 -5t15 -11.5t5.5 -20.5v-221q1 -12 -16 -29.5t-18 -19.5v-10q0 -8 8 -8h137q8 0 8 8v4q0 6 -16.5 23.5t-16.5 30.5v58l11 7l43 -84q25 -48 64 -48q25 0 44 13.5t20 26.5z" />
    <glyph glyph-name="agrave" unicode="&#xe0;" horiz-adv-x="729" 
d="M31 490h703v-490h-703v490zM377 98q0 5 -7 5q-6 -2 -12 0.5t-11.5 9t-10.5 13.5t-10.5 17t-8.5 16.5t-7.5 16t-5.5 12.5q-18 33 -56 31q9 6 24 15.5t18 11.5q12 8 23 14.5t16.5 9t9.5 5.5t5.5 5t1.5 6v5q0 8 -8 8h-68q-9 0 -9 -7q-1 -10 1 -13q8 -9 8 -13.5t-12 -13.5
l-65 -42q0 36 0.5 97.5t0.5 68.5q0 41 -10.5 50t-39.5 3q-41 -8 -68 -24q-12 -7 0 -21q2 -1 11.5 -5t15 -11.5t5.5 -20.5v-221q0 -12 -17 -29.5t-18 -19.5v-10q0 -8 8 -8h138q7 0 7 8v4q0 6 -16.5 23.5t-16.5 30.5v58l11 7l43 -84q25 -48 64 -48q26 0 45 13.5t21 26.5z
M693 98q0 5 -5 5q-8 -2 -16.5 3t-17 18t-13.5 21t-13 25l-7 18q-18 33 -56 31q34 21 42 27q12 8 23 14.5t16.5 9t9.5 5.5t5.5 5t1.5 6v5q0 8 -7 8h-70q-8 0 -8 -7q-2 -10 1 -13q9 -9 9 -12.5t-12 -14.5l-65 -42v166q0 41 -10.5 50t-39.5 3q-41 -8 -67 -24q-5 -3 -5 -9.5
t4 -11.5q2 -1 11.5 -5t15 -11.5t5.5 -20.5v-221q1 -12 -16 -29.5t-18 -19.5v-10q0 -8 8 -8h137q8 0 8 8v4q0 6 -16.5 23.5t-16.5 30.5v58l11 7l43 -84q25 -48 64 -48q25 0 44 13.5t20 26.5z" />
    <glyph glyph-name="aacute" unicode="&#xe1;" horiz-adv-x="729" 
d="M31 490h703v-490h-703v490zM377 98q0 5 -7 5q-6 -2 -12 0.5t-11.5 9t-10.5 13.5t-10.5 17t-8.5 16.5t-7.5 16t-5.5 12.5q-18 33 -56 31q9 6 24 15.5t18 11.5q12 8 23 14.5t16.5 9t9.5 5.5t5.5 5t1.5 6v5q0 8 -8 8h-68q-9 0 -9 -7q-1 -10 1 -13q8 -9 8 -13.5t-12 -13.5
l-65 -42q0 36 0.5 97.5t0.5 68.5q0 41 -10.5 50t-39.5 3q-41 -8 -68 -24q-12 -7 0 -21q2 -1 11.5 -5t15 -11.5t5.5 -20.5v-221q0 -12 -17 -29.5t-18 -19.5v-10q0 -8 8 -8h138q7 0 7 8v4q0 6 -16.5 23.5t-16.5 30.5v58l11 7l43 -84q25 -48 64 -48q26 0 45 13.5t21 26.5z
M693 98q0 5 -5 5q-8 -2 -16.5 3t-17 18t-13.5 21t-13 25l-7 18q-18 33 -56 31q34 21 42 27q12 8 23 14.5t16.5 9t9.5 5.5t5.5 5t1.5 6v5q0 8 -7 8h-70q-8 0 -8 -7q-2 -10 1 -13q9 -9 9 -12.5t-12 -14.5l-65 -42v166q0 41 -10.5 50t-39.5 3q-41 -8 -67 -24q-5 -3 -5 -9.5
t4 -11.5q2 -1 11.5 -5t15 -11.5t5.5 -20.5v-221q1 -12 -16 -29.5t-18 -19.5v-10q0 -8 8 -8h137q8 0 8 8v4q0 6 -16.5 23.5t-16.5 30.5v58l11 7l43 -84q25 -48 64 -48q25 0 44 13.5t20 26.5z" />
    <glyph glyph-name="acircumflex" unicode="&#xe2;" horiz-adv-x="729" 
d="M31 490h703v-490h-703v490zM377 98q0 5 -7 5q-6 -2 -12 0.5t-11.5 9t-10.5 13.5t-10.5 17t-8.5 16.5t-7.5 16t-5.5 12.5q-18 33 -56 31q9 6 24 15.5t18 11.5q12 8 23 14.5t16.5 9t9.5 5.5t5.5 5t1.5 6v5q0 8 -8 8h-68q-9 0 -9 -7q-1 -10 1 -13q8 -9 8 -13.5t-12 -13.5
l-65 -42q0 36 0.5 97.5t0.5 68.5q0 41 -10.5 50t-39.5 3q-41 -8 -68 -24q-12 -7 0 -21q2 -1 11.5 -5t15 -11.5t5.5 -20.5v-221q0 -12 -17 -29.5t-18 -19.5v-10q0 -8 8 -8h138q7 0 7 8v4q0 6 -16.5 23.5t-16.5 30.5v58l11 7l43 -84q25 -48 64 -48q26 0 45 13.5t21 26.5z
M693 98q0 5 -5 5q-8 -2 -16.5 3t-17 18t-13.5 21t-13 25l-7 18q-18 33 -56 31q34 21 42 27q12 8 23 14.5t16.5 9t9.5 5.5t5.5 5t1.5 6v5q0 8 -7 8h-70q-8 0 -8 -7q-2 -10 1 -13q9 -9 9 -12.5t-12 -14.5l-65 -42v166q0 41 -10.5 50t-39.5 3q-41 -8 -67 -24q-5 -3 -5 -9.5
t4 -11.5q2 -1 11.5 -5t15 -11.5t5.5 -20.5v-221q1 -12 -16 -29.5t-18 -19.5v-10q0 -8 8 -8h137q8 0 8 8v4q0 6 -16.5 23.5t-16.5 30.5v58l11 7l43 -84q25 -48 64 -48q25 0 44 13.5t20 26.5z" />
    <glyph glyph-name="atilde" unicode="&#xe3;" horiz-adv-x="729" 
d="M31 490h703v-490h-703v490zM377 98q0 7 -7 5q-6 -2 -12 0.5t-11.5 9t-10.5 13.5t-10.5 17t-8.5 16.5t-7.5 16t-5.5 12.5q-18 33 -56 31q9 6 24 15.5t18 11.5q12 8 23 14.5t16.5 9t9.5 5.5t5.5 5t1.5 6v5q0 8 -8 8h-68q-9 0 -9 -7q-1 -10 1 -13q8 -9 8 -13.5t-12 -13.5
l-65 -42q0 36 0.5 97.5t0.5 68.5q0 41 -10.5 50t-39.5 3q-41 -8 -68 -24q-12 -7 0 -21q2 -1 11.5 -5t15 -11.5t5.5 -20.5v-221q0 -12 -17 -29.5t-18 -19.5v-10q0 -8 8 -8h138q7 0 7 8v4q0 6 -16.5 23.5t-16.5 30.5v58l11 7l43 -84q25 -48 64 -48q26 0 45 13.5t21 26.5z
M693 98q0 3 -1.5 4.5t-3.5 0.5q-8 -2 -16.5 3t-17 18t-13.5 21t-13 25l-7 18q-18 33 -56 31q34 21 42 27q12 8 23 14.5t16.5 9t9.5 5.5t5.5 5t1.5 6v5q0 8 -7 8h-70q-8 0 -8 -7q-2 -10 1 -13q9 -9 9 -12.5t-12 -14.5l-65 -42v166q0 41 -10.5 50t-39.5 3q-41 -8 -67 -24
q-5 -3 -5 -9.5t4 -11.5q2 -1 11.5 -5t15 -11.5t5.5 -20.5v-221q1 -12 -16 -29.5t-18 -19.5v-10q0 -8 8 -8h137q8 0 8 8v4q0 6 -16.5 23.5t-16.5 30.5v58l11 7l43 -84q25 -48 64 -48q25 0 44 13.5t20 26.5z" />
    <glyph glyph-name="adieresis" unicode="&#xe4;" horiz-adv-x="729" 
d="M31 490h703v-490h-703v490zM377 98q0 7 -7 5q-6 -2 -12 0.5t-11.5 9t-10.5 13.5t-10.5 17t-8.5 16.5t-7.5 16t-5.5 12.5q-18 33 -56 31q9 6 24 15.5t18 11.5q12 8 23 14.5t16.5 9t9.5 5.5t5.5 5t1.5 6v5q0 8 -8 8h-68q-9 0 -9 -7q-1 -10 1 -13q8 -9 8 -13.5t-12 -13.5
l-65 -42q0 36 0.5 97.5t0.5 68.5q0 41 -10.5 50t-39.5 3q-41 -8 -68 -24q-12 -7 0 -21q2 -1 11.5 -5t15 -11.5t5.5 -20.5v-221q0 -12 -17 -29.5t-18 -19.5v-10q0 -8 8 -8h138q7 0 7 8v4q0 6 -16.5 23.5t-16.5 30.5v58l11 7l43 -84q25 -48 64 -48q26 0 45 13.5t21 26.5z
M693 98q0 3 -1.5 4.5t-3.5 0.5q-8 -2 -16.5 3t-17 18t-13.5 21t-13 25l-7 18q-18 33 -56 31q34 21 42 27q12 8 23 14.5t16.5 9t9.5 5.5t5.5 5t1.5 6v5q0 8 -7 8h-70q-8 0 -8 -7q-2 -10 1 -13q9 -9 9 -12.5t-12 -14.5l-65 -42v166q0 41 -10.5 50t-39.5 3q-41 -8 -67 -24
q-5 -3 -5 -9.5t4 -11.5q2 -1 11.5 -5t15 -11.5t5.5 -20.5v-221q1 -12 -16 -29.5t-18 -19.5v-10q0 -8 8 -8h137q8 0 8 8v4q0 6 -16.5 23.5t-16.5 30.5v58l11 7l43 -84q25 -48 64 -48q25 0 44 13.5t20 26.5z" />
    <glyph glyph-name="aring" unicode="&#xe5;" horiz-adv-x="729" 
d="M31 490h703v-490h-703v490zM377 98q0 7 -7 5q-6 -2 -12 0.5t-11.5 9t-10.5 13.5t-10.5 17t-8.5 16.5t-7.5 16t-5.5 12.5q-18 33 -56 31q9 6 24 15.5t18 11.5q12 8 23 14.5t16.5 9t9.5 5.5t5.5 5t1.5 6v5q0 8 -8 8h-68q-9 0 -9 -7q-1 -10 1 -13q8 -9 8 -13.5t-12 -13.5
l-65 -42q0 36 0.5 97.5t0.5 68.5q0 41 -10.5 50t-39.5 3q-41 -8 -68 -24q-12 -7 0 -21q2 -1 11.5 -5t15 -11.5t5.5 -20.5v-221q0 -12 -17 -29.5t-18 -19.5v-10q0 -8 8 -8h138q7 0 7 8v4q0 6 -16.5 23.5t-16.5 30.5v58l11 7l43 -84q25 -48 64 -48q26 0 45 13.5t21 26.5z
M693 98q0 3 -1.5 4.5t-3.5 0.5q-8 -2 -16.5 3t-17 18t-13.5 21t-13 25l-7 18q-18 33 -56 31q34 21 42 27q12 8 23 14.5t16.5 9t9.5 5.5t5.5 5t1.5 6v5q0 8 -7 8h-70q-8 0 -8 -7q-2 -10 1 -13q9 -9 9 -12.5t-12 -14.5l-65 -42v166q0 41 -10.5 50t-39.5 3q-41 -8 -67 -24
q-5 -3 -5 -9.5t4 -11.5q2 -1 11.5 -5t15 -11.5t5.5 -20.5v-221q1 -12 -16 -29.5t-18 -19.5v-10q0 -8 8 -8h137q8 0 8 8v4q0 6 -16.5 23.5t-16.5 30.5v58l11 7l43 -84q25 -48 64 -48q25 0 44 13.5t20 26.5z" />
    <glyph glyph-name="ae" unicode="&#xe6;" horiz-adv-x="753" 
d="M31 490h703v-490h-703v490zM377 98q0 5 -7 5q-6 -2 -12 0.5t-11.5 9t-10.5 13.5t-10.5 17t-8.5 16.5t-7.5 16t-5.5 12.5q-18 33 -56 31q9 6 24 15.5t18 11.5q12 8 23 14.5t16.5 9t9.5 5.5t5.5 5t1.5 6v5q0 8 -8 8h-68q-9 0 -9 -7q-1 -10 1 -13q8 -9 8 -13.5t-12 -13.5
l-65 -42q0 36 0.5 97.5t0.5 68.5q0 41 -10.5 50t-39.5 3q-41 -8 -68 -24q-12 -7 0 -21q2 -1 11.5 -5t15 -11.5t5.5 -20.5v-221q0 -12 -17 -29.5t-18 -19.5v-10q0 -8 8 -8h138q7 0 7 8v4q0 6 -16.5 23.5t-16.5 30.5v58l11 7l43 -84q25 -48 64 -48q26 0 45 13.5t21 26.5z
M693 98q0 5 -5 5q-8 -2 -16.5 3t-17 18t-13.5 21t-13 25l-7 18q-18 33 -56 31q34 21 42 27q12 8 23 14.5t16.5 9t9.5 5.5t5.5 5t1.5 6v5q0 8 -7 8h-70q-8 0 -8 -7q-2 -10 1 -13q9 -9 9 -12.5t-12 -14.5l-65 -42v166q0 41 -10.5 50t-39.5 3q-41 -8 -67 -24q-5 -3 -5 -9.5
t4 -11.5q2 -1 11.5 -5t15 -11.5t5.5 -20.5v-221q1 -12 -16 -29.5t-18 -19.5v-10q0 -8 8 -8h137q8 0 8 8v4q0 6 -16.5 23.5t-16.5 30.5v58l11 7l43 -84q25 -48 64 -48q25 0 44 13.5t20 26.5z" />
    <glyph glyph-name="ccedilla" unicode="&#xe7;" horiz-adv-x="753" 
d="M31 490h703v-490h-703v490zM377 98q0 5 -7 5q-6 -2 -12 0.5t-11.5 9t-10.5 13.5t-10.5 17t-8.5 16.5t-7.5 16t-5.5 12.5q-18 33 -56 31q9 6 24 15.5t18 11.5q12 8 23 14.5t16.5 9t9.5 5.5t5.5 5t1.5 6v5q0 8 -8 8h-68q-9 0 -9 -7q-1 -10 1 -13q8 -9 8 -13.5t-12 -13.5
l-65 -42q0 36 0.5 97.5t0.5 68.5q0 41 -10.5 50t-39.5 3q-41 -8 -68 -24q-12 -7 0 -21q2 -1 11.5 -5t15 -11.5t5.5 -20.5v-221q0 -12 -17 -29.5t-18 -19.5v-10q0 -8 8 -8h138q7 0 7 8v4q0 6 -16.5 23.5t-16.5 30.5v58l11 7l43 -84q25 -48 64 -48q26 0 45 13.5t21 26.5z
M693 98q0 5 -5 5q-8 -2 -16.5 3t-17 18t-13.5 21t-13 25l-7 18q-18 33 -56 31q34 21 42 27q12 8 23 14.5t16.5 9t9.5 5.5t5.5 5t1.5 6v5q0 8 -7 8h-70q-8 0 -8 -7q-2 -10 1 -13q9 -9 9 -12.5t-12 -14.5l-65 -42v166q0 41 -10.5 50t-39.5 3q-41 -8 -67 -24q-5 -3 -5 -9.5
t4 -11.5q2 -1 11.5 -5t15 -11.5t5.5 -20.5v-221q1 -12 -16 -29.5t-18 -19.5v-10q0 -8 8 -8h137q8 0 8 8v4q0 6 -16.5 23.5t-16.5 30.5v58l11 7l43 -84q25 -48 64 -48q25 0 44 13.5t20 26.5z" />
    <glyph glyph-name="egrave" unicode="&#xe8;" horiz-adv-x="753" 
d="M31 490h703v-490h-703v490zM377 98q0 5 -7 5q-6 -2 -12 0.5t-11.5 9t-10.5 13.5t-10.5 17t-8.5 16.5t-7.5 16t-5.5 12.5q-18 33 -56 31q9 6 24 15.5t18 11.5q12 8 23 14.5t16.5 9t9.5 5.5t5.5 5t1.5 6v5q0 8 -8 8h-68q-9 0 -9 -7q-1 -10 1 -13q8 -9 8 -13.5t-12 -13.5
l-65 -42q0 36 0.5 97.5t0.5 68.5q0 41 -10.5 50t-39.5 3q-41 -8 -68 -24q-12 -7 0 -21q2 -1 11.5 -5t15 -11.5t5.5 -20.5v-221q0 -12 -17 -29.5t-18 -19.5v-10q0 -8 8 -8h138q7 0 7 8v4q0 6 -16.5 23.5t-16.5 30.5v58l11 7l43 -84q25 -48 64 -48q26 0 45 13.5t21 26.5z
M693 98q0 5 -5 5q-8 -2 -16.5 3t-17 18t-13.5 21t-13 25l-7 18q-18 33 -56 31q34 21 42 27q12 8 23 14.5t16.5 9t9.5 5.5t5.5 5t1.5 6v5q0 8 -7 8h-70q-8 0 -8 -7q-2 -10 1 -13q9 -9 9 -12.5t-12 -14.5l-65 -42v166q0 41 -10.5 50t-39.5 3q-41 -8 -67 -24q-5 -3 -5 -9.5
t4 -11.5q2 -1 11.5 -5t15 -11.5t5.5 -20.5v-221q1 -12 -16 -29.5t-18 -19.5v-10q0 -8 8 -8h137q8 0 8 8v4q0 6 -16.5 23.5t-16.5 30.5v58l11 7l43 -84q25 -48 64 -48q25 0 44 13.5t20 26.5z" />
    <glyph glyph-name="eacute" unicode="&#xe9;" horiz-adv-x="753" 
d="M31 490h703v-490h-703v490zM377 98q0 7 -7 5q-6 -2 -12 0.5t-11.5 9t-10.5 13.5t-10.5 17t-8.5 16.5t-7.5 16t-5.5 12.5q-18 33 -56 31q9 6 24 15.5t18 11.5q12 8 23 14.5t16.5 9t9.5 5.5t5.5 5t1.5 6v5q0 8 -8 8h-68q-9 0 -9 -7q-1 -10 1 -13q8 -9 8 -13.5t-12 -13.5
l-65 -42q0 36 0.5 97.5t0.5 68.5q0 41 -10.5 50t-39.5 3q-41 -8 -68 -24q-12 -7 0 -21q2 -1 11.5 -5t15 -11.5t5.5 -20.5v-221q0 -12 -17 -29.5t-18 -19.5v-10q0 -8 8 -8h138q7 0 7 8v4q0 6 -16.5 23.5t-16.5 30.5v58l11 7l43 -84q25 -48 64 -48q26 0 45 13.5t21 26.5z
M693 98q0 3 -1.5 4.5t-3.5 0.5q-8 -2 -16.5 3t-17 18t-13.5 21t-13 25l-7 18q-18 33 -56 31q34 21 42 27q12 8 23 14.5t16.5 9t9.5 5.5t5.5 5t1.5 6v5q0 8 -7 8h-70q-8 0 -8 -7q-2 -10 1 -13q9 -9 9 -12.5t-12 -14.5l-65 -42v166q0 41 -10.5 50t-39.5 3q-41 -8 -67 -24
q-5 -3 -5 -9.5t4 -11.5q2 -1 11.5 -5t15 -11.5t5.5 -20.5v-221q1 -12 -16 -29.5t-18 -19.5v-10q0 -8 8 -8h137q8 0 8 8v4q0 6 -16.5 23.5t-16.5 30.5v58l11 7l43 -84q25 -48 64 -48q25 0 44 13.5t20 26.5z" />
    <glyph glyph-name="ecircumflex" unicode="&#xea;" horiz-adv-x="753" 
d="M31 490h703v-490h-703v490zM377 98q0 5 -7 5q-6 -2 -12 0.5t-11.5 9t-10.5 13.5t-10.5 17t-8.5 16.5t-7.5 16t-5.5 12.5q-18 33 -56 31q9 6 24 15.5t18 11.5q12 8 23 14.5t16.5 9t9.5 5.5t5.5 5t1.5 6v5q0 8 -8 8h-68q-9 0 -9 -7q-1 -10 1 -13q8 -9 8 -13.5t-12 -13.5
l-65 -42q0 36 0.5 97.5t0.5 68.5q0 41 -10.5 50t-39.5 3q-41 -8 -68 -24q-12 -7 0 -21q2 -1 11.5 -5t15 -11.5t5.5 -20.5v-221q0 -12 -17 -29.5t-18 -19.5v-10q0 -8 8 -8h138q7 0 7 8v4q0 6 -16.5 23.5t-16.5 30.5v58l11 7l43 -84q25 -48 64 -48q26 0 45 13.5t21 26.5z
M693 98q0 5 -5 5q-8 -2 -16.5 3t-17 18t-13.5 21t-13 25l-7 18q-18 33 -56 31q34 21 42 27q12 8 23 14.5t16.5 9t9.5 5.5t5.5 5t1.5 6v5q0 8 -7 8h-70q-8 0 -8 -7q-2 -10 1 -13q9 -9 9 -12.5t-12 -14.5l-65 -42v166q0 41 -10.5 50t-39.5 3q-41 -8 -67 -24q-5 -3 -5 -9.5
t4 -11.5q2 -1 11.5 -5t15 -11.5t5.5 -20.5v-221q1 -12 -16 -29.5t-18 -19.5v-10q0 -8 8 -8h137q8 0 8 8v4q0 6 -16.5 23.5t-16.5 30.5v58l11 7l43 -84q25 -48 64 -48q25 0 44 13.5t20 26.5z" />
    <glyph glyph-name="edieresis" unicode="&#xeb;" horiz-adv-x="753" 
d="M31 490h703v-490h-703v490zM377 98q0 7 -7 5q-6 -2 -12 0.5t-11.5 9t-10.5 13.5t-10.5 17t-8.5 16.5t-7.5 16t-5.5 12.5q-18 33 -56 31q9 6 24 15.5t18 11.5q12 8 23 14.5t16.5 9t9.5 5.5t5.5 5t1.5 6v5q0 8 -8 8h-68q-9 0 -9 -7q-1 -10 1 -13q8 -9 8 -13.5t-12 -13.5
l-65 -42q0 36 0.5 97.5t0.5 68.5q0 41 -10.5 50t-39.5 3q-41 -8 -68 -24q-12 -7 0 -21q2 -1 11.5 -5t15 -11.5t5.5 -20.5v-221q0 -12 -17 -29.5t-18 -19.5v-10q0 -8 8 -8h138q7 0 7 8v4q0 6 -16.5 23.5t-16.5 30.5v58l11 7l43 -84q25 -48 64 -48q26 0 45 13.5t21 26.5z
M693 98q0 3 -1.5 4.5t-3.5 0.5q-8 -2 -16.5 3t-17 18t-13.5 21t-13 25l-7 18q-18 33 -56 31q34 21 42 27q12 8 23 14.5t16.5 9t9.5 5.5t5.5 5t1.5 6v5q0 8 -7 8h-70q-8 0 -8 -7q-2 -10 1 -13q9 -9 9 -12.5t-12 -14.5l-65 -42v166q0 41 -10.5 50t-39.5 3q-41 -8 -67 -24
q-5 -3 -5 -9.5t4 -11.5q2 -1 11.5 -5t15 -11.5t5.5 -20.5v-221q1 -12 -16 -29.5t-18 -19.5v-10q0 -8 8 -8h137q8 0 8 8v4q0 6 -16.5 23.5t-16.5 30.5v58l11 7l43 -84q25 -48 64 -48q25 0 44 13.5t20 26.5z" />
    <glyph glyph-name="igrave" unicode="&#xec;" horiz-adv-x="757" 
d="M49 490h703v-490h-703v490zM395 98q0 7 -7 5q-6 -2 -12 0.5t-11.5 9t-10.5 13.5t-10.5 17t-8.5 16.5t-7.5 16t-5.5 12.5q-18 33 -56 31q9 6 24 15.5t18 11.5q12 8 23 14.5t16.5 9t9.5 5.5t5.5 5t1.5 6v5q0 8 -8 8h-68q-9 0 -9 -7q-1 -10 1 -13q8 -9 8 -13.5t-12 -13.5
l-65 -42q0 36 0.5 97.5t0.5 68.5q0 41 -10.5 50t-39.5 3q-41 -8 -68 -24q-12 -7 0 -21q2 -1 11.5 -5t15 -11.5t5.5 -20.5v-221q0 -12 -17 -29.5t-18 -19.5v-10q0 -8 8 -8h138q7 0 7 8v4q0 6 -16.5 23.5t-16.5 30.5v58l11 7l43 -84q25 -48 64 -48q26 0 45 13.5t21 26.5z
M711 98q0 3 -1.5 4.5t-3.5 0.5q-8 -2 -16.5 3t-17 18t-13.5 21t-13 25l-7 18q-18 33 -56 31q34 21 42 27q12 8 23 14.5t16.5 9t9.5 5.5t5.5 5t1.5 6v5q0 8 -7 8h-70q-8 0 -8 -7q-2 -10 1 -13q9 -9 9 -12.5t-12 -14.5l-65 -42v166q0 41 -10.5 50t-39.5 3q-41 -8 -67 -24
q-5 -3 -5 -9.5t4 -11.5q2 -1 11.5 -5t15 -11.5t5.5 -20.5v-221q1 -12 -16 -29.5t-18 -19.5v-10q0 -8 8 -8h137q8 0 8 8v4q0 6 -16.5 23.5t-16.5 30.5v58l11 7l43 -84q25 -48 64 -48q25 0 44 13.5t20 26.5z" />
    <glyph glyph-name="iacute" unicode="&#xed;" horiz-adv-x="757" 
d="M49 490h703v-490h-703v490zM395 98q0 7 -7 5q-6 -2 -12 0.5t-11.5 9t-10.5 13.5t-10.5 17t-8.5 16.5t-7.5 16t-5.5 12.5q-18 33 -56 31q9 6 24 15.5t18 11.5q12 8 23 14.5t16.5 9t9.5 5.5t5.5 5t1.5 6v5q0 8 -8 8h-68q-9 0 -9 -7q-1 -10 1 -13q8 -9 8 -13.5t-12 -13.5
l-65 -42q0 36 0.5 97.5t0.5 68.5q0 41 -10.5 50t-39.5 3q-41 -8 -68 -24q-12 -7 0 -21q2 -1 11.5 -5t15 -11.5t5.5 -20.5v-221q0 -12 -17 -29.5t-18 -19.5v-10q0 -8 8 -8h138q7 0 7 8v4q0 6 -16.5 23.5t-16.5 30.5v58l11 7l43 -84q25 -48 64 -48q26 0 45 13.5t21 26.5z
M711 98q0 3 -1.5 4.5t-3.5 0.5q-8 -2 -16.5 3t-17 18t-13.5 21t-13 25l-7 18q-18 33 -56 31q34 21 42 27q12 8 23 14.5t16.5 9t9.5 5.5t5.5 5t1.5 6v5q0 8 -7 8h-70q-8 0 -8 -7q-2 -10 1 -13q9 -9 9 -12.5t-12 -14.5l-65 -42v166q0 41 -10.5 50t-39.5 3q-41 -8 -67 -24
q-5 -3 -5 -9.5t4 -11.5q2 -1 11.5 -5t15 -11.5t5.5 -20.5v-221q1 -12 -16 -29.5t-18 -19.5v-10q0 -8 8 -8h137q8 0 8 8v4q0 6 -16.5 23.5t-16.5 30.5v58l11 7l43 -84q25 -48 64 -48q25 0 44 13.5t20 26.5z" />
    <glyph glyph-name="icircumflex" unicode="&#xee;" horiz-adv-x="757" 
d="M49 490h703v-490h-703v490zM395 98q0 7 -7 5q-6 -2 -12 0.5t-11.5 9t-10.5 13.5t-10.5 17t-8.5 16.5t-7.5 16t-5.5 12.5q-18 33 -56 31q9 6 24 15.5t18 11.5q12 8 23 14.5t16.5 9t9.5 5.5t5.5 5t1.5 6v5q0 8 -8 8h-68q-9 0 -9 -7q-1 -10 1 -13q8 -9 8 -13.5t-12 -13.5
l-65 -42q0 36 0.5 97.5t0.5 68.5q0 41 -10.5 50t-39.5 3q-41 -8 -68 -24q-12 -7 0 -21q2 -1 11.5 -5t15 -11.5t5.5 -20.5v-221q0 -12 -17 -29.5t-18 -19.5v-10q0 -8 8 -8h138q7 0 7 8v4q0 6 -16.5 23.5t-16.5 30.5v58l11 7l43 -84q25 -48 64 -48q26 0 45 13.5t21 26.5z
M711 98q0 3 -1.5 4.5t-3.5 0.5q-8 -2 -16.5 3t-17 18t-13.5 21t-13 25l-7 18q-18 33 -56 31q34 21 42 27q12 8 23 14.5t16.5 9t9.5 5.5t5.5 5t1.5 6v5q0 8 -7 8h-70q-8 0 -8 -7q-2 -10 1 -13q9 -9 9 -12.5t-12 -14.5l-65 -42v166q0 41 -10.5 50t-39.5 3q-41 -8 -67 -24
q-5 -3 -5 -9.5t4 -11.5q2 -1 11.5 -5t15 -11.5t5.5 -20.5v-221q1 -12 -16 -29.5t-18 -19.5v-10q0 -8 8 -8h137q8 0 8 8v4q0 6 -16.5 23.5t-16.5 30.5v58l11 7l43 -84q25 -48 64 -48q25 0 44 13.5t20 26.5z" />
    <glyph glyph-name="idieresis" unicode="&#xef;" horiz-adv-x="757" 
d="M49 490h703v-490h-703v490zM395 98q0 7 -7 5q-6 -2 -12 0.5t-11.5 9t-10.5 13.5t-10.5 17t-8.5 16.5t-7.5 16t-5.5 12.5q-18 33 -56 31q9 6 24 15.5t18 11.5q12 8 23 14.5t16.5 9t9.5 5.5t5.5 5t1.5 6v5q0 8 -8 8h-68q-9 0 -9 -7q-1 -10 1 -13q8 -9 8 -13.5t-12 -13.5
l-65 -42q0 36 0.5 97.5t0.5 68.5q0 41 -10.5 50t-39.5 3q-41 -8 -68 -24q-12 -7 0 -21q2 -1 11.5 -5t15 -11.5t5.5 -20.5v-221q0 -12 -17 -29.5t-18 -19.5v-10q0 -8 8 -8h138q7 0 7 8v4q0 6 -16.5 23.5t-16.5 30.5v58l11 7l43 -84q25 -48 64 -48q26 0 45 13.5t21 26.5z
M711 98q0 3 -1.5 4.5t-3.5 0.5q-8 -2 -16.5 3t-17 18t-13.5 21t-13 25l-7 18q-18 33 -56 31q34 21 42 27q12 8 23 14.5t16.5 9t9.5 5.5t5.5 5t1.5 6v5q0 8 -7 8h-70q-8 0 -8 -7q-2 -10 1 -13q9 -9 9 -12.5t-12 -14.5l-65 -42v166q0 41 -10.5 50t-39.5 3q-41 -8 -67 -24
q-5 -3 -5 -9.5t4 -11.5q2 -1 11.5 -5t15 -11.5t5.5 -20.5v-221q1 -12 -16 -29.5t-18 -19.5v-10q0 -8 8 -8h137q8 0 8 8v4q0 6 -16.5 23.5t-16.5 30.5v58l11 7l43 -84q25 -48 64 -48q25 0 44 13.5t20 26.5z" />
    <glyph glyph-name="eth" unicode="&#xf0;" horiz-adv-x="755" 
d="M31 490h703v-490h-703v490zM377 98q0 5 -7 5q-6 -2 -12 0.5t-11.5 9t-10.5 13.5t-10.5 17t-8.5 16.5t-7.5 16t-5.5 12.5q-18 33 -56 31q9 6 24 15.5t18 11.5q12 8 23 14.5t16.5 9t9.5 5.5t5.5 5t1.5 6v5q0 8 -8 8h-68q-9 0 -9 -7q-1 -10 1 -13q8 -9 8 -13.5t-12 -13.5
l-65 -42q0 36 0.5 97.5t0.5 68.5q0 41 -10.5 50t-39.5 3q-41 -8 -68 -24q-12 -7 0 -21q2 -1 11.5 -5t15 -11.5t5.5 -20.5v-221q0 -12 -17 -29.5t-18 -19.5v-10q0 -8 8 -8h138q7 0 7 8v4q0 6 -16.5 23.5t-16.5 30.5v58l11 7l43 -84q25 -48 64 -48q26 0 45 13.5t21 26.5z
M693 98q0 5 -5 5q-8 -2 -16.5 3t-17 18t-13.5 21t-13 25l-7 18q-18 33 -56 31q34 21 42 27q12 8 23 14.5t16.5 9t9.5 5.5t5.5 5t1.5 6v5q0 8 -7 8h-70q-8 0 -8 -7q-2 -10 1 -13q9 -9 9 -12.5t-12 -14.5l-65 -42v166q0 41 -10.5 50t-39.5 3q-41 -8 -67 -24q-5 -3 -5 -9.5
t4 -11.5q2 -1 11.5 -5t15 -11.5t5.5 -20.5v-221q1 -12 -16 -29.5t-18 -19.5v-10q0 -8 8 -8h137q8 0 8 8v4q0 6 -16.5 23.5t-16.5 30.5v58l11 7l43 -84q25 -48 64 -48q25 0 44 13.5t20 26.5z" />
    <glyph glyph-name="ntilde" unicode="&#xf1;" horiz-adv-x="803" 
d="M55 490h703v-490h-703v490zM401 98q0 7 -7 5q-6 -2 -12 0.5t-11.5 9t-10.5 13.5t-10.5 17t-8.5 16.5t-7.5 16t-5.5 12.5q-18 33 -56 31q9 6 24 15.5t18 11.5q12 8 23 14.5t16.5 9t9.5 5.5t5.5 5t1.5 6v5q0 8 -8 8h-68q-9 0 -9 -7q-1 -10 1 -13q8 -9 8 -13.5t-12 -13.5
l-65 -42q0 36 0.5 97.5t0.5 68.5q0 41 -10.5 50t-39.5 3q-41 -8 -68 -24q-12 -7 0 -21q2 -1 11.5 -5t15 -11.5t5.5 -20.5v-221q0 -12 -17 -29.5t-18 -19.5v-10q0 -8 8 -8h138q7 0 7 8v4q0 6 -16.5 23.5t-16.5 30.5v58l11 7l43 -84q25 -48 64 -48q26 0 45 13.5t21 26.5z
M717 98q0 3 -1.5 4.5t-3.5 0.5q-8 -2 -16.5 3t-17 18t-13.5 21t-13 25l-7 18q-18 33 -56 31q34 21 42 27q12 8 23 14.5t16.5 9t9.5 5.5t5.5 5t1.5 6v5q0 8 -7 8h-70q-8 0 -8 -7q-2 -10 1 -13q9 -9 9 -12.5t-12 -14.5l-65 -42v166q0 41 -10.5 50t-39.5 3q-41 -8 -67 -24
q-5 -3 -5 -9.5t4 -11.5q2 -1 11.5 -5t15 -11.5t5.5 -20.5v-221q1 -12 -16 -29.5t-18 -19.5v-10q0 -8 8 -8h137q8 0 8 8v4q0 6 -16.5 23.5t-16.5 30.5v58l11 7l43 -84q25 -48 64 -48q25 0 44 13.5t20 26.5z" />
    <glyph glyph-name="ograve" unicode="&#xf2;" horiz-adv-x="755" 
d="M31 490h703v-490h-703v490zM377 98q0 5 -7 5q-6 -2 -12 0.5t-11.5 9t-10.5 13.5t-10.5 17t-8.5 16.5t-7.5 16t-5.5 12.5q-18 33 -56 31q9 6 24 15.5t18 11.5q12 8 23 14.5t16.5 9t9.5 5.5t5.5 5t1.5 6v5q0 8 -8 8h-68q-9 0 -9 -7q-1 -10 1 -13q8 -9 8 -13.5t-12 -13.5
l-65 -42q0 36 0.5 97.5t0.5 68.5q0 41 -10.5 50t-39.5 3q-41 -8 -68 -24q-12 -7 0 -21q2 -1 11.5 -5t15 -11.5t5.5 -20.5v-221q0 -12 -17 -29.5t-18 -19.5v-10q0 -8 8 -8h138q7 0 7 8v4q0 6 -16.5 23.5t-16.5 30.5v58l11 7l43 -84q25 -48 64 -48q26 0 45 13.5t21 26.5z
M693 98q0 5 -5 5q-8 -2 -16.5 3t-17 18t-13.5 21t-13 25l-7 18q-18 33 -56 31q34 21 42 27q12 8 23 14.5t16.5 9t9.5 5.5t5.5 5t1.5 6v5q0 8 -7 8h-70q-8 0 -8 -7q-2 -10 1 -13q9 -9 9 -12.5t-12 -14.5l-65 -42v166q0 41 -10.5 50t-39.5 3q-41 -8 -67 -24q-5 -3 -5 -9.5
t4 -11.5q2 -1 11.5 -5t15 -11.5t5.5 -20.5v-221q1 -12 -16 -29.5t-18 -19.5v-10q0 -8 8 -8h137q8 0 8 8v4q0 6 -16.5 23.5t-16.5 30.5v58l11 7l43 -84q25 -48 64 -48q25 0 44 13.5t20 26.5z" />
    <glyph glyph-name="oacute" unicode="&#xf3;" horiz-adv-x="755" 
d="M31 490h703v-490h-703v490zM377 98q0 7 -7 5q-6 -2 -12 0.5t-11.5 9t-10.5 13.5t-10.5 17t-8.5 16.5t-7.5 16t-5.5 12.5q-18 33 -56 31q9 6 24 15.5t18 11.5q12 8 23 14.5t16.5 9t9.5 5.5t5.5 5t1.5 6v5q0 8 -8 8h-68q-9 0 -9 -7q-1 -10 1 -13q8 -9 8 -13.5t-12 -13.5
l-65 -42q0 36 0.5 97.5t0.5 68.5q0 41 -10.5 50t-39.5 3q-41 -8 -68 -24q-12 -7 0 -21q2 -1 11.5 -5t15 -11.5t5.5 -20.5v-221q0 -12 -17 -29.5t-18 -19.5v-10q0 -8 8 -8h138q7 0 7 8v4q0 6 -16.5 23.5t-16.5 30.5v58l11 7l43 -84q25 -48 64 -48q26 0 45 13.5t21 26.5z
M693 98q0 3 -1.5 4.5t-3.5 0.5q-8 -2 -16.5 3t-17 18t-13.5 21t-13 25l-7 18q-18 33 -56 31q34 21 42 27q12 8 23 14.5t16.5 9t9.5 5.5t5.5 5t1.5 6v5q0 8 -7 8h-70q-8 0 -8 -7q-2 -10 1 -13q9 -9 9 -12.5t-12 -14.5l-65 -42v166q0 41 -10.5 50t-39.5 3q-41 -8 -67 -24
q-5 -3 -5 -9.5t4 -11.5q2 -1 11.5 -5t15 -11.5t5.5 -20.5v-221q1 -12 -16 -29.5t-18 -19.5v-10q0 -8 8 -8h137q8 0 8 8v4q0 6 -16.5 23.5t-16.5 30.5v58l11 7l43 -84q25 -48 64 -48q25 0 44 13.5t20 26.5z" />
    <glyph glyph-name="ocircumflex" unicode="&#xf4;" horiz-adv-x="755" 
d="M31 490h703v-490h-703v490zM377 98q0 5 -7 5q-6 -2 -12 0.5t-11.5 9t-10.5 13.5t-10.5 17t-8.5 16.5t-7.5 16t-5.5 12.5q-18 33 -56 31q9 6 24 15.5t18 11.5q12 8 23 14.5t16.5 9t9.5 5.5t5.5 5t1.5 6v5q0 8 -8 8h-68q-9 0 -9 -7q-1 -10 1 -13q8 -9 8 -13.5t-12 -13.5
l-65 -42q0 36 0.5 97.5t0.5 68.5q0 41 -10.5 50t-39.5 3q-41 -8 -68 -24q-12 -7 0 -21q2 -1 11.5 -5t15 -11.5t5.5 -20.5v-221q0 -12 -17 -29.5t-18 -19.5v-10q0 -8 8 -8h138q7 0 7 8v4q0 6 -16.5 23.5t-16.5 30.5v58l11 7l43 -84q25 -48 64 -48q26 0 45 13.5t21 26.5z
M693 98q0 5 -5 5q-8 -2 -16.5 3t-17 18t-13.5 21t-13 25l-7 18q-18 33 -56 31q34 21 42 27q12 8 23 14.5t16.5 9t9.5 5.5t5.5 5t1.5 6v5q0 8 -7 8h-70q-8 0 -8 -7q-2 -10 1 -13q9 -9 9 -12.5t-12 -14.5l-65 -42v166q0 41 -10.5 50t-39.5 3q-41 -8 -67 -24q-5 -3 -5 -9.5
t4 -11.5q2 -1 11.5 -5t15 -11.5t5.5 -20.5v-221q1 -12 -16 -29.5t-18 -19.5v-10q0 -8 8 -8h137q8 0 8 8v4q0 6 -16.5 23.5t-16.5 30.5v58l11 7l43 -84q25 -48 64 -48q25 0 44 13.5t20 26.5z" />
    <glyph glyph-name="otilde" unicode="&#xf5;" horiz-adv-x="755" 
d="M31 490h703v-490h-703v490zM377 98q0 7 -7 5q-6 -2 -12 0.5t-11.5 9t-10.5 13.5t-10.5 17t-8.5 16.5t-7.5 16t-5.5 12.5q-18 33 -56 31q9 6 24 15.5t18 11.5q12 8 23 14.5t16.5 9t9.5 5.5t5.5 5t1.5 6v5q0 8 -8 8h-68q-9 0 -9 -7q-1 -10 1 -13q8 -9 8 -13.5t-12 -13.5
l-65 -42q0 36 0.5 97.5t0.5 68.5q0 41 -10.5 50t-39.5 3q-41 -8 -68 -24q-12 -7 0 -21q2 -1 11.5 -5t15 -11.5t5.5 -20.5v-221q0 -12 -17 -29.5t-18 -19.5v-10q0 -8 8 -8h138q7 0 7 8v4q0 6 -16.5 23.5t-16.5 30.5v58l11 7l43 -84q25 -48 64 -48q26 0 45 13.5t21 26.5z
M693 98q0 3 -1.5 4.5t-3.5 0.5q-8 -2 -16.5 3t-17 18t-13.5 21t-13 25l-7 18q-18 33 -56 31q34 21 42 27q12 8 23 14.5t16.5 9t9.5 5.5t5.5 5t1.5 6v5q0 8 -7 8h-70q-8 0 -8 -7q-2 -10 1 -13q9 -9 9 -12.5t-12 -14.5l-65 -42v166q0 41 -10.5 50t-39.5 3q-41 -8 -67 -24
q-5 -3 -5 -9.5t4 -11.5q2 -1 11.5 -5t15 -11.5t5.5 -20.5v-221q1 -12 -16 -29.5t-18 -19.5v-10q0 -8 8 -8h137q8 0 8 8v4q0 6 -16.5 23.5t-16.5 30.5v58l11 7l43 -84q25 -48 64 -48q25 0 44 13.5t20 26.5z" />
    <glyph glyph-name="odieresis" unicode="&#xf6;" horiz-adv-x="755" 
d="M31 490h703v-490h-703v490zM377 98q0 7 -7 5q-6 -2 -12 0.5t-11.5 9t-10.5 13.5t-10.5 17t-8.5 16.5t-7.5 16t-5.5 12.5q-18 33 -56 31q9 6 24 15.5t18 11.5q12 8 23 14.5t16.5 9t9.5 5.5t5.5 5t1.5 6v5q0 8 -8 8h-68q-9 0 -9 -7q-1 -10 1 -13q8 -9 8 -13.5t-12 -13.5
l-65 -42q0 36 0.5 97.5t0.5 68.5q0 41 -10.5 50t-39.5 3q-41 -8 -68 -24q-12 -7 0 -21q2 -1 11.5 -5t15 -11.5t5.5 -20.5v-221q0 -12 -17 -29.5t-18 -19.5v-10q0 -8 8 -8h138q7 0 7 8v4q0 6 -16.5 23.5t-16.5 30.5v58l11 7l43 -84q25 -48 64 -48q26 0 45 13.5t21 26.5z
M693 98q0 3 -1.5 4.5t-3.5 0.5q-8 -2 -16.5 3t-17 18t-13.5 21t-13 25l-7 18q-18 33 -56 31q34 21 42 27q12 8 23 14.5t16.5 9t9.5 5.5t5.5 5t1.5 6v5q0 8 -7 8h-70q-8 0 -8 -7q-2 -10 1 -13q9 -9 9 -12.5t-12 -14.5l-65 -42v166q0 41 -10.5 50t-39.5 3q-41 -8 -67 -24
q-5 -3 -5 -9.5t4 -11.5q2 -1 11.5 -5t15 -11.5t5.5 -20.5v-221q1 -12 -16 -29.5t-18 -19.5v-10q0 -8 8 -8h137q8 0 8 8v4q0 6 -16.5 23.5t-16.5 30.5v58l11 7l43 -84q25 -48 64 -48q25 0 44 13.5t20 26.5z" />
    <glyph glyph-name="oslash" unicode="&#xf8;" horiz-adv-x="755" 
d="M31 490h703v-490h-703v490zM377 98q0 7 -7 5q-6 -2 -12 0.5t-11.5 9t-10.5 13.5t-10.5 17t-8.5 16.5t-7.5 16t-5.5 12.5q-18 33 -56 31q9 6 24 15.5t18 11.5q12 8 23 14.5t16.5 9t9.5 5.5t5.5 5t1.5 6v5q0 8 -8 8h-68q-9 0 -9 -7q-1 -10 1 -13q8 -9 8 -13.5t-12 -13.5
l-65 -42q0 36 0.5 97.5t0.5 68.5q0 41 -10.5 50t-39.5 3q-41 -8 -68 -24q-12 -7 0 -21q2 -1 11.5 -5t15 -11.5t5.5 -20.5v-221q0 -12 -17 -29.5t-18 -19.5v-10q0 -8 8 -8h138q7 0 7 8v4q0 6 -16.5 23.5t-16.5 30.5v58l11 7l43 -84q25 -48 64 -48q26 0 45 13.5t21 26.5z
M693 98q0 3 -1.5 4.5t-3.5 0.5q-8 -2 -16.5 3t-17 18t-13.5 21t-13 25l-7 18q-18 33 -56 31q34 21 42 27q12 8 23 14.5t16.5 9t9.5 5.5t5.5 5t1.5 6v5q0 8 -7 8h-70q-8 0 -8 -7q-2 -10 1 -13q9 -9 9 -12.5t-12 -14.5l-65 -42v166q0 41 -10.5 50t-39.5 3q-41 -8 -67 -24
q-5 -3 -5 -9.5t4 -11.5q2 -1 11.5 -5t15 -11.5t5.5 -20.5v-221q1 -12 -16 -29.5t-18 -19.5v-10q0 -8 8 -8h137q8 0 8 8v4q0 6 -16.5 23.5t-16.5 30.5v58l11 7l43 -84q25 -48 64 -48q25 0 44 13.5t20 26.5z" />
    <glyph glyph-name="ugrave" unicode="&#xf9;" horiz-adv-x="783" 
d="M35 490h703v-490h-703v490zM381 98q0 5 -7 5q-6 -2 -12 0.5t-11.5 9t-10.5 13.5t-10.5 17t-8.5 16.5t-7.5 16t-5.5 12.5q-18 33 -56 31q9 6 24 15.5t18 11.5q12 8 23 14.5t16.5 9t9.5 5.5t5.5 5t1.5 6v5q0 8 -8 8h-68q-9 0 -9 -7q-1 -10 1 -13q8 -9 8 -13.5t-12 -13.5
l-65 -42q0 36 0.5 97.5t0.5 68.5q0 41 -10.5 50t-39.5 3q-41 -8 -68 -24q-12 -7 0 -21q2 -1 11.5 -5t15 -11.5t5.5 -20.5v-221q0 -12 -17 -29.5t-18 -19.5v-10q0 -8 8 -8h138q7 0 7 8v4q0 6 -16.5 23.5t-16.5 30.5v58l11 7l43 -84q25 -48 64 -48q26 0 45 13.5t21 26.5z
M697 98q0 5 -5 5q-8 -2 -16.5 3t-17 18t-13.5 21t-13 25l-7 18q-18 33 -56 31q34 21 42 27q12 8 23 14.5t16.5 9t9.5 5.5t5.5 5t1.5 6v5q0 8 -7 8h-70q-8 0 -8 -7q-2 -10 1 -13q9 -9 9 -12.5t-12 -14.5l-65 -42v166q0 41 -10.5 50t-39.5 3q-41 -8 -67 -24q-5 -3 -5 -9.5
t4 -11.5q2 -1 11.5 -5t15 -11.5t5.5 -20.5v-221q1 -12 -16 -29.5t-18 -19.5v-10q0 -8 8 -8h137q8 0 8 8v4q0 6 -16.5 23.5t-16.5 30.5v58l11 7l43 -84q25 -48 64 -48q25 0 44 13.5t20 26.5z" />
    <glyph glyph-name="uacute" unicode="&#xfa;" horiz-adv-x="783" 
d="M35 490h703v-490h-703v490zM381 98q0 7 -7 5q-6 -2 -12 0.5t-11.5 9t-10.5 13.5t-10.5 17t-8.5 16.5t-7.5 16t-5.5 12.5q-18 33 -56 31q9 6 24 15.5t18 11.5q12 8 23 14.5t16.5 9t9.5 5.5t5.5 5t1.5 6v5q0 8 -8 8h-68q-9 0 -9 -7q-1 -10 1 -13q8 -9 8 -13.5t-12 -13.5
l-65 -42q0 36 0.5 97.5t0.5 68.5q0 41 -10.5 50t-39.5 3q-41 -8 -68 -24q-12 -7 0 -21q2 -1 11.5 -5t15 -11.5t5.5 -20.5v-221q0 -12 -17 -29.5t-18 -19.5v-10q0 -8 8 -8h138q7 0 7 8v4q0 6 -16.5 23.5t-16.5 30.5v58l11 7l43 -84q25 -48 64 -48q26 0 45 13.5t21 26.5z
M697 98q0 3 -1.5 4.5t-3.5 0.5q-8 -2 -16.5 3t-17 18t-13.5 21t-13 25l-7 18q-18 33 -56 31q34 21 42 27q12 8 23 14.5t16.5 9t9.5 5.5t5.5 5t1.5 6v5q0 8 -7 8h-70q-8 0 -8 -7q-2 -10 1 -13q9 -9 9 -12.5t-12 -14.5l-65 -42v166q0 41 -10.5 50t-39.5 3q-41 -8 -67 -24
q-5 -3 -5 -9.5t4 -11.5q2 -1 11.5 -5t15 -11.5t5.5 -20.5v-221q1 -12 -16 -29.5t-18 -19.5v-10q0 -8 8 -8h137q8 0 8 8v4q0 6 -16.5 23.5t-16.5 30.5v58l11 7l43 -84q25 -48 64 -48q25 0 44 13.5t20 26.5z" />
    <glyph glyph-name="ucircumflex" unicode="&#xfb;" horiz-adv-x="783" 
d="M35 490h703v-490h-703v490zM381 98q0 7 -7 5q-6 -2 -12 0.5t-11.5 9t-10.5 13.5t-10.5 17t-8.5 16.5t-7.5 16t-5.5 12.5q-18 33 -56 31q9 6 24 15.5t18 11.5q12 8 23 14.5t16.5 9t9.5 5.5t5.5 5t1.5 6v5q0 8 -8 8h-68q-9 0 -9 -7q-1 -10 1 -13q8 -9 8 -13.5t-12 -13.5
l-65 -42q0 36 0.5 97.5t0.5 68.5q0 41 -10.5 50t-39.5 3q-41 -8 -68 -24q-12 -7 0 -21q2 -1 11.5 -5t15 -11.5t5.5 -20.5v-221q0 -12 -17 -29.5t-18 -19.5v-10q0 -8 8 -8h138q7 0 7 8v4q0 6 -16.5 23.5t-16.5 30.5v58l11 7l43 -84q25 -48 64 -48q26 0 45 13.5t21 26.5z
M697 98q0 3 -1.5 4.5t-3.5 0.5q-8 -2 -16.5 3t-17 18t-13.5 21t-13 25l-7 18q-18 33 -56 31q34 21 42 27q12 8 23 14.5t16.5 9t9.5 5.5t5.5 5t1.5 6v5q0 8 -7 8h-70q-8 0 -8 -7q-2 -10 1 -13q9 -9 9 -12.5t-12 -14.5l-65 -42v166q0 41 -10.5 50t-39.5 3q-41 -8 -67 -24
q-5 -3 -5 -9.5t4 -11.5q2 -1 11.5 -5t15 -11.5t5.5 -20.5v-221q1 -12 -16 -29.5t-18 -19.5v-10q0 -8 8 -8h137q8 0 8 8v4q0 6 -16.5 23.5t-16.5 30.5v58l11 7l43 -84q25 -48 64 -48q25 0 44 13.5t20 26.5z" />
    <glyph glyph-name="udieresis" unicode="&#xfc;" horiz-adv-x="783" 
d="M35 490h703v-490h-703v490zM381 98q0 7 -7 5q-6 -2 -12 0.5t-11.5 9t-10.5 13.5t-10.5 17t-8.5 16.5t-7.5 16t-5.5 12.5q-18 33 -56 31q9 6 24 15.5t18 11.5q12 8 23 14.5t16.5 9t9.5 5.5t5.5 5t1.5 6v5q0 8 -8 8h-68q-9 0 -9 -7q-1 -10 1 -13q8 -9 8 -13.5t-12 -13.5
l-65 -42q0 36 0.5 97.5t0.5 68.5q0 41 -10.5 50t-39.5 3q-41 -8 -68 -24q-12 -7 0 -21q2 -1 11.5 -5t15 -11.5t5.5 -20.5v-221q0 -12 -17 -29.5t-18 -19.5v-10q0 -8 8 -8h138q7 0 7 8v4q0 6 -16.5 23.5t-16.5 30.5v58l11 7l43 -84q25 -48 64 -48q26 0 45 13.5t21 26.5z
M697 98q0 3 -1.5 4.5t-3.5 0.5q-8 -2 -16.5 3t-17 18t-13.5 21t-13 25l-7 18q-18 33 -56 31q34 21 42 27q12 8 23 14.5t16.5 9t9.5 5.5t5.5 5t1.5 6v5q0 8 -7 8h-70q-8 0 -8 -7q-2 -10 1 -13q9 -9 9 -12.5t-12 -14.5l-65 -42v166q0 41 -10.5 50t-39.5 3q-41 -8 -67 -24
q-5 -3 -5 -9.5t4 -11.5q2 -1 11.5 -5t15 -11.5t5.5 -20.5v-221q1 -12 -16 -29.5t-18 -19.5v-10q0 -8 8 -8h137q8 0 8 8v4q0 6 -16.5 23.5t-16.5 30.5v58l11 7l43 -84q25 -48 64 -48q25 0 44 13.5t20 26.5z" />
    <glyph glyph-name="yacute" unicode="&#xfd;" horiz-adv-x="721" 
d="M3 490h703v-490h-703v490zM349 98q0 5 -7 5q-6 -2 -12 0.5t-11.5 9t-10.5 13.5t-10.5 17t-8.5 16.5t-7.5 16t-5.5 12.5q-18 33 -56 31q9 6 24 15.5t18 11.5q12 8 23 14.5t16.5 9t9.5 5.5t5.5 5t1.5 6v5q0 8 -8 8h-68q-9 0 -9 -7q-1 -10 1 -13q8 -9 8 -13.5t-12 -13.5
l-65 -42q0 36 0.5 97.5t0.5 68.5q0 41 -10.5 50t-39.5 3q-41 -8 -68 -24q-12 -7 0 -21q2 -1 11.5 -5t15 -11.5t5.5 -20.5v-221q0 -12 -17 -29.5t-18 -19.5v-10q0 -8 8 -8h138q7 0 7 8v4q0 6 -16.5 23.5t-16.5 30.5v58l11 7l43 -84q25 -48 64 -48q26 0 45 13.5t21 26.5z
M665 98q0 5 -5 5q-8 -2 -16.5 3t-17 18t-13.5 21t-13 25l-7 18q-18 33 -56 31q34 21 42 27q12 8 23 14.5t16.5 9t9.5 5.5t5.5 5t1.5 6v5q0 8 -7 8h-70q-8 0 -8 -7q-2 -10 1 -13q9 -9 9 -12.5t-12 -14.5l-65 -42v166q0 41 -10.5 50t-39.5 3q-41 -8 -67 -24q-5 -3 -5 -9.5
t4 -11.5q2 -1 11.5 -5t15 -11.5t5.5 -20.5v-221q1 -12 -16 -29.5t-18 -19.5v-10q0 -8 8 -8h137q8 0 8 8v4q0 6 -16.5 23.5t-16.5 30.5v58l11 7l43 -84q25 -48 64 -48q25 0 44 13.5t20 26.5z" />
    <glyph glyph-name="ydieresis" unicode="&#xff;" horiz-adv-x="721" 
d="M3 490h703v-490h-703v490zM349 98q0 7 -7 5q-6 -2 -12 0.5t-11.5 9t-10.5 13.5t-10.5 17t-8.5 16.5t-7.5 16t-5.5 12.5q-18 33 -56 31q9 6 24 15.5t18 11.5q12 8 23 14.5t16.5 9t9.5 5.5t5.5 5t1.5 6v5q0 8 -8 8h-68q-9 0 -9 -7q-1 -10 1 -13q8 -9 8 -13.5t-12 -13.5
l-65 -42q0 36 0.5 97.5t0.5 68.5q0 41 -10.5 50t-39.5 3q-41 -8 -68 -24q-12 -7 0 -21q2 -1 11.5 -5t15 -11.5t5.5 -20.5v-221q0 -12 -17 -29.5t-18 -19.5v-10q0 -8 8 -8h138q7 0 7 8v4q0 6 -16.5 23.5t-16.5 30.5v58l11 7l43 -84q25 -48 64 -48q26 0 45 13.5t21 26.5z
M665 98q0 3 -1.5 4.5t-3.5 0.5q-8 -2 -16.5 3t-17 18t-13.5 21t-13 25l-7 18q-18 33 -56 31q34 21 42 27q12 8 23 14.5t16.5 9t9.5 5.5t5.5 5t1.5 6v5q0 8 -7 8h-70q-8 0 -8 -7q-2 -10 1 -13q9 -9 9 -12.5t-12 -14.5l-65 -42v166q0 41 -10.5 50t-39.5 3q-41 -8 -67 -24
q-5 -3 -5 -9.5t4 -11.5q2 -1 11.5 -5t15 -11.5t5.5 -20.5v-221q1 -12 -16 -29.5t-18 -19.5v-10q0 -8 8 -8h137q8 0 8 8v4q0 6 -16.5 23.5t-16.5 30.5v58l11 7l43 -84q25 -48 64 -48q25 0 44 13.5t20 26.5z" />
    <glyph glyph-name="dotlessi" unicode="&#x131;" horiz-adv-x="757" 
d="M49 490h703v-490h-703v490zM395 98q0 7 -7 5q-6 -2 -12 0.5t-11.5 9t-10.5 13.5t-10.5 17t-8.5 16.5t-7.5 16t-5.5 12.5q-18 33 -56 31q9 6 24 15.5t18 11.5q12 8 23 14.5t16.5 9t9.5 5.5t5.5 5t1.5 6v5q0 8 -8 8h-68q-9 0 -9 -7q-1 -10 1 -13q8 -9 8 -13.5t-12 -13.5
l-65 -42q0 36 0.5 97.5t0.5 68.5q0 41 -10.5 50t-39.5 3q-41 -8 -68 -24q-12 -7 0 -21q2 -1 11.5 -5t15 -11.5t5.5 -20.5v-221q0 -12 -17 -29.5t-18 -19.5v-10q0 -8 8 -8h138q7 0 7 8v4q0 6 -16.5 23.5t-16.5 30.5v58l11 7l43 -84q25 -48 64 -48q26 0 45 13.5t21 26.5z
M711 98q0 3 -1.5 4.5t-3.5 0.5q-8 -2 -16.5 3t-17 18t-13.5 21t-13 25l-7 18q-18 33 -56 31q34 21 42 27q12 8 23 14.5t16.5 9t9.5 5.5t5.5 5t1.5 6v5q0 8 -7 8h-70q-8 0 -8 -7q-2 -10 1 -13q9 -9 9 -12.5t-12 -14.5l-65 -42v166q0 41 -10.5 50t-39.5 3q-41 -8 -67 -24
q-5 -3 -5 -9.5t4 -11.5q2 -1 11.5 -5t15 -11.5t5.5 -20.5v-221q1 -12 -16 -29.5t-18 -19.5v-10q0 -8 8 -8h137q8 0 8 8v4q0 6 -16.5 23.5t-16.5 30.5v58l11 7l43 -84q25 -48 64 -48q25 0 44 13.5t20 26.5z" />
    <glyph glyph-name="OE" unicode="&#x152;" horiz-adv-x="768" 
d="M35 490h703v-490h-703v490zM381 98q0 7 -7 5q-6 -2 -12 0.5t-11.5 9t-10.5 13.5t-10.5 17t-8.5 16.5t-7.5 16t-5.5 12.5q-18 33 -56 31q9 6 24 15.5t18 11.5q12 8 23 14.5t16.5 9t9.5 5.5t5.5 5t1.5 6v5q0 8 -8 8h-68q-9 0 -9 -7q-1 -10 1 -13q8 -9 8 -13.5t-12 -13.5
l-65 -42q0 36 0.5 97.5t0.5 68.5q0 41 -10.5 50t-39.5 3q-41 -8 -68 -24q-12 -7 0 -21q2 -1 11.5 -5t15 -11.5t5.5 -20.5v-221q0 -12 -17 -29.5t-18 -19.5v-10q0 -8 8 -8h138q7 0 7 8v4q0 6 -16.5 23.5t-16.5 30.5v58l11 7l43 -84q25 -48 64 -48q26 0 45 13.5t21 26.5z
M697 98q0 3 -1.5 4.5t-3.5 0.5q-8 -2 -16.5 3t-17 18t-13.5 21t-13 25l-7 18q-18 33 -56 31q34 21 42 27q12 8 23 14.5t16.5 9t9.5 5.5t5.5 5t1.5 6v5q0 8 -7 8h-70q-8 0 -8 -7q-2 -10 1 -13q9 -9 9 -12.5t-12 -14.5l-65 -42v166q0 41 -10.5 50t-39.5 3q-41 -8 -67 -24
q-5 -3 -5 -9.5t4 -11.5q2 -1 11.5 -5t15 -11.5t5.5 -20.5v-221q1 -12 -16 -29.5t-18 -19.5v-10q0 -8 8 -8h137q8 0 8 8v4q0 6 -16.5 23.5t-16.5 30.5v58l11 7l43 -84q25 -48 64 -48q25 0 44 13.5t20 26.5z" />
    <glyph glyph-name="oe" unicode="&#x153;" horiz-adv-x="753" 
d="M31 490h703v-490h-703v490zM377 98q0 7 -7 5q-6 -2 -12 0.5t-11.5 9t-10.5 13.5t-10.5 17t-8.5 16.5t-7.5 16t-5.5 12.5q-18 33 -56 31q9 6 24 15.5t18 11.5q12 8 23 14.5t16.5 9t9.5 5.5t5.5 5t1.5 6v5q0 8 -8 8h-68q-9 0 -9 -7q-1 -10 1 -13q8 -9 8 -13.5t-12 -13.5
l-65 -42q0 36 0.5 97.5t0.5 68.5q0 41 -10.5 50t-39.5 3q-41 -8 -68 -24q-12 -7 0 -21q2 -1 11.5 -5t15 -11.5t5.5 -20.5v-221q0 -12 -17 -29.5t-18 -19.5v-10q0 -8 8 -8h138q7 0 7 8v4q0 6 -16.5 23.5t-16.5 30.5v58l11 7l43 -84q25 -48 64 -48q26 0 45 13.5t21 26.5z
M693 98q0 3 -1.5 4.5t-3.5 0.5q-8 -2 -16.5 3t-17 18t-13.5 21t-13 25l-7 18q-18 33 -56 31q34 21 42 27q12 8 23 14.5t16.5 9t9.5 5.5t5.5 5t1.5 6v5q0 8 -7 8h-70q-8 0 -8 -7q-2 -10 1 -13q9 -9 9 -12.5t-12 -14.5l-65 -42v166q0 41 -10.5 50t-39.5 3q-41 -8 -67 -24
q-5 -3 -5 -9.5t4 -11.5q2 -1 11.5 -5t15 -11.5t5.5 -20.5v-221q1 -12 -16 -29.5t-18 -19.5v-10q0 -8 8 -8h137q8 0 8 8v4q0 6 -16.5 23.5t-16.5 30.5v58l11 7l43 -84q25 -48 64 -48q25 0 44 13.5t20 26.5z" />
    <glyph glyph-name="Scaron" unicode="&#x160;" horiz-adv-x="763" 
d="M35 490h703v-490h-703v490zM381 98q0 5 -7 5q-6 -2 -12 0.5t-11.5 9t-10.5 13.5t-10.5 17t-8.5 16.5t-7.5 16t-5.5 12.5q-18 33 -56 31q9 6 24 15.5t18 11.5q12 8 23 14.5t16.5 9t9.5 5.5t5.5 5t1.5 6v5q0 8 -8 8h-68q-9 0 -9 -7q-1 -10 1 -13q8 -9 8 -13.5t-12 -13.5
l-65 -42q0 36 0.5 97.5t0.5 68.5q0 41 -10.5 50t-39.5 3q-41 -8 -68 -24q-12 -7 0 -21q2 -1 11.5 -5t15 -11.5t5.5 -20.5v-221q0 -12 -17 -29.5t-18 -19.5v-10q0 -8 8 -8h138q7 0 7 8v4q0 6 -16.5 23.5t-16.5 30.5v58l11 7l43 -84q25 -48 64 -48q26 0 45 13.5t21 26.5z
M697 98q0 5 -5 5q-8 -2 -16.5 3t-17 18t-13.5 21t-13 25l-7 18q-18 33 -56 31q34 21 42 27q12 8 23 14.5t16.5 9t9.5 5.5t5.5 5t1.5 6v5q0 8 -7 8h-70q-8 0 -8 -7q-2 -10 1 -13q9 -9 9 -12.5t-12 -14.5l-65 -42v166q0 41 -10.5 50t-39.5 3q-41 -8 -67 -24q-5 -3 -5 -9.5
t4 -11.5q2 -1 11.5 -5t15 -11.5t5.5 -20.5v-221q1 -12 -16 -29.5t-18 -19.5v-10q0 -8 8 -8h137q8 0 8 8v4q0 6 -16.5 23.5t-16.5 30.5v58l11 7l43 -84q25 -48 64 -48q25 0 44 13.5t20 26.5z" />
    <glyph glyph-name="scaron" unicode="&#x161;" horiz-adv-x="745" 
d="M31 490h703v-490h-703v490zM377 98q0 5 -7 5q-6 -2 -12 0.5t-11.5 9t-10.5 13.5t-10.5 17t-8.5 16.5t-7.5 16t-5.5 12.5q-18 33 -56 31q9 6 24 15.5t18 11.5q12 8 23 14.5t16.5 9t9.5 5.5t5.5 5t1.5 6v5q0 8 -8 8h-68q-9 0 -9 -7q-1 -10 1 -13q8 -9 8 -13.5t-12 -13.5
l-65 -42q0 36 0.5 97.5t0.5 68.5q0 41 -10.5 50t-39.5 3q-41 -8 -68 -24q-12 -7 0 -21q2 -1 11.5 -5t15 -11.5t5.5 -20.5v-221q0 -12 -17 -29.5t-18 -19.5v-10q0 -8 8 -8h138q7 0 7 8v4q0 6 -16.5 23.5t-16.5 30.5v58l11 7l43 -84q25 -48 64 -48q26 0 45 13.5t21 26.5z
M693 98q0 5 -5 5q-8 -2 -16.5 3t-17 18t-13.5 21t-13 25l-7 18q-18 33 -56 31q34 21 42 27q12 8 23 14.5t16.5 9t9.5 5.5t5.5 5t1.5 6v5q0 8 -7 8h-70q-8 0 -8 -7q-2 -10 1 -13q9 -9 9 -12.5t-12 -14.5l-65 -42v166q0 41 -10.5 50t-39.5 3q-41 -8 -67 -24q-5 -3 -5 -9.5
t4 -11.5q2 -1 11.5 -5t15 -11.5t5.5 -20.5v-221q1 -12 -16 -29.5t-18 -19.5v-10q0 -8 8 -8h137q8 0 8 8v4q0 6 -16.5 23.5t-16.5 30.5v58l11 7l43 -84q25 -48 64 -48q25 0 44 13.5t20 26.5z" />
    <glyph glyph-name="Ydieresis" unicode="&#x178;" horiz-adv-x="693" 
d="M0 490h703v-490h-703v490zM346 98q0 7 -7 5q-6 -2 -12 0.5t-11.5 9t-10.5 13.5t-10.5 17t-8.5 16.5t-7.5 16t-5.5 12.5q-18 33 -56 31q9 6 24 15.5t18 11.5q12 8 23 14.5t16.5 9t9.5 5.5t5.5 5t1.5 6v5q0 8 -8 8h-68q-9 0 -9 -7q-1 -10 1 -13q9 -9 9 -13.5t-13 -13.5
l-65 -42q0 36 0.5 97.5t0.5 68.5q0 41 -10.5 50t-39.5 3q-41 -8 -68 -24q-12 -7 0 -21q2 -1 11.5 -5t15 -11.5t5.5 -20.5v-221q0 -12 -17 -29.5t-18 -19.5v-10q0 -8 8 -8h138q7 0 7 8v4q0 6 -16.5 23.5t-16.5 30.5v58l11 7l43 -84q25 -48 64 -48q26 0 45 13.5t21 26.5z
M662 98q0 3 -1.5 4.5t-3.5 0.5q-8 -2 -16.5 3t-17 18t-13.5 21t-12 25l-8 18q-18 33 -56 31q34 21 42 27q12 8 23 14.5t16.5 9t9.5 5.5t5.5 5t1.5 6v5q0 8 -7 8h-70q-8 0 -8 -7q-2 -10 1 -13q9 -9 9 -12.5t-12 -14.5l-65 -42v166q0 41 -10.5 50t-39.5 3q-41 -8 -67 -24
q-5 -3 -5 -9.5t4 -11.5q2 -1 11.5 -5t15 -11.5t5.5 -20.5v-221q1 -12 -16 -29.5t-18 -19.5v-10q0 -8 8 -8h137q8 0 8 8v4q0 6 -16.5 23.5t-16.5 30.5v58l11 7l43 -84q25 -48 64 -48q25 0 44 13.5t20 26.5z" />
    <glyph glyph-name="Zcaron" unicode="&#x17d;" horiz-adv-x="713" 
d="M20 490h703v-490h-703v490zM366 98q0 5 -7 5q-6 -2 -12 0.5t-11.5 9t-10.5 13.5t-10.5 17t-8.5 16.5t-7.5 16t-5.5 12.5q-18 33 -56 31q9 6 24 15.5t18 11.5q12 8 23 14.5t16.5 9t9.5 5.5t5.5 5t1.5 6v5q0 8 -8 8h-68q-9 0 -9 -7q-1 -10 1 -13q9 -9 9 -13.5t-13 -13.5
l-65 -42q0 36 0.5 97.5t0.5 68.5q0 41 -10.5 50t-39.5 3q-41 -8 -68 -24q-12 -7 0 -21q2 -1 11.5 -5t15 -11.5t5.5 -20.5v-221q0 -12 -17 -29.5t-18 -19.5v-10q0 -8 8 -8h138q7 0 7 8v4q0 6 -16.5 23.5t-16.5 30.5v58l11 7l43 -84q25 -48 64 -48q26 0 45 13.5t21 26.5z
M682 98q0 5 -5 5q-8 -2 -16.5 3t-17 18t-13.5 21t-12 25l-8 18q-18 33 -56 31q34 21 42 27q12 8 23 14.5t16.5 9t9.5 5.5t5.5 5t1.5 6v5q0 8 -7 8h-70q-8 0 -8 -7q-2 -10 1 -13q9 -9 9 -12.5t-12 -14.5l-65 -42v166q0 41 -10.5 50t-39.5 3q-41 -8 -67 -24q-5 -3 -5 -9.5
t4 -11.5q2 -1 11.5 -5t15 -11.5t5.5 -20.5v-221q1 -12 -16 -29.5t-18 -19.5v-10q0 -8 8 -8h137q8 0 8 8v4q0 6 -16.5 23.5t-16.5 30.5v58l11 7l43 -84q25 -48 64 -48q25 0 44 13.5t20 26.5z" />
    <glyph glyph-name="zcaron" unicode="&#x17e;" horiz-adv-x="731" 
d="M3 490h703v-490h-703v490zM349 98q0 5 -7 5q-6 -2 -12 0.5t-11.5 9t-10.5 13.5t-10.5 17t-8.5 16.5t-7.5 16t-5.5 12.5q-18 33 -56 31q9 6 24 15.5t18 11.5q12 8 23 14.5t16.5 9t9.5 5.5t5.5 5t1.5 6v5q0 8 -8 8h-68q-9 0 -9 -7q-1 -10 1 -13q8 -9 8 -13.5t-12 -13.5
l-65 -42q0 36 0.5 97.5t0.5 68.5q0 41 -10.5 50t-39.5 3q-41 -8 -68 -24q-12 -7 0 -21q2 -1 11.5 -5t15 -11.5t5.5 -20.5v-221q0 -12 -17 -29.5t-18 -19.5v-10q0 -8 8 -8h138q7 0 7 8v4q0 6 -16.5 23.5t-16.5 30.5v58l11 7l43 -84q25 -48 64 -48q26 0 45 13.5t21 26.5z
M665 98q0 5 -5 5q-8 -2 -16.5 3t-17 18t-13.5 21t-13 25l-7 18q-18 33 -56 31q34 21 42 27q12 8 23 14.5t16.5 9t9.5 5.5t5.5 5t1.5 6v5q0 8 -7 8h-70q-8 0 -8 -7q-2 -10 1 -13q9 -9 9 -12.5t-12 -14.5l-65 -42v166q0 41 -10.5 50t-39.5 3q-41 -8 -67 -24q-5 -3 -5 -9.5
t4 -11.5q2 -1 11.5 -5t15 -11.5t5.5 -20.5v-221q1 -12 -16 -29.5t-18 -19.5v-10q0 -8 8 -8h137q8 0 8 8v4q0 6 -16.5 23.5t-16.5 30.5v58l11 7l43 -84q25 -48 64 -48q25 0 44 13.5t20 26.5z" />
    <glyph glyph-name="endash" unicode="&#x2013;" 
d="M45 490h703v-490h-703v490zM391 98q0 7 -7 5q-6 -2 -12 0.5t-11.5 9t-10.5 13.5t-10.5 17t-8.5 16.5t-7.5 16t-5.5 12.5q-18 33 -56 31q9 6 24 15.5t18 11.5q12 8 23 14.5t16.5 9t9.5 5.5t5.5 5t1.5 6v5q0 8 -8 8h-68q-9 0 -9 -7q-1 -10 1 -13q8 -9 8 -13.5t-12 -13.5
l-65 -42q0 36 0.5 97.5t0.5 68.5q0 41 -10.5 50t-39.5 3q-41 -8 -68 -24q-12 -7 0 -21q2 -1 11.5 -5t15 -11.5t5.5 -20.5v-221q0 -12 -17 -29.5t-18 -19.5v-10q0 -8 8 -8h138q7 0 7 8v4q0 6 -16.5 23.5t-16.5 30.5v58l11 7l43 -84q25 -48 64 -48q26 0 45 13.5t21 26.5z
M707 98q0 3 -1.5 4.5t-3.5 0.5q-8 -2 -16.5 3t-17 18t-13.5 21t-13 25l-7 18q-18 33 -56 31q34 21 42 27q12 8 23 14.5t16.5 9t9.5 5.5t5.5 5t1.5 6v5q0 8 -7 8h-70q-8 0 -8 -7q-2 -10 1 -13q9 -9 9 -12.5t-12 -14.5l-65 -42v166q0 41 -10.5 50t-39.5 3q-41 -8 -67 -24
q-5 -3 -5 -9.5t4 -11.5q2 -1 11.5 -5t15 -11.5t5.5 -20.5v-221q1 -12 -16 -29.5t-18 -19.5v-10q0 -8 8 -8h137q8 0 8 8v4q0 6 -16.5 23.5t-16.5 30.5v58l11 7l43 -84q25 -48 64 -48q25 0 44 13.5t20 26.5z" />
    <glyph glyph-name="emdash" unicode="&#x2014;" 
d="M45 490h703v-490h-703v490zM391 98q0 7 -7 5q-6 -2 -12 0.5t-11.5 9t-10.5 13.5t-10.5 17t-8.5 16.5t-7.5 16t-5.5 12.5q-18 33 -56 31q9 6 24 15.5t18 11.5q12 8 23 14.5t16.5 9t9.5 5.5t5.5 5t1.5 6v5q0 8 -8 8h-68q-9 0 -9 -7q-1 -10 1 -13q8 -9 8 -13.5t-12 -13.5
l-65 -42q0 36 0.5 97.5t0.5 68.5q0 41 -10.5 50t-39.5 3q-41 -8 -68 -24q-12 -7 0 -21q2 -1 11.5 -5t15 -11.5t5.5 -20.5v-221q0 -12 -17 -29.5t-18 -19.5v-10q0 -8 8 -8h138q7 0 7 8v4q0 6 -16.5 23.5t-16.5 30.5v58l11 7l43 -84q25 -48 64 -48q26 0 45 13.5t21 26.5z
M707 98q0 3 -1.5 4.5t-3.5 0.5q-8 -2 -16.5 3t-17 18t-13.5 21t-13 25l-7 18q-18 33 -56 31q34 21 42 27q12 8 23 14.5t16.5 9t9.5 5.5t5.5 5t1.5 6v5q0 8 -7 8h-70q-8 0 -8 -7q-2 -10 1 -13q9 -9 9 -12.5t-12 -14.5l-65 -42v166q0 41 -10.5 50t-39.5 3q-41 -8 -67 -24
q-5 -3 -5 -9.5t4 -11.5q2 -1 11.5 -5t15 -11.5t5.5 -20.5v-221q1 -12 -16 -29.5t-18 -19.5v-10q0 -8 8 -8h137q8 0 8 8v4q0 6 -16.5 23.5t-16.5 30.5v58l11 7l43 -84q25 -48 64 -48q25 0 44 13.5t20 26.5z" />
    <glyph glyph-name="quoteleft" unicode="&#x2018;" 
d="M45 490h703v-490h-703v490zM391 98q0 7 -7 5q-6 -2 -12 0.5t-11.5 9t-10.5 13.5t-10.5 17t-8.5 16.5t-7.5 16t-5.5 12.5q-18 33 -56 31q9 6 24 15.5t18 11.5q12 8 23 14.5t16.5 9t9.5 5.5t5.5 5t1.5 6v5q0 8 -8 8h-68q-9 0 -9 -7q-1 -10 1 -13q8 -9 8 -13.5t-12 -13.5
l-65 -42q0 36 0.5 97.5t0.5 68.5q0 41 -10.5 50t-39.5 3q-41 -8 -68 -24q-12 -7 0 -21q2 -1 11.5 -5t15 -11.5t5.5 -20.5v-221q0 -12 -17 -29.5t-18 -19.5v-10q0 -8 8 -8h138q7 0 7 8v4q0 6 -16.5 23.5t-16.5 30.5v58l11 7l43 -84q25 -48 64 -48q26 0 45 13.5t21 26.5z
M707 98q0 3 -1.5 4.5t-3.5 0.5q-8 -2 -16.5 3t-17 18t-13.5 21t-13 25l-7 18q-18 33 -56 31q34 21 42 27q12 8 23 14.5t16.5 9t9.5 5.5t5.5 5t1.5 6v5q0 8 -7 8h-70q-8 0 -8 -7q-2 -10 1 -13q9 -9 9 -12.5t-12 -14.5l-65 -42v166q0 41 -10.5 50t-39.5 3q-41 -8 -67 -24
q-5 -3 -5 -9.5t4 -11.5q2 -1 11.5 -5t15 -11.5t5.5 -20.5v-221q1 -12 -16 -29.5t-18 -19.5v-10q0 -8 8 -8h137q8 0 8 8v4q0 6 -16.5 23.5t-16.5 30.5v58l11 7l43 -84q25 -48 64 -48q25 0 44 13.5t20 26.5z" />
    <glyph glyph-name="quoteright" unicode="&#x2019;" 
d="M45 490h703v-490h-703v490zM391 98q0 7 -7 5q-6 -2 -12 0.5t-11.5 9t-10.5 13.5t-10.5 17t-8.5 16.5t-7.5 16t-5.5 12.5q-18 33 -56 31q9 6 24 15.5t18 11.5q12 8 23 14.5t16.5 9t9.5 5.5t5.5 5t1.5 6v5q0 8 -8 8h-68q-9 0 -9 -7q-1 -10 1 -13q8 -9 8 -13.5t-12 -13.5
l-65 -42q0 36 0.5 97.5t0.5 68.5q0 41 -10.5 50t-39.5 3q-41 -8 -68 -24q-12 -7 0 -21q2 -1 11.5 -5t15 -11.5t5.5 -20.5v-221q0 -12 -17 -29.5t-18 -19.5v-10q0 -8 8 -8h138q7 0 7 8v4q0 6 -16.5 23.5t-16.5 30.5v58l11 7l43 -84q25 -48 64 -48q26 0 45 13.5t21 26.5z
M707 98q0 3 -1.5 4.5t-3.5 0.5q-8 -2 -16.5 3t-17 18t-13.5 21t-13 25l-7 18q-18 33 -56 31q34 21 42 27q12 8 23 14.5t16.5 9t9.5 5.5t5.5 5t1.5 6v5q0 8 -7 8h-70q-8 0 -8 -7q-2 -10 1 -13q9 -9 9 -12.5t-12 -14.5l-65 -42v166q0 41 -10.5 50t-39.5 3q-41 -8 -67 -24
q-5 -3 -5 -9.5t4 -11.5q2 -1 11.5 -5t15 -11.5t5.5 -20.5v-221q1 -12 -16 -29.5t-18 -19.5v-10q0 -8 8 -8h137q8 0 8 8v4q0 6 -16.5 23.5t-16.5 30.5v58l11 7l43 -84q25 -48 64 -48q25 0 44 13.5t20 26.5z" />
    <glyph glyph-name="quotesinglbase" unicode="&#x201a;" horiz-adv-x="485" 
d="M30 490h703v-490h-703v490zM376 98q0 7 -7 5q-6 -2 -12 0.5t-11.5 9t-10.5 13.5t-10.5 17t-8.5 16.5t-7.5 16t-5.5 12.5q-18 33 -56 31q9 6 24 15.5t18 11.5q12 8 23 14.5t16.5 9t9.5 5.5t5.5 5t1.5 6v5q0 8 -8 8h-68q-9 0 -9 -7q-1 -10 1 -13q9 -9 9 -13.5t-13 -13.5
l-65 -42q0 36 0.5 97.5t0.5 68.5q0 41 -10.5 50t-39.5 3q-41 -8 -68 -24q-12 -7 0 -21q2 -1 11.5 -5t15 -11.5t5.5 -20.5v-221q0 -12 -17 -29.5t-18 -19.5v-10q0 -8 8 -8h138q7 0 7 8v4q0 6 -16.5 23.5t-16.5 30.5v58l11 7l43 -84q25 -48 64 -48q26 0 45 13.5t21 26.5z
M692 98q0 3 -1.5 4.5t-3.5 0.5q-8 -2 -16.5 3t-17 18t-13.5 21t-12 25l-8 18q-18 33 -56 31q34 21 42 27q12 8 23 14.5t16.5 9t9.5 5.5t5.5 5t1.5 6v5q0 8 -7 8h-70q-8 0 -8 -7q-2 -10 1 -13q9 -9 9 -12.5t-12 -14.5l-65 -42v166q0 41 -10.5 50t-39.5 3q-41 -8 -67 -24
q-5 -3 -5 -9.5t4 -11.5q2 -1 11.5 -5t15 -11.5t5.5 -20.5v-221q1 -12 -16 -29.5t-18 -19.5v-10q0 -8 8 -8h137q8 0 8 8v4q0 6 -16.5 23.5t-16.5 30.5v58l11 7l43 -84q25 -48 64 -48q25 0 44 13.5t20 26.5z" />
    <glyph glyph-name="quotedblleft" unicode="&#x201c;" 
d="M45 490h703v-490h-703v490zM391 98q0 7 -7 5q-6 -2 -12 0.5t-11.5 9t-10.5 13.5t-10.5 17t-8.5 16.5t-7.5 16t-5.5 12.5q-18 33 -56 31q9 6 24 15.5t18 11.5q12 8 23 14.5t16.5 9t9.5 5.5t5.5 5t1.5 6v5q0 8 -8 8h-68q-9 0 -9 -7q-1 -10 1 -13q8 -9 8 -13.5t-12 -13.5
l-65 -42q0 36 0.5 97.5t0.5 68.5q0 41 -10.5 50t-39.5 3q-41 -8 -68 -24q-12 -7 0 -21q2 -1 11.5 -5t15 -11.5t5.5 -20.5v-221q0 -12 -17 -29.5t-18 -19.5v-10q0 -8 8 -8h138q7 0 7 8v4q0 6 -16.5 23.5t-16.5 30.5v58l11 7l43 -84q25 -48 64 -48q26 0 45 13.5t21 26.5z
M707 98q0 3 -1.5 4.5t-3.5 0.5q-8 -2 -16.5 3t-17 18t-13.5 21t-13 25l-7 18q-18 33 -56 31q34 21 42 27q12 8 23 14.5t16.5 9t9.5 5.5t5.5 5t1.5 6v5q0 8 -7 8h-70q-8 0 -8 -7q-2 -10 1 -13q9 -9 9 -12.5t-12 -14.5l-65 -42v166q0 41 -10.5 50t-39.5 3q-41 -8 -67 -24
q-5 -3 -5 -9.5t4 -11.5q2 -1 11.5 -5t15 -11.5t5.5 -20.5v-221q1 -12 -16 -29.5t-18 -19.5v-10q0 -8 8 -8h137q8 0 8 8v4q0 6 -16.5 23.5t-16.5 30.5v58l11 7l43 -84q25 -48 64 -48q25 0 44 13.5t20 26.5z" />
    <glyph glyph-name="quotedblright" unicode="&#x201d;" 
d="M45 490h703v-490h-703v490zM391 98q0 7 -7 5q-6 -2 -12 0.5t-11.5 9t-10.5 13.5t-10.5 17t-8.5 16.5t-7.5 16t-5.5 12.5q-18 33 -56 31q9 6 24 15.5t18 11.5q12 8 23 14.5t16.5 9t9.5 5.5t5.5 5t1.5 6v5q0 8 -8 8h-68q-9 0 -9 -7q-1 -10 1 -13q8 -9 8 -13.5t-12 -13.5
l-65 -42q0 36 0.5 97.5t0.5 68.5q0 41 -10.5 50t-39.5 3q-41 -8 -68 -24q-12 -7 0 -21q2 -1 11.5 -5t15 -11.5t5.5 -20.5v-221q0 -12 -17 -29.5t-18 -19.5v-10q0 -8 8 -8h138q7 0 7 8v4q0 6 -16.5 23.5t-16.5 30.5v58l11 7l43 -84q25 -48 64 -48q26 0 45 13.5t21 26.5z
M707 98q0 3 -1.5 4.5t-3.5 0.5q-8 -2 -16.5 3t-17 18t-13.5 21t-13 25l-7 18q-18 33 -56 31q34 21 42 27q12 8 23 14.5t16.5 9t9.5 5.5t5.5 5t1.5 6v5q0 8 -7 8h-70q-8 0 -8 -7q-2 -10 1 -13q9 -9 9 -12.5t-12 -14.5l-65 -42v166q0 41 -10.5 50t-39.5 3q-41 -8 -67 -24
q-5 -3 -5 -9.5t4 -11.5q2 -1 11.5 -5t15 -11.5t5.5 -20.5v-221q1 -12 -16 -29.5t-18 -19.5v-10q0 -8 8 -8h137q8 0 8 8v4q0 6 -16.5 23.5t-16.5 30.5v58l11 7l43 -84q25 -48 64 -48q25 0 44 13.5t20 26.5z" />
    <glyph glyph-name="quotedblbase" unicode="&#x201e;" horiz-adv-x="485" 
d="M30 490h703v-490h-703v490zM376 98q0 7 -7 5q-6 -2 -12 0.5t-11.5 9t-10.5 13.5t-10.5 17t-8.5 16.5t-7.5 16t-5.5 12.5q-18 33 -56 31q9 6 24 15.5t18 11.5q12 8 23 14.5t16.5 9t9.5 5.5t5.5 5t1.5 6v5q0 8 -8 8h-68q-9 0 -9 -7q-1 -10 1 -13q9 -9 9 -13.5t-13 -13.5
l-65 -42q0 36 0.5 97.5t0.5 68.5q0 41 -10.5 50t-39.5 3q-41 -8 -68 -24q-12 -7 0 -21q2 -1 11.5 -5t15 -11.5t5.5 -20.5v-221q0 -12 -17 -29.5t-18 -19.5v-10q0 -8 8 -8h138q7 0 7 8v4q0 6 -16.5 23.5t-16.5 30.5v58l11 7l43 -84q25 -48 64 -48q26 0 45 13.5t21 26.5z
M692 98q0 3 -1.5 4.5t-3.5 0.5q-8 -2 -16.5 3t-17 18t-13.5 21t-12 25l-8 18q-18 33 -56 31q34 21 42 27q12 8 23 14.5t16.5 9t9.5 5.5t5.5 5t1.5 6v5q0 8 -7 8h-70q-8 0 -8 -7q-2 -10 1 -13q9 -9 9 -12.5t-12 -14.5l-65 -42v166q0 41 -10.5 50t-39.5 3q-41 -8 -67 -24
q-5 -3 -5 -9.5t4 -11.5q2 -1 11.5 -5t15 -11.5t5.5 -20.5v-221q1 -12 -16 -29.5t-18 -19.5v-10q0 -8 8 -8h137q8 0 8 8v4q0 6 -16.5 23.5t-16.5 30.5v58l11 7l43 -84q25 -48 64 -48q25 0 44 13.5t20 26.5z" />
    <glyph glyph-name="dagger" unicode="&#x2020;" horiz-adv-x="505" 
d="M50 490h703v-490h-703v490zM396 98q0 5 -7 5q-6 -2 -12 0.5t-11.5 9t-10.5 13.5t-10.5 17t-8.5 16.5t-7.5 16t-5.5 12.5q-18 33 -56 31q9 6 24 15.5t18 11.5q12 8 23 14.5t16.5 9t9.5 5.5t5.5 5t1.5 6v5q0 8 -8 8h-68q-9 0 -9 -7q-1 -10 1 -13q9 -9 9 -13.5t-13 -13.5
l-65 -42q0 36 0.5 97.5t0.5 68.5q0 41 -10.5 50t-39.5 3q-41 -8 -68 -24q-12 -7 0 -21q2 -1 11.5 -5t15 -11.5t5.5 -20.5v-221q0 -12 -17 -29.5t-18 -19.5v-10q0 -8 8 -8h138q7 0 7 8v4q0 6 -16.5 23.5t-16.5 30.5v58l11 7l43 -84q25 -48 64 -48q26 0 45 13.5t21 26.5z
M712 98q0 5 -5 5q-8 -2 -16.5 3t-17 18t-13.5 21t-12 25l-8 18q-18 33 -56 31q34 21 42 27q12 8 23 14.5t16.5 9t9.5 5.5t5.5 5t1.5 6v5q0 8 -7 8h-70q-8 0 -8 -7q-2 -10 1 -13q9 -9 9 -12.5t-12 -14.5l-65 -42v166q0 41 -10.5 50t-39.5 3q-41 -8 -67 -24q-5 -3 -5 -9.5
t4 -11.5q2 -1 11.5 -5t15 -11.5t5.5 -20.5v-221q1 -12 -16 -29.5t-18 -19.5v-10q0 -8 8 -8h137q8 0 8 8v4q0 6 -16.5 23.5t-16.5 30.5v58l11 7l43 -84q25 -48 64 -48q25 0 44 13.5t20 26.5z" />
    <glyph glyph-name="bullet" unicode="&#x2022;" horiz-adv-x="505" 
d="M50 490h703v-490h-703v490zM396 98q0 7 -7 5q-6 -2 -12 0.5t-11.5 9t-10.5 13.5t-10.5 17t-8.5 16.5t-7.5 16t-5.5 12.5q-18 33 -56 31q9 6 24 15.5t18 11.5q12 8 23 14.5t16.5 9t9.5 5.5t5.5 5t1.5 6v5q0 8 -8 8h-68q-9 0 -9 -7q-1 -10 1 -13q9 -9 9 -13.5t-13 -13.5
l-65 -42q0 36 0.5 97.5t0.5 68.5q0 41 -10.5 50t-39.5 3q-41 -8 -68 -24q-12 -7 0 -21q2 -1 11.5 -5t15 -11.5t5.5 -20.5v-221q0 -12 -17 -29.5t-18 -19.5v-10q0 -8 8 -8h138q7 0 7 8v4q0 6 -16.5 23.5t-16.5 30.5v58l11 7l43 -84q25 -48 64 -48q26 0 45 13.5t21 26.5z
M712 98q0 3 -1.5 4.5t-3.5 0.5q-8 -2 -16.5 3t-17 18t-13.5 21t-12 25l-8 18q-18 33 -56 31q34 21 42 27q12 8 23 14.5t16.5 9t9.5 5.5t5.5 5t1.5 6v5q0 8 -7 8h-70q-8 0 -8 -7q-2 -10 1 -13q9 -9 9 -12.5t-12 -14.5l-65 -42v166q0 41 -10.5 50t-39.5 3q-41 -8 -67 -24
q-5 -3 -5 -9.5t4 -11.5q2 -1 11.5 -5t15 -11.5t5.5 -20.5v-221q1 -12 -16 -29.5t-18 -19.5v-10q0 -8 8 -8h137q8 0 8 8v4q0 6 -16.5 23.5t-16.5 30.5v58l11 7l43 -84q25 -48 64 -48q25 0 44 13.5t20 26.5z" />
    <glyph glyph-name="ellipsis" unicode="&#x2026;" horiz-adv-x="535" 
d="M65 490h703v-490h-703v490zM411 98q0 7 -7 5q-6 -2 -12 0.5t-11.5 9t-10.5 13.5t-10.5 17t-8.5 16.5t-7.5 16t-5.5 12.5q-18 33 -56 31q9 6 24 15.5t18 11.5q12 8 23 14.5t16.5 9t9.5 5.5t5.5 5t1.5 6v5q0 8 -8 8h-68q-9 0 -9 -7q-1 -10 1 -13q8 -9 8 -13.5t-12 -13.5
l-65 -42q0 36 0.5 97.5t0.5 68.5q0 41 -10.5 50t-39.5 3q-41 -8 -68 -24q-12 -7 0 -21q2 -1 11.5 -5t15 -11.5t5.5 -20.5v-221q0 -12 -17 -29.5t-18 -19.5v-10q0 -8 8 -8h138q7 0 7 8v4q0 6 -16.5 23.5t-16.5 30.5v58l11 7l43 -84q25 -48 64 -48q26 0 45 13.5t21 26.5z
M727 98q0 3 -1.5 4.5t-3.5 0.5q-8 -2 -16.5 3t-17 18t-13.5 21t-13 25l-7 18q-18 33 -56 31q34 21 42 27q12 8 23 14.5t16.5 9t9.5 5.5t5.5 5t1.5 6v5q0 8 -7 8h-70q-8 0 -8 -7q-2 -10 1 -13q9 -9 9 -12.5t-12 -14.5l-65 -42v166q0 41 -10.5 50t-39.5 3q-41 -8 -67 -24
q-5 -3 -5 -9.5t4 -11.5q2 -1 11.5 -5t15 -11.5t5.5 -20.5v-221q1 -12 -16 -29.5t-18 -19.5v-10q0 -8 8 -8h137q8 0 8 8v4q0 6 -16.5 23.5t-16.5 30.5v58l11 7l43 -84q25 -48 64 -48q25 0 44 13.5t20 26.5z" />
    <glyph glyph-name="guilsinglleft" unicode="&#x2039;" horiz-adv-x="505" 
d="M50 490h703v-490h-703v490zM396 98q0 7 -7 5q-6 -2 -12 0.5t-11.5 9t-10.5 13.5t-10.5 17t-8.5 16.5t-7.5 16t-5.5 12.5q-18 33 -56 31q9 6 24 15.5t18 11.5q12 8 23 14.5t16.5 9t9.5 5.5t5.5 5t1.5 6v5q0 8 -8 8h-68q-9 0 -9 -7q-1 -10 1 -13q9 -9 9 -13.5t-13 -13.5
l-65 -42q0 36 0.5 97.5t0.5 68.5q0 41 -10.5 50t-39.5 3q-41 -8 -68 -24q-12 -7 0 -21q2 -1 11.5 -5t15 -11.5t5.5 -20.5v-221q0 -12 -17 -29.5t-18 -19.5v-10q0 -8 8 -8h138q7 0 7 8v4q0 6 -16.5 23.5t-16.5 30.5v58l11 7l43 -84q25 -48 64 -48q26 0 45 13.5t21 26.5z
M712 98q0 3 -1.5 4.5t-3.5 0.5q-8 -2 -16.5 3t-17 18t-13.5 21t-12 25l-8 18q-18 33 -56 31q34 21 42 27q12 8 23 14.5t16.5 9t9.5 5.5t5.5 5t1.5 6v5q0 8 -7 8h-70q-8 0 -8 -7q-2 -10 1 -13q9 -9 9 -12.5t-12 -14.5l-65 -42v166q0 41 -10.5 50t-39.5 3q-41 -8 -67 -24
q-5 -3 -5 -9.5t4 -11.5q2 -1 11.5 -5t15 -11.5t5.5 -20.5v-221q1 -12 -16 -29.5t-18 -19.5v-10q0 -8 8 -8h137q8 0 8 8v4q0 6 -16.5 23.5t-16.5 30.5v58l11 7l43 -84q25 -48 64 -48q25 0 44 13.5t20 26.5z" />
    <glyph glyph-name="guilsinglright" unicode="&#x203a;" horiz-adv-x="505" 
d="M50 490h703v-490h-703v490zM396 98q0 7 -7 5q-6 -2 -12 0.5t-11.5 9t-10.5 13.5t-10.5 17t-8.5 16.5t-7.5 16t-5.5 12.5q-18 33 -56 31q9 6 24 15.5t18 11.5q12 8 23 14.5t16.5 9t9.5 5.5t5.5 5t1.5 6v5q0 8 -8 8h-68q-9 0 -9 -7q-1 -10 1 -13q9 -9 9 -13.5t-13 -13.5
l-65 -42q0 36 0.5 97.5t0.5 68.5q0 41 -10.5 50t-39.5 3q-41 -8 -68 -24q-12 -7 0 -21q2 -1 11.5 -5t15 -11.5t5.5 -20.5v-221q0 -12 -17 -29.5t-18 -19.5v-10q0 -8 8 -8h138q7 0 7 8v4q0 6 -16.5 23.5t-16.5 30.5v58l11 7l43 -84q25 -48 64 -48q26 0 45 13.5t21 26.5z
M712 98q0 3 -1.5 4.5t-3.5 0.5q-8 -2 -16.5 3t-17 18t-13.5 21t-12 25l-8 18q-18 33 -56 31q34 21 42 27q12 8 23 14.5t16.5 9t9.5 5.5t5.5 5t1.5 6v5q0 8 -7 8h-70q-8 0 -8 -7q-2 -10 1 -13q9 -9 9 -12.5t-12 -14.5l-65 -42v166q0 41 -10.5 50t-39.5 3q-41 -8 -67 -24
q-5 -3 -5 -9.5t4 -11.5q2 -1 11.5 -5t15 -11.5t5.5 -20.5v-221q1 -12 -16 -29.5t-18 -19.5v-10q0 -8 8 -8h137q8 0 8 8v4q0 6 -16.5 23.5t-16.5 30.5v58l11 7l43 -84q25 -48 64 -48q25 0 44 13.5t20 26.5z" />
    <glyph glyph-name="Euro" unicode="&#x20ac;" 
d="M45 490h703v-490h-703v490zM391 98q0 7 -7 5q-6 -2 -12 0.5t-11.5 9t-10.5 13.5t-10.5 17t-8.5 16.5t-7.5 16t-5.5 12.5q-18 33 -56 31q9 6 24 15.5t18 11.5q12 8 23 14.5t16.5 9t9.5 5.5t5.5 5t1.5 6v5q0 8 -8 8h-68q-9 0 -9 -7q-1 -10 1 -13q8 -9 8 -13.5t-12 -13.5
l-65 -42q0 36 0.5 97.5t0.5 68.5q0 41 -10.5 50t-39.5 3q-41 -8 -68 -24q-12 -7 0 -21q2 -1 11.5 -5t15 -11.5t5.5 -20.5v-221q0 -12 -17 -29.5t-18 -19.5v-10q0 -8 8 -8h138q7 0 7 8v4q0 6 -16.5 23.5t-16.5 30.5v58l11 7l43 -84q25 -48 64 -48q26 0 45 13.5t21 26.5z
M707 98q0 3 -1.5 4.5t-3.5 0.5q-8 -2 -16.5 3t-17 18t-13.5 21t-13 25l-7 18q-18 33 -56 31q34 21 42 27q12 8 23 14.5t16.5 9t9.5 5.5t5.5 5t1.5 6v5q0 8 -7 8h-70q-8 0 -8 -7q-2 -10 1 -13q9 -9 9 -12.5t-12 -14.5l-65 -42v166q0 41 -10.5 50t-39.5 3q-41 -8 -67 -24
q-5 -3 -5 -9.5t4 -11.5q2 -1 11.5 -5t15 -11.5t5.5 -20.5v-221q1 -12 -16 -29.5t-18 -19.5v-10q0 -8 8 -8h137q8 0 8 8v4q0 6 -16.5 23.5t-16.5 30.5v58l11 7l43 -84q25 -48 64 -48q25 0 44 13.5t20 26.5z" />
    <glyph glyph-name="minus" unicode="&#x2212;" horiz-adv-x="505" 
d="M50 490h703v-490h-703v490zM396 98q0 5 -7 5q-6 -2 -12 0.5t-11.5 9t-10.5 13.5t-10.5 17t-8.5 16.5t-7.5 16t-5.5 12.5q-18 33 -56 31q9 6 24 15.5t18 11.5q12 8 23 14.5t16.5 9t9.5 5.5t5.5 5t1.5 6v5q0 8 -8 8h-68q-9 0 -9 -7q-1 -10 1 -13q9 -9 9 -13.5t-13 -13.5
l-65 -42q0 36 0.5 97.5t0.5 68.5q0 41 -10.5 50t-39.5 3q-41 -8 -68 -24q-12 -7 0 -21q2 -1 11.5 -5t15 -11.5t5.5 -20.5v-221q0 -12 -17 -29.5t-18 -19.5v-10q0 -8 8 -8h138q7 0 7 8v4q0 6 -16.5 23.5t-16.5 30.5v58l11 7l43 -84q25 -48 64 -48q26 0 45 13.5t21 26.5z
M712 98q0 5 -5 5q-8 -2 -16.5 3t-17 18t-13.5 21t-12 25l-8 18q-18 33 -56 31q34 21 42 27q12 8 23 14.5t16.5 9t9.5 5.5t5.5 5t1.5 6v5q0 8 -7 8h-70q-8 0 -8 -7q-2 -10 1 -13q9 -9 9 -12.5t-12 -14.5l-65 -42v166q0 41 -10.5 50t-39.5 3q-41 -8 -67 -24q-5 -3 -5 -9.5
t4 -11.5q2 -1 11.5 -5t15 -11.5t5.5 -20.5v-221q1 -12 -16 -29.5t-18 -19.5v-10q0 -8 8 -8h137q8 0 8 8v4q0 6 -16.5 23.5t-16.5 30.5v58l11 7l43 -84q25 -48 64 -48q25 0 44 13.5t20 26.5z" />
    <glyph glyph-name="uniE007" unicode="&#xe007;" horiz-adv-x="922" 
d="M31 254q0 120 66 193.5t173 73.5q142 0 195 -129q54 129 197 129q107 0 173 -74t66 -193q0 -120 -65.5 -193.5t-173.5 -73.5q-143 0 -196 129q-54 -129 -196 -129q-108 0 -173.5 73.5t-65.5 193.5zM98 254q0 -113 43 -184t129 -71t128.5 71t42.5 184t-43 184t-128 71
q-86 0 -129 -71t-43 -184zM490 254q0 -113 43 -184t129 -71t128.5 71t42.5 184t-43 184t-128 71t-128.5 -71t-43.5 -184z" />
    <glyph glyph-name="uniE008" unicode="&#xe008;" horiz-adv-x="1080" 
d="M31 287q0 106 66 170t173 64q23 0 44 -3q-39 25 -39 58q0 34 29 51t67.5 15t70.5 -18l-37 -61q-6 23 -34 38t-54 9.5t-26 -34.5q0 -11 4.5 -20.5t14.5 -17.5t17 -12.5t22 -12t20 -10.5q65 -25 102.5 -82t37.5 -134q0 -105 -65.5 -169.5t-173.5 -64.5q-55 0 -99 -30.5
t-47 -83.5q-2 -27 11.5 -48t36.5 -25q30 -6 77 15t89 51.5t92 63t81 42.5q58 19 83 -6.5t3 -83.5q-20 -46 -15 -71t44 -16q26 6 65.5 34.5t74.5 58t81 54t86 24.5q50 0 79.5 -33t29.5 -91q0 -31 -10 -64h-222v10q4 0 23 0.5t27 1t27.5 2t29 4t25.5 6.5t24.5 11t17.5 15.5
t13 21t4 27.5q0 34 -20 53.5t-54 19.5q-36 0 -84 -28t-87 -61.5t-86.5 -62t-83.5 -29.5q-50 -1 -61.5 30t8.5 91q12 38 4.5 54.5t-34.5 8.5q-32 -9 -97 -56.5t-131.5 -86.5t-116.5 -37q-48 2 -76 27.5t-28 68.5q0 50 40 83.5t108 42.5q-79 19 -125 79t-46 147zM571 287
q0 106 66 170t173 64q23 0 44 -3q-39 25 -39 58q0 34 29 51t67.5 15t70.5 -18l-37 -61q-6 23 -34 38t-54 9.5t-26 -34.5q0 -11 4 -20.5t15 -17.5t17 -12t22.5 -12t19.5 -10q65 -26 102.5 -83t37.5 -134q0 -104 -66 -169t-173 -65q-108 0 -173.5 64.5t-65.5 169.5zM98 287
q0 -99 43 -161t129 -62t128.5 62t42.5 161t-43 161t-128 62t-128.5 -62t-43.5 -161zM638 287q0 -99 43 -161t129 -62t128.5 62t42.5 161t-43 161t-128 62t-128.5 -62t-43.5 -161z" />
    <glyph glyph-name="uniE00E" unicode="&#xe00e;" horiz-adv-x="1163" 
d="M578 67q-87 -74 -213 -74q-148 0 -239 100t-91 263t91 263.5t240 100.5q130 0 219 -80q85 74 212 74q148 0 239.5 -100t91.5 -263t-91 -263t-240 -100q-132 0 -219 79zM467 351q0 171 99 272q-77 80 -199 80q-119 0 -191.5 -95.5t-72.5 -251.5t72 -250.5t190 -94.5
q117 0 195 75q-93 101 -93 265zM696 357q0 -170 -98 -271q79 -81 199 -81q118 0 190.5 95t72.5 250q0 157 -72.5 252.5t-191.5 95.5q-117 0 -194 -75q94 -100 94 -266zM506 352q-2 -149 73 -244q78 95 78 250q0 150 -73 245q-78 -93 -78 -251z" />
    <glyph glyph-name="uniE00F" unicode="&#xe00f;" horiz-adv-x="1032" 
d="M439 0h-320h-88v4l1 1q19 16 19 40v33v577q0 25 -19 41l-1 1v4l88 -1h300q8 0 13 7l2 3h4l30 -169h-10l-19 91q-5 24 -23.5 39t-43.5 15h-243q-10 0 -10 -10v-550v-101q0 -10 10 -10h263q25 0 43.5 15t23.5 39l19 91h10l-30 -169h-4l-2 3q-4 6 -13 6zM953 0h-320h-88v4
l1 1q19 16 19 40v33v291l-184 1q-25 0 -37 -15t-6 -39l22 -95l-10 -2l-68 294l10 2l18 -81q6 -24 25 -39t44 -15l186 -1v276q0 25 -19 41l-1 1v4l88 -1h300q8 0 13 7l2 3h4l30 -169h-10l-20 91q-4 24 -22.5 39t-43.5 15h-244q-9 0 -9 -10v-297l159 -1q25 0 36.5 15t6.5 39
l-19 82l9 2l69 -295l-10 -2l-22 95q-5 24 -24 39t-44 15l-161 1v-243v-101q0 -10 9 -10h264q25 0 43.5 15t23.5 39l19 91h10l-30 -169h-4l-2 3q-4 6 -13 6z" />
    <glyph glyph-name="uniE011" unicode="&#xe011;" horiz-adv-x="1230" 
d="M1241 6l3 -2v-4h-202q-63 0 -118.5 19.5t-94.5 65t-39 109.5q0 60 37 101.5t96 41.5q79 0 131 -64l-136 384q-26 -81 -41 -126t-47 -126t-59.5 -129.5t-72 -110t-91 -95t-109 -58t-133.5 -24.5q-153 0 -241.5 103.5t-88.5 259.5q0 97 35.5 178.5t109 133.5t172.5 52
q85 0 158 -40t112 -112l-258 -234l-4 4q2 2 18.5 18t25.5 25l27.5 27.5t30 31.5t28 31.5t27 32.5t20.5 29.5t15 28t5 22.5q0 54 -68 87t-128 33q-65 0 -116 -30.5t-81 -80t-45 -107.5t-15 -119q0 -90 31.5 -166.5t99 -126.5t159.5 -50q49 0 94.5 14t82 36.5t71.5 59t61 72
t52.5 86.5t44.5 91t39 97t33 93t29 90q2 7 3.5 12t3.5 10q-11 17 -30 19l-91 11v5h174l251 -671q8 -22 29 -38zM1123 81l-35 99q-58 142 -166 142q-52 0 -84 -36.5t-32 -89.5q0 -88 70.5 -133t165.5 -47h34q31 -1 44.5 17.5t2.5 47.5z" />
    <glyph glyph-name="uniE012" unicode="&#xe012;" horiz-adv-x="578" 
d="M585 9l8 -5v-4h-237v4l116 14q19 3 13 21l-49 139h-350l-51 -139q-8 -17 12 -21l127 -14v-4h-188v4l6 5q14 11 23 30l241 642q-11 16 -29 18l-92 11v5h175l252 -676q7 -19 23 -30zM91 193h339l-166 467z" />
    <glyph glyph-name="uniE013" unicode="&#xe013;" horiz-adv-x="578" 
d="M268 797l-78 161h60l33 -161h-15zM585 9l8 -5v-4h-237v4l116 14q19 3 13 21l-49 139h-350l-51 -139q-8 -17 12 -21l127 -14v-4h-188v4l6 5q14 11 23 30l241 642q-11 16 -29 18l-92 11v5h175l252 -676q7 -19 23 -30zM91 193h339l-166 467z" />
    <glyph glyph-name="uniE014" unicode="&#xe014;" horiz-adv-x="578" 
d="M258 797h-15l33 161h60zM585 9l8 -5v-4h-237v4l116 14q19 3 13 21l-49 139h-350l-51 -139q-8 -17 12 -21l127 -14v-4h-188v4l6 5q14 11 23 30l241 642q-11 16 -29 18l-92 11v5h175l252 -676q7 -19 23 -30zM91 193h339l-166 467z" />
    <glyph glyph-name="uniE015" unicode="&#xe015;" horiz-adv-x="578" 
d="M181 824l78 99h30l80 -100l-12 -9l-83 74l-81 -74zM585 9l8 -5v-4h-237v4l116 14q19 3 13 21l-49 139h-350l-51 -139q-8 -17 12 -21l127 -14v-4h-188v4l6 5q14 11 23 30l241 642q-11 16 -29 18l-92 11v5h175l252 -676q7 -19 23 -30zM91 193h339l-166 467z" />
    <glyph glyph-name="uniE016" unicode="&#xe016;" horiz-adv-x="578" 
d="M176 844q19 39 39 45t57 -21q26 -20 41 -16.5t29 34.5l12 -7q-31 -79 -90 -39q-29 22 -46 22t-32 -25zM585 9l8 -5v-4h-237v4l116 14q19 3 13 21l-49 139h-350l-51 -139q-8 -17 12 -21l127 -14v-4h-188v4l6 5q14 11 23 30l241 642q-11 16 -29 18l-92 11v5h175l252 -676
q7 -19 23 -30zM91 193h339l-166 467z" />
    <glyph glyph-name="uniE017" unicode="&#xe017;" horiz-adv-x="578" 
d="M198 869q0 13 8 21.5t22 8.5t22 -8.5t8 -21.5t-8 -21.5t-22 -8.5t-22 8.5t-8 21.5zM300 869q0 13 8 21.5t22 8.5t22 -8.5t8 -21.5t-8 -21.5t-22 -8.5t-22 8.5t-8 21.5zM585 9l8 -5v-4h-237v4l116 14q19 3 13 21l-49 139h-350l-51 -139q-8 -17 12 -21l127 -14v-4h-188v4
l6 5q14 11 23 30l241 642q-11 16 -29 18l-92 11v5h175l252 -676q7 -19 23 -30zM91 193h339l-166 467z" />
    <glyph glyph-name="uniE018" unicode="&#xe018;" horiz-adv-x="578" 
d="M585 9l8 -5v-4h-237v4l116 14q19 3 13 21l-49 139h-350l-51 -139q-8 -17 12 -21l127 -14v-4h-188v4l6 5q14 11 23 30l241 642q-11 16 -29 18l-92 11v5h128q-20 5 -33.5 22t-13.5 39q0 26 19 44.5t45 18.5t44.5 -18.5t18.5 -44.5q0 -22 -13.5 -39t-33.5 -22h14l252 -676
q7 -19 23 -30zM235 776q0 -19 13 -32t32 -13t31.5 13t12.5 32t-12.5 32t-31.5 13t-32 -13t-13 -32zM91 193h339l-166 467z" />
    <glyph glyph-name="uniE019" unicode="&#xe019;" horiz-adv-x="941" 
d="M591 15h224q25 0 43 15t23 39l20 91h10l-30 -169h-4l-3 3q-3 6 -12 6h-269h-237v4l116 14q19 3 13 21l-117 330h-212l-121 -330q-8 -17 12 -21l127 -14v-4h-188v4l6 5q14 11 23 30l241 642q-11 16 -29 18l-92 11v5h162h525q8 0 12 7l3 3h4l30 -169h-10l-20 91
q-5 24 -23 39t-43 15h-460l120 -322l265 -1q25 0 37 15t6 39l-19 82l10 2l69 -295l-10 -2l-22 95q-6 24 -25 39t-44 15l-263 1l125 -335q7 -19 27 -19zM160 379h204l-100 281z" />
    <glyph glyph-name="uniE01A" unicode="&#xe01a;" horiz-adv-x="573" 
d="M143 17l95 -13v-4h-208v4l1 1q19 14 19 40v610q0 25 -19 41h-1v4h208v-4l-95 -13q-25 -3 -25 -28v-260h337v260q0 25 -25 28l-95 13v4h208v-4h-1q-19 -16 -19 -41v-610q0 -26 19 -40l1 -1v-4h-208v4l95 13q25 3 25 28v335h-337v-335q0 -25 25 -28z" />
    <glyph glyph-name="uniE01B" unicode="&#xe01b;" horiz-adv-x="552" 
d="M143 17l96 -13v-4h-208v4l1 1q19 16 19 40v610q0 24 -19 41h-1v4h208v-4l-96 -13q-24 -3 -24 -28v-337l57 60h1h-1v0l276 287q14 14 -6 17l-126 14v4h188v-4l-6 -5q-18 -14 -30 -26l-271 -280q72 22 89 -13q9 -16 31 -66.5t50.5 -116.5t43.5 -98q18 -41 46.5 -62.5
t50.5 -21.5q23 0 31.5 30.5t-1.5 81.5l10 3l19 -101q-29 -34 -83 -34q-62 0 -96 31.5t-73 122.5q-6 13 -21 48.5t-26 59.5t-25.5 53.5t-29 48t-26.5 24.5l-72 -74v-256q0 -25 24 -28z" />
    <glyph glyph-name="uniE01C" unicode="&#xe01c;" horiz-adv-x="531" 
d="M456 509v-436q0 -69 28 -69q22 0 32.5 39.5t1.5 83.5l14 2q3 -17 3 -38.5t-4.5 -47t-22 -41.5t-45.5 -15q-71 3 -71 86v286q-4 72 -38 111t-91 39q-83 0 -124.5 -71t-41.5 -184t41.5 -184t124.5 -71q54 0 91 31l7 -11q-43 -32 -98 -32q-104 0 -168 74t-64 193
q0 120 64 194t168 73q37 0 69 -12.5t47 -23t34.5 -7t42.5 30.5z" />
    <glyph glyph-name="uniE01D" unicode="&#xe01d;" horiz-adv-x="513" 
d="M32 318q0 91 62 147t163 56q43 0 76 -10q-34 25 -34 56q0 33 27.5 48.5t62.5 15.5q40 0 71 -16l-36 -61q-12 31 -53 45q-43 14 -56 -13q-4 -8 -4 -19q0 -15 9 -28t18.5 -20t27.5 -17.5t24 -14.5q92 -56 92 -169q0 -85 -53.5 -140t-143.5 -63q-62 -10 -67 -26
q-3 -11 14.5 -18.5t47 -12t64 -11.5t64.5 -16t50.5 -27t20.5 -43q0 -51 -58 -84.5t-146 -33.5q-71 0 -134 24t-98 64l69 94l7 -6q-23 -30 -23 -59q0 -48 49 -76t133 -28q67 0 113.5 22.5t46.5 53.5q0 24 -46 38t-100.5 19.5t-99 23t-42.5 48.5q3 33 75 55q-88 9 -140.5 63.5
t-52.5 138.5zM99 318q0 -86 39.5 -138.5t118.5 -52.5h16q5 1 13 3l8 1v-1q61 12 91 62.5t30 125.5q0 85 -39.5 137.5t-118.5 52.5q-78 0 -118 -52.5t-40 -137.5z" />
    <glyph glyph-name="uniE01E" unicode="&#xe01e;" horiz-adv-x="502" 
d="M456 509v-505q0 -72 -50 -116t-131 -43q-69 0 -119.5 29t-73.5 82l79 80q-61 29 -95 89.5t-34 142.5q0 114 63.5 184t167.5 69q37 0 69 -12t47 -22t34.5 -6.5t42.5 29.5v-1zM354 58l8 -13q-44 -31 -99 -31q-50 0 -92 18q-35 -42 -37 -86q0 -35 40 -60t97 -26q55 0 88 35
t33 93v379q-5 69 -38 106t-91 37q-83 0 -124.5 -67.5t-41.5 -174.5t42 -173t124 -66q56 0 91 29z" />
    <glyph glyph-name="uniE01F" unicode="&#xe01f;" horiz-adv-x="527" 
d="M37 509h-1v4h174v-4l-66 -12q-11 -2 -17.5 -10t-6.5 -19v-38v-238q-1 -73 15.5 -106.5t51.5 -32.5q46 2 96.5 74t81.5 158t33 139v44q0 11 -7 19.5t-18 9.5l-65 12v4h174v-4h-1q-19 -16 -19 -41v-464q0 -72 -50.5 -116t-131.5 -43q-69 0 -119 29t-73 82l79 81
q-111 3 -111 143v250v38q0 24 -19 41zM181 37q-41 -45 -41 -91q-1 -35 39 -60t98 -26q54 0 87.5 35t33.5 93v362q-17 -67 -47 -134t-76.5 -121.5t-93.5 -57.5z" />
    <glyph glyph-name="uniE020" unicode="&#xe020;" horiz-adv-x="235" 
d="M49 692v12q45 0 63 20.5t18 83.5h12q0 -64 17.5 -84t62.5 -20v-12q-45 0 -62.5 -20.5t-17.5 -84.5h-12q0 64 -18 84.5t-63 20.5zM229 513v-4l-80 -17v-471l80 -17v-4h-164v4l20 17v492h144z" />
    <glyph glyph-name="ampersand.01" 
d="M45 490h703v-490h-703v490zM391 98q0 5 -7 5q-6 -2 -12 0.5t-11.5 9t-10.5 13.5t-10.5 17t-8.5 16.5t-7.5 16t-5.5 12.5q-18 33 -56 31q9 6 24 15.5t18 11.5q12 8 23 14.5t16.5 9t9.5 5.5t5.5 5t1.5 6v5q0 8 -8 8h-68q-9 0 -9 -7q-1 -10 1 -13q8 -9 8 -13.5t-12 -13.5
l-65 -42q0 36 0.5 97.5t0.5 68.5q0 41 -10.5 50t-39.5 3q-41 -8 -68 -24q-12 -7 0 -21q2 -1 11.5 -5t15 -11.5t5.5 -20.5v-221q0 -12 -17 -29.5t-18 -19.5v-10q0 -8 8 -8h138q7 0 7 8v4q0 6 -16.5 23.5t-16.5 30.5v58l11 7l43 -84q25 -48 64 -48q26 0 45 13.5t21 26.5z
M707 98q0 5 -5 5q-8 -2 -16.5 3t-17 18t-13.5 21t-13 25l-7 18q-18 33 -56 31q34 21 42 27q12 8 23 14.5t16.5 9t9.5 5.5t5.5 5t1.5 6v5q0 8 -7 8h-70q-8 0 -8 -7q-2 -10 1 -13q9 -9 9 -12.5t-12 -14.5l-65 -42v166q0 41 -10.5 50t-39.5 3q-41 -8 -67 -24q-5 -3 -5 -9.5
t4 -11.5q2 -1 11.5 -5t15 -11.5t5.5 -20.5v-221q1 -12 -16 -29.5t-18 -19.5v-10q0 -8 8 -8h137q8 0 8 8v4q0 6 -16.5 23.5t-16.5 30.5v58l11 7l43 -84q25 -48 64 -48q25 0 44 13.5t20 26.5z" />
    </font>
</defs>
</svg>
